<svg xmlns="http://www.w3.org/2000/svg" xmlns:svg="http://www.w3.org/2000/svg" xmlns:xlink="http://www.w3.org/1999/xlink" id="FB_Square" width="640" height="640" x="0" y="0" enable-background="new 0 0 640 640" version="1.1" viewBox="0 0 640 640" xml:space="preserve"><path id="Background" fill="#3C599B" d="M523.438,600H116.563C74.28,600,40,565.729,40,523.438V116.563	C40,74.28,74.28,40,116.563,40h406.875C565.729,40,600,74.28,600,116.563v406.875C600,565.729,565.729,600,523.438,600z"/><path fill="#355388" d="M600,116.563c0-22.277-9.521-42.326-24.708-56.317L60.24,575.286C74.231,590.477,94.282,600,116.563,600	h406.875C565.729,600,600,565.729,600,523.438V116.563z"/><path fill="#2E4E73" d="M600,523.438V369.023c-0.148-6.492-0.241-12.933-0.25-19.273L395.777,149.741l-104.71,100.507l6.271,6.27	l-60.696,63.635l49.825,45.216l-6.442,6.443l53.045,53.035l-61.155,61.165L383.25,600h140.188C565.729,600,600,565.729,600,523.438z"/><path id="f_1_" fill="#FFF" d="M271.031,215.787v46.949h-34.39v57.417h34.39v170.591h70.654V320.152h47.418	c0,0,4.448-27.534,6.598-57.618h-53.745c0,0,0-33.412,0-39.259c0-5.868,7.708-13.758,15.319-13.758h38.502v-59.775h-52.346	C269.286,149.741,271.031,207.207,271.031,215.787L271.031,215.787z"/></svg>