<?xml version="1.0" encoding="utf-8"?>
<!-- Generator: Adobe Illustrator 16.0.0, SVG Export Plug-In . SVG Version: 6.00 Build 0)  -->
<!DOCTYPE svg PUBLIC "-//W3C//DTD SVG 1.1//EN" "http://www.w3.org/Graphics/SVG/1.1/DTD/svg11.dtd">
<svg version="1.1" id="Layer_1" xmlns="http://www.w3.org/2000/svg" xmlns:xlink="http://www.w3.org/1999/xlink" x="0px" y="0px"
	 width="681px" height="681px" viewBox="0 0 681 681" enable-background="new 0 0 681 681" xml:space="preserve">
<g id="BD-Head-Right">
	<rect x="0.5" y="0.5" display="none" fill="#663333" stroke="#000000" stroke-miterlimit="10" width="680" height="680"/>
	<path id="Chin_1_" fill-rule="evenodd" clip-rule="evenodd" fill="#999999" d="M581.51563,510.14258
		c-6.69434,6.40625-12.85742,13.41016-20.88867,18.29688c-36.99414,22.46289-77.11328,32.15039-119.91895,25.79883
		c-33.88281-5.04102-66.47168-14.93164-94.45996-36.26367C331.2373,506.53223,318.5,492.83594,305.83008,479.0166
		c0,0,0.03906,0.0498,0.03906,0.0459c-3.32129-6.44434-9.27246-11.43652-11.47559-19.43262
		c22.81348,2.49316,44.7334,4.78809,66.73242,0.88867c-6.95605-1.84668-13.96777-2.79883-20.9834-3.70605
		c-14.30957-1.83887-29.19336-1.5-42.55469-7.3877c-20.74414-9.1377-29.80762-22.23535-18.99512-44.38086
		c9.2959-19.05176,21.60645-36.11523,33.5791-53.43262c0.28613-0.41504,1.02637-0.52441,2.78516-1.375
		c-5.85156,18.08301-5.66895,35.37109-2.0625,53.06836c-6.21875-0.4043-10.35742-4.92773-16.0791-4.63184
		c0.02441,2.1123,1.12793,2.7998,2.59473,3.17969l-0.03125-0.03906c2.71484,3.03223,6.45117,4.44922,9.98633,6.08203
		c47.84766,22.06543,97.49121,26.25684,148.54688,14.18262c33.16016-7.84375,65.48438-17.53906,86.60449-48.0293
		c16.56543,0.5,31.28809-5.44727,45.14648-16.50391c1.5127,14.86328-3.94434,25.96094-10.3291,36.79199l0.03516-0.03906
		c-10.14258,13.31152-23.46289,23.15137-36.50977,33.29004l0.03516-0.0459c-3.80664,2.74316-6.5957,4.28027-10.75586,6.48047
		l0.03516-0.04199c-9.77148,5.18164-19.54102,10.36328-29.30664,15.53906c31.02734-7.23047,55.90625-25.53418,81.25781-44.49414
		c5.5625,12.83203,11.84082,24.98438,13.74121,38.80762c3.34082,24.30371-2.21387,46.37695-16.38574,66.34473L581.51563,510.14258z"
		/>
	<path id="Cheek_1_" fill-rule="evenodd" clip-rule="evenodd" fill="#999999" d="M606.18945,333.16797
		c-0.38086,1.36816-0.40918,3.00195-1.20215,4.0752c-7.34277,9.98438-7.09668,21.36816-6.71191,32.95117
		c0.25977,7.80566-2.92578,14.96191-5.9375,21.84082c13.6582,27.5957,19.23145,31.04395,16.75,85.2959
		c14.27734-9.79004,26.21387-20.78516,33.67383-36.22266c5.89453-12.18457,6.77246-24.39551,2.93652-37.4082
		c-6.43262-21.84277-17.66895-41.27832-29.23535-60.58691c-2.46094-4.11523-4.875-8.25-7.15723-12.0957
		c-2.21777-0.29297-2.2666,1.43848-3.14355,2.18945L606.18945,333.16797z"/>
	<path id="Face_4_" fill-rule="evenodd" clip-rule="evenodd" fill="#999999" d="M549.29688,321.32617
		c-3.82617,3.55322-7.71387,3.3667-12.21582,0.93018c-11.08301-6.00684-23.1748-7.39941-35.13379-7.55811
		c-1.95313,2.72461,0.83203,4.20557,0.29297,6.15186c-4.73438,4.52246-18.98047,2.73926-24.88281-3.12744
		c-4.50195-4.47705-3.69141-9.72998,2.67578-16.24854c6.15234-6.30664,13.22461-11.40088,20.96973-15.56836l-0.02832,0.04297
		c7.66406-4.8335,15.3252-9.67041,24.55469-15.49414c-11.32422-0.57129-20.92383,1.12793-30.60449,1.84717
		c-10.30469,0.75781-18.77246,6.27881-28.80957,8.46436c2.6084-2.31982,5.22852-4.63916,7.84375-6.9624
		c-0.53906-0.78613-1.07617-1.57617-1.61523-2.36572c-6.8418,6.05273-14.26758,11.11572-23.80273,15.40576
		c6.75781,2.4541,12.85352,0.71924,19.63672,5.66211c-24.00391,1.87158-44.8457,8.3125-65.52344,18.07764
		c1.82422-4.3501,2.02734-4.50146,9.10938-7.46973c3.55078-1.4917,7.11523-2.97559,10.45703-4.97119
		c-15.92383,4.61865-30.5791,12.27246-45.65039,18.9209c-0.36621-0.3667-0.74023-0.7334-1.10938-1.09619
		c2.75293-2.83105,13.39258-9.4585,15.94434-11.53516c1.19238,0.59912-16.3584-6.46924-27.4873-17.60596
		c-10.15039-10.17041-14.82813-23.82471,2.61914-36.29395c-1.45703,3.96973-2.48535,6.77588-3.51758,9.58203
		c-3.82227,10.41406-2.20508,17.21094,6.02832,24.49121c8.30859,7.35742,18.18652,12.36328,28.60059,15.31787
		c6.79102,1.9209,13.27344-3.33545,20.03125-5.65479c-13.34668-2.46094-26.31641-11.98633-32.94727-18.7627
		c-8.20117-8.36865-9.49121-20.06641-8.96582-32.16895c-14.4043-1.29395-28.25879-0.39502-42.0752,1.85449l0.03516,0.00391
		c13.48438-7.18506,28.37891-6.31787,43.04883-7.38281c-12.65039-3.9624-25.5918-5.44287-38.56445-6.79297
		c21.83594-1.45947,43.15039,1.60742,64.07813,7.57227c12.16602,3.46875,24.19727,7.37891,36.2998,11.0874l0.33496-0.06348
		l0.08008-0.3418c-16.81836-10.74902-35.29102-17.72217-54.22266-23.61328c-3.73438-1.16699-7.56641-2.05518-11.34961-3.0708
		l-0.04492,0.0459c32.12305,2.84521,77.62305,23.36279,104.45703,47.10645c21.49512-9.29639,29.79688-27.76953,27.1748-60.46387
		c4.42285,5.35498,6.69043,18.83643,4.80762,27.7832c-2.04102,9.71631-5.2168,18.88916-12.67676,26.17627
		c9.58496,3.87109,19.79492-0.75439,23.40137-10.16357c3.97656-10.36426,8.23535-20.56738,14.70117-29.68018
		c3.23633-4.55859,6.90527-8.57764,15.25781-10.5166c-11.72559,10.54102-19.8457,20.94824-24.46973,33.60449
		c0.83203,0.77539,1.66309,1.55127,2.49902,2.33008c2.51367-3.32471,4.63672-7.06494,7.625-9.88867
		c7.52051-7.08252,14.89258-14.521,25.32031-17.42969c3.05859-0.85645,5.98242-1.2373,7.86914,2.91553
		c-4.91797,0.64844-10.94043-1.15625-12.55469,5.76416l-0.03516-0.04248c4.9707,1.82666,6.9209,5.81689,7.3252,10.69287
		c0.58887,6.99414-0.7334,13.72412-3.23926,20.24609l0.07813,0.33838l0.34473,0.0918
		c8.42871-8.02002,16.24512-16.5415,22.36621-26.52832c1.78711-2.93359,1.92383-5.54248,0.34863-8.51758
		c-12.19434-23.12305-29.22559-41.34912-53.43457-52.01367c-12.22266-5.39355-24.28711-11.27441-37.20703-15.1875
		c10.54102-0.15869,20.57031,2.70752,31.17188,5.82031c-16.1582-26.89893-148.38379-70.17285-192.00781-63.27344
		c-1.48047,4.48438-2.77051,9.2749-4.65039,13.82275c-1.86719,4.53711-3.78516,9.14502-8.02344,13.70703
		c0.52539-4.53711,0.78711-8.03125,1.33008-11.48242c7.66406-49.10156-34.77832-72.32715-71.70313-68.6958
		c-21.86523,2.14746-40.79688,10.98877-58.29297,23.74023c-7.875,5.74268-15.55371,11.78516-24.19531,16.64307
		c7.67188,0.78271,14.58887-2.4502,21.86523-3.08789l-0.04297-0.05664c-13.00391,9.31104-28.54492,10.60449-43.50586,13.73828
		c-3.64648,0.76855-7.38965,1.40723-10.86523,2.71484c-5.82031,2.20313-6.38086,6.43359-1.49512,10.41748
		c5.39746,4.40674,11.85938,6.44092,18.59277,7.71338c20.96582,3.96973,41.10645,0.00391,61.16602-5.93994
		c18.42676-5.46094,35.89844-14.5708,55.39453-15.94189c13.73828-0.96973,26.97266,1.29004,38.80371,12.93799
		c-5.49316-2.85889-9.24023-5.13623-13.22754-6.80371c-4.06836-1.69922-8.34766-3.00732-12.70117-2.60547
		c-1.2207,1.354-0.13867,2.18945,0.17578,3.12744l-0.03516-0.03564c6.91992,3.71924,10.54395,9.57178,10.26172,17.36572
		c-0.26758,7.60449-4.98047,12.2124-11.57031,15.32861c-9.38086,4.43164-18.2832,9.97021-28.91211,11.43311
		c5.42578-2.55273,18.05078-9.8252,18.44141-9.80762l-0.03125,0.03857c-0.36719-0.021-24.91406-7.89014-35.39453-15.05371
		l0.04199,0.04639c-2.98242-2.23193-5.96191-4.45605-9.15918-6.85352c-6.05664,2.17139-12.01074,4.30811-19.38574,6.95215
		c7.09277,3.45117,12.9873,6.25049,17.77148,10.75928c4.7666,4.48438,9.77637,8.76758,11.08691,16.53809
		c-5.05469-2.83496-8.20703-7.28027-13.53711-8.89844c-18.80469,38.60303-66.3584,109.11426-67.63477,114.41309
		c6.86133-3.25049,38.1377-32.43701,44.37793-36.4248l-0.03223,0.03906c4.60449-4.24414,9.21582-8.48535,13.82715-12.72656
		l0.30273-0.2959c7.46387-7.44238,14.92676-14.8877,22.38574-22.33008c0-0.00684-0.03809-0.04248-0.03809-0.04248
		c-9.81152,18.45557-24.46582,32.79004-39.95703,46.29248c-14.37305,12.53564-29.11621,24.66699-43.90137,36.73047
		c-9.17969,7.4917-17.16211,16.06885-24.4873,25.31934l0.04199-0.03857c-11.01953,16.90088-17.81445,35.22559-19.71387,55.45752
		c-2.07324,22.0332,3.69043,42.57617,11.57031,62.60742c25.63379,65.125,69.96484,90.01758,134.81152,112.69336
		c30.75195,10.75195,62.76172,14.89453,95.07617,17.21387c3.69336,0.26074,7.42383,0.03223,13.14551,0.03223
		c-23.74316-16.04395-46.67285-30.2793-61.17285-53.8584"/>
	<path id="Face_1_" fill-rule="evenodd" clip-rule="evenodd" fill="#999999" d="M299.34961,488.68652
		c-7.40234-9.92676-13.87891-20.35254-17.63281-32.40234c-0.50391-0.38379-1.00195-0.97168-1.62891-1.22266
		c-17.83594-6.87402-20.38086-20.87793-14.36914-37.89063c4.94141-13.94727,13.58984-25.85645,21.83203-37.95215
		c0.36328,0.35742,0.72266,0.7207,1.07813,1.07324l-0.03516,0.0459c-0.36621-0.35938-0.72559-0.71973-1.08203-1.07617
		c5.2041-8.2666,10.8623-16.20898,17.20117-23.6377c0.35547,0.35938,0.72266,0.71191,1.08203,1.0752l-0.03906,0.03125
		c-0.35645-0.35938-0.72266-0.70801-1.08203-1.07031c4.74805-5.99805,9.50098-11.9834,14.24609-17.98047
		c0.01758-0.41895-0.17969-0.61328-0.59961-0.5918c-2.48242,1.67871-4.96094,3.35156-8.39746,5.69727
		c1.04395-7.14648,5.4082-10.5625,10.32227-13.2666c4.52344-2.49219,9.27246-5.19971,14.15137-2.80615
		c1.38867,3.26074-1.57227,3.81787-1.53711,6.07764c22.54785,16.00879,48.77051,24.82227,74.0332,35.80176
		c-5.65527-5.56445-11.77539-10.42969-16.59766-16.60938c-7.84375-10.05078-5.80273-22.81982,4.52637-28.48145l-0.0459-0.03906
		c-8.98926,13.33008-7.94336,20.70117,4.40723,31.34082c8.27637,9.07422,58.74023,35.11719,90.41504,37.1543
		c28.31641,1.81543,60.74609-15.33203,62.22266-56.45898c0.0293-0.64258,0.30762-1.2793,0.88477-3.61719
		c4.16016,14.28906-1.31055,25.4707-5.57324,36.93848c5.28809,2.17578,9.68848,0.15918,13.68652-1.77637
		c19.68945-9.52539,31.7168-25.6582,37.62305-46.28125c2.13867-7.49121,0.43652-15.36719-3.2334-22.34375
		c-1.93457-3.67041-5.22168-6.28223-10.06934-6.69531c-9.95508,12.19482-21.7334,22.37646-35.8877,29.6416"/>
	<g id="Forehead_1_">
		<path id="forehead-accent_5_" fill-rule="evenodd" clip-rule="evenodd" d="M301.56738,162.44336
			c-1.08203,0.72607-2.16797,1.45605-3.25,2.18604l0.03516-0.03906c-1.37109,1.12793-2.72168,2.28076-4.11035,3.38818
			c-8.65527,6.90283-17.54883,13.60107-22.6543,23.87012c-4.91113,9.87842-3.74023,17.31348,4.77344,24.33594
			c5.47461,4.51221,11.80273,7.98877,17.63672,12.08887c2.32813,1.63525,5.42285,2.82715,5.71875,7.62842
			c-6.6416-0.74365-11.6123-4.01855-16.52344-7.21631c-24.87109-16.21338-26.52148-33.56543-5.25586-54.41455l0.02441-0.03174
			c14.17188-9.76172,28.61523-19.01563,45.05469-24.625l-0.0459-0.04541c-7.14648,4.30127-14.2959,8.6123-21.44141,12.91309
			L301.56738,162.44336z M283.28906,225.75244c-0.35938-0.35986-0.72656-0.71924-1.08594-1.0752s-0.71582-0.71924-1.06836-1.0752
			c-0.36719-0.35986-0.71973-0.71582-1.0791-1.07178l0.04199-0.0459c0.35938,0.35986,0.7168,0.71533,1.07227,1.0752
			c0.36328,0.35986,0.71875,0.71924,1.07813,1.0752c0.35352,0.35596,0.7168,0.72266,1.08008,1.08252L283.28906,225.75244z
			 M275.7793,220.39014l0.03906-0.03125L275.7793,220.39014z M271.48926,217.17529l0.03809-0.04248L271.48926,217.17529z"/>
		<path id="forehead-accent_4_" fill-rule="evenodd" clip-rule="evenodd" d="M473.14453,178.51953
			c8.35547,8.771,15.21289,18.7793,23.99414,27.70264c-1.55176-7.78125-3.11523-15.56836-4.66699-23.35596l-0.0498,0.04199
			c4.29688,11.60938,7.38477,23.38428,6.57422,36.01514c-3.37695-0.16553-3.90234-1.49805-4.40625-2.85547l0.04297,0.0459
			c-9.04297-14.32666-18.40234-28.41455-30.08984-40.79541c0.37305-0.35986,0.74023-0.72998,1.11133-1.09668
			c0.00195-0.00342,0.04102,0.04248,0.04102,0.04248c-0.36914,0.3667-0.74023,0.72998-1.10742,1.09619
			c-6.94434-7.19482-14.72168-13.24463-23.35156-18.38818c-11.72852-6.99463-23.33008-14.21094-35.57422-20.31006l-0.03906,0.0459
			c26.11914,8.15088,50.01855,19.8833,67.56055,41.86035L473.14453,178.51953z M481.72559,191.42529
			c-0.36621-0.35547-0.72949-0.71191-1.09277-1.0752l0.04883-0.04199c0.35352,0.36328,0.7207,0.71924,1.0791,1.08594
			L481.72559,191.42529z"/>
		<path id="forehead-accent_3_" fill-rule="evenodd" clip-rule="evenodd" d="M475.28125,257.88965l0.06348,0.06348
			c0.84668,0.6416,1.63965,1.36816,2.55176,1.90039c0.38086,0.22559,1.00195,0.03857,2.53516,0.03857
			c-3.1582-7.0293-35.21094-37.68604-47.49023-46.62988c-21.3291-15.54004-44.16602-28.75684-69.4668-37.07324
			c-2.35938-0.78271-4.80273-1.29004-7.21094-1.92139l0.05371-0.06348c22.36426,8.68652,43.19043,20.21777,62.74805,34.0625
			c4.50488,3.18701,8.8584,6.58496,13.28418,9.88867"/>
	</g>
	<g id="Ears_1_">
		<path id="ear_1_" fill-rule="evenodd" clip-rule="evenodd" fill="#999999" d="M467.83984,111.14893
			c-1.27734,1.68164-2.56055,3.37012-4.28711,5.64404c19.66016,10.74561,40.39648,19.04785,57.87305,32.94482l-0.01367-0.01758
			c0.37988,0.38428,0.75391,0.75781,1.13086,1.13525l-0.01758-0.01025c0.71191,0.35938,1.41992,0.71191,2.13281,1.06787
			l-0.01758-0.01025c4.0957,3.08057,7.29102,7.33936,12.06738,9.47949c15.26465-16.85449,18.56738-18.88916,31.33301-18.88574
			c-4.58301,3.16602-10.71289,3.11328-13.04395,8.57764c13.06934,5.0166,43.33105-2.4043,51.18848-13.11475
			c5.19727-7.0752,11.52148-14.36572,7.13672-25.05811c-8.85254,1.24072-17.23926,2.31934-25.8418,1.90332
			c-17.60938-0.85645-33.77637-7.29736-50.48633-11.71826c-12.33301-3.27148-24.92188-4.52686-37.69434-4.1001
			c-11.97266,0.39844-21.95996,5.66895-31.50586,12.20508C467.79395,111.18457,467.83984,111.14893,467.83984,111.14893z"/>
		<path id="ear-inner_1_" fill-rule="evenodd" clip-rule="evenodd" fill="#CCCCCC" d="M230.10449,115.54541
			c12.68457,8.76025,23.46875,16.94971,37.27051,19.35791c3.95117,0.69434,7.83008-0.07422,11.43359-1.88965
			c8.19922-4.13867,9.78223-12.71289,3.47461-19.27344c-7.11719-7.40332-15.02148-11.66895-25.73047-7.33984
			C248.5,109.6543,240.13477,112.11475,230.10449,115.54541z"/>
	</g>
	<g id="Eyes_1_">
		<g id="iris_3_">
			<path id="iris_5_" fill-rule="evenodd" clip-rule="evenodd" fill="#FFFFFF" d="M411.76758,249.76758
				c2.9082,13.92529-1.55078,18.58203-20.81641,21.72314c4.82617,7.08252,17.36523,8.1333,25.18457,2.12939
				c7.46973-5.74268,7.95996-14.55615,1.30762-21.98779c-1.43164-1.59717-3.11719-2.2915-5.1543-2.37598
				C412.11328,249.42188,411.94043,249.59814,411.76758,249.76758z"/>
			<path id="iris_4_" fill-rule="evenodd" clip-rule="evenodd" fill="#FFFFFF" d="M538.26953,246.84473
				c-2.48633,0.76855-3.87109,2.28125-4.83984,4.0791c0.93359,3.36328,1.81445,6.57471,2.75,9.93408
				c2.30078,1.56201,4.32422,1.25928,5.50586-1.44141C543.90332,254.31836,542.33105,250.21143,538.26953,246.84473z"/>
		</g>
		<path id="eye-accent_1_" fill-rule="evenodd" clip-rule="evenodd" d="M356.75391,255.59521
			c-17.8457-7.09668-35.89551-5.02393-53.91699-2.90186c6.19824,0,12.41309-0.26807,18.59277,0.07764
			c6.16602,0.3418,12.30371,1.3042,20.95508,2.28076c-7.19141,3.93066-12.76563,6.25049-16.55176,11.01709
			c-3.9834,5.02051-4.97754,10.23779-1.60059,18.04639C325.66406,262.04297,343.36426,261.72559,356.75391,255.59521z"/>
		<path id="eye-white_7_" fill-rule="evenodd" clip-rule="evenodd" fill="#FFFFFF" d="M390.59375,257.01563
			c1.33594,2.83789,3.71973,3.97314,6.59375,3.16943c3.14063-0.87451,4.90332-3.22949,5.48828-6.68457
			c-5.68652-3.53223-9.55273-2.20654-12.11719,3.55371L390.59375,257.01563z"/>
		<path id="eye-white_6_" fill-rule="evenodd" clip-rule="evenodd" fill="#FFFFFF" d="M406.64453,284.88721
			c14.2041,5.3374,27.75293,2.64063,40.87891-3.60254c6.06641-2.8877,11.99902-6.11328,17.18164-10.58691
			c-5.86328-6.30371-24.00488-14.68359-33.21289-15.4834c-0.14453,0.48633-0.46484,1.00098-0.4043,1.47363
			c2.08984,17.42236-3.09961,24.08838-20.94141,26.93408c-1.19141,0.18994-2.30664,0.86377-3.45898,1.30762L406.64453,284.88721z"/>
		<path id="eye-white_5_" fill-rule="evenodd" clip-rule="evenodd" fill="#FFFFFF" d="M526.86133,258.39404
			c-1.3291,0.57813-2.03418,0.71582-2.49609,1.12793c-0.60645,0.53613-1.0332,1.29395-2.05859,2.66895
			C525.86328,262.7832,527.05566,262.03564,526.86133,258.39404z"/>
		<path id="eye-white_4_" fill-rule="evenodd" clip-rule="evenodd" fill="#FFFFFF" d="M546.91016,263.46338
			c8.53125-2.80615,9.48633-8.87305,11.20117-14.07666c2.32227-7.03711,0.15039-12.5083-6.82617-15.95605
			c-3.51563,2.02686-6.13086,4.81934-8.61523,8.29541C548.35938,247.34863,549.99805,254.09668,546.91016,263.46338z"/>
	</g>
	<g id="Mouth_1_">
		<g id="Gum_1_">
			<path fill-rule="evenodd" clip-rule="evenodd" fill="#CC3333" d="M354.875,353.85547
				c2.375,6.3457,7.08301,10.95605,11.58789,16.12695c3.69141-1.97754,7.08203-3.80273,11.91211-6.39063
				c-8.32324-3.7334-15.63086-7.01563-22.94629-10.29785C355.24512,353.47754,355.05859,353.66406,354.875,353.85547z"/>
			<path fill-rule="evenodd" clip-rule="evenodd" fill="#CC3333" d="M320.57617,352.05273
				c1.58984,0.67383,2.99023,1.27344,4.60449,1.94922c3.21191-3.60547,6.33203-7.11719,9.56152-10.73828
				c-2.27441-2.73438-4.85156-4.32813-8.36914-4.97852C323.4707,342.41406,321.90625,347.00781,320.57617,352.05273z"/>
			<path fill-rule="evenodd" clip-rule="evenodd" fill="#CC3333" d="M397.03906,371.78125
				c3.30273,4.76953,5.6123,10.27344,10.25977,14.68359c2.11719-2.60547,3.97949-4.88672,6.22461-7.65039
				c-5.55273-3.13672-10.91113-5.35547-16.53027-6.99121L397.03906,371.78125z"/>
			<path fill-rule="evenodd" clip-rule="evenodd" fill="#CC3333" d="M350.10938,415.24512
				c3.28125,0.63184,5.42871,1.03711,7.63477,1.46777c1.19922-3.44141-0.44336-5.91016-0.83105-9.91016
				C354.37109,409.95703,352.66113,412.07227,350.10938,415.24512z"/>
			<path fill-rule="evenodd" clip-rule="evenodd" fill="#CC3333" d="M429.08203,420.0293
				c-1.29492-2.47852-2.62109-3.80371-4.56641-4.61816c-2.05566,0.96582-3.02539,2.6582-3.39453,5.17285
				C423.83496,421.65039,426.33203,421.75,429.08203,420.0293z"/>
			<path fill-rule="evenodd" clip-rule="evenodd" fill="#CC3333" d="M397.28223,420.5127
				c-0.00293-2.5459-1.44531-3.41895-3.16895-4.1416c-1.80469,0.55957-2.18945,1.99805-2.47168,3.57813
				C393.38965,421.64063,395.15625,421.45313,397.28223,420.5127z"/>
		</g>
		<g id="Teeth_1_">
			<path id="tooth_19_" fill-rule="evenodd" clip-rule="evenodd" fill="#FFFFFF" d="M319.76563,406.10156
				c6.41309,3.69336,13.52734,5.60742,20.66211,6.71094c5.67578,0.87891,8.42578-4.98438,13.5166-7.4668
				c-11.4541-14.27734-22.43164-27.94824-31.03418-45.54688c-4.99219,16.60352-8.9082,31.10742-3.10156,46.33789
				L319.76563,406.10156z"/>
			<path id="tooth_18_" fill-rule="evenodd" clip-rule="evenodd" fill="#FFFFFF" d="M353.82422,397.46484
				c1.9043-10.32715-2.08984-20.51172,6.22656-28.59961c-7.54102-6.94824-7.55176-19.68555-19.05273-23.13281
				c-11.54492,5.45313-13.94531,11.91211-8.36816,22.83984C337.92578,378.94141,344.78125,388.20898,353.82422,397.46484z"/>
			<path id="tooth_17_" fill-rule="evenodd" clip-rule="evenodd" fill="#FFFFFF" d="M390.85938,414.58203
				c-10.46289-12.50391-17.96289-26.73242-27.67188-40.61914c-8.0166,15.39258-1.95605,29.37012,0.28711,43.17969
				C374.66016,422.3418,384.47461,421.51367,390.85938,414.58203z"/>
			<path id="tooth_16_" fill-rule="evenodd" clip-rule="evenodd" fill="#FFFFFF" d="M396.13965,411.25098
				c0.21875-10.26855-0.80762-18.43457,3.63477-25.29395c-7.48438-17.69043-13.31543-25.13281-29.40137-12.93164
				C373.12598,388.77344,385.59473,397.93945,396.13965,411.25098z"/>
			<path id="tooth_15_" fill-rule="evenodd" clip-rule="evenodd" fill="#FFFFFF" d="M435.02441,420.9082
				c-0.8252-12.48047,1.84082-22.12695,7.5166-31.48926c-7.49805-2.88379-14.22852-5.64453-21.08594-8.02051
				c-3.04883-1.05469-5.66406,0.81738-7.50195,3.05664c-2.48242,3.01367-2.68945,6.51855-0.71484,9.98438
				C418.5957,403.86133,426.61328,411.05664,435.02441,420.9082z"/>
			<path id="tooth_14_" fill-rule="evenodd" clip-rule="evenodd" fill="#FFFFFF" d="M402.39844,391.08301
				c-2.54297,18.96289-2.50781,24.12012,0.19922,29.80957c11.70898,2.36328,14.62305,1.27344,19.47852-7.70898
				c-5.41211-6.59961-9.45898-14.58496-16.09375-20.65234c-1.06445-0.97949-1.94238-2.15332-3.63477-1.40039L402.39844,391.08301z"
				/>
			<path id="tooth_13_" fill-rule="evenodd" clip-rule="evenodd" fill="#FFFFFF" d="M462.41699,416.86328
				c-5.12207-8.61523-10.24805-17.23242-15.42285-25.93945c-7.22461,6.54688-10.55566,21.56445-6.3457,29.16992
				c7.10645-1.06543,14.4541-2.16992,21.80664-3.27246L462.41699,416.86328z"/>
			<path id="tooth_12_" fill-rule="evenodd" clip-rule="evenodd" fill="#FFFFFF" d="M452.7998,392.96484
				c3.71973,8.76758,8.50684,15.15918,12.85449,21.52734c1.88477,0.86621,3.37305,0.49609,5.39258-0.52637
				c0.85742-4.55762,1.75586-9.36719,2.74316-14.60156C466.88379,397.2627,460.49902,395.31348,452.7998,392.96484z"/>
			<path id="tooth_11_" fill-rule="evenodd" clip-rule="evenodd" fill="#FFFFFF" d="M504.59961,399.68164
				c-5.44434,0.71875-9.79492,0.33105-13.81738,2.20898c-0.81738,1.89648,0.01074,3.09961,1.42773,4.31934
				C496.31445,404.97266,500.33984,403.52734,504.59961,399.68164z"/>
			<path id="tooth_10_" fill-rule="evenodd" clip-rule="evenodd" fill="#FFFFFF" d="M488.70605,407.83203
				c0.4541-2.39453-0.39453-4.0957-1.73145-5.82813c-2.77441-0.73633-5.59473-1.92773-8.87988-1.27246
				c-2.22168,3.37695-1.94238,7.34668-2.81738,11.77441C480.66406,412.24805,484.73633,410.05273,488.70605,407.83203z"/>
		</g>
	</g>
	<g id="Nose_1_">
		<path id="Nose-tip-accent_1_" fill-rule="evenodd" clip-rule="evenodd" fill="#999999" d="M483.91211,305.28174
			c-0.88867,1.49805-1.76758,2.98975-3.13867,5.30176c31.28516-16.6499,62.24512-31.30176,98.00195-32.6167
			c-1.25781-5.25586-5.05078-5.83447-8.96094-6.32813c-20.91211-2.64697-39.87109,3.33838-57.92188,13.20947
			c-10.22656,5.5918-19.58691,12.39551-28.0127,20.46875L483.91211,305.28174z"/>
		<path id="Nose-accent_1_" fill-rule="evenodd" clip-rule="evenodd" d="M420.59961,313.8623
			c6.44727-2.86572,12.88867-5.71826,19.33984-8.58057l-0.04297,0.04199c6.44824,3.93457,12.72363,0.18018,19.04883-0.51123
			c2.97852-0.31689,5.9082-1.06787,8.86133-1.62451c0.37109-0.37012,0.73828-0.74414,1.10059-1.11084l-0.04199-0.03516
			c-0.36328,0.3667-0.73047,0.73682-1.0957,1.10303c-3.38477,4.98145-8.52539,8.65479-10.8418,14.8916
			c4.85449-1.20215,8.39063-4.19189,11.75-7.63623c-1.61719,0.56104-3.23242,1.12842-4.84375,1.6958
			c-0.39063,0.20117-0.7793,0.39844-1.87891,0.96289c0.6875-1.0332,0.92383-1.3999,1.16992-1.75244
			c3.28711-3.13037,6.5791-6.24365,10.94434-10.37891c-8.5-1.31836-15.14648,1.37109-22.23926,0.45166
			c5.30664-1.7876,10.61133-3.58203,15.92871-5.3623c-17.29004,1.88965-33.78027,5.82715-47.13184,17.8667L420.59961,313.8623z"/>
	</g>
	<g id="Whiskers_1_">
		<path id="whisker_21_" fill-rule="evenodd" clip-rule="evenodd" d="M494.12891,341.23633
			c0.83789,1.74219,1.88867,1.97852,2.92871,1.78125c0.75098-0.14453,1.4209-0.70508,3.44043-1.78125
			C497.52344,341.23633,496.00391,341.23633,494.12891,341.23633z"/>
		<path id="whisker_20_" fill-rule="evenodd" clip-rule="evenodd" d="M456.4668,351.98926
			c0.10156,2.32715,0.92383,2.92285,2.74609,2.07715C459.63184,351.94727,458.57813,351.61523,456.4668,351.98926z"/>
		<path id="whisker_19_" fill-rule="evenodd" clip-rule="evenodd" d="M583.7998,327.41406
			c-0.58496-0.54639-1.17383-1.09277-2.54883-2.35498c0,2.8418-2.08301,5.56982,2.54883,4.57959l0.03516,0.03174
			c0-0.76465,0-1.52295,0.00391-2.27734L583.7998,327.41406z"/>
		<path id="whisker_18_" fill-rule="evenodd" clip-rule="evenodd" d="M526.625,330.8125
			c-0.92383-0.43359-1.47266-0.70508-2.50977-1.19482c-0.0459,0.98389-0.32813,1.79736-0.05273,2.07568
			C525.23242,332.91016,525.69141,331.81836,526.625,330.8125z"/>
		<path id="whisker_17_" fill-rule="evenodd" clip-rule="evenodd" d="M570.64648,336.45313
			c0.98047-1.0293,0.7793-1.73047-0.54883-2.15039c-1.09375,0.52832-0.9668,1.25586-0.42773,2.07617
			C569.99121,336.40723,570.30859,336.43164,570.64648,336.45313z"/>
		<path id="whisker_16_" fill-rule="evenodd" clip-rule="evenodd" d="M452.86719,342.93652
			c-0.30273-0.32715-0.61719-0.65918-0.92383-0.98438c-0.27148,0.34668-0.54297,0.68848-0.80469,1.02637
			c0.39258,0.22656,0.79395,0.44727,1.19141,0.66309C452.50977,343.4082,452.69043,343.16992,452.86719,342.93652z"/>
		<path id="whisker_15_" fill-rule="evenodd" clip-rule="evenodd" d="M498.55273,368.43555
			c0.67676-1.3125,0.16602-1.83398-1.1875-1.88672C496.85547,367.77344,497.06836,368.4668,498.55273,368.43555z"/>
		<path id="whisker_14_" fill-rule="evenodd" clip-rule="evenodd" d="M516.18652,353.98828
			c1.20605,0.42383,1.6709,0.17969,1.74902-0.71191C517.20508,352.57129,516.79297,353.07227,516.18652,353.98828z"/>
		<path id="whisker_13_" fill-rule="evenodd" clip-rule="evenodd" d="M469.99609,347.49805
			c-0.5-2.41406-1.44141-2.61621-3.03125-1.50781C467.20117,347.9248,468.05762,348.28711,469.99609,347.49805z"/>
		<path id="whisker_12_" fill-rule="evenodd" clip-rule="evenodd" d="M352.58008,300.84326
			c-29.46094-15.5752-61.02441-19.59082-93.8418-16.31934C291.16406,283.30078,322.48828,288.2998,352.58008,300.84326z"/>
		<path id="whisker_11_" fill-rule="evenodd" clip-rule="evenodd" d="M273.83789,333.89746
			c12.38379-7.41064,24.83594-14.59521,39.06445-18.12793c6.01367-1.4873,12.14063-1.29736,19.41406-1.31494
			c-2.83789-5.59082-6.91406-5.97168-10.8125-5.9082c-15.22266,0.25-27.64648,7.27979-38.93164,16.73145
			C279.44922,327.89697,276.74219,331.01758,273.83789,333.89746L273.83789,333.89746z"/>
	</g>
	<path id="Outline_1_" fill-rule="evenodd" clip-rule="evenodd" d="M650.07715,374.93359
		c1.97363,4.15234,4.00879,8.29102,5.90527,12.47949c4.38867,9.67285,4.76563,20.27051,6.97363,30.45215
		c0,2.14258,0,4.28711,0,6.43945c-0.99902,4.65137-1.98926,9.31445-3.01465,13.96484
		c-4.85156,22.19336-19.40723,36.95703-37.47559,49.05957c-0.32324,0.00684-0.49707,0.17285-0.52441,0.50098
		c-4.56836,2.78809-9.1416,5.57031-13.71094,8.35742l0.04688-0.04102c-6.2832,2.97852-9.56543,8.49609-13.0166,14.25977
		c-16.28711,27.25879-42.25879,40.62012-71.64941,48.6582c-17.0957,4.66797-34.56641,7.04297-52.28516,7.63477
		c-3.89941,0.13086-7.78516,0.69141-12.81152,1.15039c4.63184,13.00586,9.07813,25.43945,14.15137,39.63477
		c-20.59277-10.21289-39.64355-19.67188-58.71973-29.14746c-13.93262,5.64844-27.63574,11.27832-42.81543,14.12988
		c-3.33984,16.49805-6.70117,32.88477-9.94531,49.29199c-0.78613,3.9873-1.19141,8.0498-1.78418,12.08203
		c-0.35254,0-0.70508,0-1.06738,0c-6.81055-14.87402-13.56641-29.76465-20.47266-44.58984
		c-1.47363-3.16113-2.38281-6.74707-5.32324-9.16211c-24.9209,2.55566-49.78223,3.37695-76.63184-0.89941
		C245.28516,609.9707,234,621.43164,222.66211,632.94531c0-13.00879,0-26.26367,0-39.29688
		c-6.44043-3.63477-12.62695-7.12891-18.81152-10.61914l0.04297,0.03906c-18.37793-9.66699-35.74707-20.81738-51.53125-34.36914
		l0.05371,0.05273c-3-2.48047-6.00391-4.9668-9.18457-7.58984c-20.55566,6.15137-40.3623,15.22949-63.85449,17.17578
		c11.26953-13.46094,18.7334-27.64941,27.93457-40.69043l0.05957-0.05664c2.1582-3.84863,5.52441-7.01855,6.7793-11.79199
		c-11.58789-18.32129-22.17383-37.33691-31.68164-56.9375c-1.28418-2.64844-3.69922-3.14551-6.06445-3.86133
		c-20.66602-6.26855-41.33203-12.50781-61.97656-18.81152c-1.72656-0.52051-3.90625-0.41504-5.22754-3.0918
		c21.69824-9.8252,43.26074-19.58301,64.69824-29.29199c5.4707-24.25879,9.69727-48.3623,19.80469-70.86084
		c-14.28809-16.70313-31.79883-30.10693-45.75586-46.82422c0.35645-0.86377,0.70508-1.72412,1.06152-2.58398
		c25.10742,1.06104,50.21582,2.12207,75.3877,3.18359c3.58789-5.54932,6.94727-10.75244,10.4375-16.13965
		c-8.5166-15.36377-16.85449-30.41309-25.9082-46.73242c17.87109,3.99072,34.30566,7.65723,50.96289,11.36914
		c2.04883-3.12305,3.85352-5.98242,5.76172-8.77051c10.69141-15.6958,16.93164-33.86182,27.5293-49.60254l-0.05273,0.05615
		c5.62891-9.87793,11.26758-19.75586,17.1123-29.99023c-6.43457-3.88867-13.03711-6.01807-20.39844-5.87695
		c-18.5791,0.35938-37.23145,0.95898-55.07324-5.50342c-7.84766-2.84473-16.87598-5.79541-17.09766-16.05811
		c-0.24023-10.36475,8.58398-14.0625,16.43848-17.52441c14.5459-6.40576,38.75098-16.50635,63.60059-34.89453
		c24.02637-16.43164,50.55078-24.38135,79.19922-18.1626c22.23828,4.81934,42.13477,15.16943,52.04492,37.94336
		c1.46973,3.38477,2.35547,7.03027,3.50781,10.54102c39.85449,5.24268,79.69141,9.05713,116.8457,24.53662
		c1.47266-1.25439,2.47852-1.98779,3.34473-2.86572c14.92383-15.15234,33.22754-21.66357,54.24121-21.12451
		c17.68359,0.44824,34.33789,6.14844,51.28516,10.27344c15.06055,3.6665,29.83496,8.47461,45.7793,6.71582
		c8.16895-0.90283,15.92188,1.17383,20.20898,9.16943c4.44531,8.28125,1.00195,15.74072-3.88574,22.42139
		c-12.2002,16.70313-29.81348,23.85303-49.48535,26.70166c-8.36719,1.20557-16.88281,1.40625-25.125,2.05176
		c-0.95508,5.13281-0.39551,6.39844,5.04395,8.92578c19.13281,8.88428,34.20996,22.48535,46.45801,39.43555
		c3.0957,4.27637,5.91895,9.0249,4.84375,14.32666c-2.77148,13.78467-9.03906,25.84814-19.52344,35.49023l0.0459-0.04541
		c-0.97363,1.54346-0.65625,2.86572,1.0459,3.40186c5.40527,1.71289,7.15332,5.96826,7.64453,11.00928
		c11.05859,5.38721,18.47559,13.76709,19.51563,25.87646c0.62793,7.2876,3.10938,13.43555,6.41699,19.56299
		c2.3584,4.39209,4.80078,8.74561,7.20605,13.12451l-0.03906-0.03906c2.09766,3.18457,4.20117,6.36719,6.2998,9.54102
		c0,0,0.27441,0.27734,0.27832,0.27734c6.40137,9.61816,12.80078,19.22461,19.20996,28.82813 M231.80078,623.82227l-0.04688-0.04297
		C231.75391,623.7832,231.80078,623.82227,231.80078,623.82227z M285.375,111.11035l0.03516-0.03564L285.375,111.11035z
		 M158.8916,534.72852c1.10645,2.63965,10.04004,12.88477,56.33887,39.25781c2.30273,1.25977,4.61523,2.47852,8.08008,4.33691
		c0.79297-7.54004,1.77344-14.13672,2.09473-20.76465c0.34863-7.18164,3.90918-10.77734,10.84375-11.42578
		c13.91113-1.2793,19.24512-2.33691,32.84961,4.47461l5.58496,3.87402c8.80957,7.74512,7.34961,18.40234-3.03906,28.75293
		l-0.93164,1.09961c-0.91992,1.4668-2.15625,1.62891-3.55273,3.83887c20.32715,5.44043,40.00195,3.80371,59.79004,1.41406
		c0.3252-4.36035-1.63574-7.31543-3.21875-10.16113c-3.09863-5.56641-1.16992-9.76465,3.66699-12.07617
		c13.625-6.5332,27.5957-6.2793,41.39453-0.2373c4.22363,1.84668,4.10352,6.31055,4.85059,10.79785
		c14.16895-3.63477,27.65039-7.60742,40.25684-15.26172c-10.55469-3.09766-20.5-7.80469-31.54102-8.43262
		c-35.06055-1.9668-70.3418-0.5-105.04297-7.81152c-48.80176-10.29395-101.30859-31.50684-136.75-72.78125l0.04688,0.04492
		c-18.93945-19.48047-30.33398-42.83008-37.39063-68.67383c-4.37891-16.01367-6.68164-32.3916-10.4707-48.96875
		c-2.25586,11.27148-4.5127,22.53906-6.74023,33.68555c2.33398,3.67676,6.69141,5.47852,7.41406,9.93555l-0.03516-0.03516
		c9.16211,12.37305,11.02637,26.17773,6.53516,40.52734c-1.54395,4.91797-3.34961,9.23633-1.13867,14.21094l-0.03906-0.03516
		c6.17969,11.85156,11.60254,24.11719,18.89258,35.38672c1.44531,2.22461,3.14844,4.29492,4.73828,6.44531l-0.04199,0.0293
		c2.4502-6.96484,7.64355-9.16992,14.4082-7.67969c14.96582,3.30762,26.99707,10.4043,31.45996,26.26367
		c3.29297,11.66309,1.60742,14.99805-9.35547,20.02148 M522.45801,150.79199c0.71973,0.35596,1.43066,0.7085,2.13574,1.06494
		l-0.00586-0.00391c4.0918,3.07471,7.28711,7.33301,12.05664,9.47607c15.27148-16.85791,18.5752-18.88867,31.33008-18.88525
		c-4.57227,3.16211-10.70313,3.11328-13.03027,8.57373c13.06543,5.0166,43.32129-2.39355,51.18652-13.10742
		c5.19141-7.07568,11.51563-14.36914,7.12695-25.06201c-8.84473,1.24072-17.23535,2.31982-25.83398,1.8999
		c-17.61621-0.85596-33.7832-7.29346-50.48633-11.71777c-12.33301-3.26807-24.92188-4.52686-37.70508-4.10059
		c-11.96484,0.40234-21.94922,5.67627-31.49219,12.20508c-0.36719-0.37012-0.74023-0.74023-1.10938-1.10693
		c-0.00781-0.3877-0.01953-0.77197-0.02539-1.15967c-0.00977-0.00732,0.02539,0.03857,0.02539,0.03857
		c0.02344,0.36328,0.02734,0.71973,0.04492,1.0791c0.36719,0.36621,0.73242,0.74023,1.09961,1.10645
		c-1.27539,1.68164-2.55469,3.36719-4.28223,5.64795c19.65332,10.74219,40.39746,19.04443,57.86816,32.94482 M282.20605,108.9668
		l-0.03516-0.04248L282.20605,108.9668z M549.29688,321.32617c-3.82617,3.55322-7.71387,3.3667-12.21582,0.93018
		c-11.08301-6.00684-23.1748-7.39941-35.13379-7.55811c-1.95313,2.72461,0.83203,4.20557,0.29297,6.15186
		c-4.73438,4.52246-18.98047,2.73926-24.88281-3.12744c-4.50195-4.47705-3.69141-9.72998,2.67578-16.24854
		c6.15234-6.30664,13.22461-11.40088,20.96973-15.56836l-0.02832,0.04297c7.66406-4.8335,15.3252-9.67041,24.55469-15.49414
		c-11.32422-0.57129-20.92383,1.12793-30.60449,1.84717c-10.30469,0.75781-18.77246,6.27881-28.80957,8.46436
		c2.6084-2.31982,5.22852-4.63916,7.84375-6.9624c-0.53906-0.78613-1.07617-1.57617-1.61523-2.36572
		c-6.8418,6.05273-14.26758,11.11572-23.80273,15.40576c6.75781,2.4541,12.85352,0.71924,19.63672,5.66211
		c-24.00391,1.87158-44.8457,8.3125-65.52344,18.07764c1.82422-4.3501,2.02734-4.50146,9.10938-7.46973
		c3.55078-1.4917,7.11523-2.97559,10.45703-4.97119c-15.92383,4.61865-30.5791,12.27246-45.65039,18.9209
		c-0.36621-0.3667-0.74023-0.7334-1.10938-1.09619c2.75293-2.83105,13.39258-9.4585,15.94434-11.53516
		c1.19238,0.59912-16.3584-6.46924-27.4873-17.60596c-10.15039-10.17041-14.82813-23.82471,2.61914-36.29395
		c-1.45703,3.96973-2.48535,6.77588-3.51758,9.58203c-3.82227,10.41406-2.20508,17.21094,6.02832,24.49121
		c8.30859,7.35742,18.18652,12.36328,28.60059,15.31787c6.79102,1.9209,13.27344-3.33545,20.03125-5.65479
		c-13.34668-2.46094-26.31641-11.98633-32.94727-18.7627c-8.20117-8.36865-9.49121-20.06641-8.96582-32.16895
		c-14.4043-1.29395-28.25879-0.39502-42.0752,1.85449l0.03516,0.00391c13.48438-7.18506,28.37891-6.31787,43.04883-7.38281
		c-12.65039-3.9624-25.5918-5.44287-38.56445-6.79297c21.83594-1.45947,43.15039,1.60742,64.07813,7.57227
		c12.16602,3.46875,24.19727,7.37891,36.2998,11.0874l0.33496-0.06348l0.08008-0.3418
		c-16.81836-10.74902-35.29102-17.72217-54.22266-23.61328c-3.73438-1.16699-7.56641-2.05518-11.34961-3.0708l-0.04492,0.0459
		c32.12305,2.84521,77.62305,23.36279,104.45703,47.10645c21.49512-9.29639,29.79688-27.76953,27.1748-60.46387
		c4.42285,5.35498,6.69043,18.83643,4.80762,27.7832c-2.04102,9.71631-5.2168,18.88916-12.67676,26.17627
		c9.58496,3.87109,19.79492-0.75439,23.40137-10.16357c3.97656-10.36426,8.23535-20.56738,14.70117-29.68018
		c3.23633-4.55859,6.90527-8.57764,15.25781-10.5166c-11.72559,10.54102-19.8457,20.94824-24.46973,33.60449
		c0.83203,0.77539,1.66309,1.55127,2.49902,2.33008c2.51367-3.32471,4.63672-7.06494,7.625-9.88867
		c7.52051-7.08252,14.89258-14.521,25.32031-17.42969c3.05859-0.85645,5.98242-1.2373,7.86914,2.91553
		c-4.91797,0.64844-10.94043-1.15625-12.55469,5.76416l-0.03516-0.04248c4.9707,1.82666,6.9209,5.81689,7.3252,10.69287
		c0.58887,6.99414-0.7334,13.72412-3.23926,20.24609l0.07813,0.33838l0.34473,0.0918
		c8.42871-8.02002,16.24512-16.5415,22.36621-26.52832c1.78711-2.93359,1.92383-5.54248,0.34863-8.51758
		c-12.19434-23.12305-29.22559-41.34912-53.43457-52.01367c-12.22266-5.39355-24.28711-11.27441-37.20703-15.1875
		c10.54102-0.15869,20.57031,2.70752,31.17188,5.82031c-16.1582-26.89893-148.38379-70.17285-192.00781-63.27344
		c-1.48047,4.48438-2.77051,9.2749-4.65039,13.82275c-1.86719,4.53711-3.78516,9.14502-8.02344,13.70703
		c0.52539-4.53711,0.78711-8.03125,1.33008-11.48242c7.66406-49.10156-34.77832-72.32715-71.70313-68.6958
		c-21.86523,2.14746-40.79688,10.98877-58.29297,23.74023c-7.875,5.74268-15.55371,11.78516-24.19531,16.64307
		c7.67188,0.78271,14.58887-2.4502,21.86523-3.08789l-0.04297-0.05664c-13.00391,9.31104-28.54492,10.60449-43.50586,13.73828
		c-3.64648,0.76855-7.38965,1.40723-10.86523,2.71484c-5.82031,2.20313-6.38086,6.43359-1.49512,10.41748
		c5.39746,4.40674,11.85938,6.44092,18.59277,7.71338c20.96582,3.96973,41.10645,0.00391,61.16602-5.93994
		c18.42676-5.46094,35.89844-14.5708,55.39453-15.94189c13.73828-0.96973,26.97266,1.29004,38.80371,12.93799
		c-5.49316-2.85889-9.24023-5.13623-13.22754-6.80371c-4.06836-1.69922-8.34766-3.00732-12.70117-2.60547
		c-1.2207,1.354-0.13867,2.18945,0.17578,3.12744l-0.03516-0.03564c6.91992,3.71924,10.54395,9.57178,10.26172,17.36572
		c-0.26758,7.60449-4.98047,12.2124-11.57031,15.32861c-9.38086,4.43164-18.2832,9.97021-28.91211,11.43311
		c5.42578-2.55273,18.05078-9.8252,18.44141-9.80762l-0.03125,0.03857c-0.36719-0.021-24.91406-7.89014-35.39453-15.05371
		l0.04199,0.04639c-2.98242-2.23193-5.96191-4.45605-9.15918-6.85352c-6.05664,2.17139-12.01074,4.30811-19.38574,6.95215
		c7.09277,3.45117,12.9873,6.25049,17.77148,10.75928c4.7666,4.48438,9.77637,8.76758,11.08691,16.53809
		c-5.05469-2.83496-8.20703-7.28027-13.53711-8.89844c-18.80469,38.60303-66.3584,109.11426-67.63477,114.41309
		c6.86133-3.25049,38.1377-32.43701,44.37793-36.4248l-0.03223,0.03906c4.60449-4.24414,9.21582-8.48535,13.82715-12.72656
		l0.30273-0.2959c7.46387-7.44238,14.92676-14.8877,22.38574-22.33008c0-0.00684-0.03809-0.04248-0.03809-0.04248
		c-9.81152,18.45557-24.46582,32.79004-39.95703,46.29248c-14.37305,12.53564-29.11621,24.66699-43.90137,36.73047
		c-9.17969,7.4917-17.16211,16.06885-24.4873,25.31641l0.04199-0.03223c-11.01953,16.89746-17.81445,35.22217-19.71387,55.4541
		c-2.07324,22.0332,4.3252,42.33301,11.57031,62.60742c12.74414,35.66797,44.58887,67.08496,58.83496,76.79688
		c42.98242,23.74805,46.94434,25.74707,75.97656,35.89648c30.75195,10.75195,62.76172,14.89453,95.07617,17.21387
		c3.69336,0.26074,7.42383,0.03223,13.14551,0.03223c-23.74316-16.04395-46.63672-30.23438-61.1377-53.81543
		c0.36719-0.36621-13.87891-20.35254-17.63281-32.40234c-0.50391-0.38379-1.00195-0.97168-1.62891-1.22266
		c-17.83594-6.87402-20.38086-20.87793-14.36914-37.89063c4.94141-13.94727,13.58984-25.85645,21.83203-37.95215
		c0.36328,0.35742,0.72266,0.7207,1.07813,1.07324l-0.03516,0.0459c-0.36621-0.35938-0.72559-0.71973-1.08203-1.07617
		c5.2041-8.2666,10.8623-16.20898,17.20117-23.6377c0.35547,0.35938,0.72266,0.71191,1.08203,1.0752l-0.03906,0.03125
		c-0.35645-0.35938-0.72266-0.70801-1.08203-1.07031c4.74805-5.99805,9.50098-11.9834,14.24609-17.98047
		c0.01758-0.41895-0.17969-0.61328-0.59961-0.5918c-2.48242,1.67871-4.96094,3.35156-8.39746,5.69727
		c1.04395-7.14648,5.4082-10.5625,10.32227-13.2666c4.52344-2.49219,9.27246-5.19971,14.15137-2.80615
		c1.38867,3.26074-1.57227,3.81787-1.53711,6.07764c22.54785,16.00879,48.77051,24.82227,74.0332,35.80176
		c-5.65527-5.56445-11.77539-10.42969-16.59766-16.60938c-7.84375-10.05078-5.80273-22.81982,4.52637-28.48145l-0.0459-0.03906
		c-8.98926,13.33008-7.94336,20.70117,4.40723,31.34082c8.27637,9.07422,58.74023,35.11719,90.41504,37.1543
		c28.31641,1.81543,60.74609-15.33203,62.22266-56.45898c0.0293-0.64258,0.30762-1.2793,0.88477-3.61719
		c4.16016,14.28906-1.31055,25.4707-5.57324,36.93848c5.28809,2.17578,9.68848,0.15918,13.68652-1.77637
		c19.68945-9.52539,31.7168-25.6582,37.62305-46.28125c2.13867-7.49121,0.43652-15.36719-3.2334-22.34375
		c-1.93457-3.67041-5.22168-6.28223-10.06934-6.69531c-9.95508,12.19482-21.7334,22.37646-35.8877,29.6416 M305.77344,478.96387
		c12.66992,13.81934,25.4043,27.51172,40.41797,38.95898c27.98047,21.33496,60.57813,31.22754,94.45703,36.25781
		c42.80859,6.35645,82.92773-3.33105,119.91211-25.80176c8.04492-4.88184,14.2002-11.88672,20.89258-18.29297l-0.03516,0.03125
		c14.18164-19.96094,19.72656-42.03711,16.38477-66.33691c-1.89355-13.81934-8.17871-25.98145-13.74121-38.81055
		c-25.34082,18.95898-50.22363,37.2627-81.25781,44.49707c9.77246-5.18555,19.54102-10.36133,29.31738-15.54297l-0.04883,0.04492
		c3.29297-2.6543,6.81055-4.93164,10.76172-6.47949l-0.03516,0.0459c13.05176-10.14258,26.36035-19.98242,36.51367-33.29395
		l-0.04297,0.03906c6.38867-10.82715,11.8457-21.92871,10.33691-36.79199c-13.8623,11.06445-28.57715,17.00684-45.14941,16.50977
		c-21.125,30.49414-53.44141,40.18359-86.60449,48.02344c-51.05957,12.07422-100.7002,7.88672-148.54297-14.18555
		c-3.53613-1.62598-7.28027-3.04297-9.99512-6.07422l0.03516,0.03906c-1.46582-0.38477-2.56641-1.06934-2.58984-3.17676
		c5.7168-0.30078,9.86328,4.22656,16.0752,4.62793c-3.60645-17.69727-3.78613-34.98926,2.06543-53.07031
		c-1.76563,0.85352-2.50293,0.95898-2.78809,1.37109c-11.96875,17.32031-24.28613,34.38672-33.58301,53.43359
		c-10.80566,22.14648-1.74805,35.24707,18.99805,44.375c13.36133,5.89453,28.24219,5.55566,42.55469,7.39648
		c7.01563,0.9082,14.02832,1.85742,20.97656,3.70801c-21.98438,3.89551-43.9082,1.60059-66.71875-0.8916
		c2.20117,7.99902,8.14453,12.9834,11.46875,19.43555 M31.26563,418.88379c0.41992,0.2998,0.88867,0.94434,1.26563,0.89258
		c13.61914-1.85449,26.76465,0.99707,39.93555,3.79199c2.05859,0.43848,4.53027,0.31445,5.96875-1.50781
		c4.28711-5.45117,9.01074-6.47656,14.85938-0.87402c0.26074-6.63965-2.51367-11.28516-4.20898-16.20996l0.03906,0.03516
		c-1.96094-2.71484-3.91016-5.41992-5.9834-8.29102c-18.80762,4.30664-34.69727,14.8125-51.91895,22.19824 M349.78125,410.36719
		l-0.03613-0.03906L349.78125,410.36719z M386.20117,406.0791c0.00391,0,0.03906-0.04199,0.03906-0.04199L386.20117,406.0791z
		 M539.63086,377.11523l-0.03223-0.03516L539.63086,377.11523z M313.30664,58.55029l-0.03516-0.03516L313.30664,58.55029z
		 M207.11914,54.26318l-0.03516-0.0459C207.07617,54.22461,207.11914,54.26318,207.11914,54.26318z M353,350.30469l-0.03516-0.03906
		L353,350.30469z M162.07227,251.62158l-0.03906-0.03516L162.07227,251.62158z M529.93555,249.48193l0.03516-0.0459
		L529.93555,249.48193z M594.28711,151.86719l0.04297-0.03857L594.28711,151.86719z M228.52539,144.36133l0.04199-0.04541
		L228.52539,144.36133z M404.48047,387.81445l-0.03711,0.04883L404.48047,387.81445z M390.54102,256.95947
		c1.3291,2.84082,3.70605,3.97266,6.58203,3.17285c3.14453-0.87451,4.9082-3.23291,5.48926-6.68799
		c-5.67871-3.52881-9.5498-2.20703-12.11328,3.55713L390.54102,256.95947z M396.97461,371.72852
		c3.31055,4.76953,5.61328,10.26563,10.26563,14.68262c2.12305-2.6084,3.98145-4.88965,6.22363-7.64648
		c-5.5498-3.1416-10.91211-5.3623-16.53027-6.9873L396.97461,371.72852z M354.92773,353.35352l-0.10938,0.44727
		c2.37695,6.3457,7.08594,10.9541,11.57813,16.12988c3.69336-1.98535,7.0957-3.80078,11.92285-6.3877
		c-8.32324-3.74121-15.63184-7.01953-22.94434-10.30273L354.92773,353.35352z M105.9082,308.25391
		c-3.59961-2.11914-7.07129-4.35791-10.63184-6.24023c-4.20215-2.22803-7.52441-5.23877-10.21387-9.16602
		c-3.64453-5.30957-12.15234-9.47266-20.17578-9.8042c7.91797,6.32471,15.31055,12.01465,22.45313,18.01172
		c5.15137,4.32178,10.97461,7.98096,14.66211,13.85449l-0.28516-0.44824
		C104.30078,313.20703,104.59766,311.34912,105.9082,308.25391z M428.07617,571.23047
		c0.05664,2.96777,2.70117,3.53906,4.54102,4.70215c7.34668,4.64355,14.77539,9.1416,23.42969,14.46484
		c-1.93164-8.9502-6.16602-15.28223-8.46875-21.1875c-7.86914-4.56543-13.59277-0.52441-19.54785,2.0625L428.07617,571.23047z
		 M411.70703,249.71094c2.90918,13.93604-1.55078,18.58594-20.81641,21.72314c4.82617,7.07617,17.3623,8.14063,25.18164,2.12988
		c7.48047-5.73975,7.96777-14.55322,1.31152-21.98779c-1.43164-1.60107-3.1084-2.28857-5.16113-2.37256
		C411.88379,249.19629,411.70703,249.36523,411.70703,249.71094z M158.5,507.97461
		c-3.63086,1.65625-7.66406,0.86914-13.18457-0.12793c1.59277,16.6748-14.63379,18.00879-23.7041,25.8584
		c0.53906,0.74805,1.08203,1.50977,1.61719,2.26758c12.99512-5.4082,25.99316-10.80566,39.58984-16.45703
		c1.10059-0.85156,0.2832-2.52734,0.26855-4.05664l0.0459,0.03516C161.82129,513.01563,161.51074,509.95508,158.5,507.97461z
		 M462.35742,416.80371c-5.12695-8.61621-10.23828-17.22168-15.41699-25.93262c-7.23145,6.55078-10.55762,21.56055-6.34961,29.17578
		c7.09668-1.0752,14.4541-2.17773,21.80957-3.27539L462.35742,416.80371z M402.33398,391.0293
		c-2.53906,18.95996-2.5,24.11719,0.20703,29.80859c11.69922,2.35742,14.61719,1.27148,19.47852-7.70801
		c-5.41211-6.60938-9.46191-14.58789-16.0957-20.65137c-1.06543-0.97656-1.95117-2.1543-3.63184-1.40625L402.33398,391.0293z
		 M447.46484,281.23145c6.06445-2.89063,12.00586-6.11328,17.17969-10.58301c-5.86523-6.31396-24.00781-14.69043-33.21582-15.49072
		c-0.1416,0.48633-0.46191,1.00439-0.40137,1.47754c2.09375,17.42236-3.10352,24.08154-20.9375,26.93701
		c-1.19922,0.19385-2.30859,0.85693-3.46094,1.30127l-0.03516-0.03516C420.79297,290.17188,434.33398,287.47461,447.46484,281.23145
		z M483.85547,305.2251c-0.88574,1.49854-1.77344,2.99316-3.13867,5.29883c31.28125-16.64697,62.24512-31.29834,97.99609-32.60986
		c-1.25879-5.25635-5.04102-5.83789-8.95117-6.33154c-20.91895-2.64404-39.875,3.3418-57.93359,13.20947
		c-10.22949,5.59473-19.58301,12.39893-28.00781,20.46826L483.85547,305.2251z M340.375,412.76074
		c5.66504,0.87793,8.41406-4.98926,13.50195-7.46777c-11.43945-14.28027-22.41797-27.95215-31.02734-45.54785
		c-4.98438,16.59863-8.91113,31.1084-3.10156,46.33398l-0.03906-0.03516C326.12207,409.74219,333.23633,411.65234,340.375,412.76074
		z M263.91992,563.76758c0.74023-1.58691,1.48438-3.1875,2.36523-5.0625c-10.36426-7.39648-21.45508-8.77148-34.01953-5.9375
		c-2.35547,21.59766-4.98145,42.78125-3.75781,66.40039c5.80273-8.54199,10.43555-15.37012,15.07422-22.20508l-0.03516,0.04492
		c1.63867-4.51563,3.11719-8.91211,1.68164-13.93945c-1.14258-4.01855,0.81445-7.05859,4.44922-9.29883
		c4.9707-3.04688,10.43555-5.42969,14.29492-10.05469L263.91992,563.76758z M606.13672,333.11523
		c-0.3877,1.37109-0.41211,3.00781-1.20898,4.07422c-7.33984,9.97363-7.10059,21.36719-6.70898,32.95313
		c0.25781,7.81152-2.92969,14.95703-5.94336,21.83887c13.66016,27.59277,19.23438,31.04395,16.75195,85.28613
		c14.28516-9.7832,26.22266-20.77539,33.68164-36.21289c5.89063-12.18652,6.76855-24.39941,2.93359-37.41406
		c-6.4375-21.83984-17.67383-41.27246-29.23633-60.58398c-2.46484-4.11133-4.87891-8.24609-7.16016-12.0957
		c-2.21777-0.28906-2.26758,1.4375-3.15039,2.18945L606.13672,333.11523z M267.31543,134.84668
		c3.95508,0.69141,7.82617-0.07764,11.43262-1.88965c8.19629-4.13525,9.79004-12.70557,3.47656-19.26953
		c-7.11133-7.40332-15.02539-11.67627-25.73633-7.33984c-8.04102,3.25732-16.41016,5.71436-26.43652,9.14111
		C242.72852,124.25293,253.5166,132.44238,267.31543,134.84668z M117.96191,537.36816
		c1.0791-7.36035,6.88867-9.05566,12.10645-11.12207c7.0957-2.80273,11.72168-7.21289,12.14063-15.26172
		c0.23633-4.65039,3.32813-5.43555,7.18555-4.7207c2.23438,0.41016,4.39941,1.63965,6.72266,0.33594
		c-2.96094-7.07227-15.25391-13.39648-25.04492-12.58203c-11.9043,17.08301-24.00391,34.4502-36.09961,51.81543
		C102.64063,542.15918,109.77246,540.50977,117.96191,537.36816z M359.99414,368.8125
		c-7.54102-6.94531-7.55469-19.68164-19.0625-23.12988c-11.53809,5.45801-13.93555,11.90918-8.3584,22.83496
		c5.28809,10.37109,12.15527,19.62891,21.19434,28.89258C355.66797,387.08105,351.66992,376.89648,359.99414,368.8125z
		 M363.125,373.90039c-8.00977,15.40137-1.9502,29.37305,0.28516,43.18164c11.19336,5.20313,21.00098,4.37109,27.39258-2.55273
		C380.33984,402.02539,372.83984,387.79688,363.125,373.90039z M341.24902,603.79395
		c4.14355,8.84473,7.93945,17.86035,12.66016,26.61621c-2.96191-14.75,6.45508-31.49805-7.83008-42.75098
		c0.87793-8.83203,10.65039-11.30664,5.52051-19.12598c-10.67188-2.29492-17.69727,0.13477-23.73242,8.11914
		C332.44336,585.89648,337.01563,594.76172,341.24902,603.79395z M399.71875,385.9043
		c-7.48145-17.69434-13.32324-25.12695-29.40918-12.93945c2.75293,15.75195,15.22949,24.91797,25.77441,38.22656
		C396.29492,400.92578,395.27734,392.76758,399.71875,385.9043z M442.48438,389.36523
		c-7.50195-2.88379-14.23242-5.64746-21.0918-8.02344c-3.0498-1.0498-5.65625,0.82227-7.49219,3.05664
		c-2.48438,3.01465-2.69629,6.51563-0.72949,9.99121c5.36621,9.4209,13.39258,16.6084,21.79395,26.46777
		C434.13672,408.375,436.80566,398.72656,442.48438,389.36523z M107.65723,305.35596
		c2.67578-6.92432,8.91895-12.875,11.68652-21.29346c-19.64258-1.88965-38.58203-3.70508-57.53418-5.52441
		c-0.2959,0.64893-0.59277,1.29395-0.8916,1.93555C80.66406,280.97803,91.31348,297.88232,107.65723,305.35596z M123.75,223.22803
		c5.98633,9.96631,11.35547,18.8999,17.27148,28.73926c5.0625-6.91699,9.61328-13.12158,14.66895-20.02441
		C144.61328,228.92529,134.88086,226.26709,123.75,223.22803z M558.05078,249.3374
		c2.32617-7.04395,0.14453-12.51172-6.81836-15.95605c-3.5293,2.02002-6.13477,4.81934-8.61719,8.2915
		c8.22266,3.07715,14.73535,9.88037,4.23828,21.73438C555.38086,260.60449,556.33008,254.53369,558.05078,249.3374z
		 M363.66406,571.03516c-2.55273-1.76855-4.90039-2.7207-8.07324-1.69824c0.86035,6.41309-3.58887,10.69238-7.06836,16.19238
		c4.30176,7.63574,10.59668,15.01367,8.68652,25.19238C359.99414,597.43066,359.30273,583.83301,363.66406,571.03516z
		 M47.94727,425.5293c15.24805,3.44434,30.83398,5.36523,45.60156,10.62891c2.98242-8.33008,1.23633-12.24023-7.01172-16.29492
		c-1.00586,0.76563-2.27734,1.46387-3.17676,2.5c-5.12207,5.90234-11.20801,6.85352-18.38477,4.2793
		c-5.74316-2.05859-11.69824-3.47559-18.46582-1.69141C46.98535,425.14453,47.44727,425.41309,47.94727,425.5293z
		 M465.58984,414.42773c1.88965,0.875,3.37695,0.51172,5.40039-0.52246c0.85742-4.5498,1.75586-9.36621,2.73633-14.58691
		c-6.89941-2.1084-13.29492-4.0625-20.97949-6.41309C456.46289,401.67578,461.24707,408.06836,465.58984,414.42773z
		 M258.94531,571.43848c-11.26367,5.91113-11.22852,5.97852-8.82031,18.8252c5.03125-1.49902,19.81641-22.79883,18.875-28.57617
		C266.17285,566.38672,262.99219,569.3125,258.94531,571.43848z M325.11719,353.94922
		c3.22266-3.60645,6.3418-7.11328,9.56836-10.73438c-2.28125-2.74316-4.85547-4.34277-8.37305-4.98047
		c-2.90527,4.12109-4.4707,8.7207-5.79883,13.76563C322.10742,352.67383,323.51367,353.26855,325.11719,353.94922z
		 M486.92188,401.94727c-2.77734-0.72949-5.59766-1.93164-8.89063-1.27246c-2.21484,3.38184-1.93164,7.35059-2.80664,11.77441
		c5.37305-0.25195,9.45215-2.45313,13.4248-4.66992C489.10352,405.38867,488.25195,403.68945,486.92188,401.94727z
		 M534.75,251.55322c-1.83301,2.23828-1.84375,0.38232-0.91602,3.73828c0.71777,1.76514,2.95801,2.33301,4.70801,0.125
		c2.46484-3.11035,2.19434-3.86328-0.47949-6.96924C535.57813,249.21924,535.71484,249.75537,534.75,251.55322z
		 M357.68555,416.65527c1.19434-3.43652-0.44531-5.89746-0.83984-9.91699c-2.53418,3.16309-4.24121,5.28223-6.79688,8.45117
		C353.33105,415.82031,355.47754,416.22949,357.68555,416.65527z M490.72266,401.83594
		c-0.82227,1.89258,0.00684,3.09766,1.42383,4.31738c4.10742-1.24023,8.13672-2.68945,12.38867-6.52637
		C499.0957,400.34375,494.74805,399.95996,490.72266,401.83594z M424.45508,415.35449
		c-2.05469,0.97363-3.01953,2.66309-3.39063,5.17578c2.70703,1.06738,5.2002,1.16309,7.95313-0.55762
		C427.73047,417.49805,426.40625,416.16895,424.45508,415.35449z M394.05566,416.31738
		c-1.81445,0.55664-2.19629,1.99902-2.47363,3.58105c1.75195,1.68945,3.51855,1.50293,5.64063,0.56445
		C397.22266,417.91406,395.77344,417.04297,394.05566,416.31738z M524.59375,260.38379
		c-0.61328,0.53564-1.31738,0.37598-2.34766,1.75098c12.25391,1.32861,7.52832,2.38135,7.52832-2.16992c0-1.5708,0-1.5708,0-4.75049
		C528.45215,255.79199,525.05273,259.96777,524.59375,260.38379z"/>
	<path id="collar_1_" fill-rule="evenodd" clip-rule="evenodd" fill="#FF6600" d="M98.84375,454.40234
		c-2.21094-4.9707-0.40234-9.29297,1.14258-14.20703c4.4873-14.35547,2.62891-28.14648-6.54004-40.5293l0.04199,0.03516
		c-0.72949-4.45801-5.08398-6.25977-7.41699-9.9375c2.23145-11.14746,4.48145-22.41016,6.74023-33.6875
		c3.78613,16.58203,6.0957,32.96875,10.46777,48.97754c5.68945,31.1543,31.57227,65.51953,44.47852,77.05566
		c36.38281,35.19922,80.81641,54.06055,129.62305,64.34766c34.69238,7.3125,69.97461,5.83789,105.03125,7.81934
		c11.04785,0.62012,20.99316,5.33301,31.54102,8.42871c-12.5918,7.6543-26.08789,11.62793-40.25195,15.25977
		c-0.75195-4.48926-0.62793-8.95313-4.85156-10.79883c-13.79102-6.04688-27.76172-6.29688-41.39453,0.22852
		c-4.83398,2.32031-6.76563,6.52832-3.66699,12.08594c1.58691,2.84375,3.54297,5.80469,3.22559,10.15918
		c-19.79492,2.39355-39.46289,4.0293-59.79688-1.41016c15.68359-16.81543,15.35254-23.07715,10.84766-29.84668l-3.38086-3.90137
		c-12.2832-10.05859-24.46289-9.5752-38.37402-8.29199c-6.93066,0.6416-10.49512,4.24414-10.84473,11.42969
		c-0.31641,6.62012-1.30078,13.2168-2.08984,20.76367c-3.4668-1.85742-5.78516-3.08789-8.08789-4.34668
		c-19.10059-10.44238-37.71094-21.63867-54.22656-35.97949l0.03809,0.02734c-0.71582-1.09961-1.42871-2.20313-2.14355-3.30273
		l-0.04883,0.05273c10.96289-5.01953,12.64453-8.35547,9.36328-20.02441c-4.4668-15.85254-16.50293-22.94238-31.46094-26.25684
		c-6.76563-1.49609-11.95801,0.71484-14.4082,7.68555l0.03125-0.04688c-1.57813-2.13477-3.28516-4.20898-4.73047-6.43555
		c-7.29102-11.26758-12.71289-23.5293-18.88965-35.39258L98.84375,454.40234z"/>
	<g id="Spikes_2_">
		<path id="spike_13_" fill-rule="evenodd" clip-rule="evenodd" fill="#FFFFFF" d="M243.60352,597.05664
			c1.64258-4.50098,3.11914-8.9043,1.68555-13.93262c-1.13867-4.01855,0.81348-7.05371,4.45215-9.2998
			c4.9668-3.04492,10.42773-5.43262,14.29199-10.05664l-0.05664,0.05664c0.74805-1.59375,1.49121-3.18848,2.36523-5.06641
			c-10.35742-7.39746-21.44824-8.76855-34.01563-5.9375c-2.35547,21.59961-4.97852,42.78711-3.75879,66.4043
			c5.80371-8.54492,10.43457-15.37402,15.07129-22.20703L243.60352,597.05664z"/>
		<path id="spike_12_" fill-rule="evenodd" clip-rule="evenodd" fill="#FFFFFF" d="M94.60645,545.83301
			c9.70801-4.0752,13.43457-5.00293,22.99219-8.46484c2.3623-8.46094,6.87793-9.05566,12.09863-11.12207
			c7.10449-2.79492,11.72949-7.20605,12.14258-15.25391c0.23633-4.6543,3.32422-5.43945,7.1875-4.72168
			c2.23242,0.41016,4.40332,1.64063,6.7168,0.33301c-2.95508-7.07617-15.25488-13.40039-25.03711-12.58203
			C118.80078,511.10352,106.70117,528.46777,94.60645,545.83301z"/>
		<path id="spike_11_" fill-rule="evenodd" clip-rule="evenodd" fill="#FFFFFF" d="M89.18359,405.07227
			c-1.95605-2.71875-3.91211-5.42578-5.97852-8.30078c-18.80859,4.30176-34.7041,14.82227-51.92578,22.2002l0.04297-0.03809
			c0.42578,0.31445,0.8916,0.94824,1.26563,0.89453c13.61816-1.85352,26.76465,0.99023,39.93945,3.79688
			c2.06152,0.4375,4.5293,0.31055,5.96777-1.50586c4.29004-5.44922,9.01074-6.48242,14.85645-0.88086
			c0.26367-6.63867-2.51758-11.28125-4.20703-16.20215L89.18359,405.07227z"/>
		<path id="spike_10_" fill-rule="evenodd" clip-rule="evenodd" fill="#FFFFFF" d="M327.92676,576.71191
			c4.57617,9.23242,9.15234,18.10352,13.37891,27.13574c4.14941,8.85156,7.93945,17.86328,12.65918,26.61914
			c-2.9541-14.75,6.46289-31.49805-7.83008-42.75586c0.32813-7.85059,10.65039-11.30469,5.5332-19.13184
			C340.98633,566.29102,333.95508,568.73047,327.92676,576.71191z"/>
		<path id="spike_9_" fill-rule="evenodd" clip-rule="evenodd" fill="#FFFFFF" d="M60.98047,280.52637
			c19.73926,0.50781,30.33301,17.35596,46.67676,24.82959c4.18457-7.00146,8.6123-13.1709,11.74316-21.2373
			c-19.64063-1.88916-38.58594-3.70508-57.52734-5.52393C61.57324,279.23975,61.27734,279.88477,60.98047,280.52637z"/>
		<path id="spike_8_" fill-rule="evenodd" clip-rule="evenodd" fill="#FFFFFF" d="M428.13672,571.2832
			c0.05273,2.96875,2.7002,3.5498,4.54102,4.71289c7.34961,4.63281,14.77148,9.12695,23.43164,14.45508
			c-1.93848-8.95898-6.16895-15.2793-8.46777-21.18164c-7.87207-4.56055-13.59668-0.5293-19.54395,2.05566L428.13672,571.2832z"/>
		<path id="spike_7_" fill-rule="evenodd" clip-rule="evenodd" fill="#FFFFFF" d="M155.74414,231.99951
			c-11.07031-3.021-20.80664-5.67969-31.9375-8.71484c5.99316,9.9624,11.3623,18.89941,17.27441,28.73926
			C146.14746,245.10693,150.69141,238.89502,155.74414,231.99951z"/>
		<path id="spike-accent_9_" fill-rule="evenodd" clip-rule="evenodd" fill="#CCCCCC" d="M357.26563,610.77441
			c2.78516-13.2832,2.09766-26.88184,6.46094-39.68262c-2.55859-1.77539-4.90625-2.7207-8.0791-1.70117
			c0.8623,6.41602-3.58496,10.69531-7.06934,16.18848C352.88672,593.21777,359.17969,600.59375,357.26563,610.77441z"/>
		<path id="spike-accent_8_" fill-rule="evenodd" clip-rule="evenodd" fill="#CCCCCC" d="M46.57227,425.00391
			c0.47266,0.19043,0.93555,0.46191,1.43164,0.57813c15.24707,3.44434,30.83594,5.36523,45.60449,10.62598
			c2.98535-8.31934,1.24121-12.22949-7.0127-16.29102c-1,0.76855-2.27637,1.46582-3.17969,2.49902
			c-5.11816,5.90527-11.20313,6.85352-18.38086,4.2832C59.29199,424.6377,53.3418,423.21973,46.57227,425.00391z"/>
		<path id="spike-accent_7_" fill-rule="evenodd" clip-rule="evenodd" fill="#CCCCCC" d="M102.02734,314.93066
			c2.58789-1.2583,3-3.7124,3.88086-6.67676c-3.59961-2.11914-7.01172-4.30127-10.5791-6.19092
			c-4.19238-2.22412-7.5166-5.23535-10.20996-9.1626c-3.64453-5.30566-12.14844-9.47217-20.17188-9.80029
			c7.91797,6.32129,15.31445,12.01465,22.45703,18.00781c5.14258,4.32568,10.9707,7.97754,14.66211,13.85107L102.02734,314.93066z"
			/>
		<path id="spike-accent_6_" fill-rule="evenodd" clip-rule="evenodd" fill="#CCCCCC" d="M269.05273,561.74414
			c-2.82324,4.69531-6.00391,7.625-10.05469,9.74609c-11.25195,5.91602-11.2207,5.98242-8.8125,18.82227
			C255.21289,588.8252,270.00488,567.52148,269.05273,561.74414z"/>
		<path id="spike-accent_5_" fill-rule="evenodd" clip-rule="evenodd" fill="#CCCCCC" d="M163.19336,515.5498
			c-1.3125-2.47559-1.62207-5.54199-4.63281-7.52637c-3.63867,1.66406-7.66113,0.875-13.19238-0.12012
			c1.59668,16.66797-14.62988,18.00684-23.69434,25.84863c0.5332,0.76074,1.0752,1.51953,1.61133,2.26953
			c12.99805-5.39648,25.98926-10.80469,39.59375-16.45313c1.09961-0.84961,0.28516-2.53027,0.27148-4.05762L163.19336,515.5498z"/>
	</g>
</g>
</svg>
