<?xml version="1.0" encoding="utf-8"?>
<!-- Generator: Adobe Illustrator 16.0.0, SVG Export Plug-In . SVG Version: 6.00 Build 0)  -->
<!DOCTYPE svg PUBLIC "-//W3C//DTD SVG 1.1//EN" "http://www.w3.org/Graphics/SVG/1.1/DTD/svg11.dtd">
<svg version="1.1" id="Layer_1" xmlns="http://www.w3.org/2000/svg" xmlns:xlink="http://www.w3.org/1999/xlink" x="0px" y="0px"
	 width="640.5083px" height="347.83105px" viewBox="0 0 640.5083 347.83105" enable-background="new 0 0 640.5083 347.83105"
	 xml:space="preserve">
<rect x="35.3208" y="64.34375" display="none" fill-rule="evenodd" clip-rule="evenodd" fill="#993333" stroke="#000000" stroke-width="3" stroke-miterlimit="10" width="854" height="432.66699"/>
<g>
	<path fill-rule="evenodd" clip-rule="evenodd" stroke="#000000" stroke-width="3" stroke-miterlimit="10" d="M635.88037,293.16602
		c-2.15039-4.32031-3.71094-8.76172-4.34961-13.70117c-0.82031-6.31934-2.9707-12.29785-6.24023-18.02881
		c-3.73047-6.53125-9.55078-10.88086-14.50977-16.09961c-3.33984-3.52148-5.91992-7.25049-7.13086-11.93115
		c-5.58008-21.64941-20.0293-35.50977-39.50977-44.91895c-5.63086-2.7207-11.18945-5.77051-17.09961-7.71094
		c-11.37109-3.72998-17.00977-12.76953-22.37109-22.30957c-3.7793-6.72998-8.41016-12.6001-14.70898-17.36035
		c-5.32031-4.00977-19.71094-4.83984-17.20117-12.19971c2.76172-8.07031,15.91016-1.43018,23.46094-1.3999
		c11.14063,0.0498,14.31055-7.1001,11.12891-15.34033c-1.68945-4.37012-5.57813-7.72998-9.47852-10.5
		c-11.48047-8.15967-24.32031-11.70996-38.41992-11.10986c-10.47021,0.4502-19.12061,3.71973-25.33057,12.81982
		c-1.82031,2.66992-3.91016,7.31006-9.12012,5c-16.7002-7.3999-33.4502-14.70996-50.13965-22.16992
		c-8.66602-3.8667-19.66602-8.49707-34.94043-16.02002c-9.39941-4.62012-18.07031-10.66992-24.7002-18.81006
		c-4.56934-5.60986-9.42969-11.0498-14.78955-15.6001C304.2002,22.00586,285.7002,11.74561,265.24023,5.75586
		c-14.07031-4.12012-28.74023-4.30029-43.38037-4.25c-14.25977,0.0498-27.42969,3.85986-40.22998,9.61963
		c-4.65967,2.1001-8.87988,5.30029-14.29004,5.5c-11.92969,0.43994-21.59961,5.27002-29.02002,14.72998
		c-1.45996,1.86035-2.06982,4.61035-4.82959,5.32031c-7.81006,2.02979-15.54004,2.87988-22.54004-2.3501
		c-5.61035-4.18018-11.78027-6.37988-18.80029-6.78027c-11.58008-0.6499-22.00977,3.05029-32.06982,8.07031
		c-6.1499,3.06982-12.16016,6.62012-16.6499,11.87988c-6.18994,7.25-9.43018,16.5498,4.04004,19.60986
		c2.72998,0.62012,6.68994-0.15967,8.02979,2.89014c1.27002,2.87988-1.18994,5.87988-1.71973,8.87012
		c-1.17041,6.6499-4.33008,11.10986-11.2002,12.89014c-2.35986,0.60986-4.62988,2.07959-6.58984,3.95996
		c-6.32031,6.05957-8.15039,13.45996-7.31006,21.84961c0.27002,2.69043,0.33984,5.68018-2.47021,6.9502
		c-9.33984,4.22021-12.19971,12.45996-13.12012,21.47021C12.39014,152.8457,11,160.02539,15.93018,166.3457
		c4.21973,5.41016,3.92969,6.1001-0.54004,11.08984c-9.72021,10.84961-14.3999,17.91992-4.54004,32.77051
		c2.43018,3.65918,2.41016,7.19922,0.60986,11.0498c-2.02979,4.34961-4.12012,8.70996-5.72998,13.21973
		c-3.73975,10.47021-4.71973,21.32959-4.02002,32.34961c0.83008,13.06934,3.58984,25.44043,14.18994,34.4502
		c2.25,1.91016,2.77002,4.03906,2.89014,6.87891c0.25977,6-2.22998,11.8418-0.18994,18
		c3.02002,9.10156,7.73975,18.07031,17.3501,18.95117c11.60986,1.07031,24.0498,3.31055,35.25-3.49023
		c2.68994-1.63086,5.67969-3.25,9.0498-1.10938c3.8501,2.45898,7.91992,3.83008,12.6499,4.28906
		c16.72998,1.63086,33.26025,2.58008,48.6001-6.18945c3.2002-1.83008,6.06006-3.67969,7.37012-7.82031
		c2.25-7.11914-0.16016-13.06055-3.43018-18.84961c-5.45996-9.66016-14.3501-15.73047-23.41992-21.57031
		c-7.33008-4.7207-15.18018-7.71094-24.02979-7.80078c-2.07031-0.01953-5.04004,1.11133-6.02002-0.70898
		c-1.25-2.33984,0.56006-4.78125,1.92969-7.16016c1.91016-3.30957,3.95996-3.89941,7.18994-2.3584
		c1.29004,0.61914,2.74023,0.92969,4.14014,1.25c22.22998,5.14746,44.12012,11.65918,66.41992,16.58887
		c9.86035,2.17969,19.5,2.91992,29.59033,1.58984c15.75977-2.07031,31.41992-4.44141,46.92969-7.96094
		c1.11035-0.25,2.66992-0.68945,2.43018,1.16016c-0.30029,2.28125,1.16016,4.06055,1.12988,6.25
		c-0.12988,8.40039,8.97021,17.08008,17.18994,18.5c5.77002,1.00977,11.59033,0.14063,17.20996,1.05078
		c6.97021,1.12891,13.41992,1.66016,19.64014-2.61133c1.8999-1.29883,4.47998-1.61914,7.02002-1.59961
		c9.32031,0.07031,9.36035-0.01953,10.90039,9.41992c1.17969,7.24023,4.47949,12.42969,12.16992,14.36133
		c5.7998,1.45898,11.10938,4.12891,15.5498,8.39844c3.58008,3.45117,7.62988,5.46094,13.09961,5.07031
		c4-0.2793,8.18066,0.39063,12.27051,0.61133c11.06934,0.59961,22.13965,0.33984,33.20996,0.91992
		c18.4502,0.97852,36.97949,0.22852,55.47949,0.2793c1.99023,0.00977,3.80078-0.25,5.68066-1.10938
		c9.72021-4.45117,14.84912-11.10156,13.74951-22.57031c-0.75977-7.88086-3.32031-14.55078-9.53906-18.79102
		c-4.86084-3.29883-5.58057-6.88867-4.08057-11.61914c2.64893-8.33008,3.46924-16.80078,3.56885-25.54004
		c0.08008-7.43994-9.54248-16.00049-2.30908-18.09424c4.75049-1.375,9.9458,2.5293,14.87549,5.5
		c10.29883,6.19922,21.99414,9.18555,33.875,9.875c8.17969,0.48047,16.19922-2.45117,24.25-3.56055
		c1.29883-0.17969,3.0293-0.89063,4.04883,0.68945c2,3.11133,4.10156,6.19189,5.75,9.49072
		c0.90039,1.80078,1.03125,3.50977-2.25977,3.92969c-2.40039,0.31055-4.79883,0.7002-7.24023,0.7998
		c-10.56836,0.43945-21.18945-1.00879-31.71875,0.98047c-7.53125,1.42969-12.77148,5.04883-15.57031,12.69922
		c-4.00977,10.95117-0.33984,20.67969,3.76953,30.31055c2.62109,6.14063,6.95117,11.36914,13.5293,13.57031
		c8.33008,2.78906,17.11133,3.5,25.81055,4.47852c7.4707,0.8418,13.95117-2.4082,20.75-4.36914
		c2.91992-0.83984,5.9707-1.58008,8.48047,0.16016c9.0293,6.25977,18.81055,7.48047,29.2793,5.16016
		c12.15039-2.68945,23.75977-6.41992,32.30078-16.28125C639.86084,312.80469,640.97021,303.39453,635.88037,293.16602z
		 M379.54102,269.80957c0.04102,3.12695-0.45898,6.04004-8.00098,3.70703c-2.45801-0.41602-4.49219-0.35938-13.25,1.61426
		c0,0-0.16699-1.67676-2.75-4.27637c-1.03223-1.03906-4.72949-3.69336-3.12207-4.57813
		c7.31836-4.02783,17.62305-9.69189,25.28906-16.01807C379.08301,258.91846,379.38867,261.6001,379.54102,269.80957z"/>
	<path id="body" fill-rule="evenodd" clip-rule="evenodd" fill="#999999" d="M246.82764,51.69629
		c0.58203-3.021,1.47754-5.49756,0.70654-8.18555c-2.47949-2.60938-6-0.68359-8.72119,0.42188
		c-4.44141,1.80469-8.61621,4.26465-13.66113,6.83496c0.97656-3.05078,1.54639-5.60059,2.59131-7.93848
		c2.33301-5.22266-1.71729-13.67773-8.48779-13.25586c-2.15771,0.13379-4.39697-0.32227-6.48682,0.07715
		c-11.36084,2.17188-19.96338-4.10156-28.9248-9.25293c-1.98779-1.14258-1.82324-2.06836,0.38574-3.27637
		c10.65869-5.83203,22.0166-8.94824,34.12158-9.53906c6.67139-0.3252,13.22607-0.89355,20.02979-0.24609
		c11.88867,1.13281,23.21143,3.84961,34.30908,7.98047c14.55371,5.41699,27.91016,12.94531,40.37354,22.20801
		c13.13867,9.76563,24.89453,20.78711,34.19141,34.38184c11.74414,17.16992,20.36426,36.04199,30.06055,54.3291
		c0.27246,0.51367,0.10156,1.26172,0.16992,2.45898c2.99414-3.1709,1.10059-6.24707,0.48633-8.71777
		c-3.32813-13.39258-8.48926-26.12891-15.03418-38.28613c-0.69531-1.29102-0.99414-2.7041-0.17969-3.71094
		c1.01758-1.25781,2.09375,0.37207,2.95215,0.74316c25.15527,10.88477,50.41699,21.54688,75.30859,33.01172
		c14.52637,6.69141,29.18652,13.12695,43.33838,20.69141c10.48047,5.60156,20.46289,11.64453,29.14453,19.77637
		c5.82031,5.4502,9.31055,12.44336,12.83984,19.37402c3.40625,6.68359,9.57031,10.08984,15.83203,12.84766
		c10.42578,4.5918,21.06641,8.69727,30.18945,15.69043c11.18164,8.57227,20.71875,18.15527,24.31445,32.73535
		c2.24805,9.10791,7.17773,17.74658,14.47461,23.68799c12.22266,9.94775,15.19531,23.9917,19.21484,37.77295
		c0.44922,1.54297,0.66992,3.15039,1.02148,4.72266c2.3418,10.43359,0.45117,14.42383-8.63086,20.84766
		c-8.5,6.01563-17.91992,9.73438-28.08008,10.54883c-14.16797,1.13672-26.45508-6.32227-26.21875-21.68164
		c0.14063-9.08398,5.41211-14.85938,13.64063-18.08203c0.87109-0.3418,2,0.01953,2.67188-0.97461
		c0.58984-0.87305,2.17578-1.32031,1.33008-2.79883c-0.63867-1.11719-1.74414-1.5918-2.99219-1.25
		c-7.67773,2.10938-14.57422,5.66211-19.35938,12.17969c-3.82227,5.20898-3.38086,11.56836-1.10938,16.87305
		c3.65039,8.53125,2.24023,10.18164-7.18945,13.29688c-9.66602,3.19336-19.08984,0.20313-24.0625-7.35547
		c-7.375-11.21289-2.73828-26.04492,7.54492-33.88867c8.59766-6.55664,18.55859-8.79883,29.66797-8.10547
		c-2.46875-7.36621-7.10547-13.03027-10.17188-19.4917c-0.3418-0.7207-0.79297-1.38672-1.17578-2.08789
		c-3.13281-5.73828-5.67773-6.64648-12.25977-5.42188c-7.18359,1.33789-14.35742,2.78125-21.73242,3.01172
		c-8.01758,0.25-15.31836-2.34766-22.43164-5.35742c-9.58984-4.05664-18.76172-9.01758-27.50781-14.71045
		c-4.98291-3.24219-7.91846-8.08398-9.88623-13.46094c-3.23633-8.8418-5.75195-18.01367-10.96875-25.96191
		c-5.01172-7.63477-10.04688-15.29395-16.68066-21.71875c-1.22852-1.19043-2.57422-1.96973-4.4248-2.66797
		c-0.10938,5.31934,3.66895,8.02734,6.10156,11.21387c10.77539,14.11816,17.69141,30.01758,22.98242,46.8125
		c2.76367,8.77148,5.09473,17.60693,6.39551,26.70068c2.47461,17.31104,2.0957,34.19287-6.7832,50.04053
		c-2.35352,4.20313-4.48438,8.5-7.3584,12.39063c-0.4043,0.54688-0.23242,1.51953-0.40723,2.94531
		c6.68945-3.13477,11.65723-7.53711,15.68848-12.74805c1.48926-1.92578,2.00391-1.21875,3.25879-0.55469
		c4.56299,2.41602,8.99072,10.45898,7.89502,14.61328c-2.93164,11.11523-7.88623,14.84375-14.73584,14.48438
		c-34.06055-1.7832-68.1582-0.98633-102.24219-1.01563c-6.00977-0.00391-7.91602-4.46875-9.43652-8.46484
		c-3.66113-9.61914,2.50977-17.875,12.68848-18.78711c3.13379-0.28125,6.5625,1.36133,9.79297-0.76758
		c-11.40723-6.64844-24.30176-4.70898-28.15723,5.89063c-1.03027,2.83203-1.02637,6.02344-1.7168,9
		c-0.50781,2.18359-1.24414,3.39648-4.24609,2.19336c-8.30859-3.32813-10.40918-10.30273-9.61035-20.69727
		c0.38965-5.07813,9.10254-11.31445,14.94238-11.44922c7.3418-0.16992,14.4834,1.09766,21.56055,2.87695
		c0.9209-1.60547-0.3584-2.21875-1.20605-2.78516c-2.54297-1.69531-5.19531-3.22266-7.76465-4.87695
		c-1.5625-1.00781-4.49316-2.71484-4.33496-3.10547c0.97461-2.4082,2.87305-4.24023,5.42773-5.30664
		c9.74414-4.07031,19.81445-1.29883,25.24609,7.26172c7.29102,11.49219,10.5459,12.39844,20.38965,17.88672
		c-1.34375-5.19141-5.47656-7.83594-8.28223-11.06836c-7.67285-8.83789-11.58105-18.60352-12.26465-30.35498
		c-0.62109-10.67383-0.83301-21.55273-3.86133-31.93994c-4.68164-16.05957-22.13867-25.00586-35.80957-16.58203
		c-4.4834,2.7627-7.87402,6.85059-10.94531,10.89063c-3.61035,4.74707-7.60059,4.54297-12.50781,3.44727
		c-4.14453-0.92578-7.9751-3.16211-13.28711-3.42383c6.13916,5.18652,11.2749,9.75098,19.2373,9.22852
		c4.35547-0.28516,7.91992-1.92871,11.0166-4.43555c3.30469-2.67578,6.59473-5.52246,9.50977-8.56934
		c5.58008-5.83203,15.39063-2.94336,19.74805,0.94434c4.27637,3.81543,6.75293,9.16895,7.91113,14.67676
		c1.03906,4.93896-3.15137,8.2749-6.31641,10.89795c-10.87402,9.01758-23.23047,15.25391-36.83203,19.58838
		c-17.53223,5.58398-35.4707,8.50684-53.62646,8.50684c-18.48779,0-36.64551-3.65137-53.81494-11.08105
		c-2.91992-1.26367-5.84521-2.51416-9.42529-4.05518c5.57764-0.00391,9.49023-0.72656,13.8374-1.21484
		c8.38916-0.94336,17.87793-5.53711,25.49023-8.38867c4.21094,2.12891,6.375,3.69727,12.25,5.75
		c3.1333,1.49219,6.66309,2.25,9.74854,3.28516c4.58008,1.53516,7.39502-0.28906,7.87842-5.14453
		c0.48291-4.8457,0.4751-4.51953-0.22119-9.14063c-0.28955-1.92188-1.99707-8.26025-1.99707-8.26025
		s21.26758-25.24902,23.55811-40.8291c5.4082-1.28613,10.08301-3.47949,10.08301-3.47949
		c2.91895-0.92383,0.12646-0.06738,2.75342-1.23828c4.34229-1.93652,4.69287-5.41211,0.87451-8.33594
		c-1.78271-1.36523-2.33887-2.08203-5.42773-4.10742c-2.9873-2.13721-2.9873-2.13721-9.875-6.125
		c-2.44971-13.32715-10.99902-37.2207-17.875-49c3.75-2.625,6.29297-5.85156,7.94287-7.125
		c2.95752-2.28271,4.20703-3.72559,6.81299-6.45898c1.53271-1.60742,1.73242-1.41113,0.67822-4.1084
		c-1.14551-2.93164-3.44238-3.34717-6.20215-3.67969c-3.74268-0.45117-6.71826-1.53857-11.32617-2.00635
		c-6.07715-0.61719-3.15576-0.49658-9.84668-0.87158c-4.47998-8.2207-12.23828-19.08203-19.55908-24.875
		c-2.85449-2.25781-9.26807-8.18311-11.95996-10.66553"/>
	<g id="paws">
		<path id="paw-right" fill-rule="evenodd" clip-rule="evenodd" fill="#999999" d="M64.1377,316.13867
			c2.30176,5.20117,4.41162,10.50195,7.02148,15.54297c0.78467,1.51563,1.12207,2.125-0.45947,2.82227
			c-3.37402,1.48828-6.60205,3.25977-10.53613,3.13867c-6.15771-0.1875-12.32666,0.02148-18.48926-0.06836
			c-6.87891-0.10156-12.60889-5.00781-14.32813-11.66406c-1.68604-6.5293-1.96875-13.04297-0.97705-19.69141
			c1.39844-9.37695,4.85645-12.9082,14.5-14.66211c1.53125-0.27734,2.99219-0.94141,4.53271-1.44336
			c-3.21191-4.35156-7.73096-4.87891-14.28027-1.75c-2.34717,1.12109-4.48291,2.55469-6.39941,4.34766
			c-3.14209,2.93945-5.28467,2.66016-7.29492-1.14648c-1.40967-2.66992-2.31152-5.59961-3.37939-8.42383
			c-6.31348-16.7041-5.8667-33.33154-0.37598-50.00879c0.4707-1.42969,0.47461-2.86523,0.97266-4.24512
			c3.84326-10.64941,13.41504-13.56836,23.31104-7.31445c2.25342,1.42383,3.6499,3.41211,4.16406,5.56348
			c2.25684,9.45117,7.98975,16.271,15.82129,21.40576c7.86914,5.16016,16.18164,9.61328,26.02539,8.95313
			c3.01416-0.20313,5.85303-1.4668,8.95605,0.02539c1.7627,0.84766,3.00635,1.68359,3.49658,3.66797
			c0.52295,2.11523-1.26416,2.33008-2.28711,3.17627c-9.12109,7.54297-11.29199,16.5166-6.86182,26.67871
			c0.83887,1.92578,1.87109,1.96875,2.83008,1.17969c6.84863-5.63867,13.95068-4.12695,20.84033-0.56641
			c11.229,5.80469,22.08008,12.1582,29.25488,23.20117c5.02588,7.73438,3.97363,13.46289-3.77148,18.17969
			c-2.03906,1.24219-3.82178,0.71289-5.18652-1.10352c-3.71582-4.95117-6.74756-10.62305-11.21387-14.75
			c-5.54102-5.12305-10.83594-10.86719-18.15479-13.8125c-1.10205-0.44336-2.26514-1.375-3.11963-0.4043
			c-1.13428,1.29102,0.58252,1.96484,1.24316,2.72656c4.78418,5.51563,9.7793,10.85547,14.40674,16.49609
			c3.38574,4.12695,7.01367,7.99219,10.70947,11.82227c1.3042,1.35352,0.66846,3.04102-1.0957,3.3457
			c-7.65771,1.31641-15.41943,1.93359-23.13037,0.92578c-6.01318-0.78516-12.05322-1.83594-17.58398-4.67578
			c-2.96484-1.52344-5.28711-3.50977-7.07764-6.44141c-2.82275-4.62305-6.72314-8.36133-10.90918-11.74609
			C64.92041,315.66016,64.52881,315.89844,64.1377,316.13867z"/>
		<g id="paw-toes">
			<g id="paw-toes-left">
				<path id="paw-toes-left-1" fill-rule="evenodd" clip-rule="evenodd" fill="#666666" d="M534.00146,280.59375
					c-7,6.26758-10.67969,13.42578-12.30078,21.43359c-1.67188,8.25977,0.45313,16.37891,3.20313,24.64258
					c-12.28711-2.14258-15.41797-11.33594-18.42773-20.36719c-1.81641-5.45313-3.24414-10.94336-0.24414-16.83398
					c2.47461-4.86328,6.90625-8.72852,12.43555-8.875c0.33398-0.00781,0.66602,0,1,0
					C523.99365,280.59375,528.32178,280.59375,534.00146,280.59375z"/>
			</g>
			<g id="paw-toes-right">
				<path id="paw-toes-right-3" fill-rule="evenodd" clip-rule="evenodd" fill="#999999" d="M321.49561,299.56055
					c-3.75-0.85156-6.6748-2.74609-7.72998-6.18164c-1.11377-3.625-1.67041-7.5332-0.14404-11.25195
					c0.47949-1.16797,0.99756-2.21289,2.87402-2.70117c10.35693-2.68945,20.6167-5.7666,30.87061-8.84082
					c2.28516-0.68555,3.14746,1.08594,4.2832,2.11914c1.38281,1.25781,0.95898,2.78027-0.1748,4.31348
					c-3.69629,5.00195-7.54004,9.55469-13.83203,11.69727c-5.07324,1.72656-8.67285,6.03711-13.00586,9.08789
					C323.60303,298.5293,322.42236,299.04883,321.49561,299.56055z"/>
				<path id="paw-toes-right-2" fill-rule="evenodd" clip-rule="evenodd" fill="#999999" d="M307.32764,293.11914
					c0.15771,3.53516,0.73389,7.00195-3.47656,8.48047c-4.53369,1.5918-8.71094,1.48047-12.7002-1.67383
					c-3.72803-2.94922-4.98682-6.98438-5.75439-11.32617c-0.75342-4.26172,0.14941-6.92969,5.42432-6.06055
					c4.24414,0.69922,8.34668-1.5,12.68262-1.01953c1.88232,0.20898,3.14795,0.21094,2.92041,2.65039
					C306.13477,287.26953,308.24658,290.16602,307.32764,293.11914z"/>
				<path id="paw-toes-right-1" fill-rule="evenodd" clip-rule="evenodd" fill="#999999" d="M282.40234,302.2832
					c-11.85547,1.49023-18.82568-2.3125-22.14453-9.80859c-1.30176-2.93945-0.7627-5.80859-0.78027-8.70313
					c-0.01123-1.84375,1.70898-2.64648,3.229-2.10938c4.35303,1.54102,8.80127,0.72266,13.20264,0.90625
					c1.44824,0.06055,2.77979,0.06836,2.46045,2.04102C277.3501,290.89844,280.67676,296.19922,282.40234,302.2832z"/>
			</g>
		</g>
	</g>
	<path id="tail" fill-rule="evenodd" clip-rule="evenodd" fill="#999999" d="M513.11084,120.57813
		c-4.2793,0.24414-7.84766-1.49609-11.73047-1.07422c-2.61719,0.28418-5.09375,0.61816-7.37109,1.97852
		c-5.79102,3.45898-11.45703,4.36523-17.75586,0.66699c-6.06104-3.55664-12.95752-5.53809-18.89795-9.48047
		c-2.13574-1.41699-2.23047-2.08887-0.61816-4.05469c6.71973-8.19141,15.75488-12.71484,25.81689-12.74512
		c14.5625-0.04492,27.58594,5.2627,37.30859,16.77344c2.91602,3.45117,1.8457,5.8623-2.36328,7.47461
		C515.80811,120.76563,514.21826,120.20605,513.11084,120.57813z"/>
	<g id="chest">
		<path id="chest-2" fill-rule="evenodd" clip-rule="evenodd" fill="#666666" d="M238.33789,278.22656
			c-8.05273,2.27539-16.42871,2.80664-24.58496,4.46094c-4.08838,0.83008-8.12402,0.83008-12.20996,0.91211
			c-2.72363,0.05664-2.85156-1.5-1.50879-3.0293c3.35498-3.81836,5.10254-8.47949,7.34717-12.88965
			c0.66992-1.31445,1.01563-2.44336,3.2251-1.53125c8.54932,3.53125,17.25342,6.68555,25.8667,10.06348
			C237.10303,276.46094,238.23438,276.33008,238.33789,278.22656z"/>
		<path id="chest-1" fill-rule="evenodd" clip-rule="evenodd" fill="#999999" d="M192.03857,283.07031
			c-8.81689,1.31055-17.30811,0.15039-25.68311-1.99609c-10.71387-2.74805-21.56543-5.125-32.02344-8.65137
			c-11.22314-3.78516-22.94092-6.91016-31.97607-15.37939c-0.66504-0.62305-1.62988-1.58398-1.5166-2.2207
			c0.15479-0.86914,1.49512-0.93359,2.3833-1.31641c16.57227-7.125,33.19336-5.55273,49.90186-0.60547
			c5.84717,1.73242,11.75342,3.26953,17.66211,4.7832c4.20068,1.07617,6.65479,3.86328,8.62061,7.55908
			c2.56152,4.81445,5.39063,9.49902,8.3623,14.07129C188.75732,280.83594,189.98193,282.45508,192.03857,283.07031z"/>
	</g>
	<g id="face">
		<path id="forehead" fill-rule="evenodd" clip-rule="evenodd" fill="#999999" d="M173.30762,53.98242
			c1.42188,0.54395,2.85693,1.05566,4.26367,1.63672c6.44678,2.66602,11.21924,6.19434,9.96338,14.49902
			c-0.59961,3.96582,2.30859,7.19922,4.97266,10.0957c7.81787,8.50293,16.47119,16.13477,25.93018,22.66797
			c4.18066,2.88867,6.94189,6.4873,9.26953,10.60059c6.5459,11.56836,12.57129,23.40918,17.01465,35.9707
			c0.95215,2.69238,1.26172,5.61328,1.93262,8.73242c-4.13623-0.36133-6.13037-3.58594-8.48242-5.5791
			c-18.46826-15.64746-38.97998-28.09375-60.03027-39.83008c-7.82422-4.36133-16.02783-8.07813-23.18555-13.73633
			c-2.76709-2.1875-2.7583-3.77734-2.06641-6.49414c1.31689-5.16992,2.34619-10.03027-0.1709-15.59961
			c-1.91797-4.24219-5.10107-6.15918-8.44727-7.12988c-8.90723-2.58203-16.84082,1.71387-23.08008,9.06934
			c-10.66895,12.5791-21.1416,25.5-34.81836,35.1084c-3.03857,2.13574-6.88867,3.73242-10.57959,2.24707
			c-4.16553-1.67578-4.7583-6.07324-5.35449-9.94531c-1.07813-7.00391,2.56689-11.7373,7.875-15.75488
			c3.31006-2.50488,6.93457-4.82324,9.08838-8.55469c0.90723-1.57227,1.39795-3.38574,1.57129-5.38867
			c-8.85645,7.77539-20.92041,12.51758-23.18115,26.04883c-0.02588,0.15625-0.15039,0.29395-0.2041,0.44824
			c-0.95215,2.74023,1.41504,6.69238-1.29785,8.17969c-1.97705,1.08398-5.33447-0.47168-8.08984-0.6582
			c-5.75146-0.3877-11.44385-0.06738-16.75098,2.48145c-2.64697,1.27148-3.19141,0.16895-3.08057-2.25098
			c0.22998-5.04004,6.94531-14.01172,11.72754-15.0625c1.95313-0.42969,4.08252-0.74316,6.07031,0.9668
			c3.14795,2.70801,4.37451,1.375,4.24072-2.42383c-0.7417-21.02539,13.56494-35.12207,30.12158-41.87988
			c5.9624-2.43359,11.94971-4.42871,18.4624-6.00098c-0.39893,4.27539-5.11768,5.93457-5.6123,10.59766
			c4.89404-3.05566,9.44629-5.43457,13.45361-8.52148c4.66748-3.5957,10.29492-2.29004,15.34229-3.79492
			c1.69971-0.50684,1.05713,1.58594,1.18896,2.57031c0.3584,2.67578-0.79199,5.59082,1.29346,8.39746
			c4.12207-11.16895,8.45313-21.75781,19.12305-28.00293c8.77539-5.13574,17.44971-8.29297,27.0166-1.43457
			c3.72607,2.6709,8.37354,4.01855,12.33789,6.40625c6.16504,3.71289,12.83838,4.17285,19.7207,3.93555
			c1.16504-0.04004,2.354-0.14941,3.49316,0.02539c1.99365,0.30762,4.97803-1.25977,5.77393,0.98535
			c0.77441,2.18359,0.4917,4.77051-1.33154,7.35449c-4.06055,5.75684-9.69141,8.53516-16.11279,9.46777
			c-5.21973,0.75879-10.80957,0.96484-15.91797-0.10254c-4.48291-0.9375-8.99121,0.36328-13.23389-1.69629
			C173.45361,53.08398,173.38037,53.5332,173.30762,53.98242z"/>
		<path id="cheek-right" fill-rule="evenodd" clip-rule="evenodd" fill="#999999" d="M198.44629,133.12012
			c7.04004,2.57227,12.97803,5.96094,18.62354,9.75488c8.78564,5.90234,16.6416,13.05176,22.64111,21.72266
			c8.89453,12.85547,15.62451,26.35742,8.82373,42.80469c-3.18408,7.70215-9.30273,12.38184-15.85254,15.84082
			c-12.39746,6.54492-25.875,10.02246-40.14941,9.37598c-3.29102-0.14941-5.75977,0.05371-8.17236-3.79492
			c-4.40771-7.03223-8.97021-13.69043-11.3916-21.85059c-2.5376-8.55273-0.87305-16.80469-0.18457-25.20703
			c1.49707-18.26074,1.9375-36.22559-11.06055-51.47559c-8.21875-9.64258-23.42676-9.49316-30.5459,1.06445
			c-6.39258,9.48047-15.73535,10.26855-25.46484,9.08789c-9.66455-1.17383-16.75146,2.20117-22.27051,9.78516
			c-0.46729,0.64258-0.85352,1.34766-1.23389,2.04688c-2.42725,4.46875-6.12939,7.81445-11.21094,7.13086
			c-5.84619-0.78711-10.53125-3.92578-12.72363-10.13574c-3.03369-8.5918,0.14063-17.11523,7.20703-22.83496
			c9.07813-7.34863,18.50195-6.36035,28.27539-2.98438c3.92139,1.35547,8.0249,1.47266,11.89893,1.82324
			c4.47705,0.40527,6.99902-4.30469,9.67969-7.54199c4.87793-5.88867,9.60498-12.03906,16.37793-15.7793
			c8.33643-4.60352,16.63477-2.25977,24.52979,1.66504c7.20313,3.58105,12.86182,9.29102,19.06885,14.27051
			c8.9126,7.14941,15.89551,16.31738,24.95313,23.28613c0.50537,0.38867,0.29639,1.66211,1.41846,0.61523
			c0.67822-0.63281,0.39404-1.02344-0.14697-1.55371C199.75781,138.49512,199.50635,136.08105,198.44629,133.12012z"/>
		<path id="chin" fill-rule="evenodd" clip-rule="evenodd" fill="#999999" d="M103.33789,199.62598
			c-4.85986-2.02148-9.64111-0.20605-14.31494,0.2627c-14.396,1.44336-27.45508,7.39258-40.57813,13.09082
			c-10.7583,4.6709-21.20654,3.28711-29.62842-4.81055c-7.9585-7.65137-6.93457-19.48535,1.64014-27.52637
			c7.97217-7.47656,17.36328-8.8457,27.55273-5.03809c1.99854,0.74609,2.08008,1.99707-0.52002,4.26074
			c-5.10205,4.44336-7.24268,10.2998-8.61133,16.71973c3.9458-2.49512,6.40723-6.4375,8.85938-10.05859
			c7.01855-10.36621,16.4707-11.03906,27.48486-8.62109c16.99463,3.72949,33.1958,9.66504,49.23535,16.2334
			c11.80664,4.83594,23.69238,4.06152,35.38818-0.58008c3.94678-1.56641,5.62598-1.04004,5.625,3.73047
			c-0.00146,11.57715,3.60205,22.16797,9.92676,31.83008c3.01807,4.61133,2.95166,4.54395-2.29883,5.51953
			c-11.41406,2.12012-22.7583,4.61963-34.18115,6.68994c-12.41699,2.25-24.89502,4.16211-37.33643,6.2793
			c-5.41699,0.92188-10.80859,2.81445-16.21436,2.82227c-13.48975,0.02148-24.33936-6.1582-32.79785-16.4292
			c-2.42285-2.94238-3.95996-6.60059-6.0332-9.84766c-1.72314-2.69824-0.37061-3.55957,2.021-4.60938
			c6.30811-2.77051,11.84717-2.2998,17.58447,1.90137c5.14844,3.76953,12.41797,5.25195,16.58887,4.47168
			c-4.34521-4.22461-9.67969-6.61426-14.19238-10.07813c-3.45996-2.65527-1.52295-3.48242,0.16699-4.9541
			c4.88721-4.25586,11.27393-5.31836,17.14453-6.77344C91.64355,202.6748,97.39209,200.83594,103.33789,199.62598z"/>
		<path id="ear-left" fill-rule="evenodd" clip-rule="evenodd" fill="#999999" d="M57.27539,60.55176
			c-2.11328,0.2168-4.1377-0.07129-6.16602-0.90527c-2.12646-0.875-5.33398-0.83398-5.4668-3.60059
			c-0.10693-2.22559,2.25977-3.92188,4.02344-5.48535c11.28662-10.00879,25.00586-15.05566,39.42041-17.60938
			c5.69775-1.00879,11.83252,2.16602,17.42822,4.65039c0.76953,0.34082,1.06055,0.96484,0.73242,1.51172
			c-0.61133,1.01953-1.56445,1.50098-2.89453,1.5166c-4.72949,0.05664-9.10645,1.73047-13.53711,3.1582
			c-8.5918,2.7666-14.86035,9.40625-22.64648,13.50391C64.77051,59.08105,61.42236,61.13867,57.27539,60.55176z"/>
		<path id="cheek-left" fill-rule="evenodd" clip-rule="evenodd" fill="#999999" d="M38.13721,152.73145
			c-15.63379-1.08984-18.63916-8.94434-13.67725-19.29395c2.02588-4.22559,5.51709-4.17383,8.63379-0.7373
			c3.94141,4.34668,8.03662,8.55957,14.17627,10.00977c1.80078,0.42578,4.2334,0.9375,4.16064,3.96289
			c-0.06836,2.86621-2.59717,2.77441-4.07617,3.31152C43.76807,151.28613,40.16064,152.89941,38.13721,152.73145z"/>
		<path id="eye-brow" fill-rule="evenodd" clip-rule="evenodd" fill="#999999" d="M150.38086,86.54102
			c0.82666,2.75098-1.60693,4.88281-2.35254,7.4707c-0.68066,2.3623-5.62109,1.92578-7.34717-0.76758
			c-3.7417-5.83789-9.00244-8.60059-15.80371-8.62793c-1.73877-0.00684-3.18848-0.21484-2.30566-2.39355
			c1.52441-3.75977,15.53076-9.50391,19.74609-8.22168C147.57129,75.59961,150.44531,79.96777,150.38086,86.54102z"/>
		<g id="Teeth">
			<path id="tooth-6l" fill-rule="evenodd" clip-rule="evenodd" fill="#FFFFFF" d="M104.94727,159.53027
				c2.72461,3.36523,6.12842,5.71094,9.23486,8.39648c3.91504,3.38379,6.67627,3.05762,9.18896-1.35742
				c2.38135-4.18457,4.83936-8.34277,6.90137-12.68555c1.00684-2.12109,1.26074-1.94141,3.2832-0.83496
				c4.36572,2.38867,7.78223,5.89355,11.48828,8.97754c2.43848,2.03027,4.12646,1.47363,6.0498,0.23926
				c5.0415-3.2373,8.9209-7.79395,13.02051-12.06836c0.63184-0.65918,0.65967-1.74707,2.00195-1.61816
				c1.55908,0.15039,1.11475,1.27246,1.27686,2.17188c0.97461,5.40234,2.39502,10.76172,2.89111,16.20605
				c1.16016,12.72168-5.86328,25.04492-21.77881,25.82129c-17.14355,0.83691-32.39014-5.33203-47.97705-10.61914
				c-8.00244-2.71387-15.88574-5.77832-23.87988-8.51855c-1.40674-0.48145-1.51172-1.35742-1.18506-2.17676
				c1.05762-2.65039,1.73877-6.10742,3.76465-7.47363c1.24414-0.83887,4.27881,2.1582,6.0957,4.03418
				c0.5791,0.59863,1.16016,1.19629,1.76563,1.76758c5.24805,4.9502,5.15088,4.87207,9.68652-0.99512
				C99.25391,165.59082,102.1333,162.69531,104.94727,159.53027z"/>
			<path id="tooth-6u" fill-rule="evenodd" clip-rule="evenodd" fill="#FEFEFE" d="M109.11865,143.77441
				c2.00586,0.56641,5.49023-0.26563,8.97217-0.1709c6.13135,0.16797,11.08496-1.69531,14.23145-7.40723
				c6.52832-11.85059,20.1333-11.30078,28.24512-0.91309c5.62646,7.20508,5.6123,8.01563-0.89307,14.52148
				c-2.97363,2.97363-5.96973,5.9248-8.90771,8.93359c-1.34131,1.37305-2.19678,2.48535-4.35059,0.55176
				c-4.09375-3.67578-8.74121-6.72754-12.98291-10.25c-2.34033-1.94238-3.62646-2.16992-5.18799,0.92773
				c-2.52148,5-5.67969,9.67578-8.27783,14.64063c-1.04688,2-1.51221,2.47461-3.38379,0.7832
				c-3.37939-3.05469-7.16406-5.66113-10.52881-8.72949c-1.65527-1.50977-2.53906-0.9502-3.59668,0.36426
				c-2.03906,2.5332-4.021,5.1123-6.09229,7.61816c-1.25635,1.52051-2.70898,4.2373-3.94775,4.16797
				c-4.396-0.24512-6.65332-4.4541-10.021-6.72949c-2.30176-1.55566-0.33887-3.3623,0.37793-4.13867
				c4.16016-4.50977,7.86475-9.75195,13.48633-12.4502C99.65332,143.86523,103.68945,143.29883,109.11865,143.77441z"/>
			<path id="tooth-1" fill-rule="evenodd" clip-rule="evenodd" fill="#FEFEFE" d="M23.77051,152.55273
				c3.81348,0.34277,6.69336,3.00391,10.14941,4.2666c0.32227,0.11719,0.42871,1.18066,0.39844,1.79297
				c-0.021,0.43164-0.50586,0.81934-0.67725,1.26758c-1.4209,3.71387-3.78906,8.57324-6.68066,8.96973
				c-3.24121,0.44434-4.35693-5.27637-6.4707-8.23633c-0.9502-1.33203-3.5918-2.77344-1.53223-5.01465
				C20.22168,154.22363,21.2417,152.13086,23.77051,152.55273z"/>
			<path id="tooth-4" fill-rule="evenodd" clip-rule="evenodd" fill="#FEFEFE" d="M56.06104,174.36621
				c-0.08691-0.01563-1.63818,0.56445-3.21045-0.68945c-3.14697-2.50879-3.98584-4.80371-0.47607-7.58691
				c0.64795-0.51465,1.14209-1.21973,1.7793-1.75098c2.03125-1.69238,3.6377-5.41113,6.82861-3.32129
				c3.14063,2.05566,4.18262,5.8457,3.31006,9.58691C63.50098,173.99805,60.7876,174.94629,56.06104,174.36621z"/>
			<path id="tooth-3" fill-rule="evenodd" clip-rule="evenodd" fill="#FEFEFE" d="M56.38232,156.80566
				c-0.06494,1.20996-7.64502,9.65332-8.78516,9.73926c-1.18701,0.08789-1.89697-0.86719-2.30469-1.63574
				c-1.0249-1.93262-2.479-3.45703-4.01172-4.92871c-1.46094-1.40332-0.98096-1.91895,0.71289-2.65234
				c2.94336-1.27539,5.65576-3.08594,8.60352-4.34863C53.69482,151.65234,56.5498,153.6748,56.38232,156.80566z"/>
			<path id="tooth-5" fill-rule="evenodd" clip-rule="evenodd" fill="#FEFEFE" d="M76.22461,163.59375
				c-1.07031,3.04297-1.82227,5.64063-2.89502,8.09863c-1.02734,2.35449-2.49609,2.43555-4.62744,0.82324
				c-2.7334-2.06738-2.69482-4.84668-2.20703-7.49707c0.54541-2.96094,3.23047-0.95215,4.89648-1.35547
				C72.7876,163.3252,74.33057,163.59375,76.22461,163.59375z"/>
			<path id="tooth-2" fill-rule="evenodd" clip-rule="evenodd" fill="#FEFEFE" d="M45.60059,168.11523
				c-4.82373,2.13086-9.23828-0.64355-14.01904,0.875c1.22998-3.59277,2.70557-7.78809,5.31348-7.91602
				C40.64551,160.89063,42.26904,165.71094,45.60059,168.11523z"/>
		</g>
		<g id="eye">
			<path id="eye-white" fill-rule="evenodd" clip-rule="evenodd" fill="#FEFEFE" d="M137.59521,94.22168
				c-7.0835,4.30762-6.96143,2.62207-13.96143,7.68457c-3.75,3.0625-6.12988,6.00732-8.55273,8.73535
				c-2.27295,2.55908-5.32227,8.13965-5.2207,0.65332c0.13574-10-14.45557,0.54883-6.47656-7.45117
				c5.69336-5.70801,16.90576-18.28516,26.89697-14.25195C132.78125,90.60156,133.67871,93.57422,137.59521,94.22168z"/>
			<path id="eye-white-sm" fill-rule="evenodd" clip-rule="evenodd" fill="#FEFEFE" d="M91.7373,116.22363
				c3.14111-2.18994,7.46338-0.59619,6.87012,3.78418c-0.09619,0.70996-0.78076,0.28418-3.53613-0.39844
				C92.77734,119.04102,92.33691,118.35938,91.7373,116.22363z"/>
		</g>
	</g>
	<g id="collar_1_">
		<g id="collar-spikes">
			<path id="spike-5" fill-rule="evenodd" clip-rule="evenodd" fill="#FEFEFE" d="M204.44482,253.94189
				c-0.68115,8.18164-2.6665,15.96924-6.9126,23.24756c-2.18164,3.74023-3.22559,3.79883-5.80713,0.38477
				c-4.39209-5.80762-8.64648-11.77051-11.04346-18.57373c-3.77832-10.7207-0.78027-13.25195,10.65234-16.29492
				c2.43799-0.64844,5.42529-0.43945,7.85449,0.33398C204.43359,244.70752,205.10889,249.06104,204.44482,253.94189z"/>
			<path id="spike-3" fill-rule="evenodd" clip-rule="evenodd" fill="#FEFEFE" d="M315.64111,189.62793
				c-12.39453,2.68945-21.40332,4.50195-33.25928,4.00488c-6.56543-0.27539-9.88574-3.61133-10.07129-10.1875
				c-0.07178-2.54004,0.61377-4.94629,1.36035-7.10645c1.13184-3.27539,3.604-6.09082,7.78369-4.67871
				c11.21436,3.78711,22.26855,7.96191,32.62988,13.81836C315.6377,186.35547,318.38379,188.59375,315.64111,189.62793z"/>
			<path id="spike-4" fill-rule="evenodd" clip-rule="evenodd" fill="#FEFEFE" d="M278.7832,256.57275
				c-3.68994-0.46484-6.2876-1.54102-8.85205-3.13477c-5.78809-3.5957-11.49121-7.28711-16.41895-12.10938
				c-2.58887-2.53125-2.88574-5.11182-1.05078-7.82275c1.4917-2.20313,3.33398-4.30469,5.41797-5.94824
				c7.86377-6.19922,10.79297-5.21973,15.69092,3.4707c3.85938,6.84668,5.62305,14.29443,7.70264,21.67529
				C281.7959,254.56104,282.30322,257.57471,278.7832,256.57275z"/>
			<path id="spike-2" fill-rule="evenodd" clip-rule="evenodd" fill="#FEFEFE" d="M265.00879,133.21875
				c-3.39941-0.07324-12.125-6.75-12.25-13.89551c-0.38037-4.35449,1.76367-10.2041,3.75-10.97949
				c5.05469-1.97266,10.39355-1.7124,15.79639-2.25c7.87012-0.7832,13.00293-0.46484,19.95361,0.25
				c0.89014,0.0918,3.5083,0.72559,3.97021,1.99316c0.25342,0.69629,0.42334,1.53809-0.49805,2.14844
				c-8.11572,7.75684-16.22217,14.2334-27.32861,20.76025C266.9873,132.14795,265.99023,133.19824,265.00879,133.21875z"/>
			<path id="spike-1" fill-rule="evenodd" clip-rule="evenodd" fill="#FEFEFE" d="M241.91602,47.54004
				c0.84277,1.30371-0.69873,5.56543-1.67236,7.72949c-3.75488,8.34766-7.06201,17.05957-14.82666,22.89063
				c-2.58789,1.94336-5.08594,2.28223-7.56104,0.3457c-13.16846-10.2998-12.48535-11.27637-0.17236-19.4541
				C225.07959,54.13965,239.88379,46.84375,241.91602,47.54004z"/>
		</g>
		<path id="collar" fill-rule="evenodd" clip-rule="evenodd" fill="#FF6600" d="M190.22705,59.73486
			c0,0,3.90674,3.3584,2.78174,8.4834c-1.83252,8.34912,24.40283,24.91455,32.31543,32.05469
			c13.01367,11.74316,28.88232,57.91211,28.88232,57.91211s4.8584,38.24658,0,50.0708
			c-3.09326,7.5293-10.15576,16.67188-22.15576,21.83789c-6.64355,2.86035-23.87939,10.26807-47.3335,8.1665
			c-5.58154-0.49951-25.99951,5.06055-40.6665,6.66797c11.6665,3.74219,18.87061,6.39063,28.33301,7.5
			c3.18115,0.37305-0.3623-1.33398,3.16699-6c10.81934-14.30811,31.5-4.64258,33-2.5
			c2.10742,3.00977,1.1665,12.84375,1.1665,12.84375s17.26953-0.41992,22.3335-1.51563
			c4.48096-0.96875,17.6665-6.58594,17.6665-6.58594s-4.7207-4.36914-5.3335-6.34961c-0.5-1.61523-0.0498-5.19971,0.66699-6.73096
			c1.60059-3.41992,6.25439-9.5918,9.15576-12.00586c2.74463-2.28516,8.71924-6.86719,12.26025-7.32813
			c2.25293-0.29297,7.11279,0.5957,8.85107,2.05859c1.45215,1.2207,2.91846,4.89453,3.73291,6.60938
			c0.76904,1.61719,2.59375,7.16992,2.59375,7.16992s6.36426-5.75,12.23926-16c4.64355-8.10156,6.5-17.16992,6.5-17.16992
			s-11.34033,2.97852-15.21924,3.33203c-2.45264,0.22461-7.56982,0.60547-9.84668-0.33203
			c-2.79248-1.15234-7.51855-5.51367-8.85107-8.22461c-1.70996-3.47852-2.27148-11.66162-1.41602-15.44287
			c0.7832-3.46094,4.81641-9.62158,7.25439-12.19971c1.53467-1.62305,5.11133-4.49561,7.20361-3.71338
			c3.69824,1.38281,6.84717,2.69238,9.2085,3.71338c2.86865,1.24072,7.7124,4.0625,7.7124,4.0625l-5.37891-17.37598
			l-5.88623-16.48682l-2.76221-6.66504c0,0-5.31396,4.49854-7.08447,5.99854c-1.73389,1.46875-4.80078,5.09375-6.93408,5.87646
			c-1.4082,0.5166-4.57227,0.45996-6,0c-2.39648-0.77197-6.41846-4.0752-8.17725-5.87646
			c-2.33887-2.39551-6.56396-7.85986-7.55225-11.05859c-1.05762-3.42334-1.00684-10.89307,0-14.33154
			c0.60693-2.07324,2.85693-6.08838,4.66113-7.27637c1.70703-1.12402,6.05273-0.97998,8.06592-1.3335
			c1.77441-0.31152,7.62744-0.62158,7.62744-0.62158s-4.52588-9.84326-7.62744-13.71191
			c-6.48926-8.09375-13.23682-13.24072-18.12256-15.53809c0,0-2.09473,4.70264-2.9209,6.20508
			c-0.96387,1.75342-2.9375,5.28271-4.28711,6.76025c-1.06348,1.16455-3.50684,3.33887-5,3.84668
			c-0.88184,0.2998-2.81836,0.2085-3.72656,0c-2.1499-0.49316-6.09375-2.64014-7.94043-3.84668
			c-3.50195-2.28906-10.16992-7.55518-12.72705-10.86621c-1.78955-2.31787-3.46387-7.25146-0.77295-9.34912
			c4.32959-3.375,2.875-7.125-2.75-4.7334C198.97119,60.6543,190.22705,59.73486,190.22705,59.73486z"/>
	</g>
</g>
</svg>
