<?xml version="1.0" encoding="utf-8"?>
<!-- Generator: Adobe Illustrator 16.0.0, SVG Export Plug-In . SVG Version: 6.00 Build 0)  -->
<!DOCTYPE svg PUBLIC "-//W3C//DTD SVG 1.1//EN" "http://www.w3.org/Graphics/SVG/1.1/DTD/svg11.dtd">
<svg version="1.1" id="Layer_1" xmlns="http://www.w3.org/2000/svg" xmlns:xlink="http://www.w3.org/1999/xlink" x="0px" y="0px"
	 width="960px" height="560px" viewBox="0 0 960 560" enable-background="new 0 0 960 560" xml:space="preserve">
<path id="sillowette" fill-rule="evenodd" clip-rule="evenodd" d="M743.10742,345.28125
	c-3.00293,2.58984-4.39258,4.90625-4.76367,8.99609c-0.96973,10.70313-1.83691,21.59961-4.61523,31.91406
	c-4.39453,16.31055-17.08789,25.67383-31.58984,32.68164c-23.06055,11.14063-47.2832,18.38672-72.55566,22.82227
	c-20.93848,3.67383-39.40527,13.51953-56.5332,26.08203c-11.22363,8.23242-22.99219,15.7207-34.52832,23.52344
	c-0.68262,0.46094-1.44434,0.9668-2.22656,1.0918c-9.37109,1.49023-9.77344,8.05273-9.25,15.56445
	c0.44824,6.44336,0.54688,12.95313,0.20996,19.40234c-0.29883,5.73242-1.68652,5.93359-6.85938,3.23047
	c-10.29004-5.37695-20.74023-10.45703-31.21777-15.46289c-6.58984-3.15039-13.04785-0.06836-19.43896,1.1582
	c-19.10791,3.66406-38.14258,7.72461-57.2666,11.29883c-3.31494,0.62109-6.98975-0.05078-10.39014-0.69727
	c-4.47803-0.84961-8.29834,0.21289-11.61816,3.03711c-4.68164,3.98633-9.18018,8.1875-13.7793,12.26953
	c-1.2373,1.09961-2.57471,2.08398-3.83008,3.16602c-2.52881,2.17383-4.78418,1.71094-5.9082-1.23828
	c-2.88184-7.56445-6.4751-15.06445-7.88623-22.93164c-1.66357-9.28516-5.94678-13.93945-15.021-16.91992
	c-27.25391-8.95117-52.38867-22.32227-74.26807-41.01953c-4.80273-4.10352-9.54639-5.28711-15.16846-5.70508
	c-6.61279-0.49219-13.22168-1.06055-20.34961-1.63672c0.14697-7.93359,3.09912-14.92969,6.72852-21.60156
	c1.375-3.8418,2.89111-5.80078,4.61963-8.47461c-5.7876-9.18164-15.94434-29.84375-20.41699-39.80078
	c-8.35791-18.61328-14.12744-38.05078-17.25195-58.2207c-0.53223-3.43555-1.96582-5.69531-4.86865-7.53906
	c-5.71387-3.62891-11.23486-7.56055-16.83496-11.36523c-7.56348-5.46094-15.68213-6.39844-2.60449-14.77344
	c5.56836-2.88281,11.16943-5.70508,16.66602-8.7207c0.79492-0.4375,1.54053-1.80469,1.53613-2.73828
	c-0.1084-20.98486,6.78369-40.48779,12.67578-60.19287c1.85352-6.2002,3.84229-12.38086,6.2002-18.40039
	c1.13867-2.90332,0.35938-4.94629-1.08887-7.26172c-2.99609-4.78809-5.97461-9.5957-8.71777-14.53027
	c-1.25732-2.26074-1.94336-4.84277-3.2124-8.11719c5.31836-0.41797,9.89746-0.5459,14.40088-1.19434
	c5.25391-0.75586,10.50586-1.7168,15.63916-3.04785c5.28809-1.37109,10.80225-9.2168,10.75635-14.71289
	c-7.8335-1.13867-15.771-1.8916-23.52783-3.50684c-13.44043-2.79785-24.07715-9.34473-28.64307-23.31543
	c-1.63623-5.00293-0.97461-7.1709,4.03076-8.72656c4.59082-1.42676,9.24609-2.91895,13.98242-3.5498
	c17.97363-2.39355,29.7998-12.88965,38.21973-28.13086c1.68994-3.05957,3.28662-6.17383,5.06299-9.18262
	c10.55371-17.88477,30.00195-25.08301,48.81348-16.09082c10.62158,5.07715,19.85156,13.19434,29.35645,20.40723
	c3.1792,2.41211,5.23145,3.58008,9.52295,2.0332c18.40381-6.62793,37.4751-10.54785,57.04883-11.49902
	c4.74316-0.22949,6.55762-2.18652,6.26514-6.64551c-0.06592-0.99414-0.13086-1.99219-0.2666-2.97949
	c-1.5-10.95313-0.63867-12.96387,9.12695-18.38574c14.0752-7.81543,29.34668-10.58105,45.24951-9.45703
	c7.78125,0.5498,13.60938,4.29199,18.28271,11.24316c8.68359,12.91504,18.21875,25.30371,28.0957,37.33984
	c2.95605,3.60156,7.93457,6.20801,12.49902,7.69141c10.29492,3.34668,19.0791,8.92871,28.07129,14.77051
	c7.16992,4.6582,16.08398,6.70605,24.33203,9.60645c7.19727,2.5293,14.75781,4.11523,21.7832,7.02441
	c15.04395,6.22754,19.77246,18.47363,13.31348,33.29004c-2.05176,4.70605-4.49805,9.24121-7.00195,14.33984
	c7.86816,1.87012,13.5293,6.93262,16.91016,14.64258c0.31055,0.70801,1.87793,1.26367,2.83691,1.22949
	c22.86914-0.80957,38.72266,10.64844,50.71289,28.87891c2.71094,4.12109,5.28125,8.33496,8.62109,13.62305
	c0.69336-9.7959-4.79492-25.77637,4.48926-23.29346c4.72363,1.26318,11.75586,6.8999,16.26563,14.37744
	c5.99609,9.94336,8.19629,20.94824,10.23047,32.12793c0.46289,2.54492,2.44824,5.37402,4.56445,6.96387
	c14.60645,6.34863,23.70508,13.39697,33.84277,24.49658c14.42188,18.44336,18.0498,31.3418,7.98828,45.30078
	C753.44434,335.0293,748.60547,340.53906,743.10742,345.28125z"/>
<radialGradient id="SVGID_1_" cx="481.33301" cy="284" r="533.68298" gradientUnits="userSpaceOnUse">
	<stop  offset="0" style="stop-color:#FFFFFF"/>
	<stop  offset="1" style="stop-color:#000000"/>
</radialGradient>
<rect x="73.33301" y="18" display="none" fill-rule="evenodd" clip-rule="evenodd" fill="url(#SVGID_1_)" width="812" height="532"/>
<path id="neck" fill-rule="evenodd" clip-rule="evenodd" fill="#666666" d="M285.3335,325
	c-1.11279-0.70605-3.74414-1.34277-4.94873-1.56738c-2.51953-0.4707-5.12695-0.47852-7.69922-0.67578
	c0.14795,2.20996-0.01953,4.49707,0.49414,6.61719c2.73193,11.28613,7.4209,21.71094,15.37402,30.26367
	c3.2207,3.46289,7.43555,6.03027,11.34863,8.79102c0.8916,0.63086,2.87109,0.92773,3.51465,0.38574
	c0.7627-0.6416,1.05469-2.4541,0.80371-3.59277c-1.75488-7.93066-3.5835-15.84961-5.63916-23.70605
	c-1.12842-4.31348-2.74609-8.49902-4.24561-13.05078L285.3335,325z"/>
<path id="forehead_1_" fill-rule="evenodd" clip-rule="evenodd" fill="#666666" d="M484.3418,167.08594
	c-0.68164-1.91406-0.92969-2.61035-1.17773-3.30762c-1.66504-0.85742-3.32959-1.7168-4.99414-2.57617
	c-8.33105-3.8125-16.66162-7.625-24.99219-11.43848c-0.33008,0.0127-0.5376,0.03809-0.62354,0.07324
	c-12.93115-5.44141-26.59619-7.34375-40.42627-7.21484c-9.41113,0.08789-18.7998,1.7627-28.21436,2.54004
	c-4.62305,0.38184-6.67773,2.24707-5.38281,7.05078c0.25342,0.93945-0.27148,2.08789-0.44775,3.20996
	c-7.11084-2.23438-11.59863-7.56348-11.98584-14.10254c-0.38086-6.4209,3.43896-10.2998,8.68506-12.75098
	c11.48584-5.36816,23.51318-5.27246,35.67334-2.82129c15.80713,3.1875,30.28174,9.95117,44.73877,16.73438
	c14.60791,6.85352,29.14453,13.85742,43.76172,20.69141c1.73047,0.80957,3.76758,0.96191,5.66309,1.41895
	c6.38477,1.58008,12.76855,3.16016,19.15234,4.74023c6.32715-0.1748,12.66211-0.25684,18.9668-0.73047
	c0.42383-0.03223,1.38184-3.37598,0.81641-4.58105c-6.21094-13.22852-15.38867-23.9375-27.56641-32.15039
	c-15.15234-10.21973-32.20703-15.64453-49.6084-20.28906c-0.58643-0.15625-1.17188-0.31738-2.1333-0.57715
	c5.57178-2.00391,11.79541-2.01855,21.4458,0.98633c10.45215,3.25391,20.64941,7.32422,31.05664,10.74121
	c2.50293,0.82129,5.38965,0.46973,8.09961,0.65723c-1.40723-2.41992-2.69043-4.92285-4.26465-7.22656
	c-1.02637-1.50195-2.47559-2.71289-3.73438-4.05469c0.3916-0.43555,0.78516-0.87305,1.17773-1.30957
	c3.28711,2.53809,6.81934,4.81738,9.81641,7.66211c10.75391,10.20801,16.98242,23.1748,22.00391,36.85645
	c0.49121,1.33984,1.76563,3.2832,2.82813,3.38574c13.57813,1.31055,27.23535,2.45215,40.31641-2.76953
	c2.78906-1.1123,5.04297-3.56445,7.54297-5.39941l-0.13281,0.19629c3.61523-7.07813,2.03613-14.04395-4.50586-19.52148
	c-7.39063-6.18848-16.45703-8.57324-25.49707-10.84277c-6.11816-1.53613-12.37402-2.51758-18.55078-3.8252
	c-1.88867-0.40137-3.72266-1.06641-6.24219-1.80371c4.76855-4.39258,2.01758-6.56641-1.52246-8.62891
	c-32.02246-18.66016-66.58154-27.80078-103.61133-28.78223c-30.11475-0.79883-59.28174,4.61621-88.34375,11.38965
	c-4.35107,1.01367-5.26221,3.24609-2.07861,6.51172c2.50439,2.56836,6.01025,4.13477,8.69971,6.56152
	c1.3623,1.23145,1.89844,3.37793,2.80908,5.11035c-1.78271,0.01367-3.7915,0.57813-5.31006-0.04785
	c-10.7085-4.41309-18.71875-12.47852-27.03418-20.19043c-6.33008-5.87012-12.88281-11.55176-19.73145-16.80371
	c-15.2417-11.69141-38.9209-4.03809-45.02344,13.62012c-2.38916,6.91309-4.60791,13.88867-7.19971,20.72363
	c-2.32275,6.12793-5.73633,11.54199-11.68555,14.84766c-0.46729-0.46387-0.84082-0.65723-0.89209-0.91406
	c-0.42773-2.1416-0.79883-4.29492-1.18555-6.44434c-2.15527,0.81348-4.58105,1.23633-6.41797,2.50879
	c-6.47412,4.48535-11.77588,6.28223-26.78613,8.30859c-0.39941,10.09277,8.21582,17.87598,21.65625,19.56543l-0.13818-0.1084
	c16.15283,4.84277,31.25488,2.1875,45.20215-6.88086c15.77393-10.25879,24.22754-25.64746,29.27002-43.25684
	c0.26367-0.92383,0.46484-1.86523,1.0708-4.32129c3.00342,11.51074,5.62646,21.57129,8.25098,31.63184
	c-0.23096,0.24414-0.46143,0.48633-0.69238,0.72949c-1.78369-2.14551-3.56689-4.29102-5.979-7.19434
	c-4.7251,6.00977-10.04297,11.93848-14.37354,18.51758c-4.33887,6.58984-3.26855,13.91211-0.9126,21.16797
	c1.84033,5.66895,3.50098,11.4541,4.46875,17.31543c0.36328,2.19727-1.22803,4.87891-2.41504,7.07813
	c-0.39893,0.74121-2.57129,1.23047-3.43164,0.80957c-0.75635-0.37012-0.93311-2.15039-1.1582-3.34668
	c-0.90088-4.7959-1.10693-9.83008-2.75586-14.34277c-1.48828-4.07813-4.67432-3.92578-6.96777-0.23438
	c-14.21484,22.87695-25.79443,47.12793-32.43408,73.15137c-7.11377,27.87598-1.78662,53.41016,21.42822,72.69922
	c6.11719,5.08301,13.72266,8.37402,21.7168,13.12598c-0.41113-9.11523-0.74072-16.39648-1.06885-23.67773
	c0.66162-0.10938,1.32373-0.21875,1.98535-0.32715c1.62061,5.67285,3.4043,11.30664,4.82568,17.03027
	c2.19971,8.86719,2.75537,18.27441,6.36133,26.65625c1.57373,3.6582,3.84277,7.07031,5.83984,10.58398
	c0.52295-0.08887,1.04395-0.17871,1.56641-0.26855c2.73145-8.24902,5.46387-16.49805,8.19531-24.74707l-0.12207,0.14941
	c4.0542-8.88379,7.79883-17.92676,12.22363-26.62207c10.74463-21.1123,22.85986-41.1748,39.88867-58.18359
	c16.17871-16.16211,24.72852-36.6416,27.08496-59.26563c0.62158-5.97266-1.7041-12.47949-3.65527-18.41895
	c-1.38525-4.2168-0.16309-5.64258,3.45703-6.96094c10.21484-3.72266,20.67383-2.9082,31.09961-1.79102
	c6.9082,0.74023,13.74609,2.14941,20.61621,3.25879l-0.25293-0.13867C461.26758,159.5332,472.3916,163.1748,484.3418,167.08594z"/>
<path id="ear" fill-rule="evenodd" clip-rule="evenodd" fill="#666666" d="M465.13867,72.05469
	c0.41602-0.76074,1.24512-1.56152,1.17383-2.27344c-0.25049-2.52246-0.80811-5.01465-1.37939-8.25391
	c10.68652,3.52148,16.09814,15.78906,28.74463,13.27637c-1.72656-1.125-3.45117-2.25098-5.17578-3.37598l0.18164,0.12891
	c-5.41406-8.12988-10.90771-16.20703-16.19922-24.41602c-1.98877-3.08594-4.53662-4.53613-8.16211-4.7627
	c-13.15479-0.82324-26.0332,0.33887-37.88525,6.46484c-9.04102,4.67383-12.44238,11.77539-10.62256,17.88867
	c16.80908,1.81152,33.07861,3.56445,49.34814,5.31934L465.13867,72.05469z"/>
<path id="chin" fill-rule="evenodd" clip-rule="evenodd" fill="#666666" d="M628.44531,431.875
	c4.13379-0.72852,6.61914-1.25488,9.12793-1.59668c24.49121-3.33203,46.37207-13.64258,67.25488-26.05273
	c15.17578-9.01855,26.11816-21.63672,27.18164-40.43652c0.22266-3.93066-0.18945-7.89746-0.31641-12.08203
	c-5.13281,0.42676-9.72266,0.68555-14.28125,1.21094c-16.28125,1.87305-32.03711-1.31836-47.77734-4.76953
	c-0.63281-0.13867-1.31055-0.07324-1.9668-0.10254c-4.63477-1.66211-9.26758-3.32422-13.90137-4.98633
	c-10.72461-3.62891-21.03809-1.31348-31.13965,2.43066c-15.31934,5.67773-27.77734,16.09668-41.00586,25.22656
	c-1.08887,0.75195-2.13672,1.56445-3.24414,2.28516c-0.2168,0.14063-0.62305-0.01465-2.14844-0.10645
	c4.16602-4.33887,7.85547-8.05762,11.39551-11.91406c2.43359-2.64941,4.65918-5.49023,6.97754-8.24512
	c0.68359-0.71094,1.36914-1.4209,2.05273-2.13184c1.46875-2.67773,2.9375-5.35547,4.82813-8.80371
	c-15.31445,1.95996-28.86719,8.42969-44.46191,6.37012c23.29199-13.31543,46.39453-23.52539,73.02051-23.75195
	c20.04102-0.17188,39.15234,5.07715,58.65625,8.08105c18.71289,2.88379,37.16211,1.65332,55.20605-4.11719
	c10.18652-3.25781,15.10254-12.34961,11.58301-22.56738c-6.55859-19.04395-21.27637-31.09277-39.15234-39.95898
	c-0.96191-0.47852-1.19043-1.75879-2.04297-1.17969c-10.6875,7.26563-23.03906,9.18848-35.35156,11.27734
	c-0.64844,0.11133-1.28223,0.31738-3.82422,0.95703c3.90527,2.62207,6.54883,4.88086,9.58008,6.3291
	c5.39258,2.57715,11.0752,4.53906,16.53613,6.98438c7.69434,3.44434,13.04004,8.89551,14.34668,17.49316
	c-8.55078-4.15234-16.76367-8.83984-25.47852-12.24121c-25.17383-9.8252-51.40234-12.31836-78.03223-8.64258
	c-13.94434,1.92578-27.83398,4.8252-41.44824,8.4209c-14.70703,3.88477-26.44727,12.91211-36.2793,24.45508
	c-9.17383,10.76953-18.36914,21.52344-27.7334,32.12598c-2.1748,2.46094-4.98047,4.40918-7.66113,6.36621
	c-7.66016,5.5918-15.77246,7.47559-24.72949,2.93555c-2.16113-1.0957-4.67383-1.49805-8.19824-2.58008
	c2.9043,7.87793,5.54639,14.70801,7.94971,21.62207c7.18018,20.65625,12.90088,41.67188,13.84619,63.65332
	c0.26855,6.25391-0.56934,12.57129-1.11816,18.84082c-0.32715,3.72754,0.25977,5.4043,4.79395,5.01172
	c30.60645-2.64941,60.18066-9.08203,87.88184-22.83594c23.22461-11.53027,44.06152-26.04785,59.45117-47.40625
	c0.16797-0.2334,0.55859-0.30566,2.16797-0.05078c-2.40039,7.58691-4.7998,15.1748-7.19922,22.76172l0.16602-0.20605
	C632.34863,423.42969,630.74023,426.91016,628.44531,431.875z"/>
<path id="cheekandnose" fill-rule="evenodd" clip-rule="evenodd" fill="#666666" d="M605.70117,177.9707
	c-1.01855-1.36426-2.46387-2.41016-3.75488-3.57031c-8.09277-5.74805-17.43652-6.80371-26.9248-6.82813
	c-11.55371-0.03027-21.35254,5.39453-31.2334,10.5791c-9.82031,5.15234-19.77344,10.05469-29.76367,14.87207
	c-2.32031,1.12012-5.02148,1.4502-9.00488,2.54297c3.61816,1.05566,6.02246,1.75879,8.42676,2.45996l-0.17578-0.14355
	c9.38086,5.47363,18.76074,10.94629,29.15234,17.00879c-2.81836,0.36328-5.04688,1.22949-6.99414,0.80273
	c-8.39258-1.84082-16.70703-4.04102-25.03906-6.1582c-2.38184-0.60449-4.72461-1.36621-7.08496-2.05566
	c-1.42676-0.57422-2.85449-1.14941-4.28223-1.72363c-16.36133-9.27637-33.55127-16.66602-52.64551-16.12891
	c-20.19385,0.56934-33.0332,12.57422-35.95068,34.02344c-2.06982,15.21484-1.73438,30.75391-2.49414,46.14648
	c-0.33105,6.71973-0.71338,13.43555-1.07227,20.1543c-0.46924,0.02734-0.93896,0.05664-1.40869,0.08496
	c-1.09766-6.22656-2.46191-12.4209-3.21826-18.68945c-0.75098-6.22363-0.89111-12.52246-2.51953-19.8457
	c-3.17041,2.61426-6.99756,4.74316-9.36475,7.94922c-4.12744,5.59277-7.30908,11.87891-10.97363,17.81934
	c-2.49316,4.03711-5.13525,7.98145-7.71094,11.96777c-0.51758-0.22363-1.03467-0.44824-1.55469-0.67285
	c0.54443-1.86426,0.74316-3.92578,1.68555-5.55859c5.55859-9.63086,11.37402-19.11426,16.94043-28.74023
	c4.85693-8.40234,9.5-16.92773,14.23779-25.39844c-0.74854-0.57715-1.49658-1.1543-2.24512-1.73047
	c-6.9624,6.79785-13.92627,13.59766-20.88867,20.39453l0.11914-0.18945c-9.89844,11.17383-20.62402,21.73145-29.51514,33.65527
	c-16.40967,22.00684-27.78076,46.49902-31.9834,73.96094c-6.37305,41.62402,4.41455,77.28223,37.32324,104.67285
	c9.37549,7.80371,13.97559,10.25195,24.16943,17.07227c1.68359,0.91016,4.56152,2.11523,8.0918,3.83203
	c8.4668,2.90332,17.1626,7.17676,26.65234,8.87695c17.73291,3.17773,35.08252,1.3291,49.53516-10.85938
	c13.43213-11.32813,17.65283-26.66992,16.41748-43.58984c-1.74121-23.83789-9.64453-46.08789-18.38037-68.0957
	c-9.31152-23.46387-19.09277-46.76855-27.46582-70.56641c-7.69727-21.87891-10.36377-44.61035-7.2793-67.91016
	c0.77881-5.88379,3.85498-7.96191,8.65527-9.22168c16.10791-4.22559,31.87695-2.96289,46.61865,4.59961
	c11.07227,5.68066,21.42383,12.75195,32.18945,19.04297c7.13281,4.16895,14.42969,8.05273,21.6543,12.06445l-0.17188-0.13379
	c4.55566,1.78613,9.05469,3.76172,13.72363,5.1748c0.80469,0.24414,3.18848-1.76074,3.37207-2.9541
	c0.67578-4.39453,0.6543-8.8916,1.0459-13.33691c0.35938-4.07227-1.61133-9.12695,1.44824-12.79883
	c4.9873-5.98584,17.50293,12.53223,24.17773,21.43164c0.10547-1.62305,0.1709-2.6416,0.27441-4.24414
	c9.56348-1.68652,19.05176-3.30664,28.5166-5.04785c5.8252-1.07227,10.21973-4.28418,13.875-8.9707
	c4.31641-5.53613,8.58105-6.88281,14.33984-3.4043c10.9209,6.59766,22.45508,8.74609,34.94727,7.38184
	c1.12793-0.12207,2.44141,1.46387,3.66992,2.25488c-1.03711,0.84277-1.95508,2.13867-3.13086,2.44629
	c-4.00977,1.04883-8.10156,2.40137-12.17676,2.4502c-9.09668,0.1084-17.55957-1.91602-22.86426-10.61328
	c-0.3584,0.42285-0.71582,0.84375-1.07324,1.26563c2.42285,2.37793,4.49023,5.37207,7.33691,7.01172
	c7.17969,4.13477,14.96191,4.875,23.13477,2.95508c12.48828-2.93652,13.28906-3.77246,8.66016-16.17188
	c-6.04492-16.19531-18.42383-26.12109-34.11133-32.16309c-4.60156-1.77246-9.57422-2.7207-14.45898-3.58691
	c-4.68555-0.8291-5.9873,0.9541-4.57617,5.60547c1.24805,4.11523,2.72852,8.16699,3.78809,12.32715
	c0.40723,1.59668-0.06543,3.41699-0.12598,4.84766c-16.1543-4.43555-31.86328-8.42188-47.33203-13.18262
	c-5.10156-1.57031-9.95605-4.65625-14.25586-7.92578c-5.18359-3.94043-4.26172-8.91211,1.67188-11.41797
	c12.19824-5.15039,24.6709-7.86914,37.77051-3.47656C604.68457,179.69531,605.93262,178.28027,605.70117,177.9707z"/>
<g id="Eyewhite">
	<path id="eyewhite" fill-rule="evenodd" clip-rule="evenodd" fill="#FFFFFF" d="M421.53369,185.25879
		c8.58447-1.12109,17.25244-2.93848,25.96631-3.19727c8.50342-0.25391,17.05518,1.08496,25.14355,1.69141
		c-7.04346-6.32813-7.08301-6.61523-1.38232-15.38086c-18.84619-5.60938-37.66553-9.17383-57.07422-6.08398
		C416.79541,170.44531,419.25879,178.14648,421.53369,185.25879z"/>
	<path id="eyewhite-sm" fill-rule="evenodd" clip-rule="evenodd" fill="#FFFFFF" d="M508.4707,177.33789
		c-0.93945-0.0752-2.37109-0.13281-2.79395,0.41016c-5.3584,6.88086-13.24316,6.7832-20.75879,7.73926
		c-0.15234,0.01953-0.28906,0.15234-0.43359,0.23242c7.22559,3.7002,33.83984-0.55762,42.97168-6.7373
		C521.19727,178.43164,514.83691,177.84375,508.4707,177.33789z"/>
</g>
<path id="moustashe" fill-rule="evenodd" clip-rule="evenodd" fill="#666666" d="M598.05371,263.4541
	c12.7002-2.15918,23.41992-8.26367,31.1377-18.94043c0.64453-0.89355,1.09961-1.92383,0.94922-3.47168
	c-1.05176,1.29102-2.11328,2.57422-3.15234,3.875c-8.83789,11.06152-20.53516,16.55957-34.46484,17.69238
	c-3.20801,0.26172-5.84375-0.46973-7.30371-3.80566c-0.71289-1.62988-1.96094-3.02441-2.96777-4.52539
	C586.55469,264.91992,586.15625,265.47754,598.05371,263.4541z"/>
<g id="teeth">
	
		<path id="tooth14" fill-rule="evenodd" clip-rule="evenodd" fill="#FFFFFF" stroke="#000000" stroke-width="0.75" stroke-miterlimit="10" d="
		M440.93701,293.02734c7.57813-7.08594,10.13281-21.44824,5.92627-29.30957c-2.39941-4.48438-6.51709-6.30078-13.53027-5.43945
		C436.69971,269.53516,436.27246,281.53711,440.93701,293.02734z"/>
	
		<path id="tooth13" fill-rule="evenodd" clip-rule="evenodd" fill="#FFFFFF" stroke="#000000" stroke-width="0.75" stroke-miterlimit="10" d="
		M457.84766,335.3916c8.48438,6.55957,21.32227,2.17578,22.12012-7.73242c0.32324-3.99609-0.50342-8.42676-2.02539-12.16504
		c-3.9292-9.64844-10.78809-17.06445-19.74316-22.39063c-4.99658-2.97266-6.9668-2.33496-9.79297,2.88574
		c-3.16309,5.8457-3.34619,12.0459-1.98242,16.99121C448.03271,322.63965,451.01758,330.11133,457.84766,335.3916z"/>
	
		<path id="tooth12" fill-rule="evenodd" clip-rule="evenodd" fill="#FFFFFF" stroke="#000000" stroke-width="0.75" stroke-miterlimit="10" d="
		M490.14258,261.75195c-1.85352-10.61914-6.0332-13.7959-16.82568-12.94824c-2.81592,0.2207-5.61377,0.74512-8.40186,1.23438
		c-8.60596,1.50781-9.55518,1.73633-10.27588,10.55566c-0.48193,5.88965,0.38916,12.30176,2.3501,17.88379
		c3.13672,8.93164,9.98828,15.49609,17.49072,22.19141C484.16406,288.94922,492.91992,277.6582,490.14258,261.75195z"/>
	
		<path id="tooth11" fill-rule="evenodd" clip-rule="evenodd" fill="#FFFFFF" stroke="#000000" stroke-width="0.75" stroke-miterlimit="10" d="
		M487.62109,297.84473c-4.54297,7.75684-3.32031,18.28516,2.52637,24.60938c5.64746,6.10742,17.68848,8.0752,26.00098,4.24707
		c10.43359-4.80371,15.23242-15.56543,11.78418-26.45508c-0.19824-0.62793-0.42188-1.27148-0.7666-1.8252
		c-4.01855-6.45605-20.27441-17.5293-27.95703-19.0332C495.34375,285.51172,491.29688,291.57031,487.62109,297.84473z"/>
	
		<path id="tooth10" fill-rule="evenodd" clip-rule="evenodd" fill="#FFFFFF" stroke="#000000" stroke-width="0.75" stroke-miterlimit="10" d="
		M524.89355,285.25c1.0498,0.0498,2.66406-0.61621,3.13281-1.44922c2.43652-4.33008,4.78125-8.74023,6.71484-13.30957
		c0.55371-1.30664,0.23535-4.04883-0.71191-4.75781c-8.49707-6.35254-17.0293-12.69922-25.95898-18.41016
		c-4.82227-3.08496-6.62695-2.12402-8.37012,3.37793c-1.16895,3.68652-1.47754,7.64648-2.1709,11.48438
		C500.40918,273.71875,512.99023,284.69238,524.89355,285.25z"/>
	
		<path id="tooth9" fill-rule="evenodd" clip-rule="evenodd" fill="#FFFFFF" stroke="#000000" stroke-width="0.75" stroke-miterlimit="10" d="
		M536.7207,304.44922c2.15039,0.47266,5.49805-1.22461,7.24316-3.0332c2.06738-2.13965,3.77246-5.27344,4.22559-8.19531
		c0.99121-6.37793,1.23242-12.88965,1.41309-19.35742c0.02832-1.04688-1.66895-2.77051-2.85352-3.07715
		c-1.83887-0.47559-5.29004-0.66211-5.69043,0.1709c-4.08984,8.4873-8.17578,17.07031-8.08008,27.56055
		C534.03809,300.34375,535.01074,304.07227,536.7207,304.44922z"/>
	
		<path id="tooth8" fill-rule="evenodd" clip-rule="evenodd" fill="#FFFFFF" stroke="#000000" stroke-width="0.75" stroke-miterlimit="10" d="
		M555.35352,292.52734c8.07813-2.79492,15.82422-5.4043,23.49805-8.21484c1-0.36621,2.08789-1.64844,2.34961-2.70117
		c3.18359-12.86035-7.35645-28.22559-14.70117-36.02588c-3.75-4.54346-6.52734-3.24756-5.52734,3.97217
		C558.94043,266.66992,557.30566,276.08594,555.35352,292.52734z"/>
	
		<path id="tooth7" fill-rule="evenodd" clip-rule="evenodd" fill="#FFFFFF" stroke="#000000" stroke-width="0.75" stroke-miterlimit="10" d="
		M590.92676,280.00586c3.25098-4.19922,6.17871-7.97949,9.39844-12.1377
		C590.52734,265.05957,588.35352,267.92188,590.92676,280.00586z"/>
	
		<path id="tooth6" fill-rule="evenodd" clip-rule="evenodd" fill="#FFFFFF" stroke="#000000" stroke-width="0.75" stroke-miterlimit="10" d="
		M602.85938,275.44238c2.23828,0.17871,4.92871,0.70117,7.54102,0.44043c0.97168-0.0957,2.64453-2.20508,2.46387-3.08105
		c-0.49512-2.4043-1.80176-4.6416-2.78711-6.94531c-0.52344,0.09473-1.0459,0.19043-1.56934,0.28418
		C606.65039,269.19922,604.79297,272.25879,602.85938,275.44238z"/>
	
		<path id="tooth5" fill-rule="evenodd" clip-rule="evenodd" fill="#FFFFFF" stroke="#000000" stroke-width="0.75" stroke-miterlimit="10" d="
		M619.83008,260.81543c-3.52148,5.26855-5.4248,10.64551-2.02539,14.96973c1.51953,1.93164,6.97949,0.76758,10.65039,1.00879
		c0.1582-0.5293,0.31641-1.05762,0.47559-1.58691C625.99609,270.56641,623.06055,265.92578,619.83008,260.81543z"/>
	
		<path id="tooth4" fill-rule="evenodd" clip-rule="evenodd" fill="#FFFFFF" stroke="#000000" stroke-width="0.75" stroke-miterlimit="10" d="
		M628.95313,263.00781c0.02637,0.37598-0.11621,0.97559,0.12109,1.2793c2.31055,2.97852,3.7627,9.4707,7.60059,7.55566
		c3.86816-1.93066,5.98047-7.77051,8.26855-12.2041c0.5625-1.08789-1.18652-3.36816-1.92773-5.24219
		C637.75,257.62109,633.41406,260.27539,628.95313,263.00781z"/>
	
		<path id="tooth3" fill-rule="evenodd" clip-rule="evenodd" fill="#FFFFFF" stroke="#000000" stroke-width="0.75" stroke-miterlimit="10" d="
		M651.19922,277.53809c1.1084-0.09082,3.05664-2.02441,2.94141-2.89648c-0.55273-4.15723-1.68164-8.2373-2.92285-13.75684
		c-3.53223,6.01465-6.23926,10.625-9.4375,16.06934C645.46777,277.24219,648.36523,277.77148,651.19922,277.53809z"/>
	
		<path id="tooth2" fill-rule="evenodd" clip-rule="evenodd" fill="#FFFFFF" stroke="#000000" stroke-width="0.75" stroke-miterlimit="10" d="
		M660.63281,278.79785c10.74121-0.83887,17.83008-12.38281,13.16113-21.81543c-0.86621-1.74902-4.52832-2.75293-6.9834-2.92871
		c-4.02832-0.28711-8.125,0.38379-13.13086,0.71387C656.00195,262.79395,658.32324,270.81836,660.63281,278.79785z"/>
	
		<path id="tooth1" fill-rule="evenodd" clip-rule="evenodd" fill="#FFFFFF" stroke="#000000" stroke-width="0.75" stroke-miterlimit="10" d="
		M679.48828,269.48926c18.62891-2.61572,30.8457-5.10693,27.17871-15.09277c-2.66602-20.06299-13.36035-40.8457-19.54395-40.71045
		c-4.79492-0.06787,2.21094,29.25293-3.78906,37.31396C677.57129,258.74219,680.96582,259.97461,679.48828,269.48926z"/>
</g>
<g id="collar_1_">
	<g id="spikes">
		<path id="spike5" fill-rule="evenodd" clip-rule="evenodd" fill="#FFFFFF" d="M522.5625,486.25879
			c-0.1875-1.87695-1.97461-4.36816-3.6875-5.19141c-11.92773-5.7334-25.81348,1.31641-28.72168,14.22461
			c-0.91504,4.06445-0.04688,7.11621,3.86621,9.15234c9.84375,5.11914,19.62891,10.35156,29.4375,15.53809
			c0.54883-0.2002,1.09668-0.40137,1.64551-0.60156C524.30664,508.33496,523.66699,497.27344,522.5625,486.25879z"/>
		<path id="spike4" fill-rule="evenodd" clip-rule="evenodd" fill="#FFFFFF" d="M398.93262,512.1416
			c3.29688-2.93945,3.50879-5.60938,1.27344-9.42969c-6.29053-10.74707-17.29883-15.14355-28.98096-10.94141
			c-1.21436,0.4375-2.43506,1.73242-2.98096,2.93457c-0.73535,1.61719-1.39697,3.63965-1.08447,5.2998
			c2.05811,10.91602,4.37451,21.78516,6.65381,32.66016c0.12646,0.59961,0.68652,1.10938,0.97852,1.55762
			C383.0166,526.6748,390.88721,519.31152,398.93262,512.1416z"/>
		<path id="spike3" fill-rule="evenodd" clip-rule="evenodd" fill="#FFFFFF" d="M277.88184,446.55566
			c11.53809-0.54004,15.86621-3.58301,15.16016-8.73438c-2.21777-16.20313-9.06885-23.96875-20.45313-22.00879
			c-11.45703,1.97168-24.67383,15.02344-26.63867,26.37793c-0.21729,1.25293-0.07813,2.56641-0.10889,4.03027
			C256.73145,446.38281,267.33398,447.0498,277.88184,446.55566z"/>
		<path id="spike2" fill-rule="evenodd" clip-rule="evenodd" fill="#FFFFFF" d="M212.80518,313.78223
			c5.70068,4.41699,11.81787,6.35449,18.45508,2.53125c6.44238-3.71094,7.46826-10.29785,7.41357-16.8877
			c-0.02734-3.40527-0.79932-7.03418-2.16211-10.15625c-3.7373-8.56348-11.85498-11.01758-22.41113-5.97852
			c-8.1499,3.89063-15.65332,9.13379-23.30371,13.69141C198.69336,303.00195,205.78613,308.34277,212.80518,313.78223z"/>
		<path id="spike1" fill-rule="evenodd" clip-rule="evenodd" fill="#FFFFFF" d="M233.21924,196.60547
			c5.66162,8.35449,10.78271,8.35352,16.20166-0.10059c2.37158-3.69824,4.29785-8.51465,4.20117-12.77344
			c-0.15283-6.74805-2.54932-10.13379-9.64111-9.58105c-7.22461,0.56152-14.43945,1.25-22.56543,1.96484
			C225.60596,183.47266,228.97168,190.33789,233.21924,196.60547z"/>
	</g>
	
		<linearGradient id="collar_2_" gradientUnits="userSpaceOnUse" x1="627.74609" y1="295.00195" x2="856.92017" y2="223.68405" gradientTransform="matrix(-0.9848 0.1736 0.1736 0.9848 877.01807 -77.19141)">
		<stop  offset="0" style="stop-color:#F15A24"/>
		<stop  offset="0.25651" style="stop-color:#F15E24"/>
		<stop  offset="0.53059" style="stop-color:#F36B22"/>
		<stop  offset="0.81191" style="stop-color:#F58020"/>
		<stop  offset="1" style="stop-color:#F7931E"/>
	</linearGradient>
	<path id="collar" fill-rule="evenodd" clip-rule="evenodd" fill="url(#collar_2_)" d="M249.25342,168.7041
		c6.18896,2.46191,7.8501,3.64844,9.94287,14.15527c0.92627,4.64648-7.25488,27.00293-17.53906,26.00098
		c-6.9585,0.15039-9.70996-1.05762-12.95313-5.05469c-5.56592,17.38672-8.66895,22.67676-9.98926,27.8125
		c-8.93506,34.74609-10.3584,47.5625-7.69189,47.55859c11.51025-11.50684,23.00488-2.53125,28.16016,2.29785
		c4.4624,4.18066,11.01221,28.85938-5.60498,42.11328c-12.08789,5.34766-17.40332-0.56738-17.08008,1.99609
		c2.27344,20.56836,16.63379,61.7002,36.93311,93.32129c10.22559-8.2334,26.04541-12.37305,33.16504-7.70996
		c13.30322,10.18066,32.19971,43.44824-8.71631,45.58594c17.91699,11.39648,32.03076,26.1748,82.38672,43.01465
		c-3.74512-7.80469,1.354-14.33301,8.88477-16.7998c5.31006-1.73926,54.39355,9.02441,38.28613,32.85059
		c-3.78809,5.60352,55.21289-4.32422,73.82813-12.00684c-3.34277-12.4834,11.75684-26.18945,2.37988-31.13672
		c-23.61621,25.87012-58.92285,32.19922-77.09375,24.68359c-4.44287-6.24414-23.80811-14.57031-37.40039-14.39063
		c-45.6626-30.53516-73.76611-80.75-87.99854-103.62988c-17.41113-33.47852-25.9082-62.27832-26.40625-63.37305
		c-4.41895-9.71094-12.50635-42.13477-13.04932-47.13672c-1.87354-17.26855,6.51367-48.90625,6.65137-50.5752
		c0.41406-4.98633,23.52002-53.93164,24.03857-54.67188c1.14697-1.63867,14.98584-28.2002,13.75342-26.62598
		c-6.76953,8.64063-22.16016,12.53809-28.87988,14.73926C256.3418,158.99219,255.60791,162.50586,249.25342,168.7041z"/>
</g>
</svg>
