<?xml version="1.0" encoding="utf-8"?>
<!-- Generator: Adobe Illustrator 16.0.0, SVG Export Plug-In . SVG Version: 6.00 Build 0)  -->
<!DOCTYPE svg PUBLIC "-//W3C//DTD SVG 1.1//EN" "http://www.w3.org/Graphics/SVG/1.1/DTD/svg11.dtd">
<svg version="1.1" id="Layer_1" xmlns="http://www.w3.org/2000/svg" xmlns:xlink="http://www.w3.org/1999/xlink" x="0px" y="0px"
	 width="640.508px" height="347.832px" viewBox="0 0 640.508 347.832" enable-background="new 0 0 640.508 347.832"
	 xml:space="preserve">
<rect x="35.321" y="64.344" display="none" fill="#993333" stroke="#000000" stroke-width="3" stroke-miterlimit="10" width="854" height="432.667"/>
<g>
	<path stroke="#000000" stroke-width="3" stroke-miterlimit="10" d="M635.881,293.166c-2.15-4.32-3.711-8.762-4.35-13.701
		c-0.82-6.318-2.971-12.297-6.24-18.028c-3.73-6.531-9.551-10.881-14.51-16.1c-3.34-3.521-5.92-7.251-7.131-11.931
		c-5.58-21.65-20.029-35.51-39.51-44.92c-5.631-2.721-11.189-5.77-17.1-7.711c-11.371-3.729-17.01-12.769-22.371-22.309
		c-3.779-6.73-8.41-12.6-14.709-17.36c-5.32-4.01-19.711-4.84-17.201-12.2c2.762-8.07,15.91-1.43,23.461-1.4
		c11.141,0.05,14.311-7.1,11.129-15.34c-1.689-4.37-5.578-7.73-9.479-10.5c-11.48-8.16-24.32-11.71-38.42-11.11
		c-10.471,0.45-19.121,3.72-25.331,12.82c-1.82,2.67-3.91,7.31-9.12,5c-16.7-7.4-33.45-14.71-50.14-22.17
		c-8.666-3.867-19.666-8.497-34.94-16.02c-9.399-4.62-18.07-10.67-24.7-18.81c-4.569-5.61-9.43-11.05-14.79-15.6
		c-16.23-13.77-34.73-24.03-55.19-30.02c-14.07-4.12-28.74-4.3-43.38-4.25c-14.26,0.05-27.43,3.86-40.23,9.62
		c-4.66,2.1-8.88,5.3-14.29,5.5c-11.93,0.44-21.6,5.27-29.02,14.73c-1.46,1.86-2.07,4.61-4.83,5.32
		c-7.81,2.03-15.54,2.88-22.54-2.35c-5.61-4.18-11.78-6.38-18.8-6.78c-11.58-0.65-22.01,3.05-32.07,8.07
		c-6.15,3.07-12.16,6.62-16.65,11.88c-6.19,7.25-9.43,16.55,4.04,19.61c2.73,0.62,6.69-0.16,8.03,2.89
		c1.27,2.88-1.19,5.88-1.72,8.87c-1.17,6.65-4.33,11.11-11.2,12.89c-2.36,0.61-4.63,2.08-6.59,3.96
		c-6.32,6.06-8.15,13.46-7.31,21.85c0.27,2.69,0.34,5.68-2.47,6.95c-9.34,4.22-12.2,12.46-13.12,21.47
		c-0.7,6.86-2.09,14.04,2.84,20.36c4.22,5.41,3.93,6.1-0.54,11.089c-9.72,10.85-14.4,17.92-4.54,32.771
		c2.43,3.658,2.41,7.199,0.61,11.049c-2.03,4.35-4.12,8.711-5.73,13.221c-3.74,10.47-4.72,21.329-4.02,32.35
		c0.83,13.068,3.59,25.439,14.19,34.449c2.25,1.91,2.77,4.039,2.89,6.879c0.26,6-2.23,11.842-0.19,18
		c3.02,9.102,7.74,18.07,17.35,18.951c11.61,1.07,24.05,3.311,35.25-3.49c2.69-1.631,5.68-3.25,9.05-1.109
		c3.85,2.459,7.92,3.83,12.65,4.289c16.73,1.631,33.26,2.58,48.6-6.189c3.2-1.83,6.06-3.68,7.37-7.82
		c2.25-7.119-0.16-13.061-3.43-18.85c-5.46-9.66-14.35-15.73-23.42-21.57c-7.33-4.721-15.18-7.711-24.03-7.801
		c-2.07-0.02-5.04,1.111-6.02-0.709c-1.25-2.34,0.56-4.781,1.93-7.16c1.91-3.309,3.96-3.898,7.19-2.357
		c1.29,0.619,2.74,0.93,4.14,1.25c22.23,5.146,44.12,11.658,66.42,16.588c9.86,2.18,19.5,2.92,29.59,1.59
		c15.76-2.07,31.42-4.441,46.93-7.961c1.11-0.25,2.67-0.689,2.43,1.16c-0.3,2.281,1.16,4.061,1.13,6.25
		c-0.13,8.4,8.97,17.08,17.19,18.5c5.77,1.01,11.59,0.141,17.21,1.051c6.97,1.129,13.42,1.66,19.64-2.611
		c1.9-1.299,4.48-1.619,7.02-1.6c9.32,0.07,9.36-0.02,10.9,9.42c1.18,7.24,4.479,12.43,12.17,14.361
		c5.8,1.459,11.109,4.129,15.55,8.398c3.58,3.451,7.63,5.461,13.1,5.07c4-0.279,8.181,0.391,12.271,0.611
		c11.069,0.6,22.14,0.34,33.21,0.92c18.45,0.979,36.979,0.229,55.479,0.279c1.99,0.01,3.801-0.25,5.681-1.109
		c9.721-4.451,14.85-11.102,13.75-22.57c-0.76-7.881-3.32-14.551-9.539-18.791c-4.861-3.299-5.581-6.889-4.081-11.619
		c2.649-8.33,3.47-16.801,3.569-25.539c0.08-7.44-9.543-16.001-2.31-18.095c4.751-1.375,9.946,2.529,14.876,5.5
		c10.299,6.199,21.994,9.186,33.875,9.875c8.18,0.48,16.199-2.451,24.25-3.561c1.299-0.18,3.029-0.891,4.049,0.689
		c2,3.111,4.102,6.192,5.75,9.491c0.9,1.801,1.031,3.51-2.26,3.93c-2.4,0.311-4.799,0.699-7.24,0.799
		c-10.568,0.439-21.189-1.008-31.719,0.98c-7.531,1.43-12.771,5.049-15.57,12.699c-4.01,10.951-0.34,20.68,3.77,30.311
		c2.621,6.141,6.951,11.369,13.529,13.57c8.33,2.789,17.111,3.5,25.811,4.479c7.471,0.842,13.951-2.408,20.75-4.369
		c2.92-0.84,5.971-1.58,8.48,0.16c9.029,6.26,18.811,7.48,29.279,5.16c12.15-2.689,23.76-6.42,32.301-16.281
		C639.861,312.804,640.971,303.394,635.881,293.166z M379.541,269.81c0.041,3.127-0.459,6.039-8.001,3.707
		c-2.458-0.416-4.492-0.359-13.25,1.613c0,0-0.167-1.676-2.75-4.275c-1.032-1.039-4.729-3.693-3.122-4.578
		c7.318-4.028,17.623-9.692,25.289-16.019C379.083,258.918,379.389,261.6,379.541,269.81z"/>
	<path id="body" fill="#5D5D5D" d="M246.828,51.696c0.582-3.021,1.478-5.498,0.707-8.186c-2.479-2.609-6-0.684-8.721,0.422
		c-4.441,1.805-8.616,4.265-13.661,6.835c0.977-3.051,1.546-5.601,2.591-7.938c2.333-5.223-1.717-13.678-8.488-13.256
		c-2.158,0.134-4.397-0.322-6.487,0.077c-11.361,2.172-19.963-4.102-28.925-9.253c-1.988-1.143-1.823-2.068,0.386-3.276
		c10.659-5.832,22.017-8.948,34.122-9.539c6.671-0.325,13.226-0.894,20.03-0.246c11.889,1.133,23.211,3.85,34.309,7.98
		c14.554,5.417,27.91,12.945,40.374,22.208c13.139,9.766,24.895,20.787,34.191,34.382c11.744,17.17,20.364,36.042,30.061,54.329
		c0.272,0.514,0.102,1.262,0.17,2.459c2.994-3.171,1.101-6.247,0.486-8.718c-3.328-13.393-8.489-26.129-15.034-38.286
		c-0.695-1.291-0.994-2.704-0.18-3.711c1.018-1.258,2.094,0.372,2.952,0.743c25.155,10.885,50.417,21.547,75.309,33.012
		c14.526,6.691,29.187,13.127,43.339,20.691c10.48,5.602,20.463,11.645,29.145,19.776c5.82,5.45,9.311,12.443,12.84,19.374
		c3.406,6.683,9.57,10.089,15.832,12.847c10.426,4.592,21.066,8.697,30.189,15.691c11.182,8.572,20.719,18.154,24.314,32.734
		c2.248,9.108,7.178,17.747,14.475,23.688c12.223,9.948,15.195,23.991,19.215,37.772c0.449,1.543,0.67,3.15,1.021,4.723
		c2.342,10.434,0.451,14.424-8.631,20.848c-8.5,6.016-17.92,9.734-28.08,10.549c-14.168,1.137-26.455-6.322-26.219-21.682
		c0.141-9.084,5.412-14.859,13.641-18.082c0.871-0.342,2,0.02,2.672-0.975c0.59-0.873,2.176-1.32,1.33-2.799
		c-0.639-1.117-1.744-1.592-2.992-1.25c-7.678,2.109-14.574,5.662-19.359,12.18c-3.822,5.209-3.381,11.568-1.109,16.873
		c3.65,8.531,2.24,10.182-7.189,13.297c-9.666,3.193-19.09,0.203-24.063-7.355c-7.375-11.213-2.738-26.045,7.545-33.889
		c8.598-6.557,18.559-8.799,29.668-8.105c-2.469-7.365-7.105-13.029-10.172-19.491c-0.342-0.721-0.793-1.387-1.176-2.088
		c-3.133-5.738-5.678-6.646-12.26-5.422c-7.184,1.338-14.357,2.781-21.732,3.012c-8.018,0.25-15.318-2.348-22.432-5.357
		c-9.59-4.057-18.762-9.018-27.508-14.71c-4.983-3.242-7.919-8.084-9.887-13.461c-3.236-8.842-5.752-18.014-10.969-25.963
		c-5.012-7.635-10.047-15.293-16.681-21.718c-1.229-1.19-2.574-1.97-4.425-2.668c-0.109,5.32,3.669,8.027,6.102,11.214
		c10.775,14.117,17.691,30.018,22.982,46.813c2.764,8.771,5.095,17.606,6.396,26.7c2.475,17.312,2.096,34.192-6.783,50.04
		c-2.354,4.203-4.484,8.5-7.358,12.391c-0.404,0.547-0.232,1.52-0.407,2.945c6.689-3.135,11.657-7.537,15.688-12.748
		c1.489-1.926,2.004-1.219,3.259-0.555c4.563,2.416,8.991,10.459,7.896,14.613c-2.932,11.115-7.887,14.844-14.736,14.484
		c-34.061-1.783-68.158-0.986-102.242-1.016c-6.01-0.004-7.916-4.469-9.437-8.465c-3.661-9.619,2.51-17.875,12.688-18.787
		c3.134-0.281,6.563,1.361,9.793-0.768c-11.407-6.648-24.302-4.709-28.157,5.891c-1.03,2.832-1.026,6.023-1.717,9
		c-0.508,2.184-1.244,3.396-4.246,2.193c-8.309-3.328-10.409-10.303-9.61-20.697c0.39-5.078,9.103-11.314,14.942-11.449
		c7.342-0.17,14.483,1.098,21.561,2.877c0.921-1.605-0.358-2.219-1.206-2.785c-2.543-1.695-5.195-3.223-7.765-4.877
		c-1.563-1.008-4.493-2.715-4.335-3.105c0.975-2.408,2.873-4.24,5.428-5.307c9.744-4.07,19.814-1.299,25.246,7.262
		c7.291,11.492,10.546,12.398,20.39,17.887c-1.344-5.191-5.477-7.836-8.282-11.068c-7.673-8.838-11.581-18.604-12.265-30.354
		c-0.621-10.674-0.833-21.553-3.861-31.94c-4.682-16.059-22.139-25.006-35.81-16.582c-4.483,2.764-7.874,6.852-10.945,10.891
		c-3.61,4.748-7.601,4.543-12.508,3.447c-4.145-0.926-7.975-3.162-13.287-3.424c6.139,5.188,11.275,9.752,19.237,9.229
		c4.355-0.285,7.92-1.928,11.017-4.436c3.305-2.676,6.595-5.521,9.51-8.568c5.58-5.832,15.391-2.943,19.748,0.943
		c4.276,3.816,6.753,9.17,7.911,14.678c1.039,4.938-3.151,8.274-6.316,10.897c-10.874,9.018-23.23,15.254-36.832,19.589
		c-17.532,5.584-35.471,8.506-53.626,8.506c-18.488,0-36.646-3.65-53.815-11.08c-2.92-1.264-5.845-2.515-9.425-4.056
		c5.578-0.004,9.49-0.727,13.837-1.215c8.389-0.943,17.878-5.537,25.49-8.389c4.211,2.129,6.375,3.697,12.25,5.75
		c3.133,1.492,6.663,2.25,9.749,3.285c4.58,1.535,7.395-0.289,7.878-5.145c0.483-4.846,0.475-4.52-0.221-9.141
		c-0.29-1.922-1.997-8.261-1.997-8.261s21.268-25.248,23.558-40.828c5.408-1.287,10.083-3.48,10.083-3.48
		c2.919-0.924,0.126-0.066,2.753-1.238c4.342-1.936,4.693-5.412,0.875-8.336c-1.783-1.365-2.339-2.082-5.428-4.107
		c-2.987-2.137-2.987-2.137-9.875-6.125c-2.45-13.327-10.999-37.221-17.875-49c3.75-2.625,6.293-5.852,7.943-7.125
		c2.958-2.283,4.207-3.726,6.813-6.459c1.533-1.607,1.732-1.411,0.678-4.108c-1.146-2.932-3.442-3.347-6.202-3.68
		c-3.743-0.451-6.718-1.539-11.326-2.006c-6.077-0.617-3.156-0.497-9.847-0.872c-4.48-8.221-12.238-19.082-19.559-24.875
		c-2.854-2.258-9.268-8.183-11.96-10.666"/>
	<g id="paws">
		<path id="paw-right" fill="#666666" d="M64.138,316.138c2.302,5.201,4.412,10.502,7.021,15.543
			c0.785,1.516,1.122,2.125-0.459,2.822c-3.374,1.488-6.602,3.26-10.536,3.139c-6.158-0.188-12.327,0.021-18.489-0.068
			c-6.879-0.102-12.609-5.008-14.328-11.664c-1.686-6.529-1.969-13.043-0.977-19.691c1.398-9.377,4.856-12.908,14.5-14.662
			c1.531-0.277,2.992-0.941,4.533-1.443c-3.212-4.352-7.731-4.879-14.28-1.75c-2.347,1.121-4.483,2.555-6.399,4.348
			c-3.142,2.939-5.285,2.66-7.295-1.146c-1.41-2.67-2.312-5.6-3.379-8.424c-6.313-16.703-5.867-33.331-0.376-50.008
			c0.471-1.43,0.475-2.865,0.973-4.246c3.843-10.648,13.415-13.568,23.311-7.314c2.253,1.424,3.65,3.412,4.164,5.564
			c2.257,9.451,7.99,16.271,15.821,21.405c7.869,5.16,16.182,9.613,26.025,8.953c3.014-0.203,5.853-1.467,8.956,0.025
			c1.763,0.848,3.006,1.684,3.497,3.668c0.523,2.115-1.264,2.33-2.287,3.177c-9.121,7.543-11.292,16.516-6.862,26.678
			c0.839,1.926,1.871,1.969,2.83,1.18c6.849-5.639,13.951-4.127,20.84-0.566c11.229,5.805,22.08,12.158,29.255,23.201
			c5.026,7.734,3.974,13.463-3.771,18.18c-2.039,1.242-3.822,0.713-5.187-1.104c-3.716-4.951-6.748-10.623-11.214-14.75
			c-5.541-5.123-10.836-10.867-18.155-13.813c-1.102-0.443-2.265-1.375-3.12-0.404c-1.134,1.291,0.583,1.965,1.243,2.727
			c4.784,5.516,9.779,10.855,14.407,16.496c3.386,4.127,7.014,7.992,10.709,11.822c1.304,1.354,0.668,3.041-1.096,3.346
			c-7.658,1.316-15.419,1.934-23.13,0.926c-6.013-0.785-12.053-1.836-17.584-4.676c-2.965-1.523-5.287-3.51-7.078-6.441
			c-2.823-4.623-6.723-8.361-10.909-11.746C64.92,315.66,64.529,315.898,64.138,316.138z"/>
		<g id="paw-toes">
			<g id="paw-toes-left">
				<path id="paw-toes-left-1" fill="#666666" d="M534.002,280.593c-7,6.268-10.68,13.426-12.301,21.434
					c-1.672,8.26,0.453,16.379,3.203,24.643c-12.287-2.143-15.418-11.336-18.428-20.367c-1.816-5.453-3.244-10.943-0.244-16.834
					c2.475-4.863,6.906-8.729,12.436-8.875c0.334-0.008,0.666,0,1,0C523.994,280.593,528.322,280.593,534.002,280.593z"/>
			</g>
			<g id="paw-toes-right">
				<path id="paw-toes-right-3" fill="#666666" d="M321.496,299.56c-3.75-0.852-6.675-2.746-7.73-6.182
					c-1.114-3.625-1.67-7.533-0.144-11.252c0.479-1.168,0.998-2.213,2.874-2.701c10.357-2.689,20.617-5.766,30.871-8.84
					c2.285-0.686,3.147,1.086,4.283,2.119c1.383,1.258,0.959,2.779-0.175,4.313c-3.696,5.002-7.54,9.555-13.832,11.697
					c-5.073,1.727-8.673,6.037-13.006,9.088C323.604,298.529,322.422,299.048,321.496,299.56z"/>
				<path id="paw-toes-right-2" fill="#666666" d="M307.328,293.119c0.158,3.535,0.734,7.002-3.477,8.48
					c-4.534,1.592-8.711,1.48-12.7-1.674c-3.728-2.949-4.987-6.984-5.754-11.326c-0.753-4.262,0.149-6.93,5.424-6.061
					c4.244,0.699,8.347-1.5,12.683-1.02c1.882,0.209,3.148,0.211,2.92,2.65C306.135,287.269,308.247,290.166,307.328,293.119z"/>
				<path id="paw-toes-right-1" fill="#666666" d="M282.402,302.283c-11.855,1.49-18.826-2.313-22.145-9.809
					c-1.302-2.939-0.763-5.809-0.78-8.703c-0.011-1.844,1.709-2.646,3.229-2.109c4.353,1.541,8.801,0.723,13.203,0.906
					c1.448,0.061,2.78,0.068,2.46,2.041C277.35,290.898,280.677,296.199,282.402,302.283z"/>
			</g>
		</g>
	</g>
	<path id="tail" fill="#666666" d="M513.111,120.578c-4.279,0.244-7.848-1.496-11.73-1.074c-2.617,0.284-5.094,0.618-7.371,1.979
		c-5.791,3.459-11.457,4.365-17.756,0.667c-6.062-3.557-12.958-5.538-18.898-9.48c-2.136-1.417-2.23-2.089-0.618-4.055
		c6.72-8.191,15.755-12.715,25.817-12.745c14.563-0.045,27.586,5.263,37.309,16.773c2.916,3.451,1.846,5.862-2.363,7.475
		C515.809,120.766,514.219,120.206,513.111,120.578z"/>
	<g id="chest">
		<path id="chest-2" fill="#666666" d="M238.338,278.226c-8.053,2.275-16.429,2.807-24.585,4.461
			c-4.088,0.83-8.124,0.83-12.21,0.912c-2.724,0.057-2.852-1.5-1.509-3.029c3.355-3.818,5.103-8.479,7.347-12.889
			c0.67-1.314,1.016-2.443,3.225-1.531c8.549,3.531,17.253,6.686,25.867,10.063C237.103,276.46,238.234,276.33,238.338,278.226z"/>
		<path id="chest-1" fill="#666666" d="M192.039,283.07c-8.817,1.311-17.308,0.15-25.683-1.996
			c-10.714-2.748-21.565-5.125-32.023-8.65c-11.223-3.785-22.941-6.91-31.976-15.38c-0.665-0.623-1.63-1.584-1.517-2.221
			c0.155-0.869,1.495-0.934,2.383-1.316c16.572-7.125,33.193-5.553,49.902-0.605c5.847,1.732,11.753,3.27,17.662,4.783
			c4.201,1.076,6.655,3.863,8.621,7.56c2.562,4.814,5.391,9.498,8.362,14.07C188.757,280.835,189.982,282.455,192.039,283.07z"/>
	</g>
	<g id="face">
		<path id="forehead" fill="#666666" d="M173.308,53.982c1.422,0.544,2.857,1.056,4.264,1.637
			c6.447,2.666,11.219,6.194,9.963,14.499c-0.6,3.966,2.309,7.199,4.973,10.096c7.818,8.503,16.471,16.135,25.93,22.668
			c4.181,2.889,6.942,6.487,9.27,10.601c6.546,11.568,12.571,23.409,17.015,35.971c0.952,2.692,1.262,5.613,1.933,8.732
			c-4.136-0.361-6.13-3.586-8.482-5.579c-18.468-15.647-38.98-28.094-60.03-39.83c-7.824-4.361-16.028-8.078-23.186-13.736
			c-2.767-2.188-2.758-3.777-2.066-6.494c1.317-5.17,2.346-10.03-0.171-15.6c-1.918-4.242-5.101-6.159-8.447-7.13
			c-8.907-2.582-16.841,1.714-23.08,9.069c-10.669,12.579-21.142,25.5-34.818,35.108c-3.039,2.136-6.889,3.732-10.58,2.247
			c-4.166-1.676-4.758-6.073-5.354-9.945c-1.078-7.004,2.567-11.737,7.875-15.755c3.31-2.505,6.935-4.823,9.088-8.555
			c0.907-1.572,1.398-3.386,1.571-5.389c-8.856,7.775-20.92,12.518-23.181,26.049c-0.026,0.156-0.15,0.294-0.204,0.448
			c-0.952,2.74,1.415,6.692-1.298,8.18c-1.977,1.084-5.334-0.472-8.09-0.658c-5.751-0.388-11.444-0.067-16.751,2.481
			c-2.647,1.271-3.191,0.169-3.081-2.251c0.23-5.04,6.945-14.012,11.728-15.063c1.953-0.43,4.083-0.743,6.07,0.967
			c3.148,2.708,4.375,1.375,4.241-2.424c-0.742-21.025,13.565-35.122,30.122-41.88c5.962-2.434,11.95-4.429,18.462-6.001
			c-0.399,4.275-5.118,5.935-5.612,10.598c4.894-3.056,9.446-5.435,13.454-8.521c4.667-3.596,10.295-2.29,15.342-3.795
			c1.7-0.507,1.057,1.586,1.189,2.57c0.358,2.676-0.792,5.591,1.293,8.397c4.122-11.169,8.453-21.758,19.123-28.003
			c8.775-5.136,17.45-8.293,27.017-1.435c3.726,2.671,8.374,4.019,12.338,6.406c6.165,3.713,12.838,4.173,19.721,3.936
			c1.165-0.04,2.354-0.149,3.493,0.025c1.994,0.308,4.978-1.26,5.774,0.985c0.774,2.184,0.492,4.771-1.332,7.354
			c-4.061,5.757-9.691,8.535-16.113,9.468c-5.22,0.759-10.81,0.965-15.918-0.103c-4.483-0.938-8.991,0.363-13.234-1.696
			C173.454,53.084,173.38,53.533,173.308,53.982z"/>
		<path id="cheek-right" fill="#666666" d="M198.446,133.12c7.04,2.572,12.978,5.961,18.624,9.755
			c8.786,5.902,16.642,13.052,22.641,21.723c8.895,12.855,15.625,26.357,8.824,42.804c-3.184,7.703-9.303,12.383-15.853,15.842
			c-12.397,6.545-25.875,10.021-40.149,9.375c-3.291-0.148-5.76,0.055-8.172-3.795c-4.408-7.031-8.97-13.689-11.392-21.85
			c-2.538-8.553-0.873-16.805-0.185-25.207c1.497-18.261,1.938-36.226-11.061-51.476c-8.219-9.643-23.427-9.493-30.546,1.064
			c-6.393,9.48-15.735,10.269-25.465,9.088c-9.665-1.174-16.751,2.201-22.271,9.785c-0.467,0.643-0.854,1.348-1.234,2.047
			c-2.427,4.469-6.129,7.814-11.211,7.131c-5.846-0.787-10.531-3.926-12.724-10.136c-3.034-8.592,0.141-17.115,7.207-22.835
			c9.078-7.349,18.502-6.36,28.275-2.984c3.921,1.355,8.025,1.473,11.899,1.823c4.477,0.405,6.999-4.305,9.68-7.542
			c4.878-5.889,9.605-12.039,16.378-15.779c8.336-4.604,16.635-2.26,24.53,1.665c7.203,3.581,12.862,9.291,19.069,14.271
			c8.913,7.149,15.896,16.317,24.953,23.286c0.505,0.389,0.296,1.662,1.418,0.615c0.678-0.633,0.394-1.023-0.147-1.554
			C199.758,138.495,199.506,136.081,198.446,133.12z"/>
		<path id="chin" fill="#666666" d="M103.338,199.626c-4.86-2.021-9.641-0.207-14.315,0.262
			c-14.396,1.443-27.455,7.393-40.578,13.092c-10.758,4.67-21.207,3.287-29.628-4.811c-7.958-7.652-6.935-19.486,1.64-27.527
			c7.972-7.476,17.363-8.845,27.553-5.037c1.999,0.746,2.08,1.996-0.52,4.26c-5.102,4.443-7.243,10.301-8.611,16.721
			c3.946-2.496,6.407-6.438,8.859-10.059c7.019-10.367,16.471-11.039,27.485-8.621c16.995,3.729,33.196,9.664,49.235,16.232
			c11.807,4.836,23.692,4.063,35.388-0.58c3.947-1.566,5.626-1.039,5.625,3.73c-0.001,11.578,3.602,22.168,9.927,31.83
			c3.018,4.611,2.952,4.545-2.299,5.52c-11.414,2.121-22.758,4.62-34.181,6.69c-12.417,2.25-24.895,4.162-37.336,6.279
			c-5.417,0.922-10.809,2.814-16.214,2.822c-13.49,0.021-24.339-6.158-32.798-16.429c-2.423-2.943-3.96-6.602-6.033-9.848
			c-1.723-2.699-0.371-3.561,2.021-4.609c6.308-2.771,11.847-2.301,17.584,1.9c5.148,3.77,12.418,5.252,16.589,4.473
			c-4.345-4.225-9.68-6.615-14.192-10.078c-3.46-2.656-1.523-3.482,0.167-4.955c4.887-4.256,11.274-5.318,17.145-6.773
			C91.644,202.675,97.392,200.835,103.338,199.626z"/>
		<path id="ear-left" fill="#666666" d="M57.275,60.552c-2.113,0.217-4.138-0.071-6.166-0.905c-2.126-0.875-5.334-0.834-5.467-3.601
			c-0.107-2.226,2.26-3.922,4.023-5.485c11.287-10.009,25.006-15.056,39.42-17.609c5.698-1.009,11.833,2.166,17.428,4.65
			c0.77,0.341,1.061,0.965,0.732,1.512c-0.611,1.02-1.564,1.501-2.895,1.517c-4.729,0.057-9.106,1.73-13.537,3.158
			c-8.592,2.767-14.86,9.406-22.646,13.504C64.771,59.081,61.422,61.139,57.275,60.552z"/>
		<path id="cheek-left" fill="#666666" d="M38.137,152.731c-15.634-1.09-18.639-8.944-13.677-19.294
			c2.026-4.226,5.517-4.174,8.634-0.737c3.941,4.347,8.037,8.56,14.176,10.01c1.801,0.426,4.233,0.938,4.161,3.963
			c-0.068,2.866-2.597,2.774-4.076,3.312C43.768,151.286,40.161,152.899,38.137,152.731z"/>
		<path id="eye-brow" fill="#666666" d="M150.381,86.541c0.827,2.751-1.607,4.883-2.353,7.471c-0.681,2.362-5.621,1.926-7.347-0.768
			c-3.742-5.838-9.002-8.601-15.804-8.628c-1.739-0.007-3.188-0.215-2.306-2.394c1.524-3.76,15.531-9.504,19.746-8.222
			C147.571,75.6,150.445,79.968,150.381,86.541z"/>
		<g id="Teeth">
			<path id="tooth-6l" fill="#FFFFFF" d="M104.947,159.53c2.725,3.365,6.128,5.711,9.235,8.396c3.915,3.384,6.676,3.058,9.189-1.357
				c2.381-4.185,4.839-8.343,6.901-12.686c1.007-2.121,1.261-1.941,3.283-0.835c4.366,2.389,7.782,5.894,11.488,8.978
				c2.438,2.03,4.126,1.474,6.05,0.239c5.042-3.237,8.921-7.794,13.021-12.068c0.632-0.659,0.66-1.747,2.002-1.618
				c1.559,0.15,1.115,1.272,1.277,2.172c0.975,5.402,2.395,10.762,2.891,16.206c1.16,12.722-5.863,25.044-21.779,25.822
				c-17.144,0.836-32.39-5.332-47.977-10.619c-8.002-2.715-15.886-5.779-23.88-8.519c-1.407-0.481-1.512-1.357-1.185-2.177
				c1.058-2.65,1.739-6.107,3.765-7.474c1.244-0.839,4.279,2.158,6.096,4.034c0.579,0.599,1.16,1.196,1.766,1.768
				c5.248,4.95,5.151,4.872,9.687-0.995C99.254,165.591,102.133,162.695,104.947,159.53z"/>
			<path id="tooth-6u" fill="#FEFEFE" d="M109.119,143.774c2.006,0.566,5.49-0.266,8.972-0.171
				c6.131,0.168,11.085-1.695,14.231-7.407c6.528-11.851,20.133-11.301,28.245-0.913c5.626,7.205,5.612,8.016-0.893,14.521
				c-2.974,2.974-5.97,5.925-8.908,8.934c-1.341,1.373-2.197,2.485-4.351,0.552c-4.094-3.676-8.741-6.728-12.983-10.25
				c-2.34-1.942-3.626-2.17-5.188,0.928c-2.521,5-5.68,9.676-8.278,14.641c-1.047,2-1.512,2.475-3.384,0.783
				c-3.379-3.055-7.164-5.661-10.529-8.729c-1.655-1.51-2.539-0.95-3.597,0.364c-2.039,2.533-4.021,5.112-6.092,7.618
				c-1.256,1.521-2.709,4.237-3.948,4.168c-4.396-0.245-6.653-4.454-10.021-6.729c-2.302-1.556-0.339-3.362,0.378-4.139
				c4.16-4.51,7.865-9.752,13.486-12.45C99.653,143.865,103.689,143.299,109.119,143.774z"/>
			<path id="tooth-1" fill="#FEFEFE" d="M23.771,152.553c3.813,0.343,6.693,3.004,10.149,4.267c0.322,0.117,0.429,1.181,0.398,1.793
				c-0.021,0.432-0.506,0.819-0.677,1.268c-1.421,3.714-3.789,8.573-6.681,8.97c-3.241,0.444-4.357-5.276-6.471-8.236
				c-0.95-1.332-3.592-2.773-1.532-5.015C20.222,154.224,21.242,152.131,23.771,152.553z"/>
			<path id="tooth-4" fill="#FEFEFE" d="M56.061,174.366c-0.087-0.016-1.638,0.565-3.21-0.689c-3.147-2.509-3.986-4.804-0.476-7.587
				c0.648-0.515,1.142-1.22,1.779-1.751c2.031-1.692,3.638-5.411,6.829-3.321c3.141,2.056,4.183,5.846,3.31,9.587
				C63.501,173.998,60.788,174.947,56.061,174.366z"/>
			<path id="tooth-3" fill="#FEFEFE" d="M56.382,156.806c-0.065,1.21-7.645,9.653-8.785,9.739c-1.187,0.088-1.897-0.867-2.305-1.636
				c-1.025-1.933-2.479-3.457-4.012-4.929c-1.461-1.403-0.981-1.919,0.713-2.652c2.943-1.275,5.656-3.086,8.604-4.349
				C53.695,151.652,56.55,153.675,56.382,156.806z"/>
			<path id="tooth-5" fill="#FEFEFE" d="M76.225,163.594c-1.07,3.043-1.822,5.641-2.895,8.099c-1.027,2.354-2.496,2.436-4.627,0.823
				c-2.733-2.067-2.695-4.847-2.207-7.497c0.545-2.961,3.23-0.952,4.896-1.355C72.788,163.325,74.331,163.594,76.225,163.594z"/>
			<path id="tooth-2" fill="#FEFEFE" d="M45.601,168.115c-4.824,2.131-9.238-0.644-14.019,0.875c1.23-3.593,2.706-7.788,5.313-7.916
				C40.646,160.891,42.269,165.711,45.601,168.115z"/>
		</g>
		<g id="eye">
			<path id="eye-white" fill="#FEFEFE" d="M137.595,94.222c-7.083,4.308-6.961,2.622-13.961,7.685
				c-3.75,3.063-6.13,6.007-8.553,8.735c-2.273,2.559-5.322,8.14-5.221,0.653c0.136-10-14.456,0.549-6.477-7.451
				c5.693-5.708,16.906-18.285,26.897-14.252C132.781,90.602,133.679,93.574,137.595,94.222z"/>
			<path id="eye-white-sm" fill="#FEFEFE" d="M91.737,116.224c3.141-2.19,7.463-0.596,6.87,3.784
				c-0.096,0.71-0.781,0.284-3.536-0.398C92.777,119.041,92.337,118.359,91.737,116.224z"/>
		</g>
	</g>
	<g id="collar_1_">
		<g id="collar-spikes">
			<path id="spike-5" fill="#FEFEFE" d="M204.445,253.942c-0.681,8.182-2.667,15.97-6.913,23.247
				c-2.182,3.74-3.226,3.799-5.807,0.385c-4.392-5.807-8.646-11.77-11.043-18.573c-3.778-10.721-0.78-13.252,10.652-16.295
				c2.438-0.648,5.425-0.439,7.854,0.334C204.434,244.708,205.109,249.061,204.445,253.942z"/>
			<path id="spike-3" fill="#FEFEFE" d="M315.641,189.628c-12.395,2.689-21.403,4.502-33.259,4.004
				c-6.565-0.275-9.886-3.611-10.071-10.188c-0.072-2.539,0.614-4.945,1.36-7.105c1.132-3.276,3.604-6.091,7.784-4.679
				c11.214,3.787,22.269,7.962,32.63,13.818C315.638,186.355,318.384,188.593,315.641,189.628z"/>
			<path id="spike-4" fill="#FEFEFE" d="M278.783,256.573c-3.69-0.465-6.288-1.541-8.852-3.135
				c-5.788-3.596-11.491-7.287-16.419-12.109c-2.589-2.531-2.886-5.112-1.051-7.823c1.492-2.203,3.334-4.305,5.418-5.947
				c7.864-6.199,10.793-5.221,15.691,3.471c3.859,6.846,5.623,14.294,7.703,21.675C281.796,254.561,282.303,257.575,278.783,256.573
				z"/>
			<path id="spike-2" fill="#FEFEFE" d="M265.009,133.219c-3.399-0.073-12.125-6.75-12.25-13.896
				c-0.38-4.354,1.764-10.204,3.75-10.979c5.055-1.973,10.394-1.712,15.796-2.25c7.87-0.783,13.003-0.465,19.954,0.25
				c0.89,0.092,3.508,0.726,3.97,1.993c0.253,0.696,0.423,1.538-0.498,2.148c-8.116,7.757-16.222,14.233-27.329,20.76
				C266.987,132.148,265.99,133.198,265.009,133.219z"/>
			<path id="spike-1" fill="#FEFEFE" d="M241.916,47.54c0.843,1.304-0.699,5.565-1.672,7.729
				c-3.755,8.348-7.062,17.06-14.827,22.891c-2.588,1.943-5.086,2.282-7.561,0.346c-13.168-10.3-12.485-11.276-0.172-19.454
				C225.08,54.14,239.884,46.844,241.916,47.54z"/>
		</g>
		<path id="collar" fill="#FF6600" d="M190.227,59.735c0,0,3.907,3.358,2.782,8.483c-1.833,8.349,24.403,24.915,32.315,32.055
			c13.014,11.743,28.882,57.912,28.882,57.912s4.858,38.246,0,50.07c-3.093,7.529-10.156,16.672-22.156,21.838
			c-6.644,2.861-23.879,10.269-47.333,8.167c-5.582-0.499-26,5.061-40.667,6.668c11.667,3.742,18.871,6.391,28.333,7.5
			c3.181,0.373-0.362-1.334,3.167-6c10.819-14.308,31.5-4.643,33-2.5c2.107,3.01,1.167,12.844,1.167,12.844s17.27-0.42,22.333-1.516
			c4.481-0.969,17.667-6.586,17.667-6.586s-4.721-4.369-5.333-6.35c-0.5-1.615-0.05-5.2,0.667-6.731
			c1.601-3.42,6.254-9.592,9.156-12.006c2.745-2.285,8.719-6.867,12.26-7.328c2.253-0.293,7.113,0.596,8.851,2.059
			c1.452,1.221,2.918,4.895,3.733,6.609c0.769,1.617,2.594,7.17,2.594,7.17s6.364-5.75,12.239-16c4.644-8.102,6.5-17.17,6.5-17.17
			s-11.34,2.979-15.219,3.332c-2.453,0.225-7.57,0.605-9.847-0.332c-2.792-1.152-7.519-5.514-8.851-8.225
			c-1.71-3.479-2.271-11.661-1.416-15.442c0.783-3.461,4.816-9.622,7.254-12.2c1.535-1.623,5.111-4.496,7.204-3.713
			c3.698,1.383,6.847,2.692,9.208,3.713c2.869,1.241,7.712,4.063,7.712,4.063l-5.379-17.376l-5.886-16.487l-2.762-6.665
			c0,0-5.314,4.499-7.084,5.999c-1.734,1.469-4.801,5.094-6.934,5.876c-1.408,0.517-4.572,0.46-6,0
			c-2.396-0.772-6.418-4.075-8.177-5.876c-2.339-2.396-6.564-7.86-7.552-11.059c-1.058-3.423-1.007-10.893,0-14.332
			c0.607-2.073,2.857-6.088,4.661-7.276c1.707-1.124,6.053-0.98,8.066-1.333c1.774-0.312,7.627-0.622,7.627-0.622
			s-4.526-9.843-7.627-13.712c-6.489-8.094-13.237-13.241-18.123-15.538c0,0-2.095,4.703-2.921,6.205
			c-0.964,1.753-2.938,5.283-4.287,6.76c-1.063,1.165-3.507,3.339-5,3.847c-0.882,0.3-2.818,0.208-3.727,0
			c-2.15-0.493-6.094-2.64-7.94-3.847c-3.502-2.289-10.17-7.555-12.727-10.866c-1.79-2.318-3.464-7.251-0.773-9.349
			c4.33-3.375,2.875-7.125-2.75-4.733C198.971,60.654,190.227,59.735,190.227,59.735z"/>
	</g>
</g>
</svg>
