<?xml version="1.0" encoding="utf-8"?>
<!-- Generator: Adobe Illustrator 16.0.0, SVG Export Plug-In . SVG Version: 6.00 Build 0)  -->
<!DOCTYPE svg PUBLIC "-//W3C//DTD SVG 1.1//EN" "http://www.w3.org/Graphics/SVG/1.1/DTD/svg11.dtd">
<svg version="1.1" xmlns="http://www.w3.org/2000/svg" xmlns:xlink="http://www.w3.org/1999/xlink" x="0px" y="0px"
	 width="699.99951px" height="700px" viewBox="0 0 699.99951 700" enable-background="new 0 0 699.99951 700" xml:space="preserve">
<g id="Layer_2">
	<rect display="none" fill="#FF6600" width="699.99951" height="700"/>
</g>
<g id="Layer_1">
	<g>
		<path fill-rule="evenodd" clip-rule="evenodd" d="M10.17725,419.2041c1.87012-7.28125,2.79102-14.75195,5.07227-21.98145
			c4.5918-14.5791,13.51855-26.58496,21.97461-38.89941c6.79785-9.90723,13.43652-19.91504,19.14844-30.49805
			c3.7666-6.97656,6.76855-13.96582,7.44043-22.27246c0.90234-11.1582,7.68066-19.36328,17.43848-24.79395
			c2.11719-1.17676,3.45117-2.06738,3.48438-4.8252c0.07227-5.67969,5.11621-7.03125,9.24512-9.21484
			c-9.33691-9.11426-15.36035-19.91602-19.75977-31.80371c-3.06543-8.2793-1.40723-15.39551,3.67773-22.31152
			c12.58691-17.11816,27.63184-31.26758,47.14063-40.24414c1.33594-0.61328,2.78418-1.18359,3.85449-2.13965
			c1.55762-1.3877,4.13672-2.48535,3.21875-5.23438c-0.88672-2.66211-3.42285-1.65723-5.30566-1.7168
			c-16.70703-0.52148-33.1582-2.22949-48.47168-9.70801c-10.32227-5.04199-19.20898-11.80664-25.57813-21.48926
			c-3.97363-6.03613-6.43164-12.5791-4.02051-19.89844c3.19238-9.69727,11.52441-13.33008,20.12305-12.43848
			c28.04102,2.90918,53.1123-9.17871,79.51855-14.32227c23.88965-4.65332,47.00391-5.25293,68.15039,9.16602
			c4.25293,2.90039,8.16699,6.3623,11.93652,9.88965c2.14453,2.00977,3.79199,2.72656,6.74805,1.4541
			c27.39648-11.80762,56.70117-15.6377,85.83008-20.08984c9.48242-1.44824,19.0459-2.44238,28.60742-3.24609
			c2.85742-0.24219,3.32031-1.78418,3.73535-3.77734c2.99805-14.43359,11.54492-24.77051,23.55176-32.83008
			c36.42773-24.46582,72.70703-20.18359,108.96484,0.26367c3.36816,1.90137,6.64746,4.03418,9.73047,6.37402
			c18.98828,14.42285,40.13867,24.8125,62.19141,33.54785c5.01563,1.98828,9.77246,4.50879,13.57031,8.42285
			c7.00488,7.22168,6.28125,15.97168-1.82715,21.87695c-9.41406,6.85742-20.47949,8.79199-31.6582,10.50879
			c-12.71094,1.95605-25.46289,1.16406-38.20605,1.0166c-6.30273-0.07324-11.91992,2.14258-17.53125,4.50977
			c-1.5332,0.64648-3.01172,1.24121-1.44238,3.52539c18.24512,26.55762,30.64941,56.44531,47.63867,83.73828
			c2.52734,4.05957,5.0332,4.66992,9.21191,3.66699c15.68555-3.76465,31.42676-7.29883,47.96387-11.10645
			c-8.77246,15.80273-17.00195,30.8418-25.48926,45.7334c-1.58887,2.7832-1.24414,4.52832,0.08496,7.37109
			c4.6709,10.00879,11.05566,13.5791,22.81836,12.09277c18.48047-2.33594,37.2959-1.99805,55.97266-2.77539
			c1.47852-0.06348,2.96582-0.03906,4.44531,0.00781c1.68164,0.05469,3.625,0.13867,4.4209,1.74316
			c0.92285,1.86133-0.94336,3.00781-1.98926,4.19922c-12.97168,14.7666-28.07227,27.41016-41.64746,41.58691
			c-2.9209,3.05176-3.65332,4.98535-1.6543,9.20801c7.38086,15.5791,10.35938,32.56836,14.44727,49.18555
			c0.66016,2.68652,1.80469,5.39453,1.77344,8.07617c-0.10449,8.78125,4.96484,12.34082,12.47559,15.44336
			c19.90234,8.2207,39.42773,17.35547,59.10156,26.12305c0,0.37109,0,0.74121,0,1.1123
			c-24.11914,7.36133-48.21289,14.82324-72.39063,21.98535c-3.57813,1.05957-5.46289,2.9082-7.00977,6.11328
			c-8.9082,18.49121-18.74902,36.48438-29.93457,53.69531c-1.80078,2.76758-1.36719,4.44043,0.23047,6.82813
			c8.92969,13.34375,17.76074,26.75098,26.55664,40.18652c2.39648,3.66797,5.83301,6.64258,7.66992,11.39551
			c-5.83398-1.05859-11.24707-1.91211-16.60547-3.0293c-15.89844-3.31934-31.00293-9.23438-46.31348-14.44727
			c-2.45215-0.83691-4.18262-1.20801-6.39063,0.84082c-22.53711,20.94531-48.78711,36.34668-76.01855,50.18945
			c-2.86621,1.45508-3.59082,2.85254-3.44043,5.80957c0.53809,10.53711,0.86816,21.08105,1.14258,31.63184
			c0.06836,2.4502,0.59766,5.09961-1.63086,7.77832c-11.33301-11.38281-22.60645-22.5752-33.68555-33.94727
			c-1.9668-2.01758-3.62598-3.24121-6.60156-2.71777c-23.5459,4.16406-47.1582,3.05273-70.74121,0.45605
			c-2.75293-0.30664-3.68164,0.60645-4.59473,2.54199c-8.25488,17.50488-16.50195,35.00879-24.75488,52.50977
			c-0.37109,0-0.73926,0-1.11035,0c-3.99316-19.86133-8.09668-39.69922-11.85938-59.60449
			c-0.56445-2.98047-1.87988-3.88477-4.40625-4.37305c-12.92871-2.47754-25.08887-7.29785-37.09863-12.49805
			c-2.2832-0.98633-3.97168-0.74609-6.10645,0.3252c-16.97949,8.5498-34.01465,16.99805-51.06348,25.4043
			c-2.19531,1.08008-4.21191,2.79004-7.5752,2.94824c5.00684-13.91895,9.82324-27.30371,14.7168-40.90039
			c-1.40527-0.11816-2.31738-0.21875-3.23633-0.26367c-24.37988-1.20703-48.58984-3.50879-71.99902-11.05566
			c-30.43066-9.81348-55.78223-26.04102-70.45313-55.75586c-0.87598-1.76855-2.3584-2.7041-3.95313-3.70898
			c-8.125-5.10938-16.40137-10.01563-24.22559-15.55469c-15.87402-11.24609-28.59961-25.06055-33.76465-44.4873
			c-1.31543-4.94727-2.32813-9.97461-3.47949-14.96289C10.17725,429.57715,10.17725,424.38965,10.17725,419.2041z"/>
		<path fill-rule="evenodd" clip-rule="evenodd" d="M207.07178,313.98145c0.88184-3.2373,3.53516-1.95996,6.60059-1.76953
			c-2.86523-2.69434-4.98242-4.7002-7.11621-6.68652c-0.66309-0.61621-1.65332-1.15723-1.40039-2.17285
			c0.35449-1.42676,1.73145-1.08691,2.75879-1.14844c5.01465-0.28418,9.97949,0.46875,14.99023,0.94922
			c-2.94727-1.24316-6.03711-1.84766-8.92383-2.96875c-1.5918-0.61621-4.83105-0.08594-4.50195-2.0957
			c0.38672-2.35742,1.37891-5.3252,4.25586-6.47266c0.8418-0.33496,1.79688-0.37598,2.69922-0.54883
			c3.99805-0.76172,7.99414-1.52441,12.96191-2.47461c-8.57129-3.86816-15.26563-8.86035-22.08398-13.73535
			c2.60547,3.67676,6.93262,5.5625,9.95703,10.31445c-11.45898-0.73438-19.25586-9.08203-29.84668-9.83496
			c-10.33984-0.7373-20.61719-2.41113-32.19043-2.68359c6.2168,3.79785,11.40527,6.85449,16.47949,10.09375
			c13.42871,8.56348,28.16797,15.65723,35.56641,31.12012c-1.16797,5.19336-4.05957,9.03906-8.92773,11.28613
			c-4.77734,2.20703-9.87793,3.0957-15.08203,3.21094c-7.4209,0.16504-8.83008-1.74805-6.59082-9.54004
			c-12.12695,0.15625-23.97363,1.28516-34.36719,7.21289c-5.77539,3.29297-10.33008,3.07129-15.32422-0.02637
			c-12.62207-7.83887-24.75879-16.34961-33.9834-28.22656c-2.42676-3.12207-4.42285-3.3623-7.26563-1.06152
			c-8.36914,6.7666-10.23438,16.56641-8.08203,25.65625c4.98242,21.02734,17.26758,37.44141,36.53418,47.9375
			c4.50293,2.45508,9.47949,4.36816,15.1084,3.62695c-8.97266-22.65527-10.03613-33.26367-4.01953-39.43262
			c1.47168,1.58594,0.60254,3.50488,0.7334,5.23828c1.2207,15.99805,5.88281,30.46777,18.46387,41.34766
			c17.35156,15.00879,37.72754,18.26855,59.7207,15.22949c10.56738-1.46094,19.7627-7.18945,30.00977-9.53711
			c20.37109-4.65723,36.41016-16.29102,51.35547-30.28613c13.37598-12.52637,7.4209-24.73633-3.02734-32.50488
			c-1.13867-0.84766-3.21777-0.87012-3.30957-3.16602c3.11133,0.38672,5.34961,2.07422,7.66309,3.51953
			c13.52832,8.44238,15.55469,22.16211,5.22168,34.2666c-3.68945,4.32324-7.96777,8.04004-11.87012,12.31348
			c9.27734-3.60938,18.28516-7.68262,27.34473-11.64453c14.06543-6.14453,28.11816-12.31738,40.6748-21.31055
			c0.68848-0.48926,4.34082-0.60449,1.41113-3.15723c-1.50586-1.31641-2.40137-2.99805-0.93164-4.84961
			c1.54297-1.94531,3.77051-2.20313,6.05469-1.78223c6.91016,1.27148,13.12793,4.44922,18.1377,9.04004
			c2.79395,2.55762,4.97461,6.75293,3.79004,11.46484c-3.03418-0.27637-3.59082-4.09668-6.85156-4.07617
			c13.33594,15.05566,25.01563,30.99512,35.62891,47.71777c7.4209,11.68457,15.41992,23.04395,18.91504,36.7998
			c3.95703,15.57422-0.28027,28.12305-15.31934,34.03223c-1.94043,0.76465-3.25195,1.91699-4.03906,4.11426
			c-7.29883,20.42188-19.68848,37.77734-34.8418,52.79492c-12.94629,12.82422-27.78906,23.66406-45.19434,33.31348
			c3.06543,0,4.63477,0.09961,6.18848-0.01855c18.60352-1.41992,37.26953-2.67188,55.62793-5.92383
			c33.78906-5.98242,66.12598-16.90723,97.17773-31.41406c25.01172-11.68945,46.49121-28.39258,63.65625-49.93164
			c16.39648-20.57422,27.49805-44.08105,34.40234-69.57031c9.66016-35.67773,4.36914-68.77832-16.49512-99.29004
			c-10.30078-15.0625-24.81738-25.80859-38.74023-37.13379C504.57861,242,482.24854,223.95508,464.31006,201.27832
			c-5.62109-7.10645-10.68945-14.61035-13.39355-23.46973c11.04199,15.09473,24.74414,27.45801,38.88379,39.3125
			c14.01855,11.75098,28.42969,23.02832,42.6748,34.51465c-22.02246-35.61621-45.51855-70.00781-63.17676-107.8584
			c-1.31152-2.80664-2.59082-1.85645-4.18262-0.66895c-3.66211,2.72363-7.30859,5.47363-10.95703,8.21387
			c-0.38867-0.38477-0.77734-0.76953-1.16699-1.15039c3.53711-14.77148,15.98047-21.46387,28.3623-28.74414
			c-5.44922-1.98145-10.48242-3.67285-15.38867-5.66797c-1.51855-0.62012-2.26563-0.25391-3.3457,0.66309
			c-11.77637,10.03418-24.68066,18.04492-40.8916,21.9502c6.71484,3.38672,12.63867,6.37598,19.16699,9.67285
			c-3.10547,2.19922-5.38086,0.96973-7.46582,0.25293c-10.69824-3.67578-20.70508-8.91211-30.55469-14.36133
			c-5.45801-3.01563-8.11621-8.08789-8.58691-14.60352c-0.66016-9.16016,4.60352-14.66016,11.83398-20.09863
			c-11.40918-0.12598-19.65332,5.11035-28.02734,11.76758c-0.21289-3.7207,1.68652-5.0918,3.16113-6.53516
			c3.7627-3.68555,8.30273-6.11621,13.2666-7.83008c15.95801-5.50684,31.61914-3.66992,47.23242,1.60449
			c22.17676,7.49219,44.01758,16.36328,67.5127,18.98242c14.79688,1.64746,29.60645,1.18262,43.53027-5.04492
			c4.07813-1.82422,9.7168-4.06934,9.00293-9.24316c-0.64258-4.66113-6.6748-4.24414-10.55957-5.61914
			c-0.33398-0.11914-0.7373-0.05078-1.09961-0.11914c-11.76953-2.26563-23.67578-3.92188-35.08496-7.80859
			c-6.34082-2.16211-12.11426-5.32715-16.95215-10.26367c7.6543,1.79199,15.31543,3.58398,22.9707,5.37695
			c-12.76465-8.20996-24.05273-18.2168-37.00293-25.77832c-21.46582-12.53223-44.45117-18.5957-69.11914-13.70313
			c-32.59473,6.46387-53.91602,29.75-50.04004,65.29688c0.64258,5.90137,1.40234,11.78906,2.11133,17.68066
			c-6.74219-7.78125-12.23535-15.94141-13.76855-26.06934c-0.375-2.46582-0.44824-4.94336-4.0293-4.58789
			c-15.06641,1.51172-30.35352,1.86035-45.16992,4.67969c-37.22461,7.08594-73.96973,16.16699-107.65918,34.43066
			c-14.08789,7.63477-28.69141,14.45605-42.40527,25.34473c12.61035-3.61523,23.94434-7.27051,36.03906-6.03906
			c0.00781,1.49707-0.88379,1.43848-1.53125,1.62598c-14.24512,4.11133-27.7207,10.21973-41.19824,16.23828
			c-24.83203,11.09082-42.26563,29.90625-54.63965,53.74805c-0.72949,1.40332-1.61328,2.79492-0.96582,4.7002
			c1.75977,5.19141,16.20117,22.80664,21.40137,25.8125c-3.42871-17.70605-2.56543-21.93457,5.95898-29.17383
			c-7.15723-5.60059-9.24805-5.20605-12.36621,3.01953c-1.80859-3.7793-1.36328-6.9082,0.27539-9.87695
			c1.61035-2.91504,4.54297-1.99707,7.01367-1.79199c5.1709,0.42773,9.39258,3.11816,13.49414,6.0625
			c7.93164,5.69141,14.82129,12.58984,23.09375,20.41406c-2.87109-8.05957-6.63379-13.66992-10.66699-19.13672
			c-4.03711-5.46875-9.21387-9.84863-14.48242-14.5791c6.2627-1.15918,9.13379-0.02637,14.26953,5.61621
			c7.99316,8.78711,12.63672,19.50391,17.03027,30.30176c5.83594,14.34961,8.18457,16.07617,23.74902,16.29102
			c-15.46777-22.74609-17.9668-50.76758-5.37305-60.08398c0.79199,0.50488,0.55762,1.16016,0.40723,1.9082
			c-2.04297,10.21289-3.37988,20.66992-1.13672,30.81348c3.23828,14.64844,14.33691,23.69238,25.75,32.18262
			c1.75,1.30273,2.44141,0.28125,3.45801-1.01074c2.53809-3.22754,5.82422-5.67969,9.18359-7.97852
			c31.4248-21.52246,65.74316-35.75586,103.65723-40.71582c2.63184-0.34375,5.54883-1.41309,8.37109,0.68066
			c-26.80566,3.21191-50.88184,14.02148-74.70801,25.56445c17.84375-4.62207,35.34766-10.40918,53.50391-13.7998
			c18.35645-3.42871,50.17285-3.8877,54.64941,0.12109c-16.72168-0.57129-32.53906,1.50977-48.23535,4.96191
			c15.53906-0.14551,30.7334,1.19727,45.72168,9.05664c-1.60059,0.39453-2.13965,0.71777-2.55078,0.60059
			c-11.55371-3.31348-23.5-2.05762-35.25-3.02734c-8.51074-0.70117-8.8125-0.24121-9.34277,8.07813
			c-1.49316,23.41504-17.48438,40.11035-43.30176,44.45605c3.8125,1.21289,6.86328,2.39648,10.01563,3.12695
			c3.33203,0.77441,6.45703,3.52734,10.06543,1.95117c9.47363-4.14453,19.11035-8.0293,27.28613-14.61719
			c9.375-7.55371,11.18945-14.3916,7.3252-25.77539c-1.35449-3.98828-3.99707-7.64453-3.98633-12.70605
			c1.29395,0.85352,2.27051,1.19336,2.76953,1.87793c3.74707,5.14844,8.11719,4.32129,13.55469,2.63184
			c14.90918-4.62793,30.3291-3.76465,45.64941-2.60938c3.40918,0.25781,7.28906-0.17969,10.10645,3.2627
			c-13.87695-1.0625-27.43457,0.74414-42.0791,2.78809c22.67578,10.88477,22.12012,25.34766,11.5957,34.6582
			c3.12109-6.60645,3.23828-12.39844-0.61426-17.91504c-7.1748-10.28613-18.51953-11.38379-29.66211-14.28613
			c4.85156,19.58496,1.80078,28.5293-12.75586,38.09375c-6.61035,4.34277-14.04688,7.06738-21.90039,10.09082
			c8.43652,5.21387,16.41211,10.10352,23.49219,16.89746c-2.63379,1.32129-3.73047-0.125-4.96973-0.69336
			c-8.56445-3.91797-17.07031-7.96191-25.62207-11.91113c-1.08691-0.50293-2.91992-2.37598-3.37207-0.04492
			c-0.85742,4.41992-3.11621,2.57129-5.21484,1.62793c-8.42676-3.78809-16.95996-7.3252-25.79492-10.01563
			c-9.37891-2.85742-18.8584-5.36621-28.75977-5.86133c14.80762,4.22656,29.32715,8.87012,40.52148,20.21387
			c-9.58984-1.70215-17.55176-8.18066-28.17676-7.00684c-6.2373,0.69043-12.85254-2.02344-19.39746-3.22656
			c4.01172,5.31152,7.91797,10.48633,12.43359,16.46582c-6.0459-0.97168-9.79883-4.33203-14.07715-6.55957
			C211.51123,316.1543,210.1792,313.27246,207.07178,313.98145z"/>
		<path fill-rule="evenodd" clip-rule="evenodd" d="M92.37842,412.40234c-6.90332,16.15723-14.44141,31.83496-14.57227,50.05762
			c-0.20215,28.3125,8.84375,52.12988,31.32031,70.12793c28.61328,22.9082,62.59668,30.49121,97.91797,34.17578
			c16.94434,1.76855,33.55273-0.68164,49.96973-4.5752c21.23047-5.03711,42.29102-11.13867,61.36914-21.75586
			c25.14941-13.99512,45.45703-33.97266,63.23438-56.46191c3.6709-4.64746,7.46094-9.41016,9.77637-15.35645
			c-21.85938,3.93848-43.45605,3.63184-65.05957,2.9082c-2.6416-0.08594-5.28027-0.99414-7.91016-3.32715
			c2.31348-0.56055,4.05273-1.15918,5.83789-1.38574c15.00684-1.91113,30.04688-3.59473,45.02734-5.67871
			c10.26465-1.4248,20.43066-3.35059,29.08594-9.80859c14.4707-10.79688,17.18359-19.84668,10.36914-36.41406
			c-8.71387-21.17285-22.7627-39.06152-35.85449-57.66992c4.7793,17.05762,5.0918,34.14551,0.9043,51.88086
			c4.66602-1.92578,8.53711-3.59473,12.4668-5.11914c1.67773-0.65039,3.80273-1.64551,4.83789,0.6875
			c0.8457,1.90039-1.0625,2.98535-2.33301,3.89355c-6.66016,4.7666-14.14063,7.95898-21.66016,11.05176
			c-31.25586,12.84277-63.69629,17.93359-97.50488,16.69141c-36.23633-1.33398-70.47559-9.74121-102.79785-25.86621
			c-12.8623-6.41699-24.17188-15.10742-32.02441-27.53906c-1.14746-1.81348-2.38574-2.40527-4.49316-2.39258
			c-5.95117,0.04102-11.66602-1.52734-17.41504-2.91602c-9.49609-2.28418-17.4873-7.51074-26.14941-13.61523
			c0.36426,4.96875,0.08594,8.92969,0.99023,12.92383c3.7666,16.66406,13.79883,29.20605,26.25,40.14941
			c18.36621,16.14355,39.55566,27.83301,61.25293,38.72656c1.27441,0.64355,3.55469,0.60645,3.19434,3.08496
			C165.11475,461.18945,130.81689,442.68164,92.37842,412.40234z"/>
		<path fill-rule="evenodd" clip-rule="evenodd" d="M102.86963,139.50488c5.31738-3.02637,10.61914-1.39941,15.63672-0.13086
			c10.39551,2.63281,17.30371,9.89258,22.55371,19.35449c11.05957-10.40039,22.74707-19.08691,35.6709-26.08008
			c12.77637-6.91406,25.56055-13.81738,39.15918-19.98438c-7.03613-7.83398-15.18848-13.04688-24.87598-15.47461
			c-21.47754-5.38281-42.21777-0.61035-62.48633,5.95117c-20.30371,6.5752-40.66016,10.81836-62.02637,7.23047
			c-4.53125-0.75977-6.99414,0.93555-5.88574,5.36523c2.32715,9.28125,6.24805,17.96875,14.71875,23.31445
			c13.97461,8.81836,29.6084,10.25488,46.76172,9.75195C116.396,142.51074,109.57275,141.28125,102.86963,139.50488z"/>
		<path fill-rule="evenodd" clip-rule="evenodd" d="M65.30322,484.59082c-0.65137-6.88281-1.77539-12.92773-1.69531-18.95996
			c0.29297-22.70117,4.72949-44.39648,17.08887-63.89648c1.55859-2.45508,1.59082-4.4209,0.38965-7.13965
			c-4.79785-10.85254-6.50293-22.20313-4.59082-34.03711c0.27539-1.70898,1.65234-3.55762,0.26074-5.31348
			c-4.61426-5.82813-7.05371-12.76172-9.94629-20.30371c-1.77539,2.97852-3.17285,5.29297-4.54883,7.62207
			c-11.72461,19.88086-24.14844,39.43457-31.24219,61.61816c-2.8418,8.8916-6.19727,17.87598-4.37012,27.52148
			C31.07666,455.0752,45.85107,470.9707,65.30322,484.59082z"/>
		<path fill-rule="evenodd" clip-rule="evenodd" d="M460.1499,632.08398c0.59277-21.93945-1.85352-42.49316-3.63184-63.08594
			c-0.31055-3.63965-2.24609-5.11426-5.66113-5.32617c-9.40039-0.58887-18.3584,0.66406-26.67969,5.49902
			c-2.29199,1.32813-2.47852,2.12988-1.19336,4.45801c3.58691,6.48828,10.37793,8.64648,15.99023,12.31836
			c3.7168,2.42773,5.87793,5.23926,4.59473,9.56348c-2.19922,7.40625,1.1123,13.31152,4.78711,19.0957
			C451.89795,620.18262,455.73682,625.57227,460.1499,632.08398z"/>
		<path fill-rule="evenodd" clip-rule="evenodd" d="M457.28271,111.91309c-11.99121-4.4834-23.02441-9.10938-34.90918-11.18848
			c-1.92676-0.33789-3.56348-0.35254-5.29102,0.59277c-4.55273,2.49219-8.83008,5.31836-12.33496,9.2168
			c-5.68945,6.32422-4.3916,14.32422,3.24609,18.28125c3.9707,2.05469,8.27441,2.81152,12.8457,1.93359
			C434.51025,128.12891,445.16357,119.80664,457.28271,111.91309z"/>
		<path fill-rule="evenodd" clip-rule="evenodd" d="M363.18506,367.31445c-1.51953-0.22656-1.64453,0.5957-1.9668,1.21973
			c-6.70215,13.02832-15.21191,24.81641-24.49316,36.09961c-5.49023,6.6748-5.36133,6.60059,1.51758,11.95996
			c3.0293,2.36133,5.80176,3.25098,9.58594,1.72363c4.07422-1.64551,8.41602-2.66797,12.68066-3.79785
			c2.93457-0.77832,4.28125-2.49316,5.40723-5.4043C371.56494,394.55469,365.78564,381.0293,363.18506,367.31445z"/>
		<path fill-rule="evenodd" clip-rule="evenodd" d="M534.646,515.69824c3.14648,0.34375,4.83789-0.08203,6.62793-0.6875
			c7.15918-2.42871,9.4248-0.97266,9.88477,6.71484c0.32715,5.56152,2.86816,9.37793,7.71094,11.81152
			c2.29688,1.14746,4.67969,2.12988,6.99023,3.25586c4.02441,1.95313,9.07129,2.8125,9.22559,8.88965
			c0.03516,1.51563,1.58691,1.27539,2.61328,1.30762c6.36133,0.18945,11.80664,2.27441,16.16602,7.12695
			c1.05859,1.1748,2.49609,2.45996,4.74805,2.6084c-12.16797-17.53125-24.0791-34.59277-35.83203-51.7627
			c-1.40234-2.05273-2.78906-2.4375-5.03809-2.15234C548.68115,503.9541,541.95264,509.11328,534.646,515.69824z"/>
		<path fill-rule="evenodd" clip-rule="evenodd" d="M662.30518,425.31641c-1.83203-0.83594-3.65527-1.68555-5.49023-2.50488
			c-13.88672-6.19531-26.97363-14.15723-41.72852-18.47656c-3.09766-0.9082-4.44531-0.64648-6.16797,2.05273
			c-4.06934,6.39063-7.33496,13.00098-8.47852,20.85547c7.7998-5.42676,7.88672-5.5166,14.93066,1.05371
			c2.89453,2.69531,6.30859,2.64551,9.32617,1.66895C636.96338,426.00977,649.4624,424.94629,662.30518,425.31641z"/>
		<path fill-rule="evenodd" clip-rule="evenodd" d="M330.24268,403.49805c9.53906-10.77051,17.20605-20.66016,22.65039-32.12402
			c1.03125-2.16504,1.83594-4.41309,1.98535-6.86328c0.29883-4.77148-4.6084-12.77051-9.69336-13.53516
			c-4.81836-0.71875-8.22949,2.5459-10.48828,7.11328c-2.44336,4.94238-5.52051,9.58203-8.46484,14.2627
			c-0.84277,1.33887-1.63867,2.09277,0.07227,3.51758c3.23828,2.68652,3.82324,6.62109,3.90918,10.5498
			C330.32666,391.53809,330.24268,396.66211,330.24268,403.49805z"/>
		<path fill-rule="evenodd" clip-rule="evenodd" d="M198.30518,312.90527c-1.46289-1.83203-2.18359-2.82813-3-3.74414
			c-9.90527-11.09863-22.41113-18.57129-35.48145-25.18652c-16.70313-8.45605-34.39355-12.04297-53.11328-10.38086
			c-2.50098,0.22266-4.67773,1.06152-6.69531,2.37891c-1.00781,0.66016-2.51855,1.42578-1.82129,2.98633
			c0.55859,1.24512,1.98242,0.60449,3.00195,0.56738c7.62891-0.2666,15.11523,0.70605,22.45996,2.65723
			C149.50537,289.05176,174.34326,298.4209,198.30518,312.90527z"/>
		<path fill-rule="evenodd" clip-rule="evenodd" d="M272.36963,286.98145c-22.56543-7.52637-25.26758-11.19434-22.45898-30.80664
			c-12.46289,2.91895-23.48535,8.58691-34.10742,15.70703C237.36865,287.48926,258.36182,293.02051,272.36963,286.98145z"/>
		<path fill-rule="evenodd" clip-rule="evenodd" d="M320.72705,380.1377c-9.1377,13.53906-16.58105,27.58008-26.82031,39.69922
			c-1.36035,1.60938-0.4541,2.29688,0.62598,3.55762c4.07422,4.74414,9.00293,3.66309,14.17676,2.77734
			c11.08691-1.89941,11.22656-1.75488,13.4209-12.48926C324.38037,402.67969,326.90381,391.60938,320.72705,380.1377z"/>
		<path fill-rule="evenodd" clip-rule="evenodd" d="M330.31592,643.66016c2.47754-2.16016,3.18652-5.0498,4.2959-7.69531
			c5.71387-13.62598,11.80176-27.06836,18.79297-40.0918c4.18652-7.80078,3.875-8.91406-4.17871-13.13281
			c-1.60938-0.8457-3.41406-1.6416-5.18359-1.79004c-4.03418-0.33887-8.91309-2.57227-11.71484,1.75879
			c-2.68164,4.15039,1.32227,7.23535,3.72852,9.97559c3.9502,4.49414,3.69629,8.41113-0.20605,12.65625
			c-3.21582,3.5-5.59766,7.78711-5.32422,12.48633C331.02783,626.43555,332.11279,634.99609,330.31592,643.66016z"/>
		<path fill-rule="evenodd" clip-rule="evenodd" d="M287.87939,415.42383c4.08203-4.70898,8.21582-9.37402,12.23633-14.1377
			c4.49707-5.33008,8.66309-10.7334,11.38184-17.42188c2.22461-5.47168-0.12598-7.16211-4.17383-9.13867
			c-8.13574-3.97559-13.4082-2.48242-17.83984,5.2998c-1.5459,2.7168-3.18262,5.38477-4.79492,8.07129
			c-0.75879,1.2627-1.78809,2.55078-0.91406,4.07031C287.94678,399.4248,287.84424,407.27441,287.87939,415.42383z"/>
		<path fill-rule="evenodd" clip-rule="evenodd" d="M246.69678,426.48828c4.96582-5.47168,8.8877-9.62305,12.61035-13.9502
			c3.47656-4.04297,7.12988-8.01758,9.48145-12.86035c1.54785-3.17871,1.44043-6.66602-1.00977-9.30176
			c-1.90332-2.04883-4.24023-4.19238-7.65527-2.86621c-6.15723,2.39551-12.2959,4.84277-18.51758,7.05762
			c-1.63086,0.5791-2.23926,1.13965-1.31836,2.61816C245.57959,405.71387,247.69189,415.0293,246.69678,426.48828z"/>
		<path fill-rule="evenodd" clip-rule="evenodd" d="M630.39795,281.87109c-4.46777-1.37695-8.18848,0.42578-12.01563,0.70605
			c-13.60645,0.99609-27.18555,2.33105-40.78809,3.41309c-3.1875,0.25586-3.875,1.12598-2.09277,3.99609
			c3.11621,5.00293,6.01367,10.14063,8.88086,15.29102c0.87695,1.57813,1.66406,2.2793,3.4043,1.19727
			c5.46289-3.40234,11.74512-5.91406,15.87695-10.88867c4.90625-5.9082,11.35938-8.5166,18.15137-10.89063
			C624.51514,283.75195,627.24561,282.90527,630.39795,281.87109z"/>
		<path fill-rule="evenodd" clip-rule="evenodd" d="M279.02002,397.00586c-7.91895,5.99121-11.75195,14.89453-17.91211,21.87109
			c-1.21094,1.36719-0.28223,2.1709,0.30664,3.35254c3.45605,6.92285,9.71875,5.96289,15.77637,5.93652
			c2.2998-0.01367,3.24219-0.80469,3.59082-3.03418C282.24854,415.72168,281.97998,406.45605,279.02002,397.00586z"/>
		<path fill-rule="evenodd" clip-rule="evenodd" d="M234.40771,396.62109c-4.62695,9.30078-9.8916,17.59863-16.05762,25.78809
			c5.94629,2.11719,11.91504,2.10742,17.55566,3.53223c5.8418,1.47363,6.77441-1.87305,6.46582-6.17676
			C241.79639,411.65234,239.64795,403.99512,234.40771,396.62109z"/>
		<path fill-rule="evenodd" clip-rule="evenodd" d="M568.24365,223.7959c-10.3291,2.63965-19.6123,6.23047-29.4375,7.73242
			c-2.75488,0.41992-1.38965,1.86035-0.50781,3.07227c4.12109,5.6582,8.23535,11.32324,12.73535,17.50488
			C556.41455,242.33105,561.68604,233.10156,568.24365,223.7959z"/>
		<path fill-rule="evenodd" clip-rule="evenodd" d="M569.45068,546.04883c0.43359-3.66699-2.30664-4.19043-4.30469-5.19922
			c-3.61719-1.82324-7.3584-3.39648-10.98828-5.19141c-3.51367-1.74609-5.66602-4.47754-6.28516-8.51953
			c-0.80078-5.20605-1.6416-10.7168-9.30664-6.95898c-0.41602,0.20703-1.18457,0.07129-1.61914-0.18555
			c-5.4209-3.27441-6.33594,0.99414-7.68262,4.54883c-1.46973,3.87988-0.81348,5.83301,3.8623,7.14844
			c6.86328,1.93652,13.30273,5.3584,19.99609,7.95508C558.521,541.73926,563.38623,545.29883,569.45068,546.04883z"/>
		<path fill-rule="evenodd" clip-rule="evenodd" d="M225.34912,602.38867c9.8916-6.12695,18.70996-11.58496,28.1875-17.45898
			c-3.44629-1.85352-6.14258-4.02051-9.18652-4.75391c-3.43359-0.82227-8.57422-1.10742-10.19238,1.66992
			C230.65576,587.85059,227.36768,594.25,225.34912,602.38867z"/>
		<path fill-rule="evenodd" clip-rule="evenodd" d="M130.10986,246.85742c1.08496-2.24219,3.08691-3.14258,3.41895-5.91406
			c-2.28613-2.54199-4.95801-4.73535-7.0752-6.71777c-3.57324,0.28906-7.62207,5.95313-7.72266,9.83984
			c-0.16211,6.15039,2.20117,11.49023,5.34277,16.58203"/>
		<path fill-rule="evenodd" clip-rule="evenodd" d="M326.47217,619.53613c0-6.33496,2.38086-11.87988,6.3916-16.60059
			c2.71094-3.1875,2.31055-5.67969-0.25391-8.57324c-2.58594-2.9209-4.97363-6.13184-4.4248-10.3418
			c0.2627-2.00781-0.39941-3.31934-2.05469-2.31152c-1.6416,1.00488-6.03027-0.75879-4.81934,3.19824
			C324.75732,596.16699,324.84912,607.81934,326.47217,619.53613z"/>
		<path fill-rule="evenodd" clip-rule="evenodd" d="M226.896,400.03418c-6.33594,1.78223-12.10156,3.40039-17.8623,5.03418
			c-1.64941,0.46484-2.39355,1.38281-1.95605,3.25977c0.79199,3.3916,1.50879,6.81445,2.00195,10.26074
			c0.25879,1.83594,1.2041,2.55566,2.81836,2.79785c1.37109,0.21387,2.3877-0.07129,3.19336-1.44629
			C218.85107,413.4873,223.64893,407.64551,226.896,400.03418z"/>
		<path fill-rule="evenodd" clip-rule="evenodd" d="M624.60498,436.13867c-6.6748,1.06738-10.97461-2.69531-14.85449-7.03613
			c-1.94043-2.1709-3.40527-1.94434-5.45801-0.24805c-3.6084,2.97461-5.97852,6.23438-5.20508,11.31641
			c0.38477,2.51074,1.04883,3.23828,3.42773,2.31152C609.62451,439.70703,617.13916,438.32129,624.60498,436.13867z"/>
		<path fill-rule="evenodd" clip-rule="evenodd" d="M628.31787,285.33984c-6.68457,1.83496-13.97656,3.23438-18.15137,9.27246
			c-3.74414,5.41504-8.41504,9.15234-14.08594,12.04785c-2.29785,1.1709-4.51367,2.51465-6.69238,3.88965
			c-2.85352,1.7998-0.37988,3.70996,0.29883,5.20215c0.93555,2.0625,2.0791,0.22363,2.87109-0.53223
			C603.76807,304.47559,616.09424,295.0752,628.31787,285.33984z"/>
		<path fill-rule="evenodd" clip-rule="evenodd" d="M437.74854,604.4873c0.19434-2.90039-0.08105-4.65723,0.47852-6.0918
			c2.57813-6.59277-0.63281-9.99414-6.28906-12.3584c-5.53027-2.31934-10.70313-5.17285-14.06348-10.60352
			C423.9292,585.04297,428.68213,595.4248,437.74854,604.4873z"/>
		<path fill-rule="evenodd" clip-rule="evenodd" d="M204.14307,419.3584c-0.30469-2.39258-0.44531-3.99414-0.72656-5.57617
			c-1.25391-7.05078-1.2334-6.78711-8.39844-5.82031c-3.09277,0.41602-3.20117,2.40527-3.86621,4.39941
			c-0.88672,2.64063,1.5957,2.53223,2.81543,3.08496C197.1001,416.86133,200.38428,417.94141,204.14307,419.3584z"/>
		<path fill-rule="evenodd" clip-rule="evenodd" d="M284.98291,252.77734c-1.27832,1.28125-4.875-0.30273-4.4043,2.66113
			c0.50586,3.18359,3.03809,5.57422,6.56934,5.56055c1.80664-0.01074,4.41309-0.31055,4.1582-3.22949
			C290.98486,254.07227,288.08936,253.32617,284.98291,252.77734z"/>
		<path fill-rule="evenodd" clip-rule="evenodd" d="M176.42334,407.37402c3.96484,1.86719,6.78516,3.05273,9.45801,4.50879
			c2.0459,1.11133,1.98047-0.5791,2.5459-1.56836c1.02734-1.80078,0.03223-2.16309-1.52832-2.33984
			C183.98486,407.64063,181.13818,406.62305,176.42334,407.37402z"/>
		<path fill-rule="evenodd" clip-rule="evenodd" d="M628.12354,435.98047c6.27246-1.25391,12.53906-2.50195,18.80664-3.75391
			C640.12061,430.82031,634.04346,433.01855,628.12354,435.98047z"/>
		<path fill-rule="evenodd" clip-rule="evenodd" fill="#999999" d="M207.07178,313.98145
			c3.10742-0.70898,4.43945,2.17285,6.63086,3.31348c4.27832,2.22754,8.03125,5.58789,14.07715,6.55957
			c-4.51563-5.97949-8.42188-11.1543-12.43359-16.46582c6.54492,1.20313,13.16016,3.91699,19.39746,3.22656
			c10.625-1.17383,18.58691,5.30469,28.17676,7.00684c-11.19434-11.34375-25.71387-15.9873-40.52148-20.21387
			c9.90137,0.49512,19.38086,3.00391,28.75977,5.86133c8.83496,2.69043,17.36816,6.22754,25.79492,10.01563
			c2.09863,0.94336,4.35742,2.79199,5.21484-1.62793c0.45215-2.33105,2.28516-0.45801,3.37207,0.04492
			c8.55176,3.94922,17.05762,7.99316,25.62207,11.91113c1.23926,0.56836,2.33594,2.01465,4.96973,0.69336
			c-7.08008-6.79395-15.05566-11.68359-23.49219-16.89746c7.85352-3.02344,15.29004-5.74805,21.90039-10.09082
			c14.55664-9.56445,17.60742-18.50879,12.75586-38.09375c11.14258,2.90234,22.4873,4,29.66211,14.28613
			c3.85254,5.5166,3.73535,11.30859,0.61426,17.91504c10.52441-9.31055,11.08008-23.77344-11.5957-34.6582
			c14.64453-2.04395,28.20215-3.85059,42.0791-2.78809c-2.81738-3.44238-6.69727-3.00488-10.10645-3.2627
			c-15.32031-1.15527-30.74023-2.01855-45.64941,2.60938c-5.4375,1.68945-9.80762,2.5166-13.55469-2.63184
			c-0.49902-0.68457-1.47559-1.02441-2.76953-1.87793c-0.01074,5.06152,2.63184,8.71777,3.98633,12.70605
			c3.86426,11.38379,2.0498,18.22168-7.3252,25.77539c-8.17578,6.58789-17.8125,10.47266-27.28613,14.61719
			c-3.6084,1.57617-6.7334-1.17676-10.06543-1.95117c-3.15234-0.73047-6.20313-1.91406-10.01563-3.12695
			c25.81738-4.3457,41.80859-21.04102,43.30176-44.45605c0.53027-8.31934,0.83203-8.7793,9.34277-8.07813
			c11.75,0.96973,23.69629-0.28613,35.25,3.02734c0.41113,0.11719,0.9502-0.20605,2.55078-0.60059
			c-14.98828-7.85938-30.18262-9.20215-45.72168-9.05664c15.69629-3.45215,31.51367-5.5332,48.23535-4.96191
			c-4.47656-4.00879-36.29297-3.5498-54.64941-0.12109c-18.15625,3.39063-35.66016,9.17773-53.50391,13.7998
			c23.82617-11.54297,47.90234-22.35254,74.70801-25.56445c-2.82227-2.09375-5.73926-1.02441-8.37109-0.68066
			c-37.91406,4.95996-72.23242,19.19336-103.65723,40.71582c-3.35938,2.29883-6.64551,4.75098-9.18359,7.97852
			c-1.0166,1.29199-1.70801,2.31348-3.45801,1.01074c-11.41309-8.49023-22.51172-17.53418-25.75-32.18262
			c-2.24316-10.14355-0.90625-20.60059,1.13672-30.81348c0.15039-0.74805,0.38477-1.40332-0.39941-1.91113
			c-12.60156,9.31934-10.10254,37.34082,5.36523,60.08691c-15.56445-0.21484-17.91309-1.94141-23.74902-16.29102
			c-4.39355-10.79785-9.03711-21.51465-17.03027-30.30176c-5.13574-5.64258-8.00684-6.77539-14.26953-5.61621
			c5.26855,4.73047,10.44531,9.11035,14.48242,14.5791c4.0332,5.4668,7.7959,11.07715,10.66699,19.13672
			c-8.27246-7.82422-15.16211-14.72266-23.09375-20.41406c-4.10156-2.94434-8.32324-5.63477-13.49414-6.0625
			c-2.4707-0.20508-5.40332-1.12305-7.01367,1.79199c-1.63867,2.96875-2.08398,6.09766-0.27539,9.87695
			c3.11816-8.22559,5.20898-8.62012,12.36621-3.01953c-8.52441,7.23926-9.3877,11.46777-5.95898,29.17383
			c-5.2002-3.00586-19.6416-20.62109-21.40137-25.8125c-0.64746-1.90527,0.23633-3.29688,0.96582-4.7002
			c12.37402-23.8418,29.80762-42.65723,54.63965-53.74805c13.47754-6.01855,26.95313-12.12695,41.19824-16.23828
			c0.64746-0.1875,1.53906-0.12891,1.53125-1.62598c-12.09473-1.23145-23.42871,2.42383-36.03906,6.03906
			c13.71387-10.88867,28.31738-17.70996,42.40527-25.34473c33.68945-18.26367,70.43457-27.34473,107.65918-34.43066
			c14.81641-2.81934,30.10352-3.16797,45.16992-4.67969c3.58105-0.35547,3.6543,2.12207,4.0293,4.58789
			c1.5332,10.12793,7.02637,18.28809,13.76855,26.06934c-0.70898-5.8916-1.46875-11.7793-2.11133-17.68066
			c-3.87598-35.54688,17.44531-58.83301,50.04004-65.29688c24.66797-4.89258,47.65332,1.1709,69.11914,13.70313
			c12.9502,7.56152,24.23828,17.56836,37.00293,25.77832c-7.65527-1.79297-15.31641-3.58496-22.9707-5.37695
			c4.83789,4.93652,10.61133,8.10156,16.95215,10.26367c11.40918,3.88672,23.31543,5.54297,35.08496,7.80859
			c0.3623,0.06836,0.76563,0,1.09961,0.11914c3.88477,1.375,9.91699,0.95801,10.55957,5.61914
			c0.71387,5.17383-4.9248,7.41895-9.00293,9.24316c-13.92383,6.22754-28.7334,6.69238-43.53027,5.04492
			c-23.49512-2.61914-45.33594-11.49023-67.5127-18.98242c-15.61328-5.27441-31.27441-7.11133-47.23242-1.60449
			c-4.96387,1.71387-9.50391,4.14453-13.2666,7.83008c-1.47461,1.44336-3.37402,2.81445-3.16113,6.53516
			c8.37402-6.65723,16.61816-11.89355,28.02734-11.76758c-7.23047,5.43848-12.49414,10.93848-11.83398,20.09863
			c0.4707,6.51563,3.12891,11.58789,8.58691,14.60352c9.84961,5.44922,19.85645,10.68555,30.55469,14.36133
			c2.08496,0.7168,4.36035,1.94629,7.46582-0.25293c-6.52832-3.29688-12.45215-6.28613-19.16699-9.67285
			c16.21094-3.90527,29.11523-11.91602,40.8916-21.9502c1.08008-0.91699,1.82715-1.2832,3.3457-0.66309
			c4.90625,1.99512,9.93945,3.68652,15.38867,5.66797c-12.38184,7.28027-24.8252,13.97266-28.3623,28.74414
			c0.38965,0.38086,0.77832,0.76563,1.16699,1.15039c3.64844-2.74023,7.29492-5.49023,10.95703-8.21387
			c1.5918-1.1875,2.87109-2.1377,4.18262,0.66895c17.6582,37.85059,41.1543,72.24219,63.17676,107.8584
			c-14.24512-11.48633-28.65625-22.76367-42.6748-34.51465c-14.13965-11.85449-27.8418-24.21777-38.88379-39.3125
			c2.7041,8.85938,7.77246,16.36328,13.39355,23.46973c17.93848,22.67676,40.26855,40.72168,62.52539,58.82813
			c13.92285,11.3252,28.43945,22.07129,38.74023,37.13379c20.86426,30.51172,26.15527,63.6123,16.49512,99.29004
			c-6.9043,25.48926-18.00586,48.99609-34.40234,69.57031c-17.16504,21.53906-38.64453,38.24219-63.65625,49.93164
			c-31.05176,14.50684-63.38867,25.43164-97.17773,31.41406c-18.3584,3.25195-37.02441,4.50391-55.62793,5.92383
			c-1.55371,0.11816-3.12305,0.01855-6.18848,0.01855c17.40527-9.64941,32.24805-20.48926,45.19434-33.31348
			c15.15332-15.01758,27.54297-32.37305,34.8418-52.79492c0.78711-2.19727,2.09863-3.34961,4.03906-4.11426
			c15.03906-5.90918,19.27637-18.45801,15.31934-34.03223c-3.49512-13.75586-11.49414-25.11523-18.91504-36.7998
			c-10.61328-16.72266-22.29297-32.66211-35.62891-47.71777c3.26074-0.02051,3.81738,3.7998,6.85156,4.07617
			c1.18457-4.71191-0.99609-8.90723-3.79004-11.46484c-5.00977-4.59082-11.22754-7.76855-18.1377-9.04004
			c-2.28418-0.4209-4.51172-0.16309-6.05469,1.78223c-1.46973,1.85156-0.57422,3.5332,0.93164,4.84961
			c2.92969,2.55273-0.72266,2.66797-1.41113,3.15723c-12.55664,8.99316-26.60938,15.16602-40.6748,21.31055
			c-9.05957,3.96191-18.06738,8.03516-27.34473,11.64453c3.90234-4.27344,8.18066-7.99023,11.87012-12.31348
			c10.33301-12.10449,8.30664-25.82422-5.22168-34.2666c-2.31348-1.44531-4.55176-3.13281-7.66309-3.51953
			c0.0918,2.2959,2.1709,2.31836,3.30957,3.16602c10.44824,7.76855,16.40332,19.97852,3.02734,32.50488
			c-14.94531,13.99512-30.98438,25.62891-51.35547,30.28613c-10.24707,2.34766-19.44238,8.07617-30.00977,9.53711
			c-21.99316,3.03906-42.36914-0.2207-59.7207-15.22949c-12.58105-10.87988-17.24316-25.34961-18.46387-41.34766
			c-0.13086-1.7334,0.73828-3.65234-0.7334-5.23828c-6.0166,6.16895-4.95313,16.77734,4.01953,39.43262
			c-5.62891,0.74121-10.60547-1.17188-15.1084-3.62695c-19.2666-10.49609-31.55176-26.91016-36.53418-47.9375
			c-2.15234-9.08984-0.28711-18.88965,8.08203-25.65625c2.84277-2.30078,4.83887-2.06055,7.26563,1.06152
			c9.22461,11.87695,21.36133,20.3877,33.9834,28.22656c4.99414,3.09766,9.54883,3.31934,15.32422,0.02637
			c10.39355-5.92773,22.24023-7.05664,34.36719-7.21289c-2.23926,7.79199-0.83008,9.70508,6.59082,9.54004
			c5.2041-0.11523,10.30469-1.00391,15.08203-3.21094c4.86816-2.24707,7.75977-6.09277,8.92969-11.28809
			C207.28174,313.86523,207.07178,313.98145,207.07178,313.98145z"/>
		<path fill-rule="evenodd" clip-rule="evenodd" fill="#666666" d="M189.72021,175.58496
			c-5.69727,13.72559-10.06543,27.78223-10.91016,42.74121c-0.14844,2.60547-0.05762,5.87598,2.56934,6.65234
			c2.89355,0.85352,3.13867-2.97168,4.7002-4.5957c0.37598-0.39063,0.63574-0.90625,0.91016-1.38672
			c10.21484-17.94922,21.92871-35.11426,38.03027-47.9502c18.13867-14.46582,37.7998-27.11133,60.32715-34.29395
			c1.99805-0.6377,4.29785-0.88477,6.36035-3.45215c-47.24316,9.38086-82.42969,34.65918-107.4541,74.92188
			C184.81299,196.81348,188.55811,186.44531,189.72021,175.58496z"/>
		<path fill-rule="evenodd" clip-rule="evenodd" fill="#666666" d="M358.51807,149.72168
			c-0.04102,1.0918,0.58398,1.44629,1.25879,1.77441c8.83496,4.29102,17.01563,9.69238,25.15918,15.11816
			c10.6543,7.09766,20.90137,14.72656,28.11816,25.58887c7.59668,11.44043,6.23145,19.69434-4.14648,28.53809
			c-6.38184,5.43555-14.12305,8.79199-20.63477,13.98145c-1.81641,1.4502-4.67578,3.01367-3.3457,5.63867
			c1.3291,2.62305,4.17871,1.37109,6.39844,0.48633c11.00684-4.37891,20.57422-10.80957,28.19434-19.97168
			c4.19727-5.04395,6.39453-10.75684,5.49902-17.42188c-1.91797-14.25195-10.21973-24.28906-21.70996-31.90039
			c-9.85742-6.52734-20.27637-12.16016-30.84863-17.4668C368.09131,151.89453,363.70459,149.46582,358.51807,149.72168z"/>
		<path fill-rule="evenodd" clip-rule="evenodd" fill="#666666" d="M347.55713,173.2666
			c-3.01758-1.62988-5.05371-0.92383-7.15723-0.53027c-27.9082,5.19531-52.25684,18.53516-76.33105,32.75488
			c-16.5752,9.78711-30.27637,22.98438-44.46094,35.62695c-7.15137,6.37207-14.43945,12.7373-19.88672,20.78223
			c-1.07813,1.59082-3.0127,3.33789-1.00684,5.33984c2.33105,2.32129,3.63574-0.3916,4.92969-1.58398
			c7.87207-7.27246,15.77539-14.52344,23.42188-22.03223c24.61914-24.17871,52.5-43.66797,83.69727-58.37109
			C322.20752,179.85742,334.30811,176.24023,347.55713,173.2666z"/>
		<path fill-rule="evenodd" clip-rule="evenodd" fill="#666666" d="M418.46143,348.30762
			c0.31738-0.40723,0.62891-0.81836,0.94141-1.22949c-12.78809-14.1123-27.37695-25.2373-47.37207-27.03711
			c-3.80762-0.34082-7.80566-0.78223-11.39453,1.21094c-1.83203,1.0166-4.62695,1.78613-3.5957,4.67676
			c0.87598,2.44434,3.24609,2.8291,5.59766,2.10254c1.98926-0.61523,3.93359-0.68066,5.99219-0.41797
			c11.26367,1.43848,21.82813,5.00586,31.75781,10.44336C406.46533,341.38281,412.44385,344.88477,418.46143,348.30762z"/>
		<path fill-rule="evenodd" clip-rule="evenodd" fill="#666666" d="M440.14893,297.76855
			c-0.65527-1.62402-1.84375-1.87109-3.11035-2.25488c-7.38867-2.24512-15.00879-1.75879-22.55664-1.9668
			c-25.5166-0.70605-49.80859,4.98438-73.30273,14.50684c-2.35352,0.95215-4.43164,2.62695-6.54688,4.09277
			c-0.9209,0.63672-1.63379,1.67285-0.75977,2.82324c0.71484,0.94629,1.72461,0.40527,2.5332,0.07031
			c2.89941-1.19824,5.75-2.51172,8.64941-3.70996C375.52197,298.71191,407.30615,295.13379,440.14893,297.76855z"/>
		<path fill-rule="evenodd" clip-rule="evenodd" fill="#666666" d="M98.76514,336.93457
			c-2.15527,0.74219-3.46875,2.02246-3.25781,4.41406c0.16797,1.9248,0.60156,3.85352,3.05176,3.57227
			c2.62598-0.29883,2.70703-2.62305,2.74707-4.58496C101.34326,338.68359,100.90479,337.06836,98.76514,336.93457z"/>
		<path fill-rule="evenodd" clip-rule="evenodd" fill="#666666" d="M230.70557,366.21875
			c-0.08594-1.4375-0.53418-2.80273-2.19141-2.55859c-2.30176,0.33887-4.2793,1.62305-4.81836,3.9834
			c-0.31641,1.39355,1.03809,2.50488,2.39648,2.47852C228.53857,370.06836,230.20557,368.72852,230.70557,366.21875z"/>
		<path fill-rule="evenodd" clip-rule="evenodd" fill="#666666" d="M187.08447,353.17773
			c-1.60742-0.7002-3.53418-1.7168-3.79199,1.33496c-0.22461,2.64941,1.78223,2.70801,3.68164,2.7627
			c2.16504,0.06836,4.50488-0.37207,4.38086-2.85352C191.20752,351.46875,188.82568,352.84375,187.08447,353.17773z"/>
		<path fill-rule="evenodd" clip-rule="evenodd" fill="#666666" d="M160.91357,344.50586
			c-0.14453-2.12793-1.88184-2.71875-3.32813-3.08496c-1.81348-0.46094-2.47559,1.12109-2.72168,2.5957
			c-0.30176,1.78223,0.81543,2.83984,2.4043,2.91211C158.91943,347.01074,160.47705,346.41113,160.91357,344.50586z"/>
		<path fill-rule="evenodd" clip-rule="evenodd" fill="#666666" d="M216.46338,362.76563
			c1.47656-0.17773,2.89453-0.97852,3.0459-2.93945c0.16406-2.1582-1.46289-2.23438-3.01367-2.15332
			c-1.90918,0.10059-3.26172,0.99023-3.14063,3.04785C213.44287,362.27637,214.64404,362.82324,216.46338,362.76563z"/>
		<path fill-rule="evenodd" clip-rule="evenodd" fill="#999999" d="M92.37842,412.40234
			c38.43848,30.2793,72.73633,48.78711,86.03027,46.47754c0.36035-2.47852-1.91992-2.44141-3.19434-3.08496
			c-21.69727-10.89355-42.88672-22.58301-61.25293-38.72656c-12.45117-10.94336-22.4834-23.48535-26.25-40.14941
			c-0.9043-3.99414-0.62598-7.95508-0.99023-12.92383c8.66211,6.10449,16.65332,11.33105,26.14941,13.61523
			c5.74902,1.38867,11.46387,2.95703,17.41504,2.91602c2.10742-0.0127,3.3457,0.5791,4.49316,2.39258
			c7.85254,12.43164,19.16211,21.12207,32.02441,27.53906c32.32227,16.125,66.56152,24.53223,102.79785,25.86621
			c33.80859,1.24219,66.24902-3.84863,97.50488-16.69141c7.51953-3.09277,15-6.28516,21.66016-11.05176
			c1.27051-0.9082,3.17871-1.99316,2.33301-3.89355c-1.03516-2.33301-3.16016-1.33789-4.83789-0.6875
			c-3.92969,1.52441-7.80078,3.19336-12.4668,5.11914c4.1875-17.73535,3.875-34.82324-0.9043-51.88086
			c13.0918,18.6084,27.14063,36.49707,35.85449,57.66992c6.81445,16.56738,4.10156,25.61719-10.36914,36.41406
			c-8.65527,6.45801-18.82129,8.38379-29.08594,9.80859c-14.98047,2.08398-30.02051,3.76758-45.02734,5.67871
			c-1.78516,0.22656-3.52441,0.8252-5.83789,1.38574c2.62988,2.33301,5.26855,3.24121,7.91016,3.32715
			c21.60352,0.72363,43.2002,1.03027,65.05957-2.9082c-2.31543,5.94629-6.10547,10.70898-9.77637,15.35645
			c-17.77734,22.48926-38.08496,42.4668-63.23438,56.46191c-19.07813,10.61719-40.13867,16.71875-61.36914,21.75586
			c-16.41699,3.89355-33.02539,6.34375-49.96973,4.5752c-35.32129-3.68457-69.30469-11.26758-97.91797-34.17578
			C86.6499,514.58984,77.604,490.77246,77.80615,462.45996C77.93701,444.2373,85.4751,428.55957,92.37842,412.40234z"/>
		<path fill-rule="evenodd" clip-rule="evenodd" fill="#666666" d="M164.354,465.73438
			c5.66016,7.67383,26.0498,14.56543,34.23633,11.85254C187.17236,473.63379,176.41943,469.91309,164.354,465.73438z"/>
		<path fill-rule="evenodd" clip-rule="evenodd" fill="#666666" d="M177.17236,463.66699
			c5.14355,2.05371,10.03613,5.19727,16.02539,3.97168C188.01514,465.7207,183.0376,463.1123,177.17236,463.66699z"/>
		<path id="ear-left" fill-rule="evenodd" clip-rule="evenodd" fill="#999999" d="M102.86963,139.50488
			c6.70313,1.77637,13.52637,3.00586,19.22656,9.29785c-17.15332,0.50293-32.78711-0.93359-46.76172-9.75195
			c-8.4707-5.3457-12.3916-14.0332-14.71875-23.31445c-1.1084-4.42969,1.35449-6.125,5.88574-5.36523
			c21.36621,3.58789,41.72266-0.65527,62.02637-7.23047c20.26855-6.56152,41.00879-11.33398,62.48633-5.95117
			c9.6875,2.42773,17.83984,7.64063,24.87598,15.47461c-13.59863,6.16699-26.38281,13.07031-39.15918,19.98438
			c-12.92383,6.99316-24.61133,15.67969-35.6709,26.08008c-5.25-9.46191-12.1582-16.72168-22.55371-19.35449
			C113.48877,138.10547,108.18701,136.47852,102.86963,139.50488z"/>
		<path id="cheek" fill-rule="evenodd" clip-rule="evenodd" fill="#999999" d="M65.30322,484.59082
			c-19.45215-13.62012-34.22656-29.51563-38.6543-52.88867c-1.82715-9.64551,1.52832-18.62988,4.37012-27.52148
			c7.09375-22.18359,19.51758-41.7373,31.24219-61.61816c1.37598-2.3291,2.77344-4.64355,4.54883-7.62207
			c2.89258,7.54199,5.33203,14.47559,9.94629,20.30371c1.3916,1.75586,0.01465,3.60449-0.26074,5.31348
			c-1.91211,11.83398-0.20703,23.18457,4.59082,34.03711c1.20117,2.71875,1.16895,4.68457-0.38965,7.13965
			c-12.35938,19.5-16.7959,41.19531-17.08887,63.89648C63.52783,471.66309,64.65186,477.70801,65.30322,484.59082z"/>
		<path id="spike_6_" fill-rule="evenodd" clip-rule="evenodd" fill="#FFFFFF" d="M460.1499,632.08398
			c-4.41309-6.51172-8.25195-11.90137-11.79395-17.47754c-3.6748-5.78418-6.98633-11.68945-4.78711-19.0957
			c1.2832-4.32422-0.87793-7.13574-4.59473-9.56348c-5.6123-3.67188-12.40332-5.83008-15.99023-12.31836
			c-1.28516-2.32813-1.09863-3.12988,1.19336-4.45801c8.32129-4.83496,17.2793-6.08789,26.67969-5.49902
			c3.41504,0.21191,5.35059,1.68652,5.66113,5.32617C458.29639,589.59082,460.74268,610.14453,460.1499,632.08398z"/>
		<path id="ear-inner" fill-rule="evenodd" clip-rule="evenodd" fill="#CCCCCC" d="M457.28271,111.91309
			c-12.11914,7.89355-22.77246,16.21582-36.44336,18.83594c-4.57129,0.87793-8.875,0.12109-12.8457-1.93359
			c-7.6377-3.95703-8.93555-11.95703-3.24609-18.28125c3.50488-3.89844,7.78223-6.72461,12.33496-9.2168
			c1.72754-0.94531,3.36426-0.93066,5.29102-0.59277C434.2583,102.80371,445.2915,107.42969,457.28271,111.91309z"/>
		<path id="nose" fill-rule="evenodd" clip-rule="evenodd" fill="#999999" d="M207.07178,313.98145
			c0,0,0.20996-0.11621,0.20801-0.11621c-7.40039-15.46094-22.13965-22.55469-35.56836-31.11816
			c-5.07422-3.23926-10.2627-6.2959-16.47949-10.09375c11.57324,0.27246,21.85059,1.94629,32.19043,2.68359
			c10.59082,0.75293,18.3877,9.10059,29.84668,9.83496c-3.02441-4.75195-7.35156-6.6377-9.95703-10.31445
			c6.81836,4.875,13.5127,9.86719,22.08398,13.73535c-4.96777,0.9502-8.96387,1.71289-12.96191,2.47461
			c-0.90234,0.17285-1.85742,0.21387-2.69922,0.54883c-2.87695,1.14746-3.86914,4.11523-4.25586,6.47266
			c-0.3291,2.00977,2.91016,1.47949,4.50195,2.0957c2.88672,1.12109,5.97656,1.72559,8.92383,2.96875
			c-5.01074-0.48047-9.97559-1.2334-14.99023-0.94922c-1.02734,0.06152-2.4043-0.27832-2.75879,1.14844
			c-0.25293,1.01563,0.7373,1.55664,1.40039,2.17285c2.13379,1.98633,4.25098,3.99219,7.11621,6.68652
			C210.60693,312.02148,207.95361,310.74414,207.07178,313.98145z"/>
		<path id="tooth_9_" fill-rule="evenodd" clip-rule="evenodd" fill="#FFFFFF" d="M363.18506,367.31445
			c2.60059,13.71484,8.37988,27.24023,2.73145,41.80078c-1.12598,2.91113-2.47266,4.62598-5.40723,5.4043
			c-4.26465,1.12988-8.60645,2.15234-12.68066,3.79785c-3.78418,1.52734-6.55664,0.6377-9.58594-1.72363
			c-6.87891-5.35938-7.00781-5.28516-1.51758-11.95996c9.28125-11.2832,17.79102-23.07129,24.49316-36.09961
			C361.54053,367.91016,361.66553,367.08789,363.18506,367.31445z"/>
		<path id="spike_5_" fill-rule="evenodd" clip-rule="evenodd" fill="#FFFFFF" d="M534.646,515.69824
			c7.30664-6.58496,14.03516-11.74414,23.09668-12.8877c2.24902-0.28516,3.63574,0.09961,5.03809,2.15234
			c11.75293,17.16992,23.66406,34.23145,35.83203,51.7627c-2.25195-0.14844-3.68945-1.43359-4.74805-2.6084
			c-4.35938-4.85254-9.80469-6.9375-16.16602-7.12695c-1.02637-0.03223-2.57813,0.20801-2.61328-1.30762
			c-0.1543-6.07715-5.20117-6.93652-9.22559-8.88965c-2.31055-1.12598-4.69336-2.1084-6.99023-3.25586
			c-4.84277-2.43359-7.38379-6.25-7.71094-11.81152c-0.45996-7.6875-2.72559-9.14355-9.88477-6.71484
			C539.48389,515.61621,537.79248,516.04199,534.646,515.69824z"/>
		<path id="spike_4_" fill-rule="evenodd" clip-rule="evenodd" fill="#FFFFFF" d="M662.30518,425.31641
			c-12.84277-0.37012-25.3418,0.69336-37.6084,4.64941c-3.01758,0.97656-6.43164,1.02637-9.32617-1.66895
			c-7.04395-6.57031-7.13086-6.48047-14.93066-1.05371c1.14355-7.85449,4.40918-14.46484,8.47852-20.85547
			c1.72266-2.69922,3.07031-2.96094,6.16797-2.05273c14.75488,4.31934,27.8418,12.28125,41.72852,18.47656
			C658.6499,423.63086,660.47314,424.48047,662.30518,425.31641z"/>
		<path id="tooth_8_" fill-rule="evenodd" clip-rule="evenodd" fill="#FFFFFF" d="M330.24268,403.49805
			c0-6.83594,0.08398-11.95996-0.0293-17.0791c-0.08594-3.92871-0.6709-7.86328-3.90918-10.5498
			c-1.71094-1.4248-0.91504-2.17871-0.07227-3.51758c2.94434-4.68066,6.02148-9.32031,8.46484-14.2627
			c2.25879-4.56738,5.66992-7.83203,10.48828-7.11328c5.08496,0.76465,9.99219,8.76367,9.69336,13.53516
			c-0.14941,2.4502-0.9541,4.69824-1.98535,6.86328C347.44873,382.83789,339.78174,392.72754,330.24268,403.49805z"/>
		<path id="nose-accent" fill-rule="evenodd" clip-rule="evenodd" fill="#CCCCCC" d="M198.30518,312.90527
			c-23.96191-14.48438-48.7998-23.85352-74.64941-30.72168c-7.34473-1.95117-14.83105-2.92383-22.45996-2.65723
			c-1.01953,0.03711-2.44336,0.67773-3.00195-0.56738c-0.69727-1.56055,0.81348-2.32617,1.82129-2.98633
			c2.01758-1.31738,4.19434-2.15625,6.69531-2.37891c18.71973-1.66211,36.41016,1.9248,53.11328,10.38086
			c13.07031,6.61523,25.57617,14.08789,35.48145,25.18652C196.12158,310.07715,196.84229,311.07324,198.30518,312.90527z"/>
		<path id="eye-white" fill-rule="evenodd" clip-rule="evenodd" fill="#FFFFFF" d="M272.36963,286.98145
			c-14.00781,6.03906-35.00098,0.50781-56.56641-15.09961c10.62207-7.12012,21.64453-12.78809,34.10742-15.70703
			C247.10205,275.78711,249.8042,279.45508,272.36963,286.98145z"/>
		<path id="tooth_7_" fill-rule="evenodd" clip-rule="evenodd" fill="#FFFFFF" d="M320.72705,380.1377
			c6.17676,11.47168,3.65332,22.54199,1.40332,33.54492c-2.19434,10.73438-2.33398,10.58984-13.4209,12.48926
			c-5.17383,0.88574-10.10254,1.9668-14.17676-2.77734c-1.08008-1.26074-1.98633-1.94824-0.62598-3.55762
			C304.146,407.71777,311.58936,393.67676,320.72705,380.1377z"/>
		<path id="spike_3_" fill-rule="evenodd" clip-rule="evenodd" fill="#FFFFFF" d="M330.31592,643.66016
			c1.79688-8.66406,0.71191-17.22461,0.20996-25.83301c-0.27344-4.69922,2.1084-8.98633,5.32422-12.48633
			c3.90234-4.24512,4.15625-8.16211,0.20605-12.65625c-2.40625-2.74023-6.41016-5.8252-3.72852-9.97559
			c2.80176-4.33105,7.68066-2.09766,11.71484-1.75879c1.76953,0.14844,3.57422,0.94434,5.18359,1.79004
			c8.05371,4.21875,8.36523,5.33203,4.17871,13.13281c-6.99121,13.02344-13.0791,26.46582-18.79297,40.0918
			C333.50244,638.61035,332.79346,641.5,330.31592,643.66016z"/>
		<path id="tooth_6_" fill-rule="evenodd" clip-rule="evenodd" fill="#FFFFFF" d="M287.87939,415.42383
			c-0.03516-8.14941,0.06738-15.99902-4.10449-23.25684c-0.87402-1.51953,0.15527-2.80762,0.91406-4.07031
			c1.6123-2.68652,3.24902-5.35449,4.79492-8.07129c4.43164-7.78223,9.7041-9.27539,17.83984-5.2998
			c4.04785,1.97656,6.39844,3.66699,4.17383,9.13867c-2.71875,6.68848-6.88477,12.0918-11.38184,17.42188
			C296.09521,406.0498,291.96143,410.71484,287.87939,415.42383z"/>
		<path id="tooth_5_" fill-rule="evenodd" clip-rule="evenodd" fill="#FFFFFF" d="M246.69678,426.48828
			c0.99512-11.45898-1.11719-20.77441-6.40918-29.30273c-0.9209-1.47852-0.3125-2.03906,1.31836-2.61816
			c6.22168-2.21484,12.36035-4.66211,18.51758-7.05762c3.41504-1.32617,5.75195,0.81738,7.65527,2.86621
			c2.4502,2.63574,2.55762,6.12305,1.00977,9.30176c-2.35156,4.84277-6.00488,8.81738-9.48145,12.86035
			C255.58447,416.86523,251.6626,421.0166,246.69678,426.48828z"/>
		<path id="spike_2_" fill-rule="evenodd" clip-rule="evenodd" fill="#FFFFFF" d="M630.39795,281.87109
			c-3.15234,1.03418-5.88281,1.88086-8.58301,2.82422c-6.79199,2.37402-13.24512,4.98242-18.15137,10.89063
			c-4.13184,4.97461-10.41406,7.48633-15.87695,10.88867c-1.74023,1.08203-2.52734,0.38086-3.4043-1.19727
			c-2.86719-5.15039-5.76465-10.28809-8.88086-15.29102c-1.78223-2.87012-1.09473-3.74023,2.09277-3.99609
			c13.60254-1.08203,27.18164-2.41699,40.78809-3.41309C622.20947,282.29688,625.93018,280.49414,630.39795,281.87109z"/>
		<path id="tooth_4_" fill-rule="evenodd" clip-rule="evenodd" fill="#FFFFFF" d="M279.02002,397.00586
			c2.95996,9.4502,3.22852,18.71582,1.76172,28.12598c-0.34863,2.22949-1.29102,3.02051-3.59082,3.03418
			c-6.05762,0.02637-12.32031,0.98633-15.77637-5.93652c-0.58887-1.18164-1.51758-1.98535-0.30664-3.35254
			C267.26807,411.90039,271.10107,402.99707,279.02002,397.00586z"/>
		<path id="tooth_3_" fill-rule="evenodd" clip-rule="evenodd" fill="#FFFFFF" d="M234.40771,396.62109
			c5.24023,7.37402,7.38867,15.03125,7.96387,23.14355c0.30859,4.30371-0.62402,7.65039-6.46582,6.17676
			c-5.64063-1.4248-11.60938-1.41504-17.55566-3.53223C224.51611,414.21973,229.78076,405.92188,234.40771,396.62109z"/>
	</g>
	<path id="Collar" fill="#FF6600" d="M598.61279,463.59082c-1.89063,0.23535-6.87695,21-20.76953,39.1377
		c-15.43262-40.43457-100.32422,35.85059-43.19727,50.7002c-14.05957,11.64941-42.37598,28.22656-63.30371,36.52832
		c7.71777-75.30469-100.04883-26.77734-48.77832,11.95703c-12.96094,9.95313-64.47949,3.22949-64.0459,2.7998
		c33.35059-32.94922-57.02148-56.18652-49.60645-13.71582c-55.375-11.38672-25.4707-23.87598-11.01367-23.65039
		c182.67285,2.85742,304.10254-69.4209,300.71484-220.40918c-0.08203-3.66895,12.90625,30.20605,9.56934,47.07422
		C586.72803,403.54297,581.70459,465.75293,598.61279,463.59082z"/>
	<path id="eyebrow_2_" fill-rule="evenodd" clip-rule="evenodd" d="M358.51807,149.72168
		c5.18652-0.25586,9.57324,2.17285,13.94238,4.36523c10.57227,5.30664,20.99121,10.93945,30.84863,17.4668
		c11.49023,7.61133,19.79199,17.64844,21.70996,31.90039c0.89551,6.66504-1.30176,12.37793-5.49902,17.42188
		c-7.62012,9.16211-17.1875,15.59277-28.19434,19.97168c-2.21973,0.88477-5.06934,2.13672-6.39844-0.48633
		c-1.33008-2.625,1.5293-4.18848,3.3457-5.63867c6.51172-5.18945,14.25293-8.5459,20.63477-13.98145
		c10.37793-8.84375,11.74316-17.09766,4.14648-28.53809c-7.2168-10.8623-17.46387-18.49121-28.11816-25.58887
		c-8.14355-5.42578-16.32422-10.82715-25.15918-15.11816C359.10205,151.16797,358.47705,150.81348,358.51807,149.72168z"/>
	<g id="eyes">
		<path id="eye-lt" fill="#FF6600" d="M139.68506,246.85742c-4.29492,10.20215,3.16309,14.1416,10.75488,13.3125
			c0.65137,1.41113,0.70996,0.97461,1.375,2.02637c-2.23242,2.98535-7.36035,2.45898-14.25391-1.1582
			c-5.45313-3.72363-4.05078-6.81445,0-15.72266"/>
		<path id="eye-lt_1_" fill-rule="evenodd" clip-rule="evenodd" fill="#FFFFFF" d="M147.17627,254.14746
			c-0.41309,0.44434-0.6543,0.85645-2.19336,0.39355c-1.38086-0.42578-2.16016-0.81445-2.11035-2.00684
			c0.05664-1.23145-0.37012-0.69824,0.92969-1.72461l2.19043,2.17285L147.17627,254.14746z"/>
		<path id="eye-rt" fill="#FF6600" d="M295.96338,270.97559c-5.09668,5.01367-5.82715,8.70898-13.31152,10.80371
			c-22.1875-1.15723-32.60645-12.15625-24.69727-27.20508c1.26855-2.41406,8.64063-1.3916,12.34961-2.41602
			c2.73926,12.91016,1.48535,9.92285,6.46191,14.89941C277.4751,267.76563,280.84912,271.84863,295.96338,270.97559z"/>
		<path id="eye-white-rt" fill-rule="evenodd" clip-rule="evenodd" fill="#FFFFFF" d="M284.98291,252.77734
			c3.10645,0.54883,6.00195,1.29492,6.32324,4.99219c0.25488,2.91895-2.35156,3.21875-4.1582,3.22949
			c-3.53125,0.01367-6.06348-2.37695-6.56934-5.56055C280.10791,252.47461,283.70459,254.05859,284.98291,252.77734z"/>
		<path id="eyebrow" fill-rule="evenodd" clip-rule="evenodd" d="M347.55713,173.2666
			c-13.24902,2.97363-25.34961,6.59082-36.79395,11.98633c-31.19727,14.70313-59.07813,34.19238-83.69727,58.37109
			c-7.64648,7.50879-15.5498,14.75977-23.42188,22.03223c-1.29395,1.19238-2.59863,3.90527-4.92969,1.58398
			c-2.00586-2.00195-0.07129-3.74902,1.00684-5.33984c5.44727-8.04492,12.73535-14.41016,19.88672-20.78223
			c14.18457-12.64258,27.88574-25.83984,44.46094-35.62695c24.07422-14.21973,48.42285-27.55957,76.33105-32.75488
			C342.50342,172.34277,344.53955,171.63672,347.55713,173.2666z"/>
		<path id="eye-white-lt" fill-rule="evenodd" clip-rule="evenodd" fill="#FFFFFF" d="M126.45361,234.22559
			c2.11719,1.98242,4.78906,4.17578,7.0752,6.71777c2.04297,2.27246-1.11133,2.91113-1.89941,4.16016
			c-2.63379,4.17676-3.87109,6.89844-4.05273,12.44336c-0.15723,4.86621,10.05762,6.59863,7.36426,7.48633
			c-2.06836,0.68359-9.99805-2.97461-10.86719-4.38574c-3.1416-5.0918-5.50488-10.43164-5.34277-16.58203
			C118.83154,240.17871,122.88037,234.51465,126.45361,234.22559z"/>
		<path id="eyebrow_1_" fill-rule="evenodd" clip-rule="evenodd" d="M189.72021,175.58496
			c-1.16211,10.86035-4.90723,21.22852-5.4668,32.63672c25.02441-40.2627,60.21094-65.54102,107.4541-74.92188
			c-2.0625,2.56738-4.3623,2.81445-6.36035,3.45215c-22.52734,7.18262-42.18848,19.82813-60.32715,34.29395
			c-16.10156,12.83594-27.81543,30.00098-38.03027,47.9502c-0.27441,0.48047-0.53418,0.99609-0.91016,1.38672
			c-1.56152,1.62402-1.80664,5.44922-4.7002,4.5957c-2.62695-0.77637-2.71777-4.04688-2.56934-6.65234
			C179.65479,203.36719,184.02295,189.31055,189.72021,175.58496z"/>
	</g>
	<g id="Teeth">
		<path id="tooth_1_" fill-rule="evenodd" clip-rule="evenodd" fill="#FFFFFF" d="M204.14307,419.3584
			c-3.75879-1.41699-7.04297-2.49707-10.17578-3.91211c-1.21973-0.55273-3.70215-0.44434-2.81543-3.08496
			c0.66504-1.99414,0.77344-3.9834,3.86621-4.39941c7.16504-0.9668,7.14453-1.23047,8.39844,5.82031
			C203.69775,415.36426,203.83838,416.96582,204.14307,419.3584z"/>
		<path id="tooth" fill-rule="evenodd" clip-rule="evenodd" fill="#FFFFFF" d="M176.42334,407.37402
			c4.71484-0.75098,7.56152,0.2666,10.47559,0.60059c1.56055,0.17676,2.55566,0.53906,1.52832,2.33984
			c-0.56543,0.98926-0.5,2.67969-2.5459,1.56836C183.2085,410.42676,180.38818,409.24121,176.42334,407.37402z"/>
		<path id="tooth_2_" fill-rule="evenodd" clip-rule="evenodd" fill="#FFFFFF" d="M226.896,400.03418
			c-3.24707,7.61133-8.04492,13.45313-11.80469,19.90625c-0.80566,1.375-1.82227,1.66016-3.19336,1.44629
			c-1.61426-0.24219-2.55957-0.96191-2.81836-2.79785c-0.49316-3.44629-1.20996-6.86914-2.00195-10.26074
			c-0.4375-1.87695,0.30664-2.79492,1.95605-3.25977C214.79443,403.43457,220.56006,401.81641,226.896,400.03418z"/>
	</g>
	<g id="Spikes">
		<path id="spike-accent" fill-rule="evenodd" clip-rule="evenodd" fill="#CCCCCC" d="M628.12354,435.98047
			c5.91992-2.96191,11.99707-5.16016,18.80664-3.75391C640.6626,433.47852,634.396,434.72656,628.12354,435.98047z"/>
		<path id="Spike-accent" fill-rule="evenodd" clip-rule="evenodd" fill="#CCCCCC" d="M437.74854,604.4873
			c-9.06641-9.0625-13.81934-19.44434-19.87402-29.05371c3.36035,5.43066,8.5332,8.28418,14.06348,10.60352
			c5.65625,2.36426,8.86719,5.76563,6.28906,12.3584C437.66748,599.83008,437.94287,601.58691,437.74854,604.4873z"/>
		<path id="spike-accent_1_" fill-rule="evenodd" clip-rule="evenodd" fill="#CCCCCC" d="M628.31787,285.33984
			c-12.22363,9.73535-24.5498,19.13574-35.75977,29.87988c-0.79199,0.75586-1.93555,2.59473-2.87109,0.53223
			c-0.67871-1.49219-3.15234-3.40234-0.29883-5.20215c2.17871-1.375,4.39453-2.71875,6.69238-3.88965
			c5.6709-2.89551,10.3418-6.63281,14.08594-12.04785C614.34131,288.57422,621.6333,287.1748,628.31787,285.33984z"/>
		<path id="spike-accent_2_" fill-rule="evenodd" clip-rule="evenodd" fill="#CCCCCC" d="M624.60498,436.13867
			c-7.46582,2.18262-14.98047,3.56836-22.08984,6.34375c-2.37891,0.92676-3.04297,0.19922-3.42773-2.31152
			c-0.77344-5.08203,1.59668-8.3418,5.20508-11.31641c2.05273-1.69629,3.51758-1.92285,5.45801,0.24805
			C613.63037,433.44336,617.93018,437.20605,624.60498,436.13867z"/>
		<path id="spike-accent_3_" fill-rule="evenodd" clip-rule="evenodd" fill="#CCCCCC" d="M326.47217,619.53613
			c-1.62305-11.7168-1.71484-23.36914-5.16113-34.62891c-1.21094-3.95703,3.17773-2.19336,4.81934-3.19824
			c1.65527-1.00781,2.31738,0.30371,2.05469,2.31152c-0.54883,4.20996,1.83887,7.4209,4.4248,10.3418
			c2.56445,2.89355,2.96484,5.38574,0.25391,8.57324C328.85303,607.65625,326.47217,613.20117,326.47217,619.53613z"/>
		<path id="spike" fill-rule="evenodd" clip-rule="evenodd" fill="#CCCCCC" d="M225.34912,602.38867
			c2.01855-8.13867,5.30664-14.53809,8.80859-20.54297c1.61816-2.77734,6.75879-2.49219,10.19238-1.66992
			c3.04395,0.7334,5.74023,2.90039,9.18652,4.75391C244.05908,590.80371,235.24072,596.26172,225.34912,602.38867z"/>
		<path id="spike-accent_4_" fill-rule="evenodd" clip-rule="evenodd" fill="#CCCCCC" d="M569.45068,546.04883
			c-6.06445-0.75-10.92969-4.30957-16.32813-6.40234c-6.69336-2.59668-13.13281-6.01855-19.99609-7.95508
			c-4.67578-1.31543-5.33203-3.26855-3.8623-7.14844c1.34668-3.55469,2.26172-7.82324,7.68262-4.54883
			c0.43457,0.25684,1.20313,0.39258,1.61914,0.18555c7.66504-3.75781,8.50586,1.75293,9.30664,6.95898
			c0.61914,4.04199,2.77148,6.77344,6.28516,8.51953c3.62988,1.79492,7.37109,3.36816,10.98828,5.19141
			C567.14404,541.8584,569.88428,542.38184,569.45068,546.04883z"/>
		<path id="spike_1_" fill-rule="evenodd" clip-rule="evenodd" fill="#FFFFFF" d="M568.24365,223.7959
			c-6.55762,9.30566-11.8291,18.53516-17.20996,28.30957c-4.5-6.18164-8.61426-11.84668-12.73535-17.50488
			c-0.88184-1.21191-2.24707-2.65234,0.50781-3.07227C548.63135,230.02637,557.91455,226.43555,568.24365,223.7959z"/>
	</g>
	<g id="Chin">
		<path id="chin_accent_1_" fill-rule="evenodd" clip-rule="evenodd" d="M164.354,465.73438
			c12.06543,4.17871,22.81836,7.89941,34.23633,11.85254C190.40381,480.2998,170.01416,473.4082,164.354,465.73438z"/>
		<path id="chin_accent" fill-rule="evenodd" clip-rule="evenodd" d="M177.17236,463.66699
			c5.86523-0.55469,10.84277,2.05371,16.02539,3.97168C187.2085,468.86426,182.31592,465.7207,177.17236,463.66699z"/>
	</g>
	<g id="whiskers">
		<path id="whisker_3_" fill-rule="evenodd" clip-rule="evenodd" d="M98.76514,336.93457
			c2.13965,0.13379,2.57813,1.74902,2.54102,3.40137c-0.04004,1.96191-0.12109,4.28613-2.74707,4.58496
			c-2.4502,0.28125-2.88379-1.64746-3.05176-3.57227C95.29639,338.95703,96.60986,337.67676,98.76514,336.93457z"/>
		<path id="whisker_2_" fill-rule="evenodd" clip-rule="evenodd" d="M230.70557,366.21875
			c-0.5,2.50977-2.16699,3.84961-4.61328,3.90332c-1.3584,0.02637-2.71289-1.08496-2.39648-2.47852
			c0.53906-2.36035,2.5166-3.64453,4.81836-3.9834C230.17139,363.41602,230.61963,364.78125,230.70557,366.21875z"/>
		<path id="whisker_1_" fill-rule="evenodd" clip-rule="evenodd" d="M187.08447,353.17773
			c1.74121-0.33398,4.12305-1.70898,4.27051,1.24414c0.12402,2.48145-2.21582,2.92188-4.38086,2.85352
			c-1.89941-0.05469-3.90625-0.11328-3.68164-2.7627C183.55029,351.46094,185.47705,352.47754,187.08447,353.17773z"/>
		<path id="whisker" fill-rule="evenodd" clip-rule="evenodd" d="M160.91357,344.50586
			c-0.43652,1.90527-1.99414,2.50488-3.64551,2.42285c-1.58887-0.07227-2.70605-1.12988-2.4043-2.91211
			c0.24609-1.47461,0.9082-3.05664,2.72168-2.5957C159.03174,341.78711,160.76904,342.37793,160.91357,344.50586z"/>
		<path id="whishker" fill-rule="evenodd" clip-rule="evenodd" d="M216.46338,362.76563
			c-1.81934,0.05762-3.02051-0.48926-3.1084-2.04492c-0.12109-2.05762,1.23145-2.94727,3.14063-3.04785
			c1.55078-0.08105,3.17773-0.00488,3.01367,2.15332C219.35791,361.78711,217.93994,362.58789,216.46338,362.76563z"/>
		<path id="whisker_4_" fill-rule="evenodd" clip-rule="evenodd" d="M440.14893,297.76855
			c-32.84277-2.63477-64.62695,0.94336-95.09375,13.56152c-2.89941,1.19824-5.75,2.51172-8.64941,3.70996
			c-0.80859,0.33496-1.81836,0.87598-2.5332-0.07031c-0.87402-1.15039-0.16113-2.18652,0.75977-2.82324
			c2.11523-1.46582,4.19336-3.14063,6.54688-4.09277c23.49414-9.52246,47.78613-15.21289,73.30273-14.50684
			c7.54785,0.20801,15.16797-0.27832,22.55664,1.9668C438.30518,295.89746,439.49365,296.14453,440.14893,297.76855z"/>
		<path id="whisker_5_" fill-rule="evenodd" clip-rule="evenodd" d="M418.46143,348.30762
			c-6.01758-3.42285-11.99609-6.9248-18.07324-10.25098c-9.92969-5.4375-20.49414-9.00488-31.75781-10.44336
			c-2.05859-0.2627-4.00293-0.19727-5.99219,0.41797c-2.35156,0.72656-4.72168,0.3418-5.59766-2.10254
			c-1.03125-2.89063,1.76367-3.66016,3.5957-4.67676c3.58887-1.99316,7.58691-1.55176,11.39453-1.21094
			c19.99512,1.7998,34.58398,12.9248,47.37207,27.03711C419.09033,347.48926,418.77881,347.90039,418.46143,348.30762z"/>
	</g>
</g>
</svg>
