<?xml version="1.0" encoding="utf-8"?>
<!-- Generator: Adobe Illustrator 16.0.0, SVG Export Plug-In . SVG Version: 6.00 Build 0)  -->
<!DOCTYPE svg PUBLIC "-//W3C//DTD SVG 1.1//EN" "http://www.w3.org/Graphics/SVG/1.1/DTD/svg11.dtd">
<svg version="1.1" id="BD-Head-R" xmlns="http://www.w3.org/2000/svg" xmlns:xlink="http://www.w3.org/1999/xlink" x="0px" y="0px"
	 width="1050.868px" height="1049.869px" viewBox="0 0 1050.868 1049.869" enable-background="new 0 0 1050.868 1049.869"
	 xml:space="preserve">
<path id="Sillowette" fill-rule="evenodd" clip-rule="evenodd" stroke="#000000" stroke-miterlimit="10" d="M14.064,364.98
	c0.993,13.484,11.334,22.801,26.02,24.596c8.568,1.047,17.246,1.168,25.844,2.028c1.513,0.151,3.793,1.641,4.144,2.938
	c2.12,7.831,7.024,13.449,13.177,18.314c5.225,4.13,10.508,8.219,15.426,12.7c11.004,10.025,11.754,21.098,2.416,32.588
	c-3.15,3.876-6.387,7.699-9.809,11.335c-11.246,11.952-16.863,26.08-17.184,42.476c-0.038,1.99-1.167,4.571-2.669,5.826
	c-16.343,13.645-27.495,30.885-33.929,50.884c-16.477,51.22-9.066,99.563,19.229,144.905c6.53,10.465,11.023,21.579,13.624,33.549
	c5.172,23.795,4.861,47.975,4.982,72.114c0.178,35.504,14.533,63.738,44.379,82.979c44.488,28.682,92.855,42.83,146.195,35.355
	c26.049-3.65,49.734-12.376,67.103-33.565c0.137-0.167,0.562-0.098,1.177-0.185c0,1.657,0.053,3.283-0.008,4.904
	c-0.842,22.361,2.923,44.102,8.953,65.517c1.971,7,7.213,9.63,13.841,6.723c4.856-2.13,9.62-4.615,14.073-7.489
	c19.07-12.309,33.043-29.234,43.839-49.005c0.794-1.456,2.632-3.423,3.893-3.359c5.796,0.295,11.604,0.997,17.31,2.074
	c1.606,0.305,3.646,2.12,4.176,3.687c2.873,8.503,5.069,17.236,7.994,25.72c6.367,18.473,13.977,36.376,26.409,51.759
	c6.587,8.15,11.96,8.486,19.765,1.503c17.205-15.393,29.394-34.299,38.442-55.342c1.17-2.722,2.227-4.311,5.631-4.171
	c24.416,1,48.533-1.772,72.469-6.336c2.917-0.556,4.441,0.139,6.005,2.692c10.756,17.571,24.827,32.074,41.552,44.036
	c7.309,5.227,12.612,4.156,17.484-3.497c10.008-15.718,17.063-32.712,21.809-50.695c0.537-2.032,1.019-4.076,1.53-6.132
	c11.439,1.631,22.286,3.327,33.175,4.694c16.286,2.046,32.546,2.462,48.582-1.979c20.542-5.69,35.521-19.136,48.547-35.154
	c17.209-21.163,30.612-44.775,43.41-68.73c1.942-3.636,3.811-4.121,7.738-3.447c16.539,2.838,33.12,5.598,49.789,7.445
	c9.522,1.054,12.322-2.373,9.674-11.455c-3.57-12.25-7.955-24.298-12.646-36.173c-3.151-7.979-7.438-15.508-10.646-22.07
	c10.775-11.2,21.592-21.369,31.144-32.611c16.659-19.611,31.316-40.602,39.434-65.471c0.416-1.272,2.396-2.461,3.879-2.891
	c11.634-3.375,23.49-6.071,34.942-9.962c8.009-2.722,9.028-6.849,5.229-14.458c-7.049-14.115-16.392-26.642-26.901-38.319
	c-2.084-2.313-2.488-4.284-1.841-7.488c2.403-11.88,5.488-23.84,5.92-35.854c0.891-24.768,0.315-49.591,0.138-74.39
	c-0.024-3.464,0.894-5.637,3.55-8.017c8.04-7.205,16.205-14.409,23.263-22.533c6.712-7.726,4.982-13.066-4.167-17.793
	c-8.722-4.506-17.427-9.053-26.249-13.359c-3.215-1.569-5.005-3.52-5.919-7.201c-3.165-12.747-6.463-25.486-10.413-38.006
	c-10.567-33.479-24.709-65.386-44.393-94.551c-3.973-5.886-4.709-10.712-2.959-17.482c3.99-15.435,6.99-31.135,10.094-46.786
	c1.385-6.982,0.632-7.938-6.249-7.462c-12.438,0.86-24.996,1.424-37.21,3.696c-11.621,2.163-21.346,1.131-29.123-8.502
	c-1.235-1.53-2.978-2.653-4.495-3.953c-20.56-17.623-41.971-34.113-67.29-44.31c-7.551-3.041-9.536-7.465-10.436-14.768
	c-1.582-12.847-4.132-25.598-6.786-38.28c-1.283-6.128-4.193-7.702-10.288-6.187c-5.453,1.355-10.994,2.902-16.007,5.361
	c-8.313,4.077-16.232,8.953-24.673,13.691c-0.354-1.681-0.744-3.569-1.149-5.454c-1.988-9.264-3.313-18.732-6.095-27.75
	c-8.59-27.851-29.479-41.401-58.044-36.352c-13.271,2.346-26.371,7.016-38.818,12.34c-18.64,7.974-36.482,17.792-54.951,26.194
	c-17.072,7.768-35.086,11.805-53.944,8.975c-22.305-3.348-44.114-1.645-65.668,4.805c-24.264,7.261-46.51,19.072-68.508,31.155
	c-24.563,13.493-50.262,22.873-78.172,25.575c-30.439,2.948-56.861,13.469-78.005,36.675c-9.51,10.438-23.179,14.156-37.146,12.201
	c-14.277-1.999-28.497-5.066-42.409-8.877c-24.641-6.75-46.424-2.533-65.608,14.488c-2.615,2.32-5.361,4.493-7.975,6.813
	c-8.848,7.856-13.915,17.771-15.359,29.431c-0.713,5.765-1.021,11.611-1.068,17.423c-0.207,25.348-8.593,46.861-28.663,63.235
	c-8.335,6.799-15.549,14.845-19.83,24.745C15.396,352.734,13.637,359.167,14.064,364.98z"/>
<g id="BD-Head">
	<g id="Gray_Fur">
		<path id="Chin" fill-rule="evenodd" clip-rule="evenodd" fill="#999999" d="M191.148,591.718
			c-8.926,0.593-17.854,1.173-26.777,1.785c-6.807,0.467-13.605,1.305-20.414,1.386c-8.895,0.104-13.697-3.864-15.222-12.665
			c-2.976-17.188,1.144-32.486,12.124-46.26c10.095-12.661,23.416-19.899,38.229-25.15c28.8-10.207,58.575-15.817,88.989-17.082
			c51.079-2.125,100.725-11.423,149.572-26.289c33.504-10.196,67.795-13.899,102.614-6.934c26.727,5.347,49.891,17.898,70.85,35.006
			c34.643,28.276,59.755,63.13,73.552,105.856c7.206,22.318,11.376,45.191,11.114,68.679c-0.313,28.137-5.134,55.647-14.044,82.284
			c-6.161,18.42-13.558,36.427-20.363,54.631c-1.918,5.128-5.507,8.509-10.313,10.988c-20.924,10.794-43.462,13.24-66.157,10.261
			c-28.49-3.742-56.669-9.791-85.063-14.344c-22.828-3.661-45.707-7.218-68.689-9.622c-18.791-1.966-35.5,5.393-51.438,14.774
			c-8.727,5.137-17.634,10.135-26.922,14.114c-21.248,9.104-42.517,7.706-63.445-1.59c-27.574-12.247-53.105-27.709-74.925-48.731
			c-26.293-25.33-44.66-54.879-47.57-92.317c-3.055-39.302,11.399-70.821,42.277-95.036c0.877-0.687,1.664-1.489,2.494-2.238
			C191.463,592.722,191.307,592.22,191.148,591.718z M244.219,575.213c0.444,0.542,0.889,1.084,1.333,1.626
			c52.283-25.236,107.512-35.394,165.517-32.417c-3.104-2.684-6.152-4.678-9.438-6.145c-11.257-5.027-23.26-6.903-35.438-7.675
			c-39.461-2.502-75.485,7.584-107.742,30.398C253.055,564.816,248.931,570.431,244.219,575.213z"/>
		<path id="Forehead" fill-rule="evenodd" clip-rule="evenodd" fill="#999999" d="M829.455,476.925
			c-6.972-7.276-14.008-14.491-20.9-21.839c-12.742-13.586-24.438-28.339-38.313-40.637c-22.745-20.158-50.409-26.565-80.429-23.853
			c-12.561,1.134-25.154,2.307-37.75,2.523c-8.749,0.149-16.88-3.299-24.472-7.698c-5.183-3.002-10.362-6.013-15.603-8.913
			c-9.55-5.288-19.77-8.338-32.278-8.372c4.566-4.249,8.007-7.513,11.516-10.702c12.762-11.602,24.615-23.882,31.376-40.193
			c5.53-13.341,6.666-27.011,3.629-41.084c-0.279-1.296-0.429-2.625-0.554-3.946c-0.045-0.467,0.162-0.957,0.353-1.947
			c13.288,1.685,23.253,9.469,32.926,17.828c0.531-0.362,1.063-0.725,1.594-1.087c-3.061-6.478-5.27-13.555-9.328-19.333
			c-19.526-27.8-47.09-42.278-80.352-46.438c-2.489-0.312-6.143,1.131-7.807,3.028c-9.067,10.331-17.722,21.028-26.444,31.658
			c-22.951,27.975-47.933,53.852-78.923,73.018c-15.97,9.875-33.355,16.43-52.635,16.021c-17.98-0.381-32.395-8.071-36.097-28.179
			c-0.206-1.12-0.757-2.177-1.74-4.917c-2.187,5.135-4.431,8.93-5.421,13.027c-2.448,10.141-1.922,20.154,3.524,29.413
			c1.884,3.202,2.026,5.143-2.405,5.611c-5.102,0.539-10.164,1.869-15.26,1.969c-13.496,0.267-21.806-5.671-26.372-18.437
			c-1.5-4.195-2.524-8.559-3.958-13.511c-4.596,9.533-6.198,18.772-2.916,28.636c2.05,6.159,1.968,6.415-4.642,7.203
			c-14.497,1.73-29.005,4.328-43.542,4.58c-35.699,0.618-69.67-6.553-100.082-26.409c-2.844-1.856-4.663-1.811-7.437,0.042
			c-17.22,11.503-29.5,39.526-25.023,57.711c0.262,1.063,0.792,2.057,1.39,3.566c5.83-7.037,10.092-14.987,18.395-18.28
			c3.185,6.234,5.585,12.472,9.305,17.786c3.738,5.343,8.789,9.768,13.59,14.944c-9.016,2.752-17.59,5.125-25.984,8.013
			c-5.924,2.038-11.56,4.9-17.429,7.115c-1.472,0.555-4.067,0.76-4.927-0.098c-9.848-9.831-20.934-18.638-27.482-31.334
			c-6.974-13.519-4.896-27.154,0.432-40.455c8.043-20.079,20.088-37.827,34.791-53.472c13.482-14.344,31.264-19.645,50.629-19.31
			c7.245,0.125,14.469,1.494,22.11,2.34c-0.702-5.999-3.558-11.492-7.206-16.47c-3.037-4.146-2.98-7.269-0.273-11.897
			c12.907-22.058,27.965-42.369,46.67-59.827c13.979-13.048,29.069-24.155,48.872-26.806c12.149-1.625,24.422-2.976,36.298-5.856
			c24.146-5.858,46.239-17.072,68.459-27.891c24.611-11.982,49.273-23.99,76.266-29.844c25.906-5.619,51.196-4.607,75.106,8.32
			c0.729,0.393,1.492,0.727,2.208,1.144c5.512,3.213,5.568,3.257,2.041,8.474c-4.602,6.806-8.09,14.023-9.152,23.336
			c2.085-1.147,3.575-1.847,4.943-2.736c19.41-12.613,40.48-14.234,62.246-8.567c37.035,9.64,67.178,30.519,92.625,58.572
			c10.545,11.624,20.465,23.743,25.293,39.116c7.653,24.365,5.556,48.267-3.36,71.852c-0.704,1.86-1.44,3.708-2.145,5.566
			c-0.055,0.143,0.01,0.329,0.08,1.61c3.604-1.915,7.086-3.283,9.999-5.421c4.686-3.437,9.26-7.119,13.374-11.208
			c2.738-2.723,4.361-2.35,6.876,0.059c27.668,26.499,48.07,57.643,60.272,94.028c7.88,23.495,11.879,47.719,13.198,72.417
			c0.096,1.801,0.013,3.611,0.013,5.417C830.626,476.242,830.04,476.583,829.455,476.925z M246.056,291.794
			c0.813,0.109,1.25,0.308,1.425,0.171c9.854-7.708,20.508-8.371,31.968-4.097c1.832,0.684,4.545,0.248,6.419-0.611
			c27.812-12.761,55.551-12.644,83.309,0.082c1.428,0.654,2.87,1.272,4.606,2.04c1.615-4.605,2.788-8.766,4.503-12.69
			c5.596-12.807,11.264-25.832,24.18-33.046c5.801-3.24,10.865-6.749,15.686-11.462c12.432-12.157,27.41-20.189,44.791-23.139
			c4.714-0.801,9.459-1.414,14.189-2.113c-21.006-5.128-40.548-2.757-57.938,10.742c-7.174,5.569-13.059,12.349-22.272,15.792
			c-14.586,5.45-21.59,18.444-25.723,32.766c-1.105,3.829-2.17,4.792-6.031,3.428c-5.292-1.869-10.764-3.426-16.284-4.417
			c-20.694-3.714-40.956-2.79-58.977,9.273c-5.888,3.94-10.856,5.251-17.755,3.748C263.35,276.345,251.049,280.612,246.056,291.794z
			"/>
		<g id="Ears">
			<path id="Ear_1_" fill-rule="evenodd" clip-rule="evenodd" fill="#999999" d="M661.939,100.596
				c-7.989,7.604-7.307,18.35-8.589,28.181c-11.237-2.843-22.17-5.349-32.944-8.409c-10.501-2.982-20.914-6.328-31.212-9.951
				c-3.262-1.148-6.03-3.7-9.688-6.033c1.675-0.911,2.323-1.473,3.059-1.631c16.483-3.553,31.099-11.388,45.585-19.607
				c14.112-8.007,28.999-13.913,45.231-16.146c20.395-2.805,35.718,6.85,40.973,26.859c3.792,14.437,6.578,29.134,10.121,43.641
				c3.572,14.629,8.929,28.512,18.37,40.535c10.733,13.668,25.167,21.951,40.951,28.245c9.858,3.931,19.803,7.647,29.696,11.491
				c1.391,0.541,2.731,1.224,4.064,1.903c4.171,2.125,6.738,5.374,6.78,10.209c0.042,4.978-2.285,8.512-6.744,10.736
				c-10.491,5.234-21.753,5.746-33.119,5.288c-5.807-0.234-11.609-0.846-17.382-1.555c-6.61-0.813-11.592-4.27-14.06-10.513
				c-11.117-28.135-31.058-49.261-53.906-68.054c-7.442-6.122-15.218-11.839-22.849-17.731c-4.069-3.141-7.076-6.889-7.985-12.179
				C666.277,124.154,664.089,112.465,661.939,100.596z"/>
			<path id="Ear" fill-rule="evenodd" clip-rule="evenodd" fill="#999999" d="M215.609,218.717
				c-1.441,2.306-2.266,3.665-3.127,4.999c-9.367,14.517-18.924,28.917-27.999,43.613c-2.724,4.41-5.804,5.854-10.67,5.006
				c-10.184-1.773-10.159-1.694-12.288-12.859c-2.47-12.947-8.076-23.573-21.395-28.349c-0.721-0.258-1.479-0.413-3.216-0.891
				c2.401,4.905,5.065,8.803,6.249,13.108c2.005,7.281,3.752,14.765,4.352,22.263c0.645,8.057-2.367,14.864-8.793,20.685
				c-20.844,18.886-36.133,42.136-49.001,66.831c-5.66,10.862-12.021,17.397-25.015,14.928c-6.004-1.14-12.303-0.779-18.273-2.029
				c-7.521-1.575-9.033-5.096-4.557-11.253c7.52-10.34,15.695-20.204,23.642-30.231c7.862-9.924,15.485-19.935,19.347-32.303
				c2.638-8.445,3.469-16.902,1.846-25.595c-5.732-30.704,14.285-51.227,33.465-58.379c9.021-3.364,18.352-2.304,27.555-0.181
				c15.374,3.548,30.666,7.539,46.162,10.429C200.569,219.753,207.672,218.717,215.609,218.717z"/>
		</g>
		<path id="Neck" fill-rule="evenodd" clip-rule="evenodd" fill="#999999" d="M532.12,843.953c-3.573,1.77-7.012,3.918-10.742,5.247
			c-17.058,6.076-34.897,8.205-52.793,9.791c-31.546,2.796-63.12,3.445-94.579-0.844c-10.097-1.377-20.008-4.123-30.523-6.352
			c0.96-1.757,1.078-2.36,1.42-2.541c11.006-5.821,22.184-11.336,33.024-17.448c18.099-10.205,37.396-11.31,57.12-7.541
			c15.652,2.992,30.997,7.599,46.646,10.614c15.474,2.98,31.158,4.865,46.75,7.233c1.078,0.164,2.152,0.353,3.229,0.529
			C531.821,843.08,531.971,843.517,532.12,843.953z"/>
		<g id="Cheeks">
			<path id="Cheek" fill-rule="evenodd" clip-rule="evenodd" fill="#999999" d="M628.759,402.796
				c-5.278,5.855-10.091,11.195-14.904,16.533c0.346,0.465,0.691,0.93,1.036,1.394c1.643-0.475,3.279-0.969,4.927-1.421
				c40.086-10.996,80.035-10.774,119.289,3.189c23.33,8.298,39.688,25.613,53.272,45.763c11.251,16.687,22.578,33.324,33.999,49.895
				c6.856,9.949,17.188,13.718,28.581,15.349c0.402,0.057,0.86-0.268,1.663-0.54c-6.398-7.911-17.952-10.122-21.797-20.22
				c0.253-0.48,0.507-0.961,0.761-1.443c5.407,2.267,11.081,4.053,16.182,6.876c43.505,24.084,65.208,61.475,67.557,110.802
				c1.65,34.651-6.286,67.371-19.165,99.122c-19.177,47.279-42.819,92.216-71.633,134.36
				c-10.608,15.518-23.654,28.774-38.639,40.127c-9.799,7.424-20.942,10.538-33.104,10.705
				c-28.918,0.396-57.154-3.236-83.745-15.193c-6.706-3.015-13.133-7.266-18.678-12.105c-9.293-8.109-10.614-17.657-5.607-28.921
				c8.573-19.288,17.558-38.412,25.456-57.975c12.388-30.682,20.729-62.488,23.16-95.61c1.817-24.745-0.375-49.159-7.417-73.043
				c-0.376-1.275-0.724-2.564-0.987-3.866c-0.09-0.444,0.113-0.949,0.368-2.722c2.218,2.212,4.24,3.606,5.436,5.52
				c9.325,14.915,18.497,29.927,27.695,44.922c0.849,1.384,1.545,2.861,2.313,4.296c0.479-0.163,0.959-0.325,1.439-0.488
				c-3.921-12.7-7.242-25.624-11.87-38.062c-14.89-40.015-35.389-77.003-61.584-110.763c-20.846-26.867-45.5-49.435-75.554-65.695
				c-3.933-2.128-4.919-4.152-3.786-8.591c5.425-21.263-2.171-38.546-17.297-53.208c-3.542-3.432-7.448-6.487-12.085-10.49
				c-0.729,3.102-1.193,5.11-1.675,7.115c-3.09,12.866-7.325,25.309-15.54,35.868c-1.777,2.285-5.487,4.589-8.161,4.431
				c-48.461-2.875-95.205,5.17-140.766,21.278c-3.133,1.107-6.336,2.071-9.57,2.821c-2.465,0.571-5.032,0.697-8.78,1.18
				c5.399-9.934,9.898-18.766,14.94-27.277c3.119-5.264,6.814-10.244,10.693-14.99c7.592-9.289,17.559-10.821,28.449-7.396
				c3.359,1.055,5.04,0.354,6.898-2.412c5.963-8.875,6.182-17.911,0.333-26.995c-0.422-0.654-0.737-1.377-1.511-2.841
				C491.419,370.448,561.468,371.553,628.759,402.796z M490.075,395.864c-0.023-3.923-3.923-7.659-7.827-7.497
				c-3.678,0.151-7.256,3.894-7.248,7.583c0.006,3.747,4.115,7.687,7.864,7.542C486.592,403.349,490.099,399.638,490.075,395.864z
				 M511.709,414.756c-6.039-0.038-8.619,1.81-8.592,5.544c0.025,3.612,4.257,7.77,7.771,7.637c2.976-0.113,6.262-4.552,6.158-8.472
				C516.939,415.41,514.065,414.835,511.709,414.756z M456.368,410.302c-0.827,0.008-1.655,0.016-2.483,0.022
				c-1.31,2.515-3.537,4.99-3.646,7.556c-0.092,2.147,1.795,5.233,3.715,6.376c2.026,1.206,7.253-3.749,6.621-6.51
				C459.964,415.083,457.831,412.77,456.368,410.302z"/>
			<path id="Cheek_1_" fill-rule="evenodd" clip-rule="evenodd" fill="#999999" d="M120.049,506.081c-6.66,0-13.585,0-21.027,0
				c0.388-10.243,3.971-19.302,9.477-27.446c17.293-25.569,40.876-42.41,71.447-47.793c20.134-3.544,40.588-5.271,60.906-7.765
				c1.584-0.195,3.213-0.026,4.886-0.026c-2.631,16.537,0.583,25.838,10.255,30.053c2.611-3.752,5.238-7.527,7.724-11.099
				c11.714,7.959,22.954,15.597,34.195,23.233c0.021,0.397,0.042,0.795,0.063,1.193c-8.634,1.163-17.249,2.497-25.905,3.458
				c-24.486,2.719-49.141,4.294-73.067,10.736c-5.279,1.42-10.398,3.438-16.394,5.45c-5.496-11.709-7.006-24.303-7.927-37.569
				c-10.829,4.717-19.119,11.91-25.434,21.306c-7.247,10.783-10.736,22.871-10.83,35.831c-0.025,3.462-1.244,5.762-3.496,8.284
				c-17.57,19.675-26.479,42.619-24.01,69.121c1.566,16.81,10.309,28.539,27.363,32.931c0.924,0.237,1.787,0.706,2.861,1.143
				c-31.514,48.196-29.419,98.587-10.272,149.821c7.841,20.98,18.675,40.335,38.002,53.466
				c-9.146-21.276-19.913-41.912-21.161-66.026c0.875,0.81,1.957,1.482,2.595,2.448c20.011,30.267,47.532,52.229,78.134,70.799
				c4.977,3.02,9.85,6.223,14.928,9.058c7.667,4.279,12.755,10.991,17.816,17.85c12.646,17.137,28.165,30.521,48.994,36.803
				c0.609,0.184,1.178,0.501,2.9,1.249c-2.406,2.265-4.199,4.285-6.311,5.887c-13.587,10.297-29.428,14.674-45.988,16.278
				c-40.759,3.952-79.59-3.205-116.236-21.606c-23.491-11.795-40.051-30.051-46.812-55.469c-2.745-10.319-1.601-21.77-1.597-32.704
				c0.008-23.983,0.637-47.972-5.523-71.479c-3.886-14.832-10.853-28.192-19.125-40.947
				c-22.082-34.052-24.499-70.763-14.107-108.889c6.858-25.163,19.563-47.029,40.441-63.286
				C104.711,515.003,112.553,510.847,120.049,506.081z M203.189,440.818c1.181,0.848,2.801,2.777,4.766,3.235
				c2.812,0.657,6.344-3.222,5.442-6.104c-0.604-1.931-2.81-4.612-4.437-4.712C205.426,433.018,203.523,435.755,203.189,440.818z
				 M195.554,457.101c-2.481,2.825-4.79,4.516-5.5,6.721c-0.284,0.882,2.798,3.883,4.632,4.183c3.365,0.552,5.86-1.929,5.686-5.267
				C200.288,461.146,197.861,459.678,195.554,457.101z"/>
		</g>
	</g>
	<g id="Collar_5_">
		<g id="Collar_6_">
			<path id="Collar_1_" fill-rule="evenodd" clip-rule="evenodd" fill="#333333" d="M979.713,410.334
				c-5.859-1.179-11.623-2.62-17.475-3.452c-9.386-1.334-18.808-2.561-28.256-3.291c-11.943-0.923-16.785,2.407-20.23,13.892
				c-6.861,22.871-7.21,45.717,2.432,67.911c8.364,19.253,15.454,22.542,35.196,15.329c10.84-3.961,20.877-10.132,31.239-15.382
				c2.045-1.037,3.917-2.415,6.8-4.217c3.243,34.239,5.829,67.52-2.836,101.447c-3.989-2.997-7.307-5.7-10.834-8.093
				c-6.049-4.103-11.969-8.508-18.409-11.897c-12.491-6.573-21.347-6.264-37.307,0.325c-1.001-1.281-2.118-2.657-3.178-4.076
				c-7.066-9.467-14.33-18.798-21.049-28.507c-1.943-2.809-3.417-6.766-3.237-10.097c4.393-81.869-21.405-154.303-68.505-220.078
				c-6.97-9.733-14.752-18.883-22.081-28.364c-1.192-1.543-2.501-3.326-2.763-5.142c-0.167-1.166,1.238-3.449,2.357-3.77
				c8.928-2.554,17.956-4.76,27.353-7.176c0.528,4.17,0.81,8.613,1.686,12.937c6.485,32.026,27.418,49.945,57.817,57.928
				c15.257,4.006,21.292,0.888,29.163-12.838c4.118-7.181,8.145-14.413,12.3-21.776C946.499,309.17,980.673,390.453,979.713,410.334
				z"/>
			<path id="Collar_3_" fill-rule="evenodd" clip-rule="evenodd" fill="#333333" d="M622.095,846.638
				c-6.638,10.123-11.556,20.805-19.381,28.552c-6.259,6.195-15.748,9.608-24.328,12.887c-28.615,10.933-58.624,14.87-89.039,15.748
				c-50.626,1.46-100.327-4.561-148.749-19.771c-16.376-5.145-32.297-11.439-46.754-20.931c-1.607-1.055-3.113-2.266-5.848-4.271
				c5.324-0.363,9.223-0.563,13.109-0.909c6.629-0.591,13.238-1.418,19.877-1.841c2.556-0.163,5.391-0.053,7.717,0.882
				c47.615,19.142,97.208,24.516,147.994,21.185c48.168-3.158,94.707-13.882,139.784-31.069c0.933-0.355,1.879-0.683,2.838-0.953
				C619.59,846.068,619.935,846.24,622.095,846.638z"/>
			<path id="Collar_4_" fill-rule="evenodd" clip-rule="evenodd" fill="#333333" d="M619.168,889.454
				c-4.522,11.045-8.657,21.481-13.158,31.757c-0.624,1.424-2.977,2.756-4.662,2.944c-13.359,1.495-26.734,2.951-40.141,3.9
				c-7.586,0.538-15.241,0.098-23.629,0.098c2.076-7.585-0.828-12.238-8.806-14.105C560.57,910.837,590.62,902.606,619.168,889.454z
				"/>
			<path id="Collar_2_" fill-rule="evenodd" clip-rule="evenodd" fill="#333333" d="M966.551,661.021
				c-9.351,30.539-27.178,54.516-48.292,76.382c-0.52-0.245-1.04-0.49-1.561-0.735c1.486-5.511,3.149-10.98,4.427-16.539
				c4.272-18.589,8.359-37.221,12.698-55.793c0.3-1.282,2.057-3.14,3.179-3.169C946.447,660.912,955.904,661.021,966.551,661.021z"
				/>
			<path id="Collar" fill-rule="evenodd" clip-rule="evenodd" fill="#333333" d="M868.039,219.533
				c-6.76,7.93-15.631,10.901-24.98,12.772c-2.937,0.588-4.276-1.478-4.164-4.234c0.458-11.243-5.767-18.421-14.74-23.599
				c-6.021-3.475-12.476-6.196-18.688-9.349c-9.377-4.76-11.35-12.778-5.2-22.343C825.877,183.741,847.703,200.188,868.039,219.533z
				"/>
			<path id="Collar_7_" fill-rule="evenodd" clip-rule="evenodd" fill="#333333" d="M869.187,503.901
				c-6.025-3.962-12.604-7.327-17.831-12.153c-2.392-2.208-2.892-7.283-2.941-11.076c-0.458-34.675-6.941-68.211-20.145-100.182
				c-14.582-35.313-35.035-66.814-64.19-92.129c-6.359-5.521-5.37-16.635,2.31-24.25c44.905,36.416,74.514,83.076,91.396,137.908
				c10.063,32.68,18.182,65.876,13.871,100.477C870.833,502.963,870.01,503.432,869.187,503.901z"/>
		</g>
		<g id="Spikes">
			<path id="Spike" fill-rule="evenodd" clip-rule="evenodd" fill="#FFFFFF" d="M882.269,310.089
				c9.218-14.099,17.997-27.934,22.88-45.204c-4.986,4.101-8.923,7.507-13.034,10.688c-9.535,7.379-19.798,13.385-31.634,16.36
				c-3.173,0.798-5.399,0.511-7.484-2.657c-5.708-8.676-8.889-18.127-10.191-28.332c-0.569-4.456,1.064-7.398,4.943-9.901
				c14.993-9.673,31.542-15.595,48.52-20.376c11.662-3.286,23.541-5.807,35.334-8.623c1.073-0.256,2.229-0.172,4.404-0.315
				c-1.976,7.561-3.583,14.612-5.666,21.52c-6.457,21.403-15.127,41.842-27.103,60.8
				C896.932,314.031,894.495,314.831,882.269,310.089z"/>
			<path id="Spike_1_" fill-rule="evenodd" clip-rule="evenodd" fill="#FFFFFF" d="M1021.105,443.119
				c-8.174,6.472-15.379,13.48-23.766,18.527c-14.626,8.804-29.963,16.429-45.047,24.464c-1.88,1.001-4.005,1.583-6.061,2.207
				c-9.61,2.916-14.637-0.133-16.879-10.161c16.848-1.872,31.923-8.055,46.317-18.844c-8.61,0.594-16.194,2.036-23.593,1.384
				c-8.307-0.731-16.466-3.275-24.648-5.203c-2.709-0.638-4.178-2.504-3.65-5.534c1.526-8.773,2.55-17.668,4.688-26.288
				c1.417-5.707,5.581-8.116,11.445-7.277c27.13,3.88,53.286,11.046,77.632,23.988
				C1018.395,440.834,1019.099,441.562,1021.105,443.119z"/>
			<path id="Spike_2_" fill-rule="evenodd" clip-rule="evenodd" fill="#FFFFFF" d="M936.067,645.663c0-3.059,0-5.833,0-8.99
				c12.106-0.844,24.14-1.682,36.173-2.52c0.155-0.594,0.311-1.188,0.466-1.782c-6.238-2.722-12.364-5.752-18.751-8.066
				c-5.121-1.856-10.615-2.661-15.814-4.336c-1.445-0.466-3.181-2.196-3.507-3.636c-2.891-12.757-5.559-25.567-8.069-38.405
				c-0.231-1.186,0.721-3.155,1.749-3.94c4.853-3.703,10.495-3.882,16.177-2.631c9.668,2.129,17.682,7.515,25.174,13.642
				c16.237,13.276,29.779,28.94,40.678,46.872c0.856,1.409,1.585,2.896,2.365,4.332
				C1005.19,641.063,951.971,647.679,936.067,645.663z"/>
			<path id="Spike_3_" fill-rule="evenodd" clip-rule="evenodd" fill="#FFFFFF" d="M508.883,925.797
				c11.717,2.766,11.802,2.795,8.195,13.382c-5.572,16.365-13.443,31.443-25.335,44.198c-1.132,1.214-2.434,2.274-3.511,3.531
				c-2.674,3.122-4.914,2.2-6.582-0.847c-3.822-6.979-8.156-13.787-11.021-21.156c-4.914-12.636-8.863-25.647-13.684-39.879
				c7.58-1.181,13.857-2.192,20.149-3.11c1.304-0.19,2.66-0.056,3.991-0.031c14.498,0.261,11.115-1.18,12.773,12.467
				c0.498,4.104,0.158,8.313,0.178,12.473c0.018,3.964,0.004,7.927,0.004,13.265C502.92,949.638,505.701,937.789,508.883,925.797z"
				/>
			<path id="Spike_4_" fill-rule="evenodd" clip-rule="evenodd" fill="#FFFFFF" d="M634.475,893.221
				c8.012,6.717,14.782,12.271,21.356,18.046c0.919,0.807,0.938,2.693,1.271,4.103c1.164,4.925,2.285,9.859,3.424,14.791
				c0.543-0.037,1.087-0.074,1.63-0.111c0.584-4.118,1.167-8.235,1.78-12.563c4.194,1.888,8.145,3.525,11.932,5.477
				c0.876,0.451,1.829,2.078,1.682,2.992c-2.293,14.22-7.409,27.429-14.983,41.417c-8.289-8.106-16.611-15.052-23.401-23.263
				c-5.409-6.543-9.425-14.406-13.082-22.145c-1.432-3.029-1.133-7.643,0.024-10.96C628.247,904.871,631.602,899.16,634.475,893.221
				z"/>
			<path id="Spike_5_" fill-rule="evenodd" clip-rule="evenodd" fill="#FFFFFF" d="M352.073,903.877
				c9.409,2.807,18.25,5.442,27.882,8.315c-1.504,4.908-2.918,9.522-4.331,14.135c0.282,0.264,0.565,0.526,0.848,0.789
				c2.711-2.5,6.03-4.601,7.985-7.594c2.777-4.251,5.99-5.028,10.379-3.522c1.24,0.427,2.541,0.678,3.803,1.006
				c-1.967,13.019-28.213,40.939-41.85,44.083C349.867,942.598,350.959,923.507,352.073,903.877z"/>
			<path id="Spike_6_" fill-rule="evenodd" clip-rule="evenodd" fill="#FFFFFF" d="M778.479,178.532
				c-8.944-2.05-9.952-3.605-8.899-11.646c0.805-6.134,1.368-12.299,2.039-18.45c-0.499-0.127-0.998-0.254-1.497-0.38
				c-3.199,5.905-6.398,11.812-9.755,18.006c-0.875-0.51-1.849-0.809-2.432-1.459c-6.544-7.306-11.247-15.554-13.007-25.348
				c-0.678-3.767,0.136-6.609,3.215-9.194c8.444-7.088,17.278-13.375,28.822-16.624C783.54,135.113,780.914,156.566,778.479,178.532
				z"/>
			<path id="Spike_7_" fill-rule="evenodd" clip-rule="evenodd" fill="#FFFFFF" d="M926.804,815.748
				c-11.659,0.739-38.601-4.302-46.534-8.741c2.172-3.068,3.768-7.727,6.592-8.656c2.942-0.968,7.068,1.658,10.677,2.713
				c0.24-0.363,0.479-0.728,0.719-1.091c-2.903-2.734-5.807-5.469-9.01-8.487c3.975-9.063,8.049-18.349,12.616-28.764
				C912.188,780.154,921.525,796.755,926.804,815.748z"/>
		</g>
	</g>
	<g id="Teeth">
		<path id="Tooth_1_" fill-rule="evenodd" clip-rule="evenodd" fill="#FFFFFF" d="M550.018,411
			c12.199,9.903,16.905,28.916,10.354,41.053c-8.359-3.726-16.743-7.462-25.633-11.424C543.557,432.765,547.157,422.321,550.018,411
			z"/>
		<path id="Tooth" fill-rule="evenodd" clip-rule="evenodd" fill="#FFFFFF" d="M165.09,472.792
			c1.717,5.599,3.414,10.75,4.789,15.984c0.236,0.898-0.589,2.63-1.438,3.172c-5.266,3.36-10.676,6.49-16.093,9.73
			C150.512,491.653,156.145,478.527,165.09,472.792z"/>
	</g>
	<g id="Eyes">
		<g id="Iris_Colored">
			<path id="Eye_Iris" fill-rule="evenodd" clip-rule="evenodd" fill="#CCCCCC" d="M253.291,392.845
				c2.829-0.127,5.445-0.245,7.986-0.36c1.838,6.485-1.219,13.94-7.304,18.335c-7.419,5.361-19.458,5.06-28.267-0.705
				c-6.262-4.099-8.681-10.08-6.985-18.167c2.813,0.211,5.718,0.428,8.521,0.638c3.037,10.025,7.506,14.089,14.684,13.561
				C247.824,405.713,251.782,401.263,253.291,392.845z"/>
			<path id="Eye_Iris_1_" fill-rule="evenodd" clip-rule="evenodd" fill="#CCCCCC" d="M528.305,302.831
				c2.115-2.214,4.953-5.188,7.727-8.093c11.685,8.268,16.364,25.781,10.891,39.373c-5.287,13.126-18.604,20.032-34.459,17.589
				c-11.703-1.805-21.302-6.978-27.438-18.275c3.912-2.417,7.518-4.645,11.09-6.852c11.322,14.063,23.328,18.153,33.223,11.35
				c6.004-4.127,9.292-10.257,7.485-17.171C535.228,314.644,531.398,309.121,528.305,302.831z"/>
		</g>
		<g id="Eye_White_4_">
			<path id="Eye_Inner" fill-rule="evenodd" clip-rule="evenodd" fill="#FFFFFF" d="M520.273,321.21
				c-3.012-0.235-5.34-1.805-5.383-5.439c-0.043-3.686,2.441-5.521,5.737-5.517c3.46,0.004,5.479,2.292,5.435,5.806
				C526.021,319.418,524.109,321.187,520.273,321.21z"/>
			<path id="Eye_Inner_1_" fill-rule="evenodd" clip-rule="evenodd" fill="#FFFFFF" d="M241.313,393.166c2.768,0,5.535,0,8.301,0
				c0.279,0.457,0.557,0.914,0.836,1.371c-1.543,1.134-3.104,3.196-4.623,3.166c-1.853-0.036-3.67-1.831-5.504-2.865
				C240.652,394.28,240.982,393.722,241.313,393.166z"/>
			<path id="Eye_White_3_" fill-rule="evenodd" clip-rule="evenodd" fill="#FFFFFF" d="M476.748,337.486
				c1.34,9.469,6.341,15.695,13.975,21.6c-20.247,3.754-39.346,4.095-58.516,1.53c-0.125-0.478-0.25-0.957-0.376-1.435
				C446.611,352.042,461.392,344.903,476.748,337.486z"/>
			<path id="Eye_White_1_" fill-rule="evenodd" clip-rule="evenodd" fill="#FFFFFF" d="M285.154,388.63
				c-3.361,8.164-8.881,11.896-16.352,13.652c0-3.598,0-6.68,0-10.06C274.115,391.056,279.186,389.941,285.154,388.63z"/>
			<path id="Eye_White" fill-rule="evenodd" clip-rule="evenodd" fill="#FFFFFF" d="M214.852,412.875
				c-11.904,3.978-24.5,5.466-36.195-2.712c-10.561-7.386-13.727-18.458-13.899-30.269c12.266,3.181,24.245,6.304,36.239,9.375
				c1.436,0.367,3.164,0.067,4.365,0.759c1.454,0.836,3.086,2.189,3.604,3.679C211.055,399.72,212.743,405.874,214.852,412.875z"/>
			<path id="Eye_White_2_" fill-rule="evenodd" clip-rule="evenodd" fill="#FFFFFF" d="M546.62,361.363
				c21.852-20.78,23.935-51.39,2.435-74.999c12-14.306,25.871-24.754,45.916-23.551c6.25,0.375,10.658,2.668,13.29,8.623
				c4.556,10.309,5.835,20.981,2.308,31.565c-7.901,23.698-23.103,41.658-44.913,53.854
				C560.163,359.928,554.168,361.813,546.62,361.363z"/>
		</g>
	</g>
	<path id="Nose_Highlight" fill-rule="evenodd" clip-rule="evenodd" fill="#FFFFFF" d="M374.673,396.036
		c-29.069-2.627-55.402,6.042-81.651,18.542c0.784-6.768,4.162-11.091,9.168-13.33c8.75-3.911,17.711-7.587,26.914-10.184
		c10.525-2.97,21.387-4.797,32.152-6.853C370.902,382.371,375.365,386.151,374.673,396.036z"/>
	<path id="Chin_Line" fill-rule="evenodd" clip-rule="evenodd" d="M244.219,575.213c4.712-4.782,8.836-10.396,14.232-14.212
		c32.257-22.814,68.281-32.9,107.742-30.398c12.178,0.771,24.181,2.647,35.438,7.675c3.285,1.467,6.334,3.461,9.438,6.145
		c-58.005-2.977-113.233,7.181-165.517,32.417C245.107,576.297,244.663,575.755,244.219,575.213z"/>
	<path id="Forehead_Wrinkle" fill-rule="evenodd" clip-rule="evenodd" d="M246.056,291.794
		c4.993-11.182,17.294-15.449,26.095-13.534c6.898,1.503,11.867,0.192,17.755-3.748c18.021-12.063,38.282-12.988,58.977-9.273
		c5.521,0.991,10.992,2.548,16.284,4.417c3.861,1.364,4.926,0.4,6.031-3.428c4.133-14.322,11.137-27.316,25.723-32.766
		c9.214-3.443,15.099-10.223,22.272-15.792c17.391-13.499,36.933-15.87,57.938-10.742c-4.73,0.699-9.476,1.312-14.189,2.113
		c-17.381,2.949-32.359,10.981-44.791,23.139c-4.82,4.713-9.885,8.223-15.686,11.462c-12.916,7.214-18.584,20.239-24.18,33.046
		c-1.715,3.924-2.888,8.085-4.503,12.69c-1.736-0.768-3.179-1.386-4.606-2.04c-27.758-12.726-55.497-12.843-83.309-0.082
		c-1.874,0.859-4.587,1.295-6.419,0.611c-11.46-4.274-22.114-3.611-31.968,4.097C247.306,292.102,246.868,291.904,246.056,291.794z"
		/>
	<g id="Whiskers">
		<path id="Wisker_4_" fill-rule="evenodd" clip-rule="evenodd" d="M490.075,395.864c0.023,3.774-3.483,7.484-7.211,7.628
			c-3.749,0.145-7.858-3.795-7.864-7.542c-0.008-3.689,3.57-7.432,7.248-7.583C486.152,388.205,490.052,391.941,490.075,395.864z"/>
		<path id="Wisker_3_" fill-rule="evenodd" clip-rule="evenodd" d="M511.709,414.756c2.356,0.079,5.23,0.653,5.338,4.709
			c0.104,3.919-3.183,8.358-6.158,8.472c-3.515,0.133-7.746-4.025-7.771-7.637C503.09,416.566,505.67,414.719,511.709,414.756z"/>
		<path id="Wisker_2_" fill-rule="evenodd" clip-rule="evenodd" d="M456.368,410.302c1.463,2.467,3.596,4.781,4.206,7.444
			c0.632,2.761-4.595,7.716-6.621,6.51c-1.92-1.143-3.807-4.229-3.715-6.376c0.109-2.565,2.337-5.041,3.646-7.556
			C454.713,410.318,455.541,410.31,456.368,410.302z"/>
		<path id="Wisker" fill-rule="evenodd" clip-rule="evenodd" d="M203.189,440.818c0.334-5.063,2.236-7.8,5.771-7.581
			c1.627,0.101,3.833,2.782,4.437,4.712c0.901,2.881-2.631,6.761-5.442,6.104C205.99,443.595,204.37,441.666,203.189,440.818z"/>
		<path id="Wisker_1_" fill-rule="evenodd" clip-rule="evenodd" d="M195.554,457.101c2.308,2.577,4.734,4.045,4.817,5.637
			c0.175,3.338-2.32,5.819-5.686,5.267c-1.834-0.3-4.916-3.301-4.632-4.183C190.764,461.617,193.072,459.926,195.554,457.101z"/>
	</g>
</g>
</svg>
