<?xml version="1.0" encoding="utf-8"?>
<!-- Generator: Adobe Illustrator 16.0.0, SVG Export Plug-In . SVG Version: 6.00 Build 0)  -->
<!DOCTYPE svg PUBLIC "-//W3C//DTD SVG 1.1//EN" "http://www.w3.org/Graphics/SVG/1.1/DTD/svg11.dtd">
<svg version="1.1" id="Layer_1" xmlns="http://www.w3.org/2000/svg" xmlns:xlink="http://www.w3.org/1999/xlink" x="0px" y="0px"
	 width="681px" height="681px" viewBox="0 0 681 681" enable-background="new 0 0 681 681" xml:space="preserve">
<g id="BD-Head-Right">
	<rect x="0.5" y="0.5" display="none" fill="#663333" stroke="#000000" stroke-miterlimit="10" width="680" height="680"/>
	<path id="Chin_1_" fill-rule="evenodd" clip-rule="evenodd" fill="#666666" d="M99.51953,510.17773
		c-14.17188-19.96777-19.72656-42.04102-16.38574-66.34473c1.90039-13.82324,8.17871-25.97559,13.74121-38.80762
		c25.35156,18.95996,50.23047,37.26367,81.25781,44.49414c-9.76563-5.17578-19.53516-10.35742-29.30664-15.53906l0.03516,0.04199
		c-4.16016-2.2002-6.94922-3.7373-10.75586-6.48047l0.03516,0.0459c-13.04688-10.13867-26.36719-19.97852-36.50977-33.29004
		l0.03516,0.03906c-6.38477-10.83105-11.8418-21.92871-10.3291-36.79199c13.8584,11.05664,28.58105,17.00391,45.14648,16.50391
		c21.12012,30.49023,53.44434,40.18555,86.60449,48.0293c51.05566,12.07422,100.69922,7.88281,148.54688-14.18262
		c3.53516-1.63281,7.27148-3.0498,9.98633-6.08203l-0.03125,0.03906c1.4668-0.37988,2.57031-1.06738,2.59473-3.17969
		c-5.72168-0.2959-9.86035,4.22754-16.0791,4.63184c3.60645-17.69727,3.78906-34.98535-2.0625-53.06836
		c1.75879,0.85059,2.49902,0.95996,2.78516,1.375c11.97266,17.31738,24.2832,34.38086,33.5791,53.43262
		c10.8125,22.14551,1.74902,35.24316-18.99512,44.38086c-13.36133,5.8877-28.24512,5.54883-42.55469,7.3877
		c-7.01563,0.90723-14.02734,1.85938-20.9834,3.70605c21.99902,3.89941,43.91895,1.60449,66.73242-0.88867
		c-2.20313,7.99609-8.1543,12.98828-11.47559,19.43262c0,0.00391,0.03906-0.0459,0.03906-0.0459
		c-12.66992,13.81934-25.40723,27.51563-40.41797,38.95801c-27.98828,21.33203-60.57715,31.22266-94.45996,36.26367
		c-42.80566,6.35156-82.9248-3.33594-119.91895-25.79883c-8.03125-4.88672-14.19434-11.89063-20.88867-18.29688L99.51953,510.17773z
		"/>
	<path id="Cheek_1_" fill-rule="evenodd" clip-rule="evenodd" fill="#666666" d="M74.81055,333.16797
		c0.38086,1.36816,0.40918,3.00195,1.20215,4.0752c7.34277,9.98438,7.09668,21.36816,6.71191,32.95117
		c-0.25977,7.80566,2.92578,14.96191,5.9375,21.84082c-13.6582,27.5957-19.23145,31.04395-16.75,85.2959
		c-14.27734-9.79004-26.21387-20.78516-33.67383-36.22266c-5.89453-12.18457-6.77246-24.39551-2.93652-37.4082
		c6.43262-21.84277,17.66895-41.27832,29.23535-60.58691c2.46094-4.11523,4.875-8.25,7.15723-12.0957
		c2.21777-0.29297,2.2666,1.43848,3.14355,2.18945L74.81055,333.16797z"/>
	<path id="Face_4_" fill-rule="evenodd" clip-rule="evenodd" fill="#666666" d="M381.68555,488.64355
		c-14.5,23.5791-37.42969,37.81445-61.17285,53.8584c5.72168,0,9.45215,0.22852,13.14551-0.03223
		c32.31445-2.31934,64.32422-6.46191,95.07617-17.21387c64.84668-22.67578,109.17773-47.56836,134.81152-112.69336
		c7.87988-20.03125,13.64355-40.57422,11.57031-62.60742c-1.89941-20.23193-8.69434-38.55664-19.71387-55.45752l0.04199,0.03857
		c-7.3252-9.25049-15.30762-17.82764-24.4873-25.31934c-14.78516-12.06348-29.52832-24.19482-43.90137-36.73047
		c-15.49121-13.50244-30.14551-27.83691-39.95703-46.29248c0,0-0.03809,0.03564-0.03809,0.04248
		c7.45898,7.44238,14.92188,14.8877,22.38574,22.33008l0.30273,0.2959c4.61133,4.24121,9.22266,8.48242,13.82715,12.72656
		l-0.03223-0.03906c6.24023,3.98779,37.5166,33.17432,44.37793,36.4248c-1.27637-5.29883-48.83008-75.81006-67.63477-114.41309
		c-5.33008,1.61816-8.48242,6.06348-13.53711,8.89844c1.31055-7.77051,6.32031-12.05371,11.08691-16.53809
		c4.78418-4.50879,10.67871-7.30811,17.77148-10.75928c-7.375-2.64404-13.3291-4.78076-19.38574-6.95215
		c-3.19727,2.39746-6.17676,4.62158-9.15918,6.85352l0.04199-0.04639c-10.48047,7.16357-35.02734,15.03271-35.39453,15.05371
		l-0.03125-0.03857c0.39063-0.01758,13.01563,7.25488,18.44141,9.80762c-10.62891-1.46289-19.53125-7.00146-28.91211-11.43311
		c-6.58984-3.11621-11.30273-7.72412-11.57031-15.32861c-0.28223-7.79395,3.3418-13.64648,10.26172-17.36572l-0.03516,0.03564
		c0.31445-0.93799,1.39648-1.77344,0.17578-3.12744c-4.35352-0.40186-8.63281,0.90625-12.70117,2.60547
		c-3.9873,1.66748-7.73438,3.94482-13.22754,6.80371c11.83105-11.64795,25.06543-13.90771,38.80371-12.93799
		c19.49609,1.37109,36.96777,10.48096,55.39453,15.94189c20.05957,5.94385,40.2002,9.90967,61.16602,5.93994
		c6.7334-1.27246,13.19531-3.30664,18.59277-7.71338c4.88574-3.98389,4.3252-8.21436-1.49512-10.41748
		c-3.47559-1.30762-7.21875-1.94629-10.86523-2.71484c-14.96094-3.13379-30.50195-4.42725-43.50586-13.73828l-0.04297,0.05664
		c7.27637,0.6377,14.19336,3.87061,21.86523,3.08789c-8.6416-4.85791-16.32031-10.90039-24.19531-16.64307
		c-17.49609-12.75146-36.42773-21.59277-58.29297-23.74023c-36.9248-3.63135-79.36719,19.59424-71.70313,68.6958
		c0.54297,3.45117,0.80469,6.94531,1.33008,11.48242c-4.23828-4.56201-6.15625-9.16992-8.02344-13.70703
		c-1.87988-4.54785-3.16992-9.33838-4.65039-13.82275c-43.62402-6.89941-175.84961,36.37451-192.00781,63.27344
		c10.60156-3.11279,20.63086-5.979,31.17188-5.82031c-12.91992,3.91309-24.98438,9.79395-37.20703,15.1875
		c-24.20898,10.66455-41.24023,28.89063-53.43457,52.01367c-1.5752,2.9751-1.43848,5.58398,0.34863,8.51758
		c6.12109,9.98682,13.9375,18.5083,22.36621,26.52832l0.34473-0.0918l0.07813-0.33838
		c-2.50586-6.52197-3.82813-13.25195-3.23926-20.24609c0.4043-4.87598,2.35449-8.86621,7.3252-10.69287l-0.03516,0.04248
		c-1.61426-6.92041-7.63672-5.11572-12.55469-5.76416c1.88672-4.15283,4.81055-3.77197,7.86914-2.91553
		c10.42773,2.90869,17.7998,10.34717,25.32031,17.42969c2.98828,2.82373,5.11133,6.56396,7.625,9.88867
		c0.83594-0.77881,1.66699-1.55469,2.49902-2.33008c-4.62402-12.65625-12.74414-23.06348-24.46973-33.60449
		c8.35254,1.93896,12.02148,5.95801,15.25781,10.5166c6.46582,9.11279,10.72461,19.31592,14.70117,29.68018
		c3.60645,9.40918,13.81641,14.03467,23.40137,10.16357c-7.45996-7.28711-10.63574-16.45996-12.67676-26.17627
		c-1.88281-8.94678,0.38477-22.42822,4.80762-27.7832c-2.62207,32.69434,5.67969,51.16748,27.1748,60.46387
		c26.83398-23.74365,72.33398-44.26123,104.45703-47.10645l-0.04492-0.0459c-3.7832,1.01563-7.61523,1.90381-11.34961,3.0708
		c-18.93164,5.89111-37.4043,12.86426-54.22266,23.61328l0.08008,0.3418l0.33496,0.06348
		c12.10254-3.7085,24.13379-7.61865,36.2998-11.0874c20.92773-5.96484,42.24219-9.03174,64.07813-7.57227
		c-12.97266,1.3501-25.91406,2.83057-38.56445,6.79297c14.66992,1.06494,29.56445,0.19775,43.04883,7.38281l0.03516-0.00391
		c-13.81641-2.24951-27.6709-3.14844-42.0752-1.85449c0.52539,12.10254-0.76465,23.80029-8.96582,32.16895
		c-6.63086,6.77637-19.60059,16.30176-32.94727,18.7627c6.75781,2.31934,13.24023,7.57568,20.03125,5.65479
		c10.41406-2.95459,20.29199-7.96045,28.60059-15.31787c8.2334-7.28027,9.85059-14.07715,6.02832-24.49121
		c-1.03223-2.80615-2.06055-5.6123-3.51758-9.58203c17.44727,12.46924,12.76953,26.12354,2.61914,36.29395
		c-11.12891,11.13672-28.67969,18.20508-27.4873,17.60596c2.55176,2.07666,13.19141,8.7041,15.94434,11.53516
		c-0.36914,0.36279-0.74316,0.72949-1.10938,1.09619c-15.07129-6.64844-29.72656-14.30225-45.65039-18.9209
		c3.3418,1.99561,6.90625,3.47949,10.45703,4.97119c7.08203,2.96826,7.28516,3.11963,9.10938,7.46973
		c-20.67773-9.76514-41.51953-16.20605-65.52344-18.07764c6.7832-4.94287,12.87891-3.20801,19.63672-5.66211
		c-9.53516-4.29004-16.96094-9.35303-23.80273-15.40576c-0.53906,0.78955-1.07617,1.57959-1.61523,2.36572
		c2.61523,2.32324,5.23535,4.64258,7.84375,6.9624c-10.03711-2.18555-18.50488-7.70654-28.80957-8.46436
		c-9.68066-0.71924-19.28027-2.41846-30.60449-1.84717c9.22949,5.82373,16.89063,10.66064,24.55469,15.49414l-0.02832-0.04297
		c7.74512,4.16748,14.81738,9.26172,20.96973,15.56836c6.36719,6.51855,7.17773,11.77148,2.67578,16.24854
		c-5.90234,5.8667-20.14844,7.6499-24.88281,3.12744c-0.53906-1.94629,2.24609-3.42725,0.29297-6.15186
		c-11.95898,0.15869-24.05078,1.55127-35.13379,7.55811c-4.50195,2.43652-8.38965,2.62305-12.21582-0.93018"/>
	<path id="Face_1_" fill-rule="evenodd" clip-rule="evenodd" fill="#666666" d="M131.74902,321.36426
		c-14.1543-7.26514-25.93262-17.44678-35.8877-29.6416c-4.84766,0.41309-8.13477,3.0249-10.06934,6.69531
		c-3.66992,6.97656-5.37207,14.85254-3.2334,22.34375c5.90625,20.62305,17.93359,36.75586,37.62305,46.28125
		c3.99805,1.93555,8.39844,3.95215,13.68652,1.77637c-4.2627-11.46777-9.7334-22.64941-5.57324-36.93848
		c0.57715,2.33789,0.85547,2.97461,0.88477,3.61719c1.47656,41.12695,33.90625,58.27441,62.22266,56.45898
		c31.6748-2.03711,82.13867-28.08008,90.41504-37.1543c12.35059-10.63965,13.39648-18.01074,4.40723-31.34082l-0.0459,0.03906
		c10.3291,5.66162,12.37012,18.43066,4.52637,28.48145c-4.82227,6.17969-10.94238,11.04492-16.59766,16.60938
		c25.2627-10.97949,51.48535-19.79297,74.0332-35.80176c0.03516-2.25977-2.92578-2.81689-1.53711-6.07764
		c4.87891-2.39355,9.62793,0.31396,14.15137,2.80615c4.91406,2.7041,9.27832,6.12012,10.32227,13.2666
		c-3.43652-2.3457-5.91504-4.01855-8.39746-5.69727c-0.41992-0.02148-0.61719,0.17285-0.59961,0.5918
		c4.74512,5.99707,9.49805,11.98242,14.24609,17.98047c-0.35938,0.3623-0.72559,0.71094-1.08203,1.07031l-0.03906-0.03125
		c0.35938-0.36328,0.72656-0.71582,1.08203-1.0752c6.33887,7.42871,11.99707,15.37109,17.20117,23.6377
		c-0.35645,0.35645-0.71582,0.7168-1.08203,1.07617l-0.03516-0.0459c0.35547-0.35254,0.71484-0.71582,1.07813-1.07324
		c8.24219,12.0957,16.89063,24.00488,21.83203,37.95215c6.01172,17.0127,3.4668,31.0166-14.36914,37.89063
		c-0.62695,0.25098-1.125,0.83887-1.62891,1.22266c-3.75391,12.0498-10.23047,22.47559-17.63281,32.40234"/>
	<g id="Forehead_1_">
		<path id="forehead-accent_5_" fill-rule="evenodd" clip-rule="evenodd" d="M379.4707,162.48193
			c-7.14551-4.30078-14.29492-8.61182-21.44141-12.91309l-0.0459,0.04541c16.43945,5.60938,30.88281,14.86328,45.05469,24.625
			l0.02441,0.03174c21.26563,20.84912,19.61523,38.20117-5.25586,54.41455c-4.91113,3.19775-9.88184,6.47266-16.52344,7.21631
			c0.2959-4.80127,3.39063-5.99316,5.71875-7.62842c5.83398-4.1001,12.16211-7.57666,17.63672-12.08887
			c8.51367-7.02246,9.68457-14.45752,4.77344-24.33594c-5.10547-10.26904-13.99902-16.96729-22.6543-23.87012
			c-1.38867-1.10742-2.73926-2.26025-4.11035-3.38818l0.03516,0.03906c-1.08203-0.72998-2.16797-1.45996-3.25-2.18604
			L379.4707,162.48193z M397.67188,225.71729c0.36328-0.35986,0.72656-0.72656,1.08008-1.08252
			c0.35938-0.35596,0.71484-0.71533,1.07813-1.0752c0.35547-0.35986,0.71289-0.71533,1.07227-1.0752l0.04199,0.0459
			c-0.35938,0.35596-0.71191,0.71191-1.0791,1.07178c-0.35254,0.35596-0.70898,0.71924-1.06836,1.0752
			s-0.72656,0.71533-1.08594,1.0752L397.67188,225.71729z M405.18164,220.35889l0.03906,0.03125L405.18164,220.35889z
			 M409.47266,217.13281l0.03809,0.04248L409.47266,217.13281z"/>
		<path id="forehead-accent_4_" fill-rule="evenodd" clip-rule="evenodd" d="M207.81641,178.56836
			c17.54199-21.97705,41.44141-33.70947,67.56055-41.86035l-0.03906-0.0459c-12.24414,6.09912-23.8457,13.31543-35.57422,20.31006
			c-8.62988,5.14355-16.40723,11.19336-23.35156,18.38818c-0.36719-0.36621-0.73828-0.72949-1.10742-1.09619
			c0,0,0.03906-0.0459,0.04102-0.04248c0.37109,0.3667,0.73828,0.73682,1.11133,1.09668
			c-11.6875,12.38086-21.04688,26.46875-30.08984,40.79541l0.04297-0.0459c-0.50391,1.35742-1.0293,2.68994-4.40625,2.85547
			c-0.81055-12.63086,2.27734-24.40576,6.57422-36.01514l-0.0498-0.04199c-1.55176,7.7876-3.11523,15.57471-4.66699,23.35596
			c8.78125-8.92334,15.63867-18.93164,23.99414-27.70264L207.81641,178.56836z M199.23926,191.39404
			c0.3584-0.3667,0.72559-0.72266,1.0791-1.08594l0.04883,0.04199c-0.36328,0.36328-0.72656,0.71973-1.09277,1.0752
			L199.23926,191.39404z"/>
		<path id="forehead-accent_3_" fill-rule="evenodd" clip-rule="evenodd" d="M205.71875,257.88965l-0.06348,0.06348
			c-0.84668,0.6416-1.63965,1.36816-2.55176,1.90039c-0.38086,0.22559-1.00195,0.03857-2.53516,0.03857
			c3.1582-7.0293,35.21094-37.68604,47.49023-46.62988c21.3291-15.54004,44.16602-28.75684,69.4668-37.07324
			c2.35938-0.78271,4.80273-1.29004,7.21094-1.92139l-0.05371-0.06348c-22.36426,8.68652-43.19043,20.21777-62.74805,34.0625
			c-4.50488,3.18701-8.8584,6.58496-13.28418,9.88867"/>
	</g>
	<g id="Ears_1_">
		<path id="ear_1_" fill-rule="evenodd" clip-rule="evenodd" fill="#666666" d="M213.16016,111.14893
			c1.27734,1.68164,2.56055,3.37012,4.28711,5.64404c-19.66016,10.74561-40.39648,19.04785-57.87305,32.94482l0.01367-0.01758
			c-0.37988,0.38428-0.75391,0.75781-1.13086,1.13525l0.01758-0.01025c-0.71191,0.35938-1.41992,0.71191-2.13281,1.06787
			l0.01758-0.01025c-4.0957,3.08057-7.29102,7.33936-12.06738,9.47949c-15.26465-16.85449-18.56738-18.88916-31.33301-18.88574
			c4.58301,3.16602,10.71289,3.11328,13.04395,8.57764c-13.06934,5.0166-43.33105-2.4043-51.18848-13.11475
			c-5.19727-7.0752-11.52148-14.36572-7.13672-25.05811c8.85254,1.24072,17.23926,2.31934,25.8418,1.90332
			c17.60938-0.85645,33.77637-7.29736,50.48633-11.71826c12.33301-3.27148,24.92188-4.52686,37.69434-4.1001
			c11.97266,0.39844,21.95996,5.66895,31.50586,12.20508C213.20605,111.18457,213.16016,111.14893,213.16016,111.14893z"/>
		<path id="ear-inner_1_" fill-rule="evenodd" clip-rule="evenodd" fill="#999999" d="M450.89551,115.54541
			c-12.68457,8.76025-23.46875,16.94971-37.27051,19.35791c-3.95117,0.69434-7.83008-0.07422-11.43359-1.88965
			c-8.19922-4.13867-9.78223-12.71289-3.47461-19.27344c7.11719-7.40332,15.02148-11.66895,25.73047-7.33984
			C432.5,109.6543,440.86523,112.11475,450.89551,115.54541z"/>
	</g>
	<g id="Eyes_1_">
		<g id="iris_3_">
			<path id="iris_5_" fill-rule="evenodd" clip-rule="evenodd" fill="#FF6600" d="M269.23242,249.76758
				c-2.9082,13.92529,1.55078,18.58203,20.81641,21.72314c-4.82617,7.08252-17.36523,8.1333-25.18457,2.12939
				c-7.46973-5.74268-7.95996-14.55615-1.30762-21.98779c1.43164-1.59717,3.11719-2.2915,5.1543-2.37598
				C268.88672,249.42188,269.05957,249.59814,269.23242,249.76758z"/>
			<path id="iris_4_" fill-rule="evenodd" clip-rule="evenodd" fill="#FF6600" d="M142.73047,246.84473
				c2.48633,0.76855,3.87109,2.28125,4.83984,4.0791c-0.93359,3.36328-1.81445,6.57471-2.75,9.93408
				c-2.30078,1.56201-4.32422,1.25928-5.50586-1.44141C137.09668,254.31836,138.66895,250.21143,142.73047,246.84473z"/>
		</g>
		<path id="eye-accent_1_" fill-rule="evenodd" clip-rule="evenodd" d="M324.24609,255.59521
			c17.8457-7.09668,35.89551-5.02393,53.91699-2.90186c-6.19824,0-12.41309-0.26807-18.59277,0.07764
			c-6.16602,0.3418-12.30371,1.3042-20.95508,2.28076c7.19141,3.93066,12.76563,6.25049,16.55176,11.01709
			c3.9834,5.02051,4.97754,10.23779,1.60059,18.04639C355.33594,262.04297,337.63574,261.72559,324.24609,255.59521z"/>
		<path id="eye-white_7_" fill-rule="evenodd" clip-rule="evenodd" fill="#FFFFFF" d="M290.40625,257.01563
			c-1.33594,2.83789-3.71973,3.97314-6.59375,3.16943c-3.14063-0.87451-4.90332-3.22949-5.48828-6.68457
			c5.68652-3.53223,9.55273-2.20654,12.11719,3.55371L290.40625,257.01563z"/>
		<path id="eye-white_6_" fill-rule="evenodd" clip-rule="evenodd" fill="#FFFFFF" d="M274.35547,284.88721
			c-14.2041,5.3374-27.75293,2.64063-40.87891-3.60254c-6.06641-2.8877-11.99902-6.11328-17.18164-10.58691
			c5.86328-6.30371,24.00488-14.68359,33.21289-15.4834c0.14453,0.48633,0.46484,1.00098,0.4043,1.47363
			c-2.08984,17.42236,3.09961,24.08838,20.94141,26.93408c1.19141,0.18994,2.30664,0.86377,3.45898,1.30762L274.35547,284.88721z"/>
		<path id="eye-white_5_" fill-rule="evenodd" clip-rule="evenodd" fill="#FFFFFF" d="M154.13867,258.39404
			c1.3291,0.57813,2.03418,0.71582,2.49609,1.12793c0.60645,0.53613,1.0332,1.29395,2.05859,2.66895
			C155.13672,262.7832,153.94434,262.03564,154.13867,258.39404z"/>
		<path id="eye-white_4_" fill-rule="evenodd" clip-rule="evenodd" fill="#FFFFFF" d="M134.08984,263.46338
			c-8.53125-2.80615-9.48633-8.87305-11.20117-14.07666c-2.32227-7.03711-0.15039-12.5083,6.82617-15.95605
			c3.51563,2.02686,6.13086,4.81934,8.61523,8.29541C132.64063,247.34863,131.00195,254.09668,134.08984,263.46338z"/>
	</g>
	<g id="Mouth_1_">
		<g id="Gum_1_">
			<path fill-rule="evenodd" clip-rule="evenodd" fill="#CC3333" d="M326.125,353.85547
				c-2.375,6.3457-7.08301,10.95605-11.58789,16.12695c-3.69141-1.97754-7.08203-3.80273-11.91211-6.39063
				c8.32324-3.7334,15.63086-7.01563,22.94629-10.29785C325.75488,353.47754,325.94141,353.66406,326.125,353.85547z"/>
			<path fill-rule="evenodd" clip-rule="evenodd" fill="#CC3333" d="M360.42383,352.05273
				c-1.58984,0.67383-2.99023,1.27344-4.60449,1.94922c-3.21191-3.60547-6.33203-7.11719-9.56152-10.73828
				c2.27441-2.73438,4.85156-4.32813,8.36914-4.97852C357.5293,342.41406,359.09375,347.00781,360.42383,352.05273z"/>
			<path fill-rule="evenodd" clip-rule="evenodd" fill="#CC3333" d="M283.96094,371.78125
				c-3.30273,4.76953-5.6123,10.27344-10.25977,14.68359c-2.11719-2.60547-3.97949-4.88672-6.22461-7.65039
				c5.55273-3.13672,10.91113-5.35547,16.53027-6.99121L283.96094,371.78125z"/>
			<path fill-rule="evenodd" clip-rule="evenodd" fill="#CC3333" d="M330.89063,415.24512
				c-3.28125,0.63184-5.42871,1.03711-7.63477,1.46777c-1.19922-3.44141,0.44336-5.91016,0.83105-9.91016
				C326.62891,409.95703,328.33887,412.07227,330.89063,415.24512z"/>
			<path fill-rule="evenodd" clip-rule="evenodd" fill="#CC3333" d="M251.91797,420.0293
				c1.29492-2.47852,2.62109-3.80371,4.56641-4.61816c2.05566,0.96582,3.02539,2.6582,3.39453,5.17285
				C257.16504,421.65039,254.66797,421.75,251.91797,420.0293z"/>
			<path fill-rule="evenodd" clip-rule="evenodd" fill="#CC3333" d="M283.71777,420.5127
				c0.00293-2.5459,1.44531-3.41895,3.16895-4.1416c1.80469,0.55957,2.18945,1.99805,2.47168,3.57813
				C287.61035,421.64063,285.84375,421.45313,283.71777,420.5127z"/>
		</g>
		<g id="Teeth_1_">
			<path id="tooth_19_" fill-rule="evenodd" clip-rule="evenodd" fill="#FFFFFF" d="M361.23438,406.10156
				c-6.41309,3.69336-13.52734,5.60742-20.66211,6.71094c-5.67578,0.87891-8.42578-4.98438-13.5166-7.4668
				c11.4541-14.27734,22.43164-27.94824,31.03418-45.54688c4.99219,16.60352,8.9082,31.10742,3.10156,46.33789L361.23438,406.10156z
				"/>
			<path id="tooth_18_" fill-rule="evenodd" clip-rule="evenodd" fill="#FFFFFF" d="M327.17578,397.46484
				c-1.9043-10.32715,2.08984-20.51172-6.22656-28.59961c7.54102-6.94824,7.55176-19.68555,19.05273-23.13281
				c11.54492,5.45313,13.94531,11.91211,8.36816,22.83984C343.07422,378.94141,336.21875,388.20898,327.17578,397.46484z"/>
			<path id="tooth_17_" fill-rule="evenodd" clip-rule="evenodd" fill="#FFFFFF" d="M290.14063,414.58203
				c10.46289-12.50391,17.96289-26.73242,27.67188-40.61914c8.0166,15.39258,1.95605,29.37012-0.28711,43.17969
				C306.33984,422.3418,296.52539,421.51367,290.14063,414.58203z"/>
			<path id="tooth_16_" fill-rule="evenodd" clip-rule="evenodd" fill="#FFFFFF" d="M284.86035,411.25098
				c-0.21875-10.26855,0.80762-18.43457-3.63477-25.29395c7.48438-17.69043,13.31543-25.13281,29.40137-12.93164
				C307.87402,388.77344,295.40527,397.93945,284.86035,411.25098z"/>
			<path id="tooth_15_" fill-rule="evenodd" clip-rule="evenodd" fill="#FFFFFF" d="M245.97559,420.9082
				c0.8252-12.48047-1.84082-22.12695-7.5166-31.48926c7.49805-2.88379,14.22852-5.64453,21.08594-8.02051
				c3.04883-1.05469,5.66406,0.81738,7.50195,3.05664c2.48242,3.01367,2.68945,6.51855,0.71484,9.98438
				C262.4043,403.86133,254.38672,411.05664,245.97559,420.9082z"/>
			<path id="tooth_14_" fill-rule="evenodd" clip-rule="evenodd" fill="#FFFFFF" d="M278.60156,391.08301
				c2.54297,18.96289,2.50781,24.12012-0.19922,29.80957c-11.70898,2.36328-14.62305,1.27344-19.47852-7.70898
				c5.41211-6.59961,9.45898-14.58496,16.09375-20.65234c1.06445-0.97949,1.94238-2.15332,3.63477-1.40039L278.60156,391.08301z"/>
			<path id="tooth_13_" fill-rule="evenodd" clip-rule="evenodd" fill="#FFFFFF" d="M218.58301,416.86328
				c5.12207-8.61523,10.24805-17.23242,15.42285-25.93945c7.22461,6.54688,10.55566,21.56445,6.3457,29.16992
				c-7.10645-1.06543-14.4541-2.16992-21.80664-3.27246L218.58301,416.86328z"/>
			<path id="tooth_12_" fill-rule="evenodd" clip-rule="evenodd" fill="#FFFFFF" d="M228.2002,392.96484
				c-3.71973,8.76758-8.50684,15.15918-12.85449,21.52734c-1.88477,0.86621-3.37305,0.49609-5.39258-0.52637
				c-0.85742-4.55762-1.75586-9.36719-2.74316-14.60156C214.11621,397.2627,220.50098,395.31348,228.2002,392.96484z"/>
			<path id="tooth_11_" fill-rule="evenodd" clip-rule="evenodd" fill="#FFFFFF" d="M176.40039,399.68164
				c5.44434,0.71875,9.79492,0.33105,13.81738,2.20898c0.81738,1.89648-0.01074,3.09961-1.42773,4.31934
				C184.68555,404.97266,180.66016,403.52734,176.40039,399.68164z"/>
			<path id="tooth_10_" fill-rule="evenodd" clip-rule="evenodd" fill="#FFFFFF" d="M192.29395,407.83203
				c-0.4541-2.39453,0.39453-4.0957,1.73145-5.82813c2.77441-0.73633,5.59473-1.92773,8.87988-1.27246
				c2.22168,3.37695,1.94238,7.34668,2.81738,11.77441C200.33594,412.24805,196.26367,410.05273,192.29395,407.83203z"/>
		</g>
	</g>
	<g id="Nose_1_">
		<path id="Nose-tip-accent_1_" fill-rule="evenodd" clip-rule="evenodd" fill="#999999" d="M197.08789,305.28174
			c0.88867,1.49805,1.76758,2.98975,3.13867,5.30176c-31.28516-16.6499-62.24512-31.30176-98.00195-32.6167
			c1.25781-5.25586,5.05078-5.83447,8.96094-6.32813c20.91211-2.64697,39.87109,3.33838,57.92188,13.20947
			c10.22656,5.5918,19.58691,12.39551,28.0127,20.46875L197.08789,305.28174z"/>
		<path id="Nose-accent_1_" fill-rule="evenodd" clip-rule="evenodd" d="M260.40039,313.8623
			c-6.44727-2.86572-12.88867-5.71826-19.33984-8.58057l0.04297,0.04199c-6.44824,3.93457-12.72363,0.18018-19.04883-0.51123
			c-2.97852-0.31689-5.9082-1.06787-8.86133-1.62451c-0.37109-0.37012-0.73828-0.74414-1.10059-1.11084l0.04199-0.03516
			c0.36328,0.3667,0.73047,0.73682,1.0957,1.10303c3.38477,4.98145,8.52539,8.65479,10.8418,14.8916
			c-4.85449-1.20215-8.39063-4.19189-11.75-7.63623c1.61719,0.56104,3.23242,1.12842,4.84375,1.6958
			c0.39063,0.20117,0.7793,0.39844,1.87891,0.96289c-0.6875-1.0332-0.92383-1.3999-1.16992-1.75244
			c-3.28711-3.13037-6.5791-6.24365-10.94434-10.37891c8.5-1.31836,15.14648,1.37109,22.23926,0.45166
			c-5.30664-1.7876-10.61133-3.58203-15.92871-5.3623c17.29004,1.88965,33.78027,5.82715,47.13184,17.8667L260.40039,313.8623z"/>
	</g>
	<g id="Whiskers_1_">
		<path id="whisker_21_" fill-rule="evenodd" clip-rule="evenodd" d="M186.87109,341.23633
			c-0.83789,1.74219-1.88867,1.97852-2.92871,1.78125c-0.75098-0.14453-1.4209-0.70508-3.44043-1.78125
			C183.47656,341.23633,184.99609,341.23633,186.87109,341.23633z"/>
		<path id="whisker_20_" fill-rule="evenodd" clip-rule="evenodd" d="M224.5332,351.98926
			c-0.10156,2.32715-0.92383,2.92285-2.74609,2.07715C221.36816,351.94727,222.42188,351.61523,224.5332,351.98926z"/>
		<path id="whisker_19_" fill-rule="evenodd" clip-rule="evenodd" d="M97.2002,327.41406
			c0.58496-0.54639,1.17383-1.09277,2.54883-2.35498c0,2.8418,2.08301,5.56982-2.54883,4.57959l-0.03516,0.03174
			c0-0.76465,0-1.52295-0.00391-2.27734L97.2002,327.41406z"/>
		<path id="whisker_18_" fill-rule="evenodd" clip-rule="evenodd" d="M154.375,330.8125
			c0.92383-0.43359,1.47266-0.70508,2.50977-1.19482c0.0459,0.98389,0.32813,1.79736,0.05273,2.07568
			C155.76758,332.91016,155.30859,331.81836,154.375,330.8125z"/>
		<path id="whisker_17_" fill-rule="evenodd" clip-rule="evenodd" d="M110.35352,336.45313
			c-0.98047-1.0293-0.7793-1.73047,0.54883-2.15039c1.09375,0.52832,0.9668,1.25586,0.42773,2.07617
			C111.00879,336.40723,110.69141,336.43164,110.35352,336.45313z"/>
		<path id="whisker_16_" fill-rule="evenodd" clip-rule="evenodd" d="M228.13281,342.93652
			c0.30273-0.32715,0.61719-0.65918,0.92383-0.98438c0.27148,0.34668,0.54297,0.68848,0.80469,1.02637
			c-0.39258,0.22656-0.79395,0.44727-1.19141,0.66309C228.49023,343.4082,228.30957,343.16992,228.13281,342.93652z"/>
		<path id="whisker_15_" fill-rule="evenodd" clip-rule="evenodd" d="M182.44727,368.43555
			c-0.67676-1.3125-0.16602-1.83398,1.1875-1.88672C184.14453,367.77344,183.93164,368.4668,182.44727,368.43555z"/>
		<path id="whisker_14_" fill-rule="evenodd" clip-rule="evenodd" d="M164.81348,353.98828
			c-1.20605,0.42383-1.6709,0.17969-1.74902-0.71191C163.79492,352.57129,164.20703,353.07227,164.81348,353.98828z"/>
		<path id="whisker_13_" fill-rule="evenodd" clip-rule="evenodd" d="M211.00391,347.49805
			c0.5-2.41406,1.44141-2.61621,3.03125-1.50781C213.79883,347.9248,212.94238,348.28711,211.00391,347.49805z"/>
		<path id="whisker_12_" fill-rule="evenodd" clip-rule="evenodd" d="M328.41992,300.84326
			c29.46094-15.5752,61.02441-19.59082,93.8418-16.31934C389.83594,283.30078,358.51172,288.2998,328.41992,300.84326z"/>
		<path id="whisker_11_" fill-rule="evenodd" clip-rule="evenodd" d="M407.16211,333.89746
			c-12.38379-7.41064-24.83594-14.59521-39.06445-18.12793c-6.01367-1.4873-12.14063-1.29736-19.41406-1.31494
			c2.83789-5.59082,6.91406-5.97168,10.8125-5.9082c15.22266,0.25,27.64648,7.27979,38.93164,16.73145
			C401.55078,327.89697,404.25781,331.01758,407.16211,333.89746L407.16211,333.89746z"/>
	</g>
	<path id="Outline_1_" fill-rule="evenodd" clip-rule="evenodd" d="M30.88379,374.96875
		c6.40918-9.60352,12.80859-19.20996,19.20996-28.82813c0.00391,0,0.27832-0.27734,0.27832-0.27734
		c2.09863-3.17383,4.20215-6.35645,6.2998-9.54102l-0.03906,0.03906c2.40527-4.37891,4.84766-8.73242,7.20605-13.12451
		c3.30762-6.12744,5.78906-12.27539,6.41699-19.56299c1.04004-12.10938,8.45703-20.48926,19.51563-25.87646
		c0.49121-5.04102,2.23926-9.29639,7.64453-11.00928c1.70215-0.53613,2.01953-1.8584,1.0459-3.40186l0.0459,0.04541
		c-10.48438-9.64209-16.75195-21.70557-19.52344-35.49023c-1.0752-5.30176,1.74805-10.05029,4.84375-14.32666
		c12.24805-16.9502,27.3252-30.55127,46.45801-39.43555c5.43945-2.52734,5.99902-3.79297,5.04395-8.92578
		c-8.24219-0.64551-16.75781-0.84619-25.125-2.05176C90.5332,160.35303,72.91992,153.20313,60.71973,136.5
		c-4.8877-6.68066-8.33105-14.14014-3.88574-22.42139c4.28711-7.99561,12.04004-10.07227,20.20898-9.16943
		c15.94434,1.75879,30.71875-3.04932,45.7793-6.71582c16.94727-4.125,33.60156-9.8252,51.28516-10.27344
		c21.01367-0.53906,39.31738,5.97217,54.24121,21.12451c0.86621,0.87793,1.87207,1.61133,3.34473,2.86572
		c37.1543-15.47949,76.99121-19.29395,116.8457-24.53662c1.15234-3.51074,2.03809-7.15625,3.50781-10.54102
		c9.91016-22.77393,29.80664-33.12402,52.04492-37.94336c28.64844-6.21875,55.17285,1.73096,79.19922,18.1626
		c24.84961,18.38818,49.05469,28.48877,63.60059,34.89453c7.85449,3.46191,16.67871,7.15967,16.43848,17.52441
		c-0.22168,10.2627-9.25,13.21338-17.09766,16.05811c-17.8418,6.4624-36.49414,5.86279-55.07324,5.50342
		c-7.36133-0.14111-13.96387,1.98828-20.39844,5.87695c5.84473,10.23438,11.4834,20.1123,17.1123,29.99023l-0.05273-0.05615
		c10.59766,15.74072,16.83789,33.90674,27.5293,49.60254c1.9082,2.78809,3.71289,5.64746,5.76172,8.77051
		c16.65723-3.71191,33.0918-7.37842,50.96289-11.36914c-9.05371,16.31934-17.3916,31.36865-25.9082,46.73242
		c3.49023,5.38721,6.84961,10.59033,10.4375,16.13965c25.17188-1.06152,50.28027-2.12256,75.3877-3.18359
		c0.35645,0.85986,0.70508,1.72021,1.06152,2.58398c-13.95703,16.71729-31.46777,30.12109-45.75586,46.82422
		c10.10742,22.49854,14.33398,46.60205,19.80469,70.86084c21.4375,9.70898,43,19.4668,64.69824,29.29199
		c-1.32129,2.67676-3.50098,2.57129-5.22754,3.0918C645.92773,432.49219,625.26172,438.73145,604.5957,445
		c-2.36523,0.71582-4.78027,1.21289-6.06445,3.86133c-9.50781,19.60059-20.09375,38.61621-31.68164,56.9375
		c1.25488,4.77344,4.62109,7.94336,6.7793,11.79199l0.05957,0.05664c9.20117,13.04102,16.66504,27.22949,27.93457,40.69043
		c-23.49219-1.94629-43.29883-11.02441-63.85449-17.17578c-3.18066,2.62305-6.18457,5.10938-9.18457,7.58984l0.05371-0.05273
		c-15.78418,13.55176-33.15332,24.70215-51.53125,34.36914l0.04297-0.03906c-6.18457,3.49023-12.37109,6.98438-18.81152,10.61914
		c0,13.0332,0,26.28809,0,39.29688C447,621.43164,435.71484,609.9707,425.09375,599.18945
		c-26.84961,4.27637-51.71094,3.45508-76.63184,0.89941c-2.94043,2.41504-3.84961,6.00098-5.32324,9.16211
		c-6.90625,14.8252-13.66211,29.71582-20.47266,44.58984c-0.3623,0-0.71484,0-1.06738,0
		c-0.59277-4.03223-0.99805-8.09473-1.78418-12.08203c-3.24414-16.40723-6.60547-32.79395-9.94531-49.29199
		c-15.17969-2.85156-28.88281-8.48145-42.81543-14.12988c-19.07617,9.47559-38.12695,18.93457-58.71973,29.14746
		c5.07324-14.19531,9.51953-26.62891,14.15137-39.63477c-5.02637-0.45898-8.91211-1.01953-12.81152-1.15039
		c-17.71875-0.5918-35.18945-2.9668-52.28516-7.63477c-29.39063-8.03809-55.3623-21.39941-71.64941-48.6582
		c-3.45117-5.76367-6.7334-11.28125-13.0166-14.25977l0.04688,0.04102c-4.56934-2.78711-9.14258-5.56934-13.71094-8.35742
		c-0.02734-0.32813-0.20117-0.49414-0.52441-0.50098c-18.06836-12.10254-32.62402-26.86621-37.47559-49.05957
		c-1.02539-4.65039-2.01563-9.31348-3.01465-13.96484c0-2.15234,0-4.29688,0-6.43945
		c2.20801-10.18164,2.58496-20.7793,6.97363-30.45215c1.89648-4.18848,3.93164-8.32715,5.90527-12.47949 M449.24609,623.7793
		l-0.04688,0.04297C449.19922,623.82227,449.24609,623.7832,449.24609,623.7793z M395.58984,111.07471l0.03516,0.03564
		L395.58984,111.07471z M522.15039,534.78125c-10.96289-5.02344-12.64844-8.3584-9.35547-20.02148
		c4.46289-15.85938,16.49414-22.95605,31.45996-26.26367c6.76465-1.49023,11.95801,0.71484,14.4082,7.67969l-0.04199-0.0293
		c1.58984-2.15039,3.29297-4.2207,4.73828-6.44531c7.29004-11.26953,12.71289-23.53516,18.89258-35.38672l-0.03906,0.03516
		c2.21094-4.97461,0.40527-9.29297-1.13867-14.21094c-4.49121-14.34961-2.62695-28.1543,6.53516-40.52734l-0.03516,0.03516
		c0.72266-4.45703,5.08008-6.25879,7.41406-9.93555c-2.22754-11.14648-4.48438-22.41406-6.74023-33.68555
		c-3.78906,16.57715-6.0918,32.95508-10.4707,48.96875c-7.05664,25.84375-18.45117,49.19336-37.39063,68.67383l0.04688-0.04492
		c-35.44141,41.27441-87.94824,62.4873-136.75,72.78125c-34.70117,7.31152-69.98242,5.84473-105.04297,7.81152
		c-11.04102,0.62793-20.98633,5.33496-31.54102,8.43262c12.60645,7.6543,26.08789,11.62695,40.25684,15.26172
		c0.74707-4.4873,0.62695-8.95117,4.85059-10.79785c13.79883-6.04199,27.76953-6.2959,41.39453,0.2373
		c4.83691,2.31152,6.76563,6.50977,3.66699,12.07617c-1.58301,2.8457-3.54395,5.80078-3.21875,10.16113
		c19.78809,2.38965,39.46289,4.02637,59.79004-1.41406c-1.39648-2.20996-2.63281-2.37207-3.55273-3.83887l-0.93164-1.09961
		c-10.38867-10.35059-11.84863-21.00781-3.03906-28.75293l5.58496-3.87402c13.60449-6.81152,18.93848-5.75391,32.84961-4.47461
		c6.93457,0.64844,10.49512,4.24414,10.84375,11.42578c0.32129,6.62793,1.30176,13.22461,2.09473,20.76465
		c3.46484-1.8584,5.77734-3.07715,8.08008-4.33691c46.29883-26.37305,55.23242-36.61816,56.33887-39.25781 M159.63867,149.68506
		c17.4707-13.90039,38.21484-22.20264,57.86816-32.94482c-1.72754-2.28076-3.00684-3.96631-4.28223-5.64795
		c0.36719-0.36621,0.73242-0.74023,1.09961-1.10645c0.01758-0.35938,0.02148-0.71582,0.04492-1.0791
		c0,0,0.03516-0.0459,0.02539-0.03857c-0.00586,0.3877-0.01758,0.77197-0.02539,1.15967
		c-0.36914,0.3667-0.74219,0.73682-1.10938,1.10693c-9.54297-6.52881-19.52734-11.80273-31.49219-12.20508
		c-12.7832-0.42627-25.37207,0.83252-37.70508,4.10059c-16.70313,4.42432-32.87012,10.86182-50.48633,11.71777
		c-8.59863,0.41992-16.98926-0.65918-25.83398-1.8999c-4.38867,10.69287,1.93555,17.98633,7.12695,25.06201
		c7.86523,10.71387,38.12109,18.12402,51.18652,13.10742c-2.32715-5.46045-8.45801-5.41162-13.03027-8.57373
		c12.75488-0.00342,16.05859,2.02734,31.33008,18.88525c4.76953-2.14307,7.96484-6.40137,12.05664-9.47607l-0.00586,0.00391
		c0.70508-0.35645,1.41602-0.70898,2.13574-1.06494 M398.8291,108.92432l-0.03516,0.04248L398.8291,108.92432z M131.74902,321.36426
		c-14.1543-7.26514-25.93262-17.44678-35.8877-29.6416c-4.84766,0.41309-8.13477,3.0249-10.06934,6.69531
		c-3.66992,6.97656-5.37207,14.85254-3.2334,22.34375c5.90625,20.62305,17.93359,36.75586,37.62305,46.28125
		c3.99805,1.93555,8.39844,3.95215,13.68652,1.77637c-4.2627-11.46777-9.7334-22.64941-5.57324-36.93848
		c0.57715,2.33789,0.85547,2.97461,0.88477,3.61719c1.47656,41.12695,33.90625,58.27441,62.22266,56.45898
		c31.6748-2.03711,82.13867-28.08008,90.41504-37.1543c12.35059-10.63965,13.39648-18.01074,4.40723-31.34082l-0.0459,0.03906
		c10.3291,5.66162,12.37012,18.43066,4.52637,28.48145c-4.82227,6.17969-10.94238,11.04492-16.59766,16.60938
		c25.2627-10.97949,51.48535-19.79297,74.0332-35.80176c0.03516-2.25977-2.92578-2.81689-1.53711-6.07764
		c4.87891-2.39355,9.62793,0.31396,14.15137,2.80615c4.91406,2.7041,9.27832,6.12012,10.32227,13.2666
		c-3.43652-2.3457-5.91504-4.01855-8.39746-5.69727c-0.41992-0.02148-0.61719,0.17285-0.59961,0.5918
		c4.74512,5.99707,9.49805,11.98242,14.24609,17.98047c-0.35938,0.3623-0.72559,0.71094-1.08203,1.07031l-0.03906-0.03125
		c0.35938-0.36328,0.72656-0.71582,1.08203-1.0752c6.33887,7.42871,11.99707,15.37109,17.20117,23.6377
		c-0.35645,0.35645-0.71582,0.7168-1.08203,1.07617l-0.03516-0.0459c0.35547-0.35254,0.71484-0.71582,1.07813-1.07324
		c8.24219,12.0957,16.89063,24.00488,21.83203,37.95215c6.01172,17.0127,3.4668,31.0166-14.36914,37.89063
		c-0.62695,0.25098-1.125,0.83887-1.62891,1.22266c-3.75391,12.0498-18,32.03613-17.63281,32.40234
		c-14.50098,23.58105-37.39453,37.77148-61.1377,53.81543c5.72168,0,9.45215,0.22852,13.14551-0.03223
		c32.31445-2.31934,64.32422-6.46191,95.07617-17.21387c29.03223-10.14941,32.99414-12.14844,75.97656-35.89648
		c14.24609-9.71191,46.09082-41.12891,58.83496-76.79688c7.24512-20.27441,13.64355-40.57422,11.57031-62.60742
		c-1.89941-20.23193-8.69434-38.55664-19.71387-55.4541l0.04199,0.03223c-7.3252-9.24756-15.30762-17.82471-24.4873-25.31641
		c-14.78516-12.06348-29.52832-24.19482-43.90137-36.73047c-15.49121-13.50244-30.14551-27.83691-39.95703-46.29248
		c0,0-0.03809,0.03564-0.03809,0.04248c7.45898,7.44238,14.92188,14.8877,22.38574,22.33008l0.30273,0.2959
		c4.61133,4.24121,9.22266,8.48242,13.82715,12.72656l-0.03223-0.03906c6.24023,3.98779,37.5166,33.17432,44.37793,36.4248
		c-1.27637-5.29883-48.83008-75.81006-67.63477-114.41309c-5.33008,1.61816-8.48242,6.06348-13.53711,8.89844
		c1.31055-7.77051,6.32031-12.05371,11.08691-16.53809c4.78418-4.50879,10.67871-7.30811,17.77148-10.75928
		c-7.375-2.64404-13.3291-4.78076-19.38574-6.95215c-3.19727,2.39746-6.17676,4.62158-9.15918,6.85352l0.04199-0.04639
		c-10.48047,7.16357-35.02734,15.03271-35.39453,15.05371l-0.03125-0.03857c0.39063-0.01758,13.01563,7.25488,18.44141,9.80762
		c-10.62891-1.46289-19.53125-7.00146-28.91211-11.43311c-6.58984-3.11621-11.30273-7.72412-11.57031-15.32861
		c-0.28223-7.79395,3.3418-13.64648,10.26172-17.36572l-0.03516,0.03564c0.31445-0.93799,1.39648-1.77344,0.17578-3.12744
		c-4.35352-0.40186-8.63281,0.90625-12.70117,2.60547c-3.9873,1.66748-7.73438,3.94482-13.22754,6.80371
		c11.83105-11.64795,25.06543-13.90771,38.80371-12.93799c19.49609,1.37109,36.96777,10.48096,55.39453,15.94189
		c20.05957,5.94385,40.2002,9.90967,61.16602,5.93994c6.7334-1.27246,13.19531-3.30664,18.59277-7.71338
		c4.88574-3.98389,4.3252-8.21436-1.49512-10.41748c-3.47559-1.30762-7.21875-1.94629-10.86523-2.71484
		c-14.96094-3.13379-30.50195-4.42725-43.50586-13.73828l-0.04297,0.05664c7.27637,0.6377,14.19336,3.87061,21.86523,3.08789
		c-8.6416-4.85791-16.32031-10.90039-24.19531-16.64307c-17.49609-12.75146-36.42773-21.59277-58.29297-23.74023
		c-36.9248-3.63135-79.36719,19.59424-71.70313,68.6958c0.54297,3.45117,0.80469,6.94531,1.33008,11.48242
		c-4.23828-4.56201-6.15625-9.16992-8.02344-13.70703c-1.87988-4.54785-3.16992-9.33838-4.65039-13.82275
		c-43.62402-6.89941-175.84961,36.37451-192.00781,63.27344c10.60156-3.11279,20.63086-5.979,31.17188-5.82031
		c-12.91992,3.91309-24.98438,9.79395-37.20703,15.1875c-24.20898,10.66455-41.24023,28.89063-53.43457,52.01367
		c-1.5752,2.9751-1.43848,5.58398,0.34863,8.51758c6.12109,9.98682,13.9375,18.5083,22.36621,26.52832l0.34473-0.0918
		l0.07813-0.33838c-2.50586-6.52197-3.82813-13.25195-3.23926-20.24609c0.4043-4.87598,2.35449-8.86621,7.3252-10.69287
		l-0.03516,0.04248c-1.61426-6.92041-7.63672-5.11572-12.55469-5.76416c1.88672-4.15283,4.81055-3.77197,7.86914-2.91553
		c10.42773,2.90869,17.7998,10.34717,25.32031,17.42969c2.98828,2.82373,5.11133,6.56396,7.625,9.88867
		c0.83594-0.77881,1.66699-1.55469,2.49902-2.33008c-4.62402-12.65625-12.74414-23.06348-24.46973-33.60449
		c8.35254,1.93896,12.02148,5.95801,15.25781,10.5166c6.46582,9.11279,10.72461,19.31592,14.70117,29.68018
		c3.60645,9.40918,13.81641,14.03467,23.40137,10.16357c-7.45996-7.28711-10.63574-16.45996-12.67676-26.17627
		c-1.88281-8.94678,0.38477-22.42822,4.80762-27.7832c-2.62207,32.69434,5.67969,51.16748,27.1748,60.46387
		c26.83398-23.74365,72.33398-44.26123,104.45703-47.10645l-0.04492-0.0459c-3.7832,1.01563-7.61523,1.90381-11.34961,3.0708
		c-18.93164,5.89111-37.4043,12.86426-54.22266,23.61328l0.08008,0.3418l0.33496,0.06348
		c12.10254-3.7085,24.13379-7.61865,36.2998-11.0874c20.92773-5.96484,42.24219-9.03174,64.07813-7.57227
		c-12.97266,1.3501-25.91406,2.83057-38.56445,6.79297c14.66992,1.06494,29.56445,0.19775,43.04883,7.38281l0.03516-0.00391
		c-13.81641-2.24951-27.6709-3.14844-42.0752-1.85449c0.52539,12.10254-0.76465,23.80029-8.96582,32.16895
		c-6.63086,6.77637-19.60059,16.30176-32.94727,18.7627c6.75781,2.31934,13.24023,7.57568,20.03125,5.65479
		c10.41406-2.95459,20.29199-7.96045,28.60059-15.31787c8.2334-7.28027,9.85059-14.07715,6.02832-24.49121
		c-1.03223-2.80615-2.06055-5.6123-3.51758-9.58203c17.44727,12.46924,12.76953,26.12354,2.61914,36.29395
		c-11.12891,11.13672-28.67969,18.20508-27.4873,17.60596c2.55176,2.07666,13.19141,8.7041,15.94434,11.53516
		c-0.36914,0.36279-0.74316,0.72949-1.10938,1.09619c-15.07129-6.64844-29.72656-14.30225-45.65039-18.9209
		c3.3418,1.99561,6.90625,3.47949,10.45703,4.97119c7.08203,2.96826,7.28516,3.11963,9.10938,7.46973
		c-20.67773-9.76514-41.51953-16.20605-65.52344-18.07764c6.7832-4.94287,12.87891-3.20801,19.63672-5.66211
		c-9.53516-4.29004-16.96094-9.35303-23.80273-15.40576c-0.53906,0.78955-1.07617,1.57959-1.61523,2.36572
		c2.61523,2.32324,5.23535,4.64258,7.84375,6.9624c-10.03711-2.18555-18.50488-7.70654-28.80957-8.46436
		c-9.68066-0.71924-19.28027-2.41846-30.60449-1.84717c9.22949,5.82373,16.89063,10.66064,24.55469,15.49414l-0.02832-0.04297
		c7.74512,4.16748,14.81738,9.26172,20.96973,15.56836c6.36719,6.51855,7.17773,11.77148,2.67578,16.24854
		c-5.90234,5.8667-20.14844,7.6499-24.88281,3.12744c-0.53906-1.94629,2.24609-3.42725,0.29297-6.15186
		c-11.95898,0.15869-24.05078,1.55127-35.13379,7.55811c-4.50195,2.43652-8.38965,2.62305-12.21582-0.93018 M375.19141,479.00977
		c3.32422-6.45215,9.26758-11.43652,11.46875-19.43555c-22.81055,2.49219-44.73438,4.78711-66.71875,0.8916
		c6.94824-1.85059,13.96094-2.7998,20.97656-3.70801c14.3125-1.84082,29.19336-1.50195,42.55469-7.39648
		c20.74609-9.12793,29.80371-22.22852,18.99805-44.375c-9.29688-19.04688-21.61426-36.11328-33.58301-53.43359
		c-0.28516-0.41211-1.02246-0.51758-2.78809-1.37109c5.85156,18.08105,5.67188,35.37305,2.06543,53.07031
		c6.21191-0.40137,10.3584-4.92871,16.0752-4.62793c-0.02344,2.10742-1.12402,2.79199-2.58984,3.17676l0.03516-0.03906
		c-2.71484,3.03125-6.45898,4.44824-9.99512,6.07422c-47.84277,22.07227-97.4834,26.25977-148.54297,14.18555
		c-33.16309-7.83984-65.47949-17.5293-86.60449-48.02344c-16.57227,0.49707-31.28711-5.44531-45.14941-16.50977
		c-1.50879,14.86328,3.94824,25.96484,10.33691,36.79199l-0.04297-0.03906c10.15332,13.31152,23.46191,23.15137,36.51367,33.29395
		l-0.03516-0.0459c3.95117,1.54785,7.46875,3.8252,10.76172,6.47949l-0.04883-0.04492
		c9.77637,5.18164,19.54492,10.35742,29.31738,15.54297c-31.03418-7.23438-55.91699-25.53809-81.25781-44.49707
		c-5.5625,12.8291-11.84766,24.99121-13.74121,38.81055c-3.3418,24.2998,2.20313,46.37598,16.38477,66.33691l-0.03516-0.03125
		c6.69238,6.40625,12.84766,13.41113,20.89258,18.29297c36.98438,22.4707,77.10352,32.1582,119.91211,25.80176
		c33.87891-5.03027,66.47656-14.92285,94.45703-36.25781c15.01367-11.44727,27.74805-25.13965,40.41797-38.95898
		 M649.77734,418.91895c-17.22168-7.38574-33.11133-17.8916-51.91895-22.19824c-2.07324,2.87109-4.02246,5.57617-5.9834,8.29102
		l0.03906-0.03516c-1.69531,4.9248-4.46973,9.57031-4.20898,16.20996c5.84863-5.60254,10.57227-4.57715,14.85938,0.87402
		c1.43848,1.82227,3.91016,1.94629,5.96875,1.50781c13.1709-2.79492,26.31641-5.64648,39.93555-3.79199
		c0.37695,0.05176,0.8457-0.59277,1.26563-0.89258 M331.25488,410.32813l-0.03613,0.03906L331.25488,410.32813z
		 M294.75977,406.03711c0,0,0.03516,0.04199,0.03906,0.04199L294.75977,406.03711z M141.40137,377.08008l-0.03223,0.03516
		L141.40137,377.08008z M367.72852,58.51514l-0.03516,0.03516L367.72852,58.51514z M473.91602,54.21729l-0.03516,0.0459
		C473.88086,54.26318,473.92383,54.22461,473.91602,54.21729z M328.03516,350.26563L328,350.30469L328.03516,350.26563z
		 M201.43848,313.79199l0.0459,0.0459L201.43848,313.79199z M80.23926,286.97803c0,0,0.03613,0.04199,0.03906,0.04199
		L80.23926,286.97803z M93.10352,273.03125l0.04297,0.04248L93.10352,273.03125z M93.11523,254.80176l0.03125,0.03857
		L93.11523,254.80176z M518.9668,251.58643l-0.03906,0.03516L518.9668,251.58643z M151.0293,249.43604l0.03516,0.0459
		L151.0293,249.43604z M149.98633,246.22461l-0.03906,0.03516L149.98633,246.22461z M86.66992,151.82861l0.04297,0.03857
		L86.66992,151.82861z M452.43262,144.31592l0.04199,0.04541L452.43262,144.31592z M276.55664,387.86328l-0.03711-0.04883
		L276.55664,387.86328z M290.50098,257.00146c-2.56348-5.76416-6.43457-7.08594-12.11328-3.55713
		c0.58105,3.45508,2.34473,5.81348,5.48926,6.68799c2.87598,0.7998,5.25293-0.33203,6.58203-3.17285L290.50098,257.00146z
		 M284.06641,371.77734c-5.61816,1.625-10.98047,3.8457-16.53027,6.9873c2.24219,2.75684,4.10059,5.03809,6.22363,7.64648
		c4.65234-4.41699,6.95508-9.91309,10.26563-14.68262L284.06641,371.77734z M325.625,353.24023
		c-7.3125,3.2832-14.62109,6.56152-22.94434,10.30273c4.82715,2.58691,8.22949,4.40234,11.92285,6.3877
		c4.49219-5.17578,9.20117-9.78418,11.57813-16.12988l-0.10938-0.44727L325.625,353.24023z M579.2832,314.46143l-0.28516,0.44824
		c3.6875-5.87354,9.51074-9.53271,14.66211-13.85449c7.14258-5.99707,14.53516-11.68701,22.45313-18.01172
		c-8.02344,0.33154-16.53125,4.49463-20.17578,9.8042c-2.68945,3.92725-6.01172,6.93799-10.21387,9.16602
		c-3.56055,1.88232-7.03223,4.12109-10.63184,6.24023C576.40234,311.34912,576.69922,313.20703,579.2832,314.46143z
		 M252.96973,571.27246c-5.95508-2.58691-11.67871-6.62793-19.54785-2.0625c-2.30273,5.90527-6.53711,12.2373-8.46875,21.1875
		c8.6543-5.32324,16.08301-9.82129,23.42969-14.46484c1.83984-1.16309,4.48438-1.73438,4.54102-4.70215L252.96973,571.27246z
		 M268.77734,249.20361c-2.05273,0.08398-3.72949,0.77148-5.16113,2.37256c-6.65625,7.43457-6.16895,16.24805,1.31152,21.98779
		c7.81934,6.01074,20.35547,4.94629,25.18164-2.12988c-19.26563-3.13721-23.72559-7.78711-20.81641-21.72314
		C269.29297,249.36523,269.11621,249.19629,268.77734,249.20361z M517.86719,515.49414l0.0459-0.03516
		c-0.01465,1.5293-0.83203,3.20508,0.26855,4.05664c13.59668,5.65137,26.59473,11.04883,39.58984,16.45703
		c0.53516-0.75781,1.07813-1.51953,1.61719-2.26758c-9.07031-7.84961-25.29688-9.18359-23.7041-25.8584
		c-5.52051,0.99707-9.55371,1.78418-13.18457,0.12793C519.48926,509.95508,519.17871,513.01563,517.86719,515.49414z
		 M218.59961,416.77148c7.35547,1.09766,14.71289,2.2002,21.80957,3.27539c4.20801-7.61523,0.88184-22.625-6.34961-29.17578
		c-5.17871,8.71094-10.29004,17.31641-15.41699,25.93262L218.59961,416.77148z M278.70801,391.07227
		c-1.68066-0.74805-2.56641,0.42969-3.63184,1.40625c-6.63379,6.06348-10.68359,14.04199-16.0957,20.65137
		c4.86133,8.97949,7.7793,10.06543,19.47852,7.70801c2.70703-5.69141,2.74609-10.84863,0.20703-29.80859L278.70801,391.07227z
		 M274.40625,284.83838l-0.03516,0.03516c-1.15234-0.44434-2.26172-1.10742-3.46094-1.30127
		c-17.83398-2.85547-23.03125-9.51465-20.9375-26.93701c0.06055-0.47314-0.25977-0.99121-0.40137-1.47754
		c-9.20801,0.80029-27.35059,9.17676-33.21582,15.49072c5.17383,4.46973,11.11523,7.69238,17.17969,10.58301
		C246.66602,287.47461,260.20703,290.17188,274.40625,284.83838z M197.17969,305.26025
		c-8.4248-8.06934-17.77832-14.87354-28.00781-20.46826c-18.05859-9.86768-37.01465-15.85352-57.93359-13.20947
		c-3.91016,0.49365-7.69238,1.0752-8.95117,6.33154c35.75098,1.31152,66.71484,15.96289,97.99609,32.60986
		c-1.36523-2.30566-2.25293-3.80029-3.13867-5.29883L197.17969,305.26025z M361.29102,406.04395l-0.03906,0.03516
		c5.80957-15.22559,1.88281-29.73535-3.10156-46.33398c-8.60938,17.5957-19.58789,31.26758-31.02734,45.54785
		c5.08789,2.47852,7.83691,8.3457,13.50195,7.46777C347.76367,411.65234,354.87793,409.74219,361.29102,406.04395z
		 M417.02734,563.71484c3.85938,4.625,9.32422,7.00781,14.29492,10.05469c3.63477,2.24023,5.5918,5.28027,4.44922,9.29883
		c-1.43555,5.02734,0.04297,9.42383,1.68164,13.93945l-0.03516-0.04492c4.63867,6.83496,9.27148,13.66309,15.07422,22.20508
		c1.22363-23.61914-1.40234-44.80273-3.75781-66.40039c-12.56445-2.83398-23.65527-1.45898-34.01953,5.9375
		c0.88086,1.875,1.625,3.47559,2.36523,5.0625L417.02734,563.71484z M74.9043,333.15039
		c-0.88281-0.75195-0.93262-2.47852-3.15039-2.18945c-2.28125,3.84961-4.69531,7.98438-7.16016,12.0957
		c-11.5625,19.31152-22.79883,38.74414-29.23633,60.58398c-3.83496,13.01465-2.95703,25.22754,2.93359,37.41406
		c7.45898,15.4375,19.39648,26.42969,33.68164,36.21289c-2.48242-54.24219,3.0918-57.69336,16.75195-85.28613
		c-3.01367-6.88184-6.20117-14.02734-5.94336-21.83887c0.3916-11.58594,0.63086-22.97949-6.70898-32.95313
		c-0.79688-1.06641-0.82129-2.70313-1.20898-4.07422L74.9043,333.15039z M450.94824,115.48877
		c-10.02637-3.42676-18.39551-5.88379-26.43652-9.14111c-10.71094-4.33643-18.625-0.06348-25.73633,7.33984
		c-6.31348,6.56396-4.71973,15.13428,3.47656,19.26953c3.60645,1.81201,7.47754,2.58105,11.43262,1.88965
		C427.4834,132.44238,438.27148,124.25293,450.94824,115.48877z M586.02734,545.83301
		c-12.0957-17.36523-24.19531-34.73242-36.09961-51.81543c-9.79102-0.81445-22.08398,5.50977-25.04492,12.58203
		c2.32324,1.30371,4.48828,0.07422,6.72266-0.33594c3.85742-0.71484,6.94922,0.07031,7.18555,4.7207
		c0.41895,8.04883,5.04492,12.45898,12.14063,15.26172c5.21777,2.06641,11.02734,3.76172,12.10645,11.12207
		C571.22754,540.50977,578.35938,542.15918,586.02734,545.83301z M327.23242,397.41016
		c9.03906-9.26367,15.90625-18.52148,21.19434-28.89258c5.57715-10.92578,3.17969-17.37695-8.3584-22.83496
		c-11.50781,3.44824-11.52148,16.18457-19.0625,23.12988C329.33008,376.89648,325.33203,387.08105,327.23242,397.41016z
		 M290.19727,414.5293c6.3916,6.92383,16.19922,7.75586,27.39258,2.55273c2.23535-13.80859,8.29492-27.78027,0.28516-43.18164
		C308.16016,387.79688,300.66016,402.02539,290.19727,414.5293z M353.13281,576.65234
		c-6.03516-7.98438-13.06055-10.41406-23.73242-8.11914c-5.12988,7.81934,4.64258,10.29395,5.52051,19.12598
		c-14.28516,11.25293-4.86816,28.00098-7.83008,42.75098c4.7207-8.75586,8.5166-17.77148,12.66016-26.61621
		C343.98438,594.76172,348.55664,585.89648,353.13281,576.65234z M284.91602,411.19141
		c10.54492-13.30859,23.02148-22.47461,25.77441-38.22656c-16.08594-12.1875-21.92773-4.75488-29.40918,12.93945
		C285.72266,392.76758,284.70508,400.92578,284.91602,411.19141z M246.03516,420.85742
		c8.40137-9.85938,16.42773-17.04688,21.79395-26.46777c1.9668-3.47559,1.75488-6.97656-0.72949-9.99121
		c-1.83594-2.23438-4.44238-4.10645-7.49219-3.05664c-6.85938,2.37598-13.58984,5.13965-21.0918,8.02344
		C244.19434,398.72656,246.86328,408.375,246.03516,420.85742z M620.08203,280.47363c-0.29883-0.6416-0.5957-1.28662-0.8916-1.93555
		c-18.95215,1.81934-37.8916,3.63477-57.53418,5.52441c2.76758,8.41846,9.01074,14.36914,11.68652,21.29346
		C589.68652,297.88232,600.33594,280.97803,620.08203,280.47363z M525.30957,231.94287
		c5.05566,6.90283,9.60645,13.10742,14.66895,20.02441c5.91602-9.83936,11.28516-18.77295,17.27148-28.73926
		C546.11914,226.26709,536.38672,228.92529,525.30957,231.94287z M134.14648,263.40723
		c-3.08789-9.36719-1.44531-16.11133,4.23828-21.73438c-2.48242-3.47217-5.08789-6.27148-8.61719-8.2915
		c-6.96289,3.44434-9.14453,8.91211-6.81836,15.95605C124.66992,254.53369,125.61914,260.60449,134.14648,263.40723z
		 M323.79102,610.72168c-1.91016-10.17871,4.38477-17.55664,8.68652-25.19238c-3.47949-5.5-7.92871-9.7793-7.06836-16.19238
		c-3.17285-1.02246-5.52051-0.07031-8.07324,1.69824C321.69727,583.83301,321.00586,597.43066,323.79102,610.72168z
		 M634.49023,424.95117c-6.76758-1.78418-12.72266-0.36719-18.46582,1.69141c-7.17676,2.57422-13.2627,1.62305-18.38477-4.2793
		c-0.89941-1.03613-2.1709-1.73438-3.17676-2.5c-8.24805,4.05469-9.99414,7.96484-7.01172,16.29492
		c14.76758-5.26367,30.35352-7.18457,45.60156-10.62891C633.55273,425.41309,634.01465,425.14453,634.49023,424.95117z
		 M228.25293,392.90527c-7.68457,2.35059-14.08008,4.30469-20.97949,6.41309c0.98047,5.2207,1.87891,10.03711,2.73633,14.58691
		c2.02344,1.03418,3.51074,1.39746,5.40039,0.52246C219.75293,408.06836,224.53711,401.67578,228.25293,392.90527z M412,561.6875
		c-0.94141,5.77734,13.84375,27.07715,18.875,28.57617c2.4082-12.84668,2.44336-12.91406-8.82031-18.8252
		C418.00781,569.3125,414.82715,566.38672,412,561.6875z M360.48633,352c-1.32813-5.04492-2.89355-9.64453-5.79883-13.76563
		c-3.51758,0.6377-6.0918,2.2373-8.37305,4.98047c3.22656,3.62109,6.3457,7.12793,9.56836,10.73438
		C357.48633,353.26855,358.89258,352.67383,360.48633,352z M192.35059,407.7793c3.97266,2.2168,8.05176,4.41797,13.4248,4.66992
		c-0.875-4.42383-0.5918-8.39258-2.80664-11.77441c-3.29297-0.65918-6.11328,0.54297-8.89063,1.27246
		C192.74805,403.68945,191.89648,405.38867,192.35059,407.7793z M142.79102,246.78857
		c-4.05859,3.37012-5.63086,7.47363-3.40918,12.57471c1.16895,2.69727,3.19824,3.00732,5.50195,1.43848
		c0.92773-3.35596,1.81348-6.57129,2.75-9.93457C146.66895,249.06934,145.27539,247.56055,142.79102,246.78857z
		 M330.95117,415.18945c-2.55566-3.16895-4.2627-5.28809-6.79688-8.45117c-0.39453,4.01953-2.03418,6.48047-0.83984,9.91699
		C325.52246,416.22949,327.66895,415.82031,330.95117,415.18945z M176.46484,399.62695
		c4.25195,3.83691,8.28125,5.28613,12.38867,6.52637c1.41699-1.21973,2.24609-2.4248,1.42383-4.31738
		C186.25195,399.95996,181.9043,400.34375,176.46484,399.62695z M251.98242,419.97266c2.75293,1.7207,5.24609,1.625,7.95313,0.55762
		c-0.37109-2.5127-1.33594-4.20215-3.39063-5.17578C254.59375,416.16895,253.26953,417.49805,251.98242,419.97266z
		 M283.77734,420.46289c2.12207,0.93848,3.88867,1.125,5.64063-0.56445c-0.27734-1.58203-0.65918-3.02441-2.47363-3.58105
		C285.22656,417.04297,283.77734,417.91406,283.77734,420.46289z M154.19824,258.34131
		c-0.19043,3.6416,0.99512,4.38916,4.55566,3.79346c-1.03027-1.375-1.44922-2.12988-2.0625-2.66553
		C156.23242,259.05322,155.52051,258.91895,154.19824,258.34131z"/>
	<path id="collar_1_" fill-rule="evenodd" clip-rule="evenodd" fill="#FF6600" d="M582.18848,454.36328
		c-6.17676,11.86328-11.59863,24.125-18.88965,35.39258c-1.44531,2.22656-3.15234,4.30078-4.73047,6.43555l0.03125,0.04688
		c-2.4502-6.9707-7.64258-9.18164-14.4082-7.68555c-14.95801,3.31445-26.99414,10.4043-31.46094,26.25684
		c-3.28125,11.66895-1.59961,15.00488,9.36328,20.02441l-0.04883-0.05273c-0.71484,1.09961-1.42773,2.20313-2.14355,3.30273
		l0.03809-0.02734c-16.51563,14.34082-35.12598,25.53711-54.22656,35.97949c-2.30273,1.25879-4.62109,2.48926-8.08789,4.34668
		c-0.78906-7.54688-1.77344-14.14355-2.08984-20.76367c-0.34961-7.18555-3.91406-10.78809-10.84473-11.42969
		c-13.91113-1.2832-26.09082-1.7666-38.37402,8.29199l-3.38086,3.90137c-4.50488,6.76953-4.83594,13.03125,10.84766,29.84668
		c-20.33398,5.43945-40.00195,3.80371-59.79688,1.41016c-0.31738-4.35449,1.63867-7.31543,3.22559-10.15918
		c3.09863-5.55762,1.16699-9.76563-3.66699-12.08594c-13.63281-6.52539-27.60352-6.27539-41.39453-0.22852
		c-4.22363,1.8457-4.09961,6.30957-4.85156,10.79883c-14.16406-3.63184-27.66016-7.60547-40.25195-15.25977
		c10.54785-3.0957,20.49316-7.80859,31.54102-8.42871c35.05664-1.98145,70.33887-0.50684,105.03125-7.81934
		c48.80664-10.28711,93.24023-29.14844,129.62305-64.34766c12.90625-11.53613,38.78906-45.90137,44.47852-77.05566
		c4.37207-16.00879,6.68164-32.39551,10.46777-48.97754c2.25879,11.27734,4.50879,22.54004,6.74023,33.6875
		c-2.33301,3.67773-6.6875,5.47949-7.41699,9.9375l0.04199-0.03516c-9.16895,12.38281-11.02734,26.17383-6.54004,40.5293
		c1.54492,4.91406,3.35352,9.23633,1.14258,14.20703L582.18848,454.36328z"/>
	<g id="Spikes_2_">
		<path id="spike_13_" fill-rule="evenodd" clip-rule="evenodd" fill="#FFFFFF" d="M437.39648,597.05664
			c-1.64258-4.50098-3.11914-8.9043-1.68555-13.93262c1.13867-4.01855-0.81348-7.05371-4.45215-9.2998
			c-4.9668-3.04492-10.42773-5.43262-14.29199-10.05664l0.05664,0.05664c-0.74805-1.59375-1.49121-3.18848-2.36523-5.06641
			c10.35742-7.39746,21.44824-8.76855,34.01563-5.9375c2.35547,21.59961,4.97852,42.78711,3.75879,66.4043
			c-5.80371-8.54492-10.43457-15.37402-15.07129-22.20703L437.39648,597.05664z"/>
		<path id="spike_12_" fill-rule="evenodd" clip-rule="evenodd" fill="#FFFFFF" d="M586.39355,545.83301
			c-9.70801-4.0752-13.43457-5.00293-22.99219-8.46484c-2.3623-8.46094-6.87793-9.05566-12.09863-11.12207
			c-7.10449-2.79492-11.72949-7.20605-12.14258-15.25391c-0.23633-4.6543-3.32422-5.43945-7.1875-4.72168
			c-2.23242,0.41016-4.40332,1.64063-6.7168,0.33301c2.95508-7.07617,15.25488-13.40039,25.03711-12.58203
			C562.19922,511.10352,574.29883,528.46777,586.39355,545.83301z"/>
		<path id="spike_11_" fill-rule="evenodd" clip-rule="evenodd" fill="#FFFFFF" d="M591.81641,405.07227
			c1.95605-2.71875,3.91211-5.42578,5.97852-8.30078c18.80859,4.30176,34.7041,14.82227,51.92578,22.2002l-0.04297-0.03809
			c-0.42578,0.31445-0.8916,0.94824-1.26563,0.89453c-13.61816-1.85352-26.76465,0.99023-39.93945,3.79688
			c-2.06152,0.4375-4.5293,0.31055-5.96777-1.50586c-4.29004-5.44922-9.01074-6.48242-14.85645-0.88086
			c-0.26367-6.63867,2.51758-11.28125,4.20703-16.20215L591.81641,405.07227z"/>
		<path id="spike_10_" fill-rule="evenodd" clip-rule="evenodd" fill="#FFFFFF" d="M353.07324,576.71191
			c-4.57617,9.23242-9.15234,18.10352-13.37891,27.13574c-4.14941,8.85156-7.93945,17.86328-12.65918,26.61914
			c2.9541-14.75-6.46289-31.49805,7.83008-42.75586c-0.32813-7.85059-10.65039-11.30469-5.5332-19.13184
			C340.01367,566.29102,347.04492,568.73047,353.07324,576.71191z"/>
		<path id="spike_9_" fill-rule="evenodd" clip-rule="evenodd" fill="#FFFFFF" d="M620.01953,280.52637
			c-19.73926,0.50781-30.33301,17.35596-46.67676,24.82959c-4.18457-7.00146-8.6123-13.1709-11.74316-21.2373
			c19.64063-1.88916,38.58594-3.70508,57.52734-5.52393C619.42676,279.23975,619.72266,279.88477,620.01953,280.52637z"/>
		<path id="spike_8_" fill-rule="evenodd" clip-rule="evenodd" fill="#FFFFFF" d="M252.86328,571.2832
			c-0.05273,2.96875-2.7002,3.5498-4.54102,4.71289c-7.34961,4.63281-14.77148,9.12695-23.43164,14.45508
			c1.93848-8.95898,6.16895-15.2793,8.46777-21.18164c7.87207-4.56055,13.59668-0.5293,19.54395,2.05566L252.86328,571.2832z"/>
		<path id="spike_7_" fill-rule="evenodd" clip-rule="evenodd" fill="#FFFFFF" d="M525.25586,231.99951
			c11.07031-3.021,20.80664-5.67969,31.9375-8.71484c-5.99316,9.9624-11.3623,18.89941-17.27441,28.73926
			C534.85254,245.10693,530.30859,238.89502,525.25586,231.99951z"/>
		<path id="spike-accent_9_" fill-rule="evenodd" clip-rule="evenodd" fill="#CCCCCC" d="M323.73438,610.77441
			c-2.78516-13.2832-2.09766-26.88184-6.46094-39.68262c2.55859-1.77539,4.90625-2.7207,8.0791-1.70117
			c-0.8623,6.41602,3.58496,10.69531,7.06934,16.18848C328.11328,593.21777,321.82031,600.59375,323.73438,610.77441z"/>
		<path id="spike-accent_8_" fill-rule="evenodd" clip-rule="evenodd" fill="#CCCCCC" d="M634.42773,425.00391
			c-0.47266,0.19043-0.93555,0.46191-1.43164,0.57813c-15.24707,3.44434-30.83594,5.36523-45.60449,10.62598
			c-2.98535-8.31934-1.24121-12.22949,7.0127-16.29102c1,0.76855,2.27637,1.46582,3.17969,2.49902
			c5.11816,5.90527,11.20313,6.85352,18.38086,4.2832C621.70801,424.6377,627.6582,423.21973,634.42773,425.00391z"/>
		<path id="spike-accent_7_" fill-rule="evenodd" clip-rule="evenodd" fill="#CCCCCC" d="M578.97266,314.93066
			c-2.58789-1.2583-3-3.7124-3.88086-6.67676c3.59961-2.11914,7.01172-4.30127,10.5791-6.19092
			c4.19238-2.22412,7.5166-5.23535,10.20996-9.1626c3.64453-5.30566,12.14844-9.47217,20.17188-9.80029
			c-7.91797,6.32129-15.31445,12.01465-22.45703,18.00781c-5.14258,4.32568-10.9707,7.97754-14.66211,13.85107L578.97266,314.93066z
			"/>
		<path id="spike-accent_6_" fill-rule="evenodd" clip-rule="evenodd" fill="#CCCCCC" d="M411.94727,561.74414
			c2.82324,4.69531,6.00391,7.625,10.05469,9.74609c11.25195,5.91602,11.2207,5.98242,8.8125,18.82227
			C425.78711,588.8252,410.99512,567.52148,411.94727,561.74414z"/>
		<path id="spike-accent_5_" fill-rule="evenodd" clip-rule="evenodd" fill="#CCCCCC" d="M517.80664,515.5498
			c1.3125-2.47559,1.62207-5.54199,4.63281-7.52637c3.63867,1.66406,7.66113,0.875,13.19238-0.12012
			c-1.59668,16.66797,14.62988,18.00684,23.69434,25.84863c-0.5332,0.76074-1.0752,1.51953-1.61133,2.26953
			c-12.99805-5.39648-25.98926-10.80469-39.59375-16.45313c-1.09961-0.84961-0.28516-2.53027-0.27148-4.05762L517.80664,515.5498z"
			/>
	</g>
</g>
</svg>
