<?xml version="1.0" encoding="utf-8"?>
<!-- Generator: Adobe Illustrator 16.0.0, SVG Export Plug-In . SVG Version: 6.00 Build 0)  -->
<!DOCTYPE svg PUBLIC "-//W3C//DTD SVG 1.1//EN" "http://www.w3.org/Graphics/SVG/1.1/DTD/svg11.dtd">
<svg version="1.1" xmlns="http://www.w3.org/2000/svg" xmlns:xlink="http://www.w3.org/1999/xlink" x="0px" y="0px"
	 width="699.99951px" height="700px" viewBox="0 0 699.99951 700" enable-background="new 0 0 699.99951 700" xml:space="preserve">
<g id="Layer_2">
	<rect display="none" fill="#FF6600" width="699.99951" height="700"/>
</g>
<g id="Layer_1">
	<g>
		<path fill-rule="evenodd" clip-rule="evenodd" d="M690.3042,434.76367c-1.15137,4.98828-2.16406,10.01563-3.47949,14.96289
			c-5.16504,19.42676-17.89063,33.24121-33.76465,44.4873c-7.82422,5.53906-16.10059,10.44531-24.22559,15.55469
			c-1.59473,1.00488-3.07715,1.94043-3.95313,3.70898c-14.6709,29.71484-40.02246,45.94238-70.45313,55.75586
			c-23.40918,7.54688-47.61914,9.84863-71.99902,11.05566c-0.91895,0.04492-1.83105,0.14551-3.23633,0.26367
			c4.89355,13.59668,9.70996,26.98145,14.7168,40.90039c-3.36328-0.1582-5.37988-1.86816-7.5752-2.94824
			c-17.04883-8.40625-34.08398-16.85449-51.06348-25.4043c-2.13477-1.07129-3.82324-1.31152-6.10645-0.3252
			c-12.00977,5.2002-24.16992,10.02051-37.09863,12.49805c-2.52637,0.48828-3.8418,1.39258-4.40625,4.37305
			c-3.7627,19.90527-7.86621,39.74316-11.85938,59.60449c-0.37109,0-0.73926,0-1.11035,0
			c-8.25293-17.50098-16.5-35.00488-24.75488-52.50977c-0.91309-1.93555-1.8418-2.84863-4.59473-2.54199
			c-23.58301,2.59668-47.19531,3.70801-70.74121-0.45605c-2.97559-0.52344-4.63477,0.7002-6.60156,2.71777
			c-11.0791,11.37207-22.35254,22.56445-33.68555,33.94727c-2.22852-2.67871-1.69922-5.32813-1.63086-7.77832
			c0.27441-10.55078,0.60449-21.09473,1.14258-31.63184c0.15039-2.95703-0.57422-4.35449-3.44043-5.80957
			c-27.23145-13.84277-53.48145-29.24414-76.01855-50.18945c-2.20801-2.04883-3.93848-1.67773-6.39063-0.84082
			c-15.31055,5.21289-30.41504,11.12793-46.31348,14.44727c-5.3584,1.11719-10.77148,1.9707-16.60547,3.0293
			c1.83691-4.75293,5.27344-7.72754,7.66992-11.39551c8.7959-13.43555,17.62695-26.84277,26.55664-40.18652
			c1.59766-2.3877,2.03125-4.06055,0.23047-6.82813c-11.18555-17.21094-21.02637-35.2041-29.93457-53.69531
			c-1.54688-3.20508-3.43164-5.05371-7.00977-6.11328c-24.17773-7.16211-48.27148-14.62402-72.39063-21.98535
			c0-0.37109,0-0.74121,0-1.1123c19.67383-8.76758,39.19922-17.90234,59.10156-26.12305
			c7.51074-3.10254,12.58008-6.66211,12.47559-15.44336c-0.03125-2.68164,1.11328-5.38965,1.77344-8.07617
			c4.08789-16.61719,7.06641-33.60645,14.44727-49.18555c1.99902-4.22266,1.2666-6.15625-1.6543-9.20801
			c-13.5752-14.17676-28.67578-26.82031-41.64746-41.58691c-1.0459-1.19141-2.91211-2.33789-1.98926-4.19922
			c0.7959-1.60449,2.73926-1.68848,4.4209-1.74316c1.47949-0.04688,2.9668-0.07129,4.44531-0.00781
			c18.67676,0.77734,37.49219,0.43945,55.97266,2.77539c11.7627,1.48633,18.14746-2.08398,22.81836-12.09277
			c1.3291-2.84277,1.67383-4.58789,0.08496-7.37109c-8.4873-14.8916-16.7168-29.93066-25.48926-45.7334
			c16.53711,3.80762,32.27832,7.3418,47.96387,11.10645c4.17871,1.00293,6.68457,0.39258,9.21191-3.66699
			c16.98926-27.29297,29.39355-57.18066,47.63867-83.73828c1.56934-2.28418,0.09082-2.87891-1.44238-3.52539
			c-5.61133-2.36719-11.22852-4.58301-17.53125-4.50977c-12.74316,0.14746-25.49512,0.93945-38.20605-1.0166
			c-11.17871-1.7168-22.24414-3.65137-31.6582-10.50879c-8.1084-5.90527-8.83203-14.65527-1.82715-21.87695
			c3.79785-3.91406,8.55469-6.43457,13.57031-8.42285c22.05273-8.73535,43.20313-19.125,62.19141-33.54785
			c3.08301-2.33984,6.3623-4.47266,9.73047-6.37402c36.25781-20.44727,72.53711-24.72949,108.96484-0.26367
			c12.00684,8.05957,20.55371,18.39648,23.55176,32.83008c0.41504,1.99316,0.87793,3.53516,3.73535,3.77734
			c9.56152,0.80371,19.125,1.79785,28.60742,3.24609c29.12891,4.45215,58.43359,8.28223,85.83008,20.08984
			c2.95605,1.27246,4.60352,0.55566,6.74805-1.4541c3.76953-3.52734,7.68359-6.98926,11.93652-9.88965
			c21.14648-14.41895,44.26074-13.81934,68.15039-9.16602c26.40625,5.14355,51.47754,17.23145,79.51855,14.32227
			c8.59863-0.8916,16.93066,2.74121,20.12305,12.43848c2.41113,7.31934-0.04688,13.8623-4.02051,19.89844
			c-6.36914,9.68262-15.25586,16.44727-25.57813,21.48926c-15.31348,7.47852-31.76465,9.18652-48.47168,9.70801
			c-1.88281,0.05957-4.41895-0.94531-5.30566,1.7168c-0.91797,2.74902,1.66113,3.84668,3.21875,5.23438
			c1.07031,0.95605,2.51855,1.52637,3.85449,2.13965c19.50879,8.97656,34.55371,23.12598,47.14063,40.24414
			c5.08496,6.91602,6.74316,14.03223,3.67773,22.31152c-4.39941,11.8877-10.42285,22.68945-19.75977,31.80371
			c4.12891,2.18359,9.17285,3.53516,9.24512,9.21484c0.0332,2.75781,1.36719,3.64844,3.48438,4.8252
			c9.75781,5.43066,16.53613,13.63574,17.43848,24.79395c0.67188,8.30664,3.67383,15.2959,7.44043,22.27246
			c5.71191,10.58301,12.35059,20.59082,19.14844,30.49805c8.45605,12.31445,17.38281,24.32031,21.97461,38.89941
			c2.28125,7.22949,3.20215,14.7002,5.07227,21.98145C690.3042,424.38965,690.3042,429.57715,690.3042,434.76367z"/>
		<path fill-rule="evenodd" clip-rule="evenodd" d="M486.77881,317.29492c-4.27832,2.22754-8.03125,5.58789-14.07715,6.55957
			c4.51563-5.97949,8.42188-11.1543,12.43359-16.46582c-6.54492,1.20313-13.16016,3.91699-19.39746,3.22656
			c-10.625-1.17383-18.58691,5.30469-28.17676,7.00684c11.19434-11.34375,25.71387-15.9873,40.52148-20.21387
			c-9.90137,0.49512-19.38086,3.00391-28.75977,5.86133c-8.83496,2.69043-17.36816,6.22754-25.79492,10.01563
			c-2.09863,0.94336-4.35742,2.79199-5.21484-1.62793c-0.45215-2.33105-2.28516-0.45801-3.37207,0.04492
			c-8.55176,3.94922-17.05762,7.99316-25.62207,11.91113c-1.23926,0.56836-2.33594,2.01465-4.96973,0.69336
			c7.08008-6.79395,15.05566-11.68359,23.49219-16.89746c-7.85352-3.02344-15.29004-5.74805-21.90039-10.09082
			c-14.55664-9.56445-17.60742-18.50879-12.75586-38.09375c-11.14258,2.90234-22.4873,4-29.66211,14.28613
			c-3.85254,5.5166-3.73535,11.30859-0.61426,17.91504c-10.52441-9.31055-11.08008-23.77344,11.5957-34.6582
			c-14.64453-2.04395-28.20215-3.85059-42.0791-2.78809c2.81738-3.44238,6.69727-3.00488,10.10645-3.2627
			c15.32031-1.15527,30.74023-2.01855,45.64941,2.60938c5.4375,1.68945,9.80762,2.5166,13.55469-2.63184
			c0.49902-0.68457,1.47559-1.02441,2.76953-1.87793c0.01074,5.06152-2.63184,8.71777-3.98633,12.70605
			c-3.86426,11.38379-2.0498,18.22168,7.3252,25.77539c8.17578,6.58789,17.8125,10.47266,27.28613,14.61719
			c3.6084,1.57617,6.7334-1.17676,10.06543-1.95117c3.15234-0.73047,6.20313-1.91406,10.01563-3.12695
			c-25.81738-4.3457-41.80859-21.04102-43.30176-44.45605c-0.53027-8.31934-0.83203-8.7793-9.34277-8.07813
			c-11.75,0.96973-23.69629-0.28613-35.25,3.02734c-0.41113,0.11719-0.9502-0.20605-2.55078-0.60059
			c14.98828-7.85938,30.18262-9.20215,45.72168-9.05664c-15.69629-3.45215-31.51367-5.5332-48.23535-4.96191
			c4.47656-4.00879,36.29297-3.5498,54.64941-0.12109c18.15625,3.39063,35.66016,9.17773,53.50391,13.7998
			c-23.82617-11.54297-47.90234-22.35254-74.70801-25.56445c2.82227-2.09375,5.73926-1.02441,8.37109-0.68066
			c37.91406,4.95996,72.23242,19.19336,103.65723,40.71582c3.35938,2.29883,6.64551,4.75098,9.18359,7.97852
			c1.0166,1.29199,1.70801,2.31348,3.45801,1.01074c11.41309-8.49023,22.51172-17.53418,25.75-32.18262
			c2.24316-10.14355,0.90625-20.60059-1.13672-30.81348c-0.15039-0.74805-0.38477-1.40332,0.40723-1.9082
			c12.59375,9.31641,10.09473,37.33789-5.37305,60.08398c15.56445-0.21484,17.91309-1.94141,23.74902-16.29102
			c4.39355-10.79785,9.03711-21.51465,17.03027-30.30176c5.13574-5.64258,8.00684-6.77539,14.26953-5.61621
			c-5.26855,4.73047-10.44531,9.11035-14.48242,14.5791c-4.0332,5.4668-7.7959,11.07715-10.66699,19.13672
			c8.27246-7.82422,15.16211-14.72266,23.09375-20.41406c4.10156-2.94434,8.32324-5.63477,13.49414-6.0625
			c2.4707-0.20508,5.40332-1.12305,7.01367,1.79199c1.63867,2.96875,2.08398,6.09766,0.27539,9.87695
			c-3.11816-8.22559-5.20898-8.62012-12.36621-3.01953c8.52441,7.23926,9.3877,11.46777,5.95898,29.17383
			c5.2002-3.00586,19.6416-20.62109,21.40137-25.8125c0.64746-1.90527-0.23633-3.29688-0.96582-4.7002
			c-12.37402-23.8418-29.80762-42.65723-54.63965-53.74805c-13.47754-6.01855-26.95313-12.12695-41.19824-16.23828
			c-0.64746-0.1875-1.53906-0.12891-1.53125-1.62598c12.09473-1.23145,23.42871,2.42383,36.03906,6.03906
			c-13.71387-10.88867-28.31738-17.70996-42.40527-25.34473c-33.68945-18.26367-70.43457-27.34473-107.65918-34.43066
			c-14.81641-2.81934-30.10352-3.16797-45.16992-4.67969c-3.58105-0.35547-3.6543,2.12207-4.0293,4.58789
			c-1.5332,10.12793-7.02637,18.28809-13.76855,26.06934c0.70898-5.8916,1.46875-11.7793,2.11133-17.68066
			c3.87598-35.54688-17.44531-58.83301-50.04004-65.29688c-24.66797-4.89258-47.65332,1.1709-69.11914,13.70313
			c-12.9502,7.56152-24.23828,17.56836-37.00293,25.77832c7.65527-1.79297,15.31641-3.58496,22.9707-5.37695
			c-4.83789,4.93652-10.61133,8.10156-16.95215,10.26367c-11.40918,3.88672-23.31543,5.54297-35.08496,7.80859
			c-0.3623,0.06836-0.76563,0-1.09961,0.11914c-3.88477,1.375-9.91699,0.95801-10.55957,5.61914
			c-0.71387,5.17383,4.9248,7.41895,9.00293,9.24316c13.92383,6.22754,28.7334,6.69238,43.53027,5.04492
			c23.49512-2.61914,45.33594-11.49023,67.5127-18.98242c15.61328-5.27441,31.27441-7.11133,47.23242-1.60449
			c4.96387,1.71387,9.50391,4.14453,13.2666,7.83008c1.47461,1.44336,3.37402,2.81445,3.16113,6.53516
			c-8.37402-6.65723-16.61816-11.89355-28.02734-11.76758c7.23047,5.43848,12.49414,10.93848,11.83398,20.09863
			c-0.4707,6.51563-3.12891,11.58789-8.58691,14.60352c-9.84961,5.44922-19.85645,10.68555-30.55469,14.36133
			c-2.08496,0.7168-4.36035,1.94629-7.46582-0.25293c6.52832-3.29688,12.45215-6.28613,19.16699-9.67285
			c-16.21094-3.90527-29.11523-11.91602-40.8916-21.9502c-1.08008-0.91699-1.82715-1.2832-3.3457-0.66309
			c-4.90625,1.99512-9.93945,3.68652-15.38867,5.66797c12.38184,7.28027,24.8252,13.97266,28.3623,28.74414
			c-0.38965,0.38086-0.77832,0.76563-1.16699,1.15039c-3.64844-2.74023-7.29492-5.49023-10.95703-8.21387
			c-1.5918-1.1875-2.87109-2.1377-4.18262,0.66895c-17.6582,37.85059-41.1543,72.24219-63.17676,107.8584
			c14.24512-11.48633,28.65625-22.76367,42.6748-34.51465c14.13965-11.85449,27.8418-24.21777,38.88379-39.3125
			c-2.7041,8.85938-7.77246,16.36328-13.39355,23.46973C218.23291,223.95508,195.90283,242,173.646,260.10645
			c-13.92285,11.3252-28.43945,22.07129-38.74023,37.13379c-20.86426,30.51172-26.15527,63.6123-16.49512,99.29004
			c6.9043,25.48926,18.00586,48.99609,34.40234,69.57031c17.16504,21.53906,38.64453,38.24219,63.65625,49.93164
			c31.05176,14.50684,63.38867,25.43164,97.17773,31.41406c18.3584,3.25195,37.02441,4.50391,55.62793,5.92383
			c1.55371,0.11816,3.12305,0.01855,6.18848,0.01855c-17.40527-9.64941-32.24805-20.48926-45.19434-33.31348
			c-15.15332-15.01758-27.54297-32.37305-34.8418-52.79492c-0.78711-2.19727-2.09863-3.34961-4.03906-4.11426
			c-15.03906-5.90918-19.27637-18.45801-15.31934-34.03223c3.49512-13.75586,11.49414-25.11523,18.91504-36.7998
			c10.61328-16.72266,22.29297-32.66211,35.62891-47.71777c-3.26074-0.02051-3.81738,3.7998-6.85156,4.07617
			c-1.18457-4.71191,0.99609-8.90723,3.79004-11.46484c5.00977-4.59082,11.22754-7.76855,18.1377-9.04004
			c2.28418-0.4209,4.51172-0.16309,6.05469,1.78223c1.46973,1.85156,0.57422,3.5332-0.93164,4.84961
			c-2.92969,2.55273,0.72266,2.66797,1.41113,3.15723c12.55664,8.99316,26.60938,15.16602,40.6748,21.31055
			c9.05957,3.96191,18.06738,8.03516,27.34473,11.64453c-3.90234-4.27344-8.18066-7.99023-11.87012-12.31348
			c-10.33301-12.10449-8.30664-25.82422,5.22168-34.2666c2.31348-1.44531,4.55176-3.13281,7.66309-3.51953
			c-0.0918,2.2959-2.1709,2.31836-3.30957,3.16602c-10.44824,7.76855-16.40332,19.97852-3.02734,32.50488
			c14.94531,13.99512,30.98438,25.62891,51.35547,30.28613c10.24707,2.34766,19.44238,8.07617,30.00977,9.53711
			c21.99316,3.03906,42.36914-0.2207,59.7207-15.22949c12.58105-10.87988,17.24316-25.34961,18.46387-41.34766
			c0.13086-1.7334-0.73828-3.65234,0.7334-5.23828c6.0166,6.16895,4.95313,16.77734-4.01953,39.43262
			c5.62891,0.74121,10.60547-1.17188,15.1084-3.62695c19.2666-10.49609,31.55176-26.91016,36.53418-47.9375
			c2.15234-9.08984,0.28711-18.88965-8.08203-25.65625c-2.84277-2.30078-4.83887-2.06055-7.26563,1.06152
			c-9.22461,11.87695-21.36133,20.3877-33.9834,28.22656c-4.99414,3.09766-9.54883,3.31934-15.32422,0.02637
			c-10.39355-5.92773-22.24023-7.05664-34.36719-7.21289c2.23926,7.79199,0.83008,9.70508-6.59082,9.54004
			c-5.2041-0.11523-10.30469-1.00391-15.08203-3.21094c-4.86816-2.24707-7.75977-6.09277-8.92773-11.28613
			c7.39844-15.46289,22.1377-22.55664,35.56641-31.12012c5.07422-3.23926,10.2627-6.2959,16.47949-10.09375
			c-11.57324,0.27246-21.85059,1.94629-32.19043,2.68359c-10.59082,0.75293-18.3877,9.10059-29.84668,9.83496
			c3.02441-4.75195,7.35156-6.6377,9.95703-10.31445c-6.81836,4.875-13.5127,9.86719-22.08398,13.73535
			c4.96777,0.9502,8.96387,1.71289,12.96191,2.47461c0.90234,0.17285,1.85742,0.21387,2.69922,0.54883
			c2.87695,1.14746,3.86914,4.11523,4.25586,6.47266c0.3291,2.00977-2.91016,1.47949-4.50195,2.0957
			c-2.88672,1.12109-5.97656,1.72559-8.92383,2.96875c5.01074-0.48047,9.97559-1.2334,14.99023-0.94922
			c1.02734,0.06152,2.4043-0.27832,2.75879,1.14844c0.25293,1.01563-0.7373,1.55664-1.40039,2.17285
			c-2.13379,1.98633-4.25098,3.99219-7.11621,6.68652c3.06543-0.19043,5.71875-1.46777,6.60059,1.76953
			C490.30225,313.27246,488.97021,316.1543,486.77881,317.29492z"/>
		<path fill-rule="evenodd" clip-rule="evenodd" d="M522.07275,458.87988c-0.36035-2.47852,1.91992-2.44141,3.19434-3.08496
			c21.69727-10.89355,42.88672-22.58301,61.25293-38.72656c12.45117-10.94336,22.4834-23.48535,26.25-40.14941
			c0.9043-3.99414,0.62598-7.95508,0.99023-12.92383c-8.66211,6.10449-16.65332,11.33105-26.14941,13.61523
			c-5.74902,1.38867-11.46387,2.95703-17.41504,2.91602c-2.10742-0.0127-3.3457,0.5791-4.49316,2.39258
			c-7.85254,12.43164-19.16211,21.12207-32.02441,27.53906c-32.32227,16.125-66.56152,24.53223-102.79785,25.86621
			c-33.80859,1.24219-66.24902-3.84863-97.50488-16.69141c-7.51953-3.09277-15-6.28516-21.66016-11.05176
			c-1.27051-0.9082-3.17871-1.99316-2.33301-3.89355c1.03516-2.33301,3.16016-1.33789,4.83789-0.6875
			c3.92969,1.52441,7.80078,3.19336,12.4668,5.11914c-4.1875-17.73535-3.875-34.82324,0.9043-51.88086
			c-13.0918,18.6084-27.14063,36.49707-35.85449,57.66992c-6.81445,16.56738-4.10156,25.61719,10.36914,36.41406
			c8.65527,6.45801,18.82129,8.38379,29.08594,9.80859c14.98047,2.08398,30.02051,3.76758,45.02734,5.67871
			c1.78516,0.22656,3.52441,0.8252,5.83789,1.38574c-2.62988,2.33301-5.26855,3.24121-7.91016,3.32715
			c-21.60352,0.72363-43.2002,1.03027-65.05957-2.9082c2.31543,5.94629,6.10547,10.70898,9.77637,15.35645
			c17.77734,22.48926,38.08496,42.4668,63.23438,56.46191c19.07813,10.61719,40.13867,16.71875,61.36914,21.75586
			c16.41699,3.89355,33.02539,6.34375,49.96973,4.5752c35.32129-3.68457,69.30469-11.26758,97.91797-34.17578
			c22.47656-17.99805,31.52246-41.81543,31.32031-70.12793c-0.13086-18.22266-7.66895-33.90039-14.57227-50.05762
			C569.66455,442.68164,535.3667,461.18945,522.07275,458.87988z"/>
		<path fill-rule="evenodd" clip-rule="evenodd" d="M578.38525,148.80273c17.15332,0.50293,32.78711-0.93359,46.76172-9.75195
			c8.4707-5.3457,12.3916-14.0332,14.71875-23.31445c1.1084-4.42969-1.35449-6.125-5.88574-5.36523
			c-21.36621,3.58789-41.72266-0.65527-62.02637-7.23047c-20.26855-6.56152-41.00879-11.33398-62.48633-5.95117
			c-9.6875,2.42773-17.83984,7.64063-24.87598,15.47461c13.59863,6.16699,26.38281,13.07031,39.15918,19.98438
			c12.92383,6.99316,24.61133,15.67969,35.6709,26.08008c5.25-9.46191,12.1582-16.72168,22.55371-19.35449
			c5.01758-1.26855,10.31934-2.89551,15.63672,0.13086C590.90869,141.28125,584.08545,142.51074,578.38525,148.80273z"/>
		<path fill-rule="evenodd" clip-rule="evenodd" d="M673.83252,431.70215c1.82715-9.64551-1.52832-18.62988-4.37012-27.52148
			c-7.09375-22.18359-19.51758-41.7373-31.24219-61.61816c-1.37598-2.3291-2.77344-4.64355-4.54883-7.62207
			c-2.89258,7.54199-5.33203,14.47559-9.94629,20.30371c-1.3916,1.75586-0.01465,3.60449,0.26074,5.31348
			c1.91211,11.83398,0.20703,23.18457-4.59082,34.03711c-1.20117,2.71875-1.16895,4.68457,0.38965,7.13965
			c12.35938,19.5,16.7959,41.19531,17.08887,63.89648c0.08008,6.03223-1.04395,12.07715-1.69531,18.95996
			C654.63037,470.9707,669.40479,455.0752,673.83252,431.70215z"/>
		<path fill-rule="evenodd" clip-rule="evenodd" d="M252.12549,614.60645c3.6748-5.78418,6.98633-11.68945,4.78711-19.0957
			c-1.2832-4.32422,0.87793-7.13574,4.59473-9.56348c5.6123-3.67188,12.40332-5.83008,15.99023-12.31836
			c1.28516-2.32813,1.09863-3.12988-1.19336-4.45801c-8.32129-4.83496-17.2793-6.08789-26.67969-5.49902
			c-3.41504,0.21191-5.35059,1.68652-5.66113,5.32617c-1.77832,20.59277-4.22461,41.14648-3.63184,63.08594
			C244.74463,625.57227,248.5835,620.18262,252.12549,614.60645z"/>
		<path fill-rule="evenodd" clip-rule="evenodd" d="M279.64209,130.74902c4.57129,0.87793,8.875,0.12109,12.8457-1.93359
			c7.6377-3.95703,8.93555-11.95703,3.24609-18.28125c-3.50488-3.89844-7.78223-6.72461-12.33496-9.2168
			c-1.72754-0.94531-3.36426-0.93066-5.29102-0.59277c-11.88477,2.0791-22.91797,6.70508-34.90918,11.18848
			C255.31787,119.80664,265.97119,128.12891,279.64209,130.74902z"/>
		<path fill-rule="evenodd" clip-rule="evenodd" d="M334.56494,409.11523c1.12598,2.91113,2.47266,4.62598,5.40723,5.4043
			c4.26465,1.12988,8.60645,2.15234,12.68066,3.79785c3.78418,1.52734,6.55664,0.6377,9.58594-1.72363
			c6.87891-5.35938,7.00781-5.28516,1.51758-11.95996c-9.28125-11.2832-17.79102-23.07129-24.49316-36.09961
			c-0.32227-0.62402-0.44727-1.44629-1.9668-1.21973C334.6958,381.0293,328.9165,394.55469,334.56494,409.11523z"/>
		<path fill-rule="evenodd" clip-rule="evenodd" d="M142.73877,502.81055c-2.24902-0.28516-3.63574,0.09961-5.03809,2.15234
			c-11.75293,17.16992-23.66406,34.23145-35.83203,51.7627c2.25195-0.14844,3.68945-1.43359,4.74805-2.6084
			c4.35938-4.85254,9.80469-6.9375,16.16602-7.12695c1.02637-0.03223,2.57813,0.20801,2.61328-1.30762
			c0.1543-6.07715,5.20117-6.93652,9.22559-8.88965c2.31055-1.12598,4.69336-2.1084,6.99023-3.25586
			c4.84277-2.43359,7.38379-6.25,7.71094-11.81152c0.45996-7.6875,2.72559-9.14355,9.88477-6.71484
			c1.79004,0.60547,3.48145,1.03125,6.62793,0.6875C158.52881,509.11328,151.80029,503.9541,142.73877,502.81055z"/>
		<path fill-rule="evenodd" clip-rule="evenodd" d="M75.78467,429.96582c3.01758,0.97656,6.43164,1.02637,9.32617-1.66895
			c7.04395-6.57031,7.13086-6.48047,14.93066-1.05371c-1.14355-7.85449-4.40918-14.46484-8.47852-20.85547
			c-1.72266-2.69922-3.07031-2.96094-6.16797-2.05273c-14.75488,4.31934-27.8418,12.28125-41.72852,18.47656
			c-1.83496,0.81934-3.6582,1.66895-5.49023,2.50488C51.01904,424.94629,63.51807,426.00977,75.78467,429.96582z"/>
		<path fill-rule="evenodd" clip-rule="evenodd" d="M370.26807,386.41895c0.08594-3.92871,0.6709-7.86328,3.90918-10.5498
			c1.71094-1.4248,0.91504-2.17871,0.07227-3.51758c-2.94434-4.68066-6.02148-9.32031-8.46484-14.2627
			c-2.25879-4.56738-5.66992-7.83203-10.48828-7.11328c-5.08496,0.76465-9.99219,8.76367-9.69336,13.53516
			c0.14941,2.4502,0.9541,4.69824,1.98535,6.86328c5.44434,11.46387,13.11133,21.35352,22.65039,32.12402
			C370.23877,396.66211,370.15479,391.53809,370.26807,386.41895z"/>
		<path fill-rule="evenodd" clip-rule="evenodd" d="M576.82568,282.18359c7.34473-1.95117,14.83105-2.92383,22.45996-2.65723
			c1.01953,0.03711,2.44336,0.67773,3.00195-0.56738c0.69727-1.56055-0.81348-2.32617-1.82129-2.98633
			c-2.01758-1.31738-4.19434-2.15625-6.69531-2.37891c-18.71973-1.66211-36.41016,1.9248-53.11328,10.38086
			c-13.07031,6.61523-25.57617,14.08789-35.48145,25.18652c-0.81641,0.91602-1.53711,1.91211-3,3.74414
			C526.13818,298.4209,550.97607,289.05176,576.82568,282.18359z"/>
		<path fill-rule="evenodd" clip-rule="evenodd" d="M484.67822,271.88184c-10.62207-7.12012-21.64453-12.78809-34.10742-15.70703
			c2.80859,19.6123,0.10645,23.28027-22.45898,30.80664C442.11963,293.02051,463.11279,287.48926,484.67822,271.88184z"/>
		<path fill-rule="evenodd" clip-rule="evenodd" d="M378.35107,413.68262c2.19434,10.73438,2.33398,10.58984,13.4209,12.48926
			c5.17383,0.88574,10.10254,1.9668,14.17676-2.77734c1.08008-1.26074,1.98633-1.94824,0.62598-3.55762
			c-10.23926-12.11914-17.68262-26.16016-26.82031-39.69922C373.57764,391.60938,376.10107,402.67969,378.35107,413.68262z"/>
		<path fill-rule="evenodd" clip-rule="evenodd" d="M369.95557,617.82715c0.27344-4.69922-2.1084-8.98633-5.32422-12.48633
			c-3.90234-4.24512-4.15625-8.16211-0.20605-12.65625c2.40625-2.74023,6.41016-5.8252,3.72852-9.97559
			c-2.80176-4.33105-7.68066-2.09766-11.71484-1.75879c-1.76953,0.14844-3.57422,0.94434-5.18359,1.79004
			c-8.05371,4.21875-8.36523,5.33203-4.17871,13.13281c6.99121,13.02344,13.0791,26.46582,18.79297,40.0918
			c1.10938,2.64551,1.81836,5.53516,4.2959,7.69531C368.36865,634.99609,369.45361,626.43555,369.95557,617.82715z"/>
		<path fill-rule="evenodd" clip-rule="evenodd" d="M416.70654,392.16699c0.87402-1.51953-0.15527-2.80762-0.91406-4.07031
			c-1.6123-2.68652-3.24902-5.35449-4.79492-8.07129c-4.43164-7.78223-9.7041-9.27539-17.83984-5.2998
			c-4.04785,1.97656-6.39844,3.66699-4.17383,9.13867c2.71875,6.68848,6.88477,12.0918,11.38184,17.42188
			c4.02051,4.76367,8.1543,9.42871,12.23633,14.1377C412.63721,407.27441,412.53467,399.4248,416.70654,392.16699z"/>
		<path fill-rule="evenodd" clip-rule="evenodd" d="M460.19385,397.18555c0.9209-1.47852,0.3125-2.03906-1.31836-2.61816
			c-6.22168-2.21484-12.36035-4.66211-18.51758-7.05762c-3.41504-1.32617-5.75195,0.81738-7.65527,2.86621
			c-2.4502,2.63574-2.55762,6.12305-1.00977,9.30176c2.35156,4.84277,6.00488,8.81738,9.48145,12.86035
			c3.72266,4.32715,7.64453,8.47852,12.61035,13.9502C452.78955,415.0293,454.90186,405.71387,460.19385,397.18555z"/>
		<path fill-rule="evenodd" clip-rule="evenodd" d="M78.6665,284.69531c6.79199,2.37402,13.24512,4.98242,18.15137,10.89063
			c4.13184,4.97461,10.41406,7.48633,15.87695,10.88867c1.74023,1.08203,2.52734,0.38086,3.4043-1.19727
			c2.86719-5.15039,5.76465-10.28809,8.88086-15.29102c1.78223-2.87012,1.09473-3.74023-2.09277-3.99609
			c-13.60254-1.08203-27.18164-2.41699-40.78809-3.41309c-3.82715-0.28027-7.54785-2.08301-12.01563-0.70605
			C73.23584,282.90527,75.96631,283.75195,78.6665,284.69531z"/>
		<path fill-rule="evenodd" clip-rule="evenodd" d="M419.69971,425.13184c0.34863,2.22949,1.29102,3.02051,3.59082,3.03418
			c6.05762,0.02637,12.32031,0.98633,15.77637-5.93652c0.58887-1.18164,1.51758-1.98535,0.30664-3.35254
			c-6.16016-6.97656-9.99316-15.87988-17.91211-21.87109C418.50146,406.45605,418.23291,415.72168,419.69971,425.13184z"/>
		<path fill-rule="evenodd" clip-rule="evenodd" d="M458.10986,419.76465c-0.30859,4.30371,0.62402,7.65039,6.46582,6.17676
			c5.64063-1.4248,11.60938-1.41504,17.55566-3.53223c-6.16602-8.18945-11.43066-16.4873-16.05762-25.78809
			C460.8335,403.99512,458.68506,411.65234,458.10986,419.76465z"/>
		<path fill-rule="evenodd" clip-rule="evenodd" d="M149.44775,252.10547c4.5-6.18164,8.61426-11.84668,12.73535-17.50488
			c0.88184-1.21191,2.24707-2.65234-0.50781-3.07227c-9.8252-1.50195-19.1084-5.09277-29.4375-7.73242
			C138.79541,233.10156,144.06689,242.33105,149.44775,252.10547z"/>
		<path fill-rule="evenodd" clip-rule="evenodd" d="M147.35889,539.64648c6.69336-2.59668,13.13281-6.01855,19.99609-7.95508
			c4.67578-1.31543,5.33203-3.26855,3.8623-7.14844c-1.34668-3.55469-2.26172-7.82324-7.68262-4.54883
			c-0.43457,0.25684-1.20313,0.39258-1.61914,0.18555c-7.66504-3.75781-8.50586,1.75293-9.30664,6.95898
			c-0.61914,4.04199-2.77148,6.77344-6.28516,8.51953c-3.62988,1.79492-7.37109,3.36816-10.98828,5.19141
			c-1.99805,1.00879-4.73828,1.53223-4.30469,5.19922C137.09521,545.29883,141.96045,541.73926,147.35889,539.64648z"/>
		<path fill-rule="evenodd" clip-rule="evenodd" d="M466.32373,581.8457c-1.61816-2.77734-6.75879-2.49219-10.19238-1.66992
			c-3.04395,0.7334-5.74023,2.90039-9.18652,4.75391c9.47754,5.87402,18.2959,11.33203,28.1875,17.45898
			C473.11377,594.25,469.82568,587.85059,466.32373,581.8457z"/>
		<path fill-rule="evenodd" clip-rule="evenodd" d="M576.40771,260.64746c3.1416-5.0918,5.50488-10.43164,5.34277-16.58203
			c-0.10059-3.88672-4.14941-9.55078-7.72266-9.83984c-2.11719,1.98242-4.78906,4.17578-7.0752,6.71777
			c0.33203,2.77148,2.33398,3.67188,3.41895,5.91406"/>
		<path fill-rule="evenodd" clip-rule="evenodd" d="M379.17041,584.90723c1.21094-3.95703-3.17773-2.19336-4.81934-3.19824
			c-1.65527-1.00781-2.31738,0.30371-2.05469,2.31152c0.54883,4.20996-1.83887,7.4209-4.4248,10.3418
			c-2.56445,2.89355-2.96484,5.38574-0.25391,8.57324c4.01074,4.7207,6.3916,10.26563,6.3916,16.60059
			C375.63232,607.81934,375.72412,596.16699,379.17041,584.90723z"/>
		<path fill-rule="evenodd" clip-rule="evenodd" d="M485.39014,419.94043c0.80566,1.375,1.82227,1.66016,3.19336,1.44629
			c1.61426-0.24219,2.55957-0.96191,2.81836-2.79785c0.49316-3.44629,1.20996-6.86914,2.00195-10.26074
			c0.4375-1.87695-0.30664-2.79492-1.95605-3.25977c-5.76074-1.63379-11.52637-3.25195-17.8623-5.03418
			C476.83252,407.64551,481.63037,413.4873,485.39014,419.94043z"/>
		<path fill-rule="evenodd" clip-rule="evenodd" d="M97.96631,442.48242c2.37891,0.92676,3.04297,0.19922,3.42773-2.31152
			c0.77344-5.08203-1.59668-8.3418-5.20508-11.31641c-2.05273-1.69629-3.51758-1.92285-5.45801,0.24805
			c-3.87988,4.34082-8.17969,8.10352-14.85449,7.03613C83.34229,438.32129,90.85693,439.70703,97.96631,442.48242z"/>
		<path fill-rule="evenodd" clip-rule="evenodd" d="M107.92334,315.21973c0.79199,0.75586,1.93555,2.59473,2.87109,0.53223
			c0.67871-1.49219,3.15234-3.40234,0.29883-5.20215c-2.17871-1.375-4.39453-2.71875-6.69238-3.88965
			c-5.6709-2.89551-10.3418-6.63281-14.08594-12.04785c-4.1748-6.03809-11.4668-7.4375-18.15137-9.27246
			C84.38721,295.0752,96.71338,304.47559,107.92334,315.21973z"/>
		<path fill-rule="evenodd" clip-rule="evenodd" d="M282.60693,575.43359c-3.36035,5.43066-8.5332,8.28418-14.06348,10.60352
			c-5.65625,2.36426-8.86719,5.76563-6.28906,12.3584c0.55957,1.43457,0.28418,3.19141,0.47852,6.0918
			C271.79932,595.4248,276.55225,585.04297,282.60693,575.43359z"/>
		<path fill-rule="evenodd" clip-rule="evenodd" d="M506.51416,415.44629c1.21973-0.55273,3.70215-0.44434,2.81543-3.08496
			c-0.66504-1.99414-0.77344-3.9834-3.86621-4.39941c-7.16504-0.9668-7.14453-1.23047-8.39844,5.82031
			c-0.28125,1.58203-0.42188,3.18359-0.72656,5.57617C500.09717,417.94141,503.38135,416.86133,506.51416,415.44629z"/>
		<path fill-rule="evenodd" clip-rule="evenodd" d="M409.17529,257.76953c-0.25488,2.91895,2.35156,3.21875,4.1582,3.22949
			c3.53125,0.01367,6.06348-2.37695,6.56934-5.56055c0.4707-2.96387-3.12598-1.37988-4.4043-2.66113
			C412.39209,253.32617,409.49658,254.07227,409.17529,257.76953z"/>
		<path fill-rule="evenodd" clip-rule="evenodd" d="M513.58252,407.97461c-1.56055,0.17676-2.55566,0.53906-1.52832,2.33984
			c0.56543,0.98926,0.5,2.67969,2.5459,1.56836c2.67285-1.45605,5.49316-2.6416,9.45801-4.50879
			C519.34326,406.62305,516.49658,407.64063,513.58252,407.97461z"/>
		<path fill-rule="evenodd" clip-rule="evenodd" d="M53.55127,432.22656c6.26758,1.25195,12.53418,2.5,18.80664,3.75391
			C66.43799,433.01855,60.36084,430.82031,53.55127,432.22656z"/>
		<path fill-rule="evenodd" clip-rule="evenodd" fill="#999999" d="M493.20166,313.86523
			c1.16992,5.19531,4.06152,9.04102,8.92969,11.28809c4.77734,2.20703,9.87793,3.0957,15.08203,3.21094
			c7.4209,0.16504,8.83008-1.74805,6.59082-9.54004c12.12695,0.15625,23.97363,1.28516,34.36719,7.21289
			c5.77539,3.29297,10.33008,3.07129,15.32422-0.02637c12.62207-7.83887,24.75879-16.34961,33.9834-28.22656
			c2.42676-3.12207,4.42285-3.3623,7.26563-1.06152c8.36914,6.7666,10.23438,16.56641,8.08203,25.65625
			c-4.98242,21.02734-17.26758,37.44141-36.53418,47.9375c-4.50293,2.45508-9.47949,4.36816-15.1084,3.62695
			c8.97266-22.65527,10.03613-33.26367,4.01953-39.43262c-1.47168,1.58594-0.60254,3.50488-0.7334,5.23828
			c-1.2207,15.99805-5.88281,30.46777-18.46387,41.34766c-17.35156,15.00879-37.72754,18.26855-59.7207,15.22949
			c-10.56738-1.46094-19.7627-7.18945-30.00977-9.53711c-20.37109-4.65723-36.41016-16.29102-51.35547-30.28613
			c-13.37598-12.52637-7.4209-24.73633,3.02734-32.50488c1.13867-0.84766,3.21777-0.87012,3.30957-3.16602
			c-3.11133,0.38672-5.34961,2.07422-7.66309,3.51953c-13.52832,8.44238-15.55469,22.16211-5.22168,34.2666
			c3.68945,4.32324,7.96777,8.04004,11.87012,12.31348c-9.27734-3.60938-18.28516-7.68262-27.34473-11.64453
			c-14.06543-6.14453-28.11816-12.31738-40.6748-21.31055c-0.68848-0.48926-4.34082-0.60449-1.41113-3.15723
			c1.50586-1.31641,2.40137-2.99805,0.93164-4.84961c-1.54297-1.94531-3.77051-2.20313-6.05469-1.78223
			c-6.91016,1.27148-13.12793,4.44922-18.1377,9.04004c-2.79395,2.55762-4.97461,6.75293-3.79004,11.46484
			c3.03418-0.27637,3.59082-4.09668,6.85156-4.07617c-13.33594,15.05566-25.01563,30.99512-35.62891,47.71777
			c-7.4209,11.68457-15.41992,23.04395-18.91504,36.7998c-3.95703,15.57422,0.28027,28.12305,15.31934,34.03223
			c1.94043,0.76465,3.25195,1.91699,4.03906,4.11426c7.29883,20.42188,19.68848,37.77734,34.8418,52.79492
			c12.94629,12.82422,27.78906,23.66406,45.19434,33.31348c-3.06543,0-4.63477,0.09961-6.18848-0.01855
			c-18.60352-1.41992-37.26953-2.67188-55.62793-5.92383c-33.78906-5.98242-66.12598-16.90723-97.17773-31.41406
			c-25.01172-11.68945-46.49121-28.39258-63.65625-49.93164c-16.39648-20.57422-27.49805-44.08105-34.40234-69.57031
			c-9.66016-35.67773-4.36914-68.77832,16.49512-99.29004c10.30078-15.0625,24.81738-25.80859,38.74023-37.13379
			c22.25684-18.10645,44.58691-36.15137,62.52539-58.82813c5.62109-7.10645,10.68945-14.61035,13.39355-23.46973
			c-11.04199,15.09473-24.74414,27.45801-38.88379,39.3125c-14.01855,11.75098-28.42969,23.02832-42.6748,34.51465
			c22.02246-35.61621,45.51855-70.00781,63.17676-107.8584c1.31152-2.80664,2.59082-1.85645,4.18262-0.66895
			c3.66211,2.72363,7.30859,5.47363,10.95703,8.21387c0.38867-0.38477,0.77734-0.76953,1.16699-1.15039
			c-3.53711-14.77148-15.98047-21.46387-28.3623-28.74414c5.44922-1.98145,10.48242-3.67285,15.38867-5.66797
			c1.51855-0.62012,2.26563-0.25391,3.3457,0.66309c11.77637,10.03418,24.68066,18.04492,40.8916,21.9502
			c-6.71484,3.38672-12.63867,6.37598-19.16699,9.67285c3.10547,2.19922,5.38086,0.96973,7.46582,0.25293
			c10.69824-3.67578,20.70508-8.91211,30.55469-14.36133c5.45801-3.01563,8.11621-8.08789,8.58691-14.60352
			c0.66016-9.16016-4.60352-14.66016-11.83398-20.09863c11.40918-0.12598,19.65332,5.11035,28.02734,11.76758
			c0.21289-3.7207-1.68652-5.0918-3.16113-6.53516c-3.7627-3.68555-8.30273-6.11621-13.2666-7.83008
			c-15.95801-5.50684-31.61914-3.66992-47.23242,1.60449c-22.17676,7.49219-44.01758,16.36328-67.5127,18.98242
			c-14.79688,1.64746-29.60645,1.18262-43.53027-5.04492c-4.07813-1.82422-9.7168-4.06934-9.00293-9.24316
			c0.64258-4.66113,6.6748-4.24414,10.55957-5.61914c0.33398-0.11914,0.7373-0.05078,1.09961-0.11914
			c11.76953-2.26563,23.67578-3.92188,35.08496-7.80859c6.34082-2.16211,12.11426-5.32715,16.95215-10.26367
			c-7.6543,1.79199-15.31543,3.58398-22.9707,5.37695c12.76465-8.20996,24.05273-18.2168,37.00293-25.77832
			c21.46582-12.53223,44.45117-18.5957,69.11914-13.70313c32.59473,6.46387,53.91602,29.75,50.04004,65.29688
			c-0.64258,5.90137-1.40234,11.78906-2.11133,17.68066c6.74219-7.78125,12.23535-15.94141,13.76855-26.06934
			c0.375-2.46582,0.44824-4.94336,4.0293-4.58789c15.06641,1.51172,30.35352,1.86035,45.16992,4.67969
			c37.22461,7.08594,73.96973,16.16699,107.65918,34.43066c14.08789,7.63477,28.69141,14.45605,42.40527,25.34473
			c-12.61035-3.61523-23.94434-7.27051-36.03906-6.03906c-0.00781,1.49707,0.88379,1.43848,1.53125,1.62598
			c14.24512,4.11133,27.7207,10.21973,41.19824,16.23828c24.83203,11.09082,42.26563,29.90625,54.63965,53.74805
			c0.72949,1.40332,1.61328,2.79492,0.96582,4.7002c-1.75977,5.19141-16.20117,22.80664-21.40137,25.8125
			c3.42871-17.70605,2.56543-21.93457-5.95898-29.17383c7.15723-5.60059,9.24805-5.20605,12.36621,3.01953
			c1.80859-3.7793,1.36328-6.9082-0.27539-9.87695c-1.61035-2.91504-4.54297-1.99707-7.01367-1.79199
			c-5.1709,0.42773-9.39258,3.11816-13.49414,6.0625c-7.93164,5.69141-14.82129,12.58984-23.09375,20.41406
			c2.87109-8.05957,6.63379-13.66992,10.66699-19.13672c4.03711-5.46875,9.21387-9.84863,14.48242-14.5791
			c-6.2627-1.15918-9.13379-0.02637-14.26953,5.61621c-7.99316,8.78711-12.63672,19.50391-17.03027,30.30176
			c-5.83594,14.34961-8.18457,16.07617-23.74902,16.29102c15.46777-22.74609,17.9668-50.76758,5.36523-60.08691
			c-0.78418,0.50781-0.5498,1.16309-0.39941,1.91113c2.04297,10.21289,3.37988,20.66992,1.13672,30.81348
			c-3.23828,14.64844-14.33691,23.69238-25.75,32.18262c-1.75,1.30273-2.44141,0.28125-3.45801-1.01074
			c-2.53809-3.22754-5.82422-5.67969-9.18359-7.97852c-31.4248-21.52246-65.74316-35.75586-103.65723-40.71582
			c-2.63184-0.34375-5.54883-1.41309-8.37109,0.68066c26.80566,3.21191,50.88184,14.02148,74.70801,25.56445
			c-17.84375-4.62207-35.34766-10.40918-53.50391-13.7998c-18.35645-3.42871-50.17285-3.8877-54.64941,0.12109
			c16.72168-0.57129,32.53906,1.50977,48.23535,4.96191c-15.53906-0.14551-30.7334,1.19727-45.72168,9.05664
			c1.60059,0.39453,2.13965,0.71777,2.55078,0.60059c11.55371-3.31348,23.5-2.05762,35.25-3.02734
			c8.51074-0.70117,8.8125-0.24121,9.34277,8.07813c1.49316,23.41504,17.48438,40.11035,43.30176,44.45605
			c-3.8125,1.21289-6.86328,2.39648-10.01563,3.12695c-3.33203,0.77441-6.45703,3.52734-10.06543,1.95117
			c-9.47363-4.14453-19.11035-8.0293-27.28613-14.61719c-9.375-7.55371-11.18945-14.3916-7.3252-25.77539
			c1.35449-3.98828,3.99707-7.64453,3.98633-12.70605c-1.29395,0.85352-2.27051,1.19336-2.76953,1.87793
			c-3.74707,5.14844-8.11719,4.32129-13.55469,2.63184c-14.90918-4.62793-30.3291-3.76465-45.64941-2.60938
			c-3.40918,0.25781-7.28906-0.17969-10.10645,3.2627c13.87695-1.0625,27.43457,0.74414,42.0791,2.78809
			c-22.67578,10.88477-22.12012,25.34766-11.5957,34.6582c-3.12109-6.60645-3.23828-12.39844,0.61426-17.91504
			c7.1748-10.28613,18.51953-11.38379,29.66211-14.28613c-4.85156,19.58496-1.80078,28.5293,12.75586,38.09375
			c6.61035,4.34277,14.04688,7.06738,21.90039,10.09082c-8.43652,5.21387-16.41211,10.10352-23.49219,16.89746
			c2.63379,1.32129,3.73047-0.125,4.96973-0.69336c8.56445-3.91797,17.07031-7.96191,25.62207-11.91113
			c1.08691-0.50293,2.91992-2.37598,3.37207-0.04492c0.85742,4.41992,3.11621,2.57129,5.21484,1.62793
			c8.42676-3.78809,16.95996-7.3252,25.79492-10.01563c9.37891-2.85742,18.8584-5.36621,28.75977-5.86133
			c-14.80762,4.22656-29.32715,8.87012-40.52148,20.21387c9.58984-1.70215,17.55176-8.18066,28.17676-7.00684
			c6.2373,0.69043,12.85254-2.02344,19.39746-3.22656c-4.01172,5.31152-7.91797,10.48633-12.43359,16.46582
			c6.0459-0.97168,9.79883-4.33203,14.07715-6.55957c2.19141-1.14063,3.52344-4.02246,6.63086-3.31348
			C493.40967,313.98145,493.19971,313.86523,493.20166,313.86523z"/>
		<path fill-rule="evenodd" clip-rule="evenodd" fill="#666666" d="M516.22803,208.22168
			c-25.02441-40.2627-60.21094-65.54102-107.4541-74.92188c2.0625,2.56738,4.3623,2.81445,6.36035,3.45215
			c22.52734,7.18262,42.18848,19.82813,60.32715,34.29395c16.10156,12.83594,27.81543,30.00098,38.03027,47.9502
			c0.27441,0.48047,0.53418,0.99609,0.91016,1.38672c1.56152,1.62402,1.80664,5.44922,4.7002,4.5957
			c2.62695-0.77637,2.71777-4.04688,2.56934-6.65234c-0.84473-14.95898-5.21289-29.01563-10.91016-42.74121
			C511.92334,186.44531,515.66846,196.81348,516.22803,208.22168z"/>
		<path fill-rule="evenodd" clip-rule="evenodd" fill="#666666" d="M328.021,154.08691
			c-10.57227,5.30664-20.99121,10.93945-30.84863,17.4668c-11.49023,7.61133-19.79199,17.64844-21.70996,31.90039
			c-0.89551,6.66504,1.30176,12.37793,5.49902,17.42188c7.62012,9.16211,17.1875,15.59277,28.19434,19.97168
			c2.21973,0.88477,5.06934,2.13672,6.39844-0.48633c1.33008-2.625-1.5293-4.18848-3.3457-5.63867
			c-6.51172-5.18945-14.25293-8.5459-20.63477-13.98145c-10.37793-8.84375-11.74316-17.09766-4.14648-28.53809
			c7.2168-10.8623,17.46387-18.49121,28.11816-25.58887c8.14355-5.42578,16.32422-10.82715,25.15918-15.11816
			c0.6748-0.32813,1.2998-0.68262,1.25879-1.77441C336.77686,149.46582,332.39014,151.89453,328.021,154.08691z"/>
		<path fill-rule="evenodd" clip-rule="evenodd" fill="#666666" d="M389.71826,185.25293
			c31.19727,14.70313,59.07813,34.19238,83.69727,58.37109c7.64648,7.50879,15.5498,14.75977,23.42188,22.03223
			c1.29395,1.19238,2.59863,3.90527,4.92969,1.58398c2.00586-2.00195,0.07129-3.74902-1.00684-5.33984
			c-5.44727-8.04492-12.73535-14.41016-19.88672-20.78223c-14.18457-12.64258-27.88574-25.83984-44.46094-35.62695
			c-24.07422-14.21973-48.42285-27.55957-76.33105-32.75488c-2.10352-0.39355-4.13965-1.09961-7.15723,0.53027
			C366.17334,176.24023,378.27393,179.85742,389.71826,185.25293z"/>
		<path fill-rule="evenodd" clip-rule="evenodd" fill="#666666" d="M300.09326,338.05664
			c9.92969-5.4375,20.49414-9.00488,31.75781-10.44336c2.05859-0.2627,4.00293-0.19727,5.99219,0.41797
			c2.35156,0.72656,4.72168,0.3418,5.59766-2.10254c1.03125-2.89063-1.76367-3.66016-3.5957-4.67676
			c-3.58887-1.99316-7.58691-1.55176-11.39453-1.21094c-19.99512,1.7998-34.58398,12.9248-47.37207,27.03711
			c0.3125,0.41113,0.62402,0.82227,0.94141,1.22949C288.0376,344.88477,294.01611,341.38281,300.09326,338.05664z"/>
		<path fill-rule="evenodd" clip-rule="evenodd" fill="#666666" d="M355.42627,311.33008
			c2.89941,1.19824,5.75,2.51172,8.64941,3.70996c0.80859,0.33496,1.81836,0.87598,2.5332-0.07031
			c0.87402-1.15039,0.16113-2.18652-0.75977-2.82324c-2.11523-1.46582-4.19336-3.14063-6.54688-4.09277
			c-23.49414-9.52246-47.78613-15.21289-73.30273-14.50684c-7.54785,0.20801-15.16797-0.27832-22.55664,1.9668
			c-1.2666,0.38379-2.45508,0.63086-3.11035,2.25488C293.17529,295.13379,324.95947,298.71191,355.42627,311.33008z"/>
		<path fill-rule="evenodd" clip-rule="evenodd" fill="#666666" d="M599.17529,340.33594
			c0.04004,1.96191,0.12109,4.28613,2.74707,4.58496c2.4502,0.28125,2.88379-1.64746,3.05176-3.57227
			c0.21094-2.3916-1.10254-3.67188-3.25781-4.41406C599.57666,337.06836,599.13818,338.68359,599.17529,340.33594z"/>
		<path fill-rule="evenodd" clip-rule="evenodd" fill="#666666" d="M474.38916,370.12207
			c1.3584,0.02637,2.71289-1.08496,2.39648-2.47852c-0.53906-2.36035-2.5166-3.64453-4.81836-3.9834
			c-1.65723-0.24414-2.10547,1.12109-2.19141,2.55859C470.27588,368.72852,471.94287,370.06836,474.38916,370.12207z"/>
		<path fill-rule="evenodd" clip-rule="evenodd" fill="#666666" d="M509.12646,354.42188
			c-0.12402,2.48145,2.21582,2.92188,4.38086,2.85352c1.89941-0.05469,3.90625-0.11328,3.68164-2.7627
			c-0.25781-3.05176-2.18457-2.03516-3.79199-1.33496C511.65576,352.84375,509.27393,351.46875,509.12646,354.42188z"/>
		<path fill-rule="evenodd" clip-rule="evenodd" fill="#666666" d="M543.21338,346.92871
			c1.58887-0.07227,2.70605-1.12988,2.4043-2.91211c-0.24609-1.47461-0.9082-3.05664-2.72168-2.5957
			c-1.44629,0.36621-3.18359,0.95703-3.32813,3.08496C540.00439,346.41113,541.56201,347.01074,543.21338,346.92871z"/>
		<path fill-rule="evenodd" clip-rule="evenodd" fill="#666666" d="M487.12646,360.7207
			c0.12109-2.05762-1.23145-2.94727-3.14063-3.04785c-1.55078-0.08105-3.17773-0.00488-3.01367,2.15332
			c0.15137,1.96094,1.56934,2.76172,3.0459,2.93945C485.8374,362.82324,487.03857,362.27637,487.12646,360.7207z"/>
		<path fill-rule="evenodd" clip-rule="evenodd" fill="#999999" d="M622.67529,462.45996
			c0.20215,28.3125-8.84375,52.12988-31.32031,70.12793c-28.61328,22.9082-62.59668,30.49121-97.91797,34.17578
			c-16.94434,1.76855-33.55273-0.68164-49.96973-4.5752c-21.23047-5.03711-42.29102-11.13867-61.36914-21.75586
			c-25.14941-13.99512-45.45703-33.97266-63.23438-56.46191c-3.6709-4.64746-7.46094-9.41016-9.77637-15.35645
			c21.85938,3.93848,43.45605,3.63184,65.05957,2.9082c2.6416-0.08594,5.28027-0.99414,7.91016-3.32715
			c-2.31348-0.56055-4.05273-1.15918-5.83789-1.38574c-15.00684-1.91113-30.04688-3.59473-45.02734-5.67871
			c-10.26465-1.4248-20.43066-3.35059-29.08594-9.80859c-14.4707-10.79688-17.18359-19.84668-10.36914-36.41406
			c8.71387-21.17285,22.7627-39.06152,35.85449-57.66992c-4.7793,17.05762-5.0918,34.14551-0.9043,51.88086
			c-4.66602-1.92578-8.53711-3.59473-12.4668-5.11914c-1.67773-0.65039-3.80273-1.64551-4.83789,0.6875
			c-0.8457,1.90039,1.0625,2.98535,2.33301,3.89355c6.66016,4.7666,14.14063,7.95898,21.66016,11.05176
			c31.25586,12.84277,63.69629,17.93359,97.50488,16.69141c36.23633-1.33398,70.47559-9.74121,102.79785-25.86621
			c12.8623-6.41699,24.17188-15.10742,32.02441-27.53906c1.14746-1.81348,2.38574-2.40527,4.49316-2.39258
			c5.95117,0.04102,11.66602-1.52734,17.41504-2.91602c9.49609-2.28418,17.4873-7.51074,26.14941-13.61523
			c-0.36426,4.96875-0.08594,8.92969-0.99023,12.92383c-3.7666,16.66406-13.79883,29.20605-26.25,40.14941
			c-18.36621,16.14355-39.55566,27.83301-61.25293,38.72656c-1.27441,0.64355-3.55469,0.60645-3.19434,3.08496
			c13.29395,2.30957,47.5918-16.19824,86.03027-46.47754C615.00635,428.55957,622.54443,444.2373,622.67529,462.45996z"/>
		<path fill-rule="evenodd" clip-rule="evenodd" fill="#666666" d="M501.89111,477.58691
			c8.18652,2.71289,28.57617-4.17871,34.23633-11.85254C524.06201,469.91309,513.30908,473.63379,501.89111,477.58691z"/>
		<path fill-rule="evenodd" clip-rule="evenodd" fill="#666666" d="M507.28369,467.63867
			c5.98926,1.22559,10.88184-1.91797,16.02539-3.97168C517.44385,463.1123,512.46631,465.7207,507.28369,467.63867z"/>
		<path id="ear-left" fill-rule="evenodd" clip-rule="evenodd" fill="#999999" d="M597.61182,139.50488
			c-6.70313,1.77637-13.52637,3.00586-19.22656,9.29785c17.15332,0.50293,32.78711-0.93359,46.76172-9.75195
			c8.4707-5.3457,12.3916-14.0332,14.71875-23.31445c1.1084-4.42969-1.35449-6.125-5.88574-5.36523
			c-21.36621,3.58789-41.72266-0.65527-62.02637-7.23047c-20.26855-6.56152-41.00879-11.33398-62.48633-5.95117
			c-9.6875,2.42773-17.83984,7.64063-24.87598,15.47461c13.59863,6.16699,26.38281,13.07031,39.15918,19.98438
			c12.92383,6.99316,24.61133,15.67969,35.6709,26.08008c5.25-9.46191,12.1582-16.72168,22.55371-19.35449
			C586.99268,138.10547,592.29443,136.47852,597.61182,139.50488z"/>
		<path id="cheek" fill-rule="evenodd" clip-rule="evenodd" fill="#999999" d="M635.17822,484.59082
			c19.45215-13.62012,34.22656-29.51563,38.6543-52.88867c1.82715-9.64551-1.52832-18.62988-4.37012-27.52148
			c-7.09375-22.18359-19.51758-41.7373-31.24219-61.61816c-1.37598-2.3291-2.77344-4.64355-4.54883-7.62207
			c-2.89258,7.54199-5.33203,14.47559-9.94629,20.30371c-1.3916,1.75586-0.01465,3.60449,0.26074,5.31348
			c1.91211,11.83398,0.20703,23.18457-4.59082,34.03711c-1.20117,2.71875-1.16895,4.68457,0.38965,7.13965
			c12.35938,19.5,16.7959,41.19531,17.08887,63.89648C636.95361,471.66309,635.82959,477.70801,635.17822,484.59082z"/>
		<path id="spike_6_" fill-rule="evenodd" clip-rule="evenodd" fill="#FFFFFF" d="M240.33154,632.08398
			c4.41309-6.51172,8.25195-11.90137,11.79395-17.47754c3.6748-5.78418,6.98633-11.68945,4.78711-19.0957
			c-1.2832-4.32422,0.87793-7.13574,4.59473-9.56348c5.6123-3.67188,12.40332-5.83008,15.99023-12.31836
			c1.28516-2.32813,1.09863-3.12988-1.19336-4.45801c-8.32129-4.83496-17.2793-6.08789-26.67969-5.49902
			c-3.41504,0.21191-5.35059,1.68652-5.66113,5.32617C242.18506,589.59082,239.73877,610.14453,240.33154,632.08398z"/>
		<path id="ear-inner" fill-rule="evenodd" clip-rule="evenodd" fill="#CCCCCC" d="M243.19873,111.91309
			c12.11914,7.89355,22.77246,16.21582,36.44336,18.83594c4.57129,0.87793,8.875,0.12109,12.8457-1.93359
			c7.6377-3.95703,8.93555-11.95703,3.24609-18.28125c-3.50488-3.89844-7.78223-6.72461-12.33496-9.2168
			c-1.72754-0.94531-3.36426-0.93066-5.29102-0.59277C266.22314,102.80371,255.18994,107.42969,243.19873,111.91309z"/>
		<path id="nose" fill-rule="evenodd" clip-rule="evenodd" fill="#999999" d="M493.40967,313.98145
			c0,0-0.20996-0.11621-0.20801-0.11621c7.40039-15.46094,22.13965-22.55469,35.56836-31.11816
			c5.07422-3.23926,10.2627-6.2959,16.47949-10.09375c-11.57324,0.27246-21.85059,1.94629-32.19043,2.68359
			c-10.59082,0.75293-18.3877,9.10059-29.84668,9.83496c3.02441-4.75195,7.35156-6.6377,9.95703-10.31445
			c-6.81836,4.875-13.5127,9.86719-22.08398,13.73535c4.96777,0.9502,8.96387,1.71289,12.96191,2.47461
			c0.90234,0.17285,1.85742,0.21387,2.69922,0.54883c2.87695,1.14746,3.86914,4.11523,4.25586,6.47266
			c0.3291,2.00977-2.91016,1.47949-4.50195,2.0957c-2.88672,1.12109-5.97656,1.72559-8.92383,2.96875
			c5.01074-0.48047,9.97559-1.2334,14.99023-0.94922c1.02734,0.06152,2.4043-0.27832,2.75879,1.14844
			c0.25293,1.01563-0.7373,1.55664-1.40039,2.17285c-2.13379,1.98633-4.25098,3.99219-7.11621,6.68652
			C489.87451,312.02148,492.52783,310.74414,493.40967,313.98145z"/>
		<path id="tooth_9_" fill-rule="evenodd" clip-rule="evenodd" fill="#FFFFFF" d="M337.29639,367.31445
			c-2.60059,13.71484-8.37988,27.24023-2.73145,41.80078c1.12598,2.91113,2.47266,4.62598,5.40723,5.4043
			c4.26465,1.12988,8.60645,2.15234,12.68066,3.79785c3.78418,1.52734,6.55664,0.6377,9.58594-1.72363
			c6.87891-5.35938,7.00781-5.28516,1.51758-11.95996c-9.28125-11.2832-17.79102-23.07129-24.49316-36.09961
			C338.94092,367.91016,338.81592,367.08789,337.29639,367.31445z"/>
		<path id="spike_5_" fill-rule="evenodd" clip-rule="evenodd" fill="#FFFFFF" d="M165.83545,515.69824
			c-7.30664-6.58496-14.03516-11.74414-23.09668-12.8877c-2.24902-0.28516-3.63574,0.09961-5.03809,2.15234
			c-11.75293,17.16992-23.66406,34.23145-35.83203,51.7627c2.25195-0.14844,3.68945-1.43359,4.74805-2.6084
			c4.35938-4.85254,9.80469-6.9375,16.16602-7.12695c1.02637-0.03223,2.57813,0.20801,2.61328-1.30762
			c0.1543-6.07715,5.20117-6.93652,9.22559-8.88965c2.31055-1.12598,4.69336-2.1084,6.99023-3.25586
			c4.84277-2.43359,7.38379-6.25,7.71094-11.81152c0.45996-7.6875,2.72559-9.14355,9.88477-6.71484
			C160.99756,515.61621,162.68896,516.04199,165.83545,515.69824z"/>
		<path id="spike_4_" fill-rule="evenodd" clip-rule="evenodd" fill="#FFFFFF" d="M38.17627,425.31641
			c12.84277-0.37012,25.3418,0.69336,37.6084,4.64941c3.01758,0.97656,6.43164,1.02637,9.32617-1.66895
			c7.04395-6.57031,7.13086-6.48047,14.93066-1.05371c-1.14355-7.85449-4.40918-14.46484-8.47852-20.85547
			c-1.72266-2.69922-3.07031-2.96094-6.16797-2.05273c-14.75488,4.31934-27.8418,12.28125-41.72852,18.47656
			C41.83154,423.63086,40.0083,424.48047,38.17627,425.31641z"/>
		<path id="tooth_8_" fill-rule="evenodd" clip-rule="evenodd" fill="#FFFFFF" d="M370.23877,403.49805
			c0-6.83594-0.08398-11.95996,0.0293-17.0791c0.08594-3.92871,0.6709-7.86328,3.90918-10.5498
			c1.71094-1.4248,0.91504-2.17871,0.07227-3.51758c-2.94434-4.68066-6.02148-9.32031-8.46484-14.2627
			c-2.25879-4.56738-5.66992-7.83203-10.48828-7.11328c-5.08496,0.76465-9.99219,8.76367-9.69336,13.53516
			c0.14941,2.4502,0.9541,4.69824,1.98535,6.86328C353.03271,382.83789,360.69971,392.72754,370.23877,403.49805z"/>
		<path id="nose-accent" fill-rule="evenodd" clip-rule="evenodd" fill="#CCCCCC" d="M502.17627,312.90527
			c23.96191-14.48438,48.7998-23.85352,74.64941-30.72168c7.34473-1.95117,14.83105-2.92383,22.45996-2.65723
			c1.01953,0.03711,2.44336,0.67773,3.00195-0.56738c0.69727-1.56055-0.81348-2.32617-1.82129-2.98633
			c-2.01758-1.31738-4.19434-2.15625-6.69531-2.37891c-18.71973-1.66211-36.41016,1.9248-53.11328,10.38086
			c-13.07031,6.61523-25.57617,14.08789-35.48145,25.18652C504.35986,310.07715,503.63916,311.07324,502.17627,312.90527z"/>
		<path id="eye-white" fill-rule="evenodd" clip-rule="evenodd" fill="#FFFFFF" d="M428.11182,286.98145
			c14.00781,6.03906,35.00098,0.50781,56.56641-15.09961c-10.62207-7.12012-21.64453-12.78809-34.10742-15.70703
			C453.37939,275.78711,450.67725,279.45508,428.11182,286.98145z"/>
		<path id="tooth_7_" fill-rule="evenodd" clip-rule="evenodd" fill="#FFFFFF" d="M379.75439,380.1377
			c-6.17676,11.47168-3.65332,22.54199-1.40332,33.54492c2.19434,10.73438,2.33398,10.58984,13.4209,12.48926
			c5.17383,0.88574,10.10254,1.9668,14.17676-2.77734c1.08008-1.26074,1.98633-1.94824,0.62598-3.55762
			C396.33545,407.71777,388.89209,393.67676,379.75439,380.1377z"/>
		<path id="spike_3_" fill-rule="evenodd" clip-rule="evenodd" fill="#FFFFFF" d="M370.16553,643.66016
			c-1.79688-8.66406-0.71191-17.22461-0.20996-25.83301c0.27344-4.69922-2.1084-8.98633-5.32422-12.48633
			c-3.90234-4.24512-4.15625-8.16211-0.20605-12.65625c2.40625-2.74023,6.41016-5.8252,3.72852-9.97559
			c-2.80176-4.33105-7.68066-2.09766-11.71484-1.75879c-1.76953,0.14844-3.57422,0.94434-5.18359,1.79004
			c-8.05371,4.21875-8.36523,5.33203-4.17871,13.13281c6.99121,13.02344,13.0791,26.46582,18.79297,40.0918
			C366.979,638.61035,367.68799,641.5,370.16553,643.66016z"/>
		<path id="tooth_6_" fill-rule="evenodd" clip-rule="evenodd" fill="#FFFFFF" d="M412.60205,415.42383
			c0.03516-8.14941-0.06738-15.99902,4.10449-23.25684c0.87402-1.51953-0.15527-2.80762-0.91406-4.07031
			c-1.6123-2.68652-3.24902-5.35449-4.79492-8.07129c-4.43164-7.78223-9.7041-9.27539-17.83984-5.2998
			c-4.04785,1.97656-6.39844,3.66699-4.17383,9.13867c2.71875,6.68848,6.88477,12.0918,11.38184,17.42188
			C404.38623,406.0498,408.52002,410.71484,412.60205,415.42383z"/>
		<path id="tooth_5_" fill-rule="evenodd" clip-rule="evenodd" fill="#FFFFFF" d="M453.78467,426.48828
			c-0.99512-11.45898,1.11719-20.77441,6.40918-29.30273c0.9209-1.47852,0.3125-2.03906-1.31836-2.61816
			c-6.22168-2.21484-12.36035-4.66211-18.51758-7.05762c-3.41504-1.32617-5.75195,0.81738-7.65527,2.86621
			c-2.4502,2.63574-2.55762,6.12305-1.00977,9.30176c2.35156,4.84277,6.00488,8.81738,9.48145,12.86035
			C444.89697,416.86523,448.81885,421.0166,453.78467,426.48828z"/>
		<path id="spike_2_" fill-rule="evenodd" clip-rule="evenodd" fill="#FFFFFF" d="M70.0835,281.87109
			c3.15234,1.03418,5.88281,1.88086,8.58301,2.82422c6.79199,2.37402,13.24512,4.98242,18.15137,10.89063
			c4.13184,4.97461,10.41406,7.48633,15.87695,10.88867c1.74023,1.08203,2.52734,0.38086,3.4043-1.19727
			c2.86719-5.15039,5.76465-10.28809,8.88086-15.29102c1.78223-2.87012,1.09473-3.74023-2.09277-3.99609
			c-13.60254-1.08203-27.18164-2.41699-40.78809-3.41309C78.27197,282.29688,74.55127,280.49414,70.0835,281.87109z"/>
		<path id="tooth_4_" fill-rule="evenodd" clip-rule="evenodd" fill="#FFFFFF" d="M421.46143,397.00586
			c-2.95996,9.4502-3.22852,18.71582-1.76172,28.12598c0.34863,2.22949,1.29102,3.02051,3.59082,3.03418
			c6.05762,0.02637,12.32031,0.98633,15.77637-5.93652c0.58887-1.18164,1.51758-1.98535,0.30664-3.35254
			C433.21338,411.90039,429.38037,402.99707,421.46143,397.00586z"/>
		<path id="tooth_3_" fill-rule="evenodd" clip-rule="evenodd" fill="#FFFFFF" d="M466.07373,396.62109
			c-5.24023,7.37402-7.38867,15.03125-7.96387,23.14355c-0.30859,4.30371,0.62402,7.65039,6.46582,6.17676
			c5.64063-1.4248,11.60938-1.41504,17.55566-3.53223C475.96533,414.21973,470.70068,405.92188,466.07373,396.62109z"/>
	</g>
	<path id="Collar" fill="#FF6600" d="M101.86865,463.59082c1.89063,0.23535,6.87695,21,20.76953,39.1377
		c15.43262-40.43457,100.32422,35.85059,43.19727,50.7002c14.05957,11.64941,42.37598,28.22656,63.30371,36.52832
		c-7.71777-75.30469,100.04883-26.77734,48.77832,11.95703c12.96094,9.95313,64.47949,3.22949,64.0459,2.7998
		c-33.35059-32.94922,57.02148-56.18652,49.60645-13.71582c55.375-11.38672,25.4707-23.87598,11.01367-23.65039
		c-182.67285,2.85742-304.10254-69.4209-300.71484-220.40918c0.08203-3.66895-12.90625,30.20605-9.56934,47.07422
		C113.75342,403.54297,118.77686,465.75293,101.86865,463.59082z"/>
	<path id="eyebrow_2_" fill-rule="evenodd" clip-rule="evenodd" d="M341.96338,149.72168
		c-5.18652-0.25586-9.57324,2.17285-13.94238,4.36523c-10.57227,5.30664-20.99121,10.93945-30.84863,17.4668
		c-11.49023,7.61133-19.79199,17.64844-21.70996,31.90039c-0.89551,6.66504,1.30176,12.37793,5.49902,17.42188
		c7.62012,9.16211,17.1875,15.59277,28.19434,19.97168c2.21973,0.88477,5.06934,2.13672,6.39844-0.48633
		c1.33008-2.625-1.5293-4.18848-3.3457-5.63867c-6.51172-5.18945-14.25293-8.5459-20.63477-13.98145
		c-10.37793-8.84375-11.74316-17.09766-4.14648-28.53809c7.2168-10.8623,17.46387-18.49121,28.11816-25.58887
		c8.14355-5.42578,16.32422-10.82715,25.15918-15.11816C341.37939,151.16797,342.00439,150.81348,341.96338,149.72168z"/>
	<g id="eyes">
		<path id="eye-lt" fill="#FF6600" d="M560.79639,246.85742c4.29492,10.20215-3.16309,14.1416-10.75488,13.3125
			c-0.65137,1.41113-0.70996,0.97461-1.375,2.02637c2.23242,2.98535,7.36035,2.45898,14.25391-1.1582
			c5.45313-3.72363,4.05078-6.81445,0-15.72266"/>
		<path id="eye-lt_1_" fill-rule="evenodd" clip-rule="evenodd" fill="#FFFFFF" d="M553.30518,254.14746
			c0.41309,0.44434,0.6543,0.85645,2.19336,0.39355c1.38086-0.42578,2.16016-0.81445,2.11035-2.00684
			c-0.05664-1.23145,0.37012-0.69824-0.92969-1.72461l-2.19043,2.17285L553.30518,254.14746z"/>
		<path id="eye-rt" fill="#FF6600" d="M404.51807,270.97559c5.09668,5.01367,5.82715,8.70898,13.31152,10.80371
			c22.1875-1.15723,32.60645-12.15625,24.69727-27.20508c-1.26855-2.41406-8.64063-1.3916-12.34961-2.41602
			c-2.73926,12.91016-1.48535,9.92285-6.46191,14.89941C423.00635,267.76563,419.63232,271.84863,404.51807,270.97559z"/>
		<path id="eye-white-rt" fill-rule="evenodd" clip-rule="evenodd" fill="#FFFFFF" d="M415.49854,252.77734
			c-3.10645,0.54883-6.00195,1.29492-6.32324,4.99219c-0.25488,2.91895,2.35156,3.21875,4.1582,3.22949
			c3.53125,0.01367,6.06348-2.37695,6.56934-5.56055C420.37354,252.47461,416.77686,254.05859,415.49854,252.77734z"/>
		<path id="eyebrow" fill-rule="evenodd" clip-rule="evenodd" d="M352.92432,173.2666
			c13.24902,2.97363,25.34961,6.59082,36.79395,11.98633c31.19727,14.70313,59.07813,34.19238,83.69727,58.37109
			c7.64648,7.50879,15.5498,14.75977,23.42188,22.03223c1.29395,1.19238,2.59863,3.90527,4.92969,1.58398
			c2.00586-2.00195,0.07129-3.74902-1.00684-5.33984c-5.44727-8.04492-12.73535-14.41016-19.88672-20.78223
			c-14.18457-12.64258-27.88574-25.83984-44.46094-35.62695c-24.07422-14.21973-48.42285-27.55957-76.33105-32.75488
			C357.97803,172.34277,355.94189,171.63672,352.92432,173.2666z"/>
		<path id="eye-white-lt" fill-rule="evenodd" clip-rule="evenodd" fill="#FFFFFF" d="M574.02783,234.22559
			c-2.11719,1.98242-4.78906,4.17578-7.0752,6.71777c-2.04297,2.27246,1.11133,2.91113,1.89941,4.16016
			c2.63379,4.17676,3.87109,6.89844,4.05273,12.44336c0.15723,4.86621-10.05762,6.59863-7.36426,7.48633
			c2.06836,0.68359,9.99805-2.97461,10.86719-4.38574c3.1416-5.0918,5.50488-10.43164,5.34277-16.58203
			C581.6499,240.17871,577.60107,234.51465,574.02783,234.22559z"/>
		<path id="eyebrow_1_" fill-rule="evenodd" clip-rule="evenodd" d="M510.76123,175.58496
			c1.16211,10.86035,4.90723,21.22852,5.4668,32.63672c-25.02441-40.2627-60.21094-65.54102-107.4541-74.92188
			c2.0625,2.56738,4.3623,2.81445,6.36035,3.45215c22.52734,7.18262,42.18848,19.82813,60.32715,34.29395
			c16.10156,12.83594,27.81543,30.00098,38.03027,47.9502c0.27441,0.48047,0.53418,0.99609,0.91016,1.38672
			c1.56152,1.62402,1.80664,5.44922,4.7002,4.5957c2.62695-0.77637,2.71777-4.04688,2.56934-6.65234
			C520.82666,203.36719,516.4585,189.31055,510.76123,175.58496z"/>
	</g>
	<g id="Teeth">
		<path id="tooth_1_" fill-rule="evenodd" clip-rule="evenodd" fill="#FFFFFF" d="M496.33838,419.3584
			c3.75879-1.41699,7.04297-2.49707,10.17578-3.91211c1.21973-0.55273,3.70215-0.44434,2.81543-3.08496
			c-0.66504-1.99414-0.77344-3.9834-3.86621-4.39941c-7.16504-0.9668-7.14453-1.23047-8.39844,5.82031
			C496.78369,415.36426,496.64307,416.96582,496.33838,419.3584z"/>
		<path id="tooth" fill-rule="evenodd" clip-rule="evenodd" fill="#FFFFFF" d="M524.05811,407.37402
			c-4.71484-0.75098-7.56152,0.2666-10.47559,0.60059c-1.56055,0.17676-2.55566,0.53906-1.52832,2.33984
			c0.56543,0.98926,0.5,2.67969,2.5459,1.56836C517.27295,410.42676,520.09326,409.24121,524.05811,407.37402z"/>
		<path id="tooth_2_" fill-rule="evenodd" clip-rule="evenodd" fill="#FFFFFF" d="M473.58545,400.03418
			c3.24707,7.61133,8.04492,13.45313,11.80469,19.90625c0.80566,1.375,1.82227,1.66016,3.19336,1.44629
			c1.61426-0.24219,2.55957-0.96191,2.81836-2.79785c0.49316-3.44629,1.20996-6.86914,2.00195-10.26074
			c0.4375-1.87695-0.30664-2.79492-1.95605-3.25977C485.68701,403.43457,479.92139,401.81641,473.58545,400.03418z"/>
	</g>
	<g id="Spikes">
		<path id="spike-accent" fill-rule="evenodd" clip-rule="evenodd" fill="#CCCCCC" d="M72.35791,435.98047
			c-5.91992-2.96191-11.99707-5.16016-18.80664-3.75391C59.81885,433.47852,66.08545,434.72656,72.35791,435.98047z"/>
		<path id="Spike-accent" fill-rule="evenodd" clip-rule="evenodd" fill="#CCCCCC" d="M262.73291,604.4873
			c9.06641-9.0625,13.81934-19.44434,19.87402-29.05371c-3.36035,5.43066-8.5332,8.28418-14.06348,10.60352
			c-5.65625,2.36426-8.86719,5.76563-6.28906,12.3584C262.81396,599.83008,262.53857,601.58691,262.73291,604.4873z"/>
		<path id="spike-accent_1_" fill-rule="evenodd" clip-rule="evenodd" fill="#CCCCCC" d="M72.16357,285.33984
			c12.22363,9.73535,24.5498,19.13574,35.75977,29.87988c0.79199,0.75586,1.93555,2.59473,2.87109,0.53223
			c0.67871-1.49219,3.15234-3.40234,0.29883-5.20215c-2.17871-1.375-4.39453-2.71875-6.69238-3.88965
			c-5.6709-2.89551-10.3418-6.63281-14.08594-12.04785C86.14014,288.57422,78.84814,287.1748,72.16357,285.33984z"/>
		<path id="spike-accent_2_" fill-rule="evenodd" clip-rule="evenodd" fill="#CCCCCC" d="M75.87646,436.13867
			c7.46582,2.18262,14.98047,3.56836,22.08984,6.34375c2.37891,0.92676,3.04297,0.19922,3.42773-2.31152
			c0.77344-5.08203-1.59668-8.3418-5.20508-11.31641c-2.05273-1.69629-3.51758-1.92285-5.45801,0.24805
			C86.85107,433.44336,82.55127,437.20605,75.87646,436.13867z"/>
		<path id="spike-accent_3_" fill-rule="evenodd" clip-rule="evenodd" fill="#CCCCCC" d="M374.00928,619.53613
			c1.62305-11.7168,1.71484-23.36914,5.16113-34.62891c1.21094-3.95703-3.17773-2.19336-4.81934-3.19824
			c-1.65527-1.00781-2.31738,0.30371-2.05469,2.31152c0.54883,4.20996-1.83887,7.4209-4.4248,10.3418
			c-2.56445,2.89355-2.96484,5.38574-0.25391,8.57324C371.62842,607.65625,374.00928,613.20117,374.00928,619.53613z"/>
		<path id="spike" fill-rule="evenodd" clip-rule="evenodd" fill="#CCCCCC" d="M475.13232,602.38867
			c-2.01855-8.13867-5.30664-14.53809-8.80859-20.54297c-1.61816-2.77734-6.75879-2.49219-10.19238-1.66992
			c-3.04395,0.7334-5.74023,2.90039-9.18652,4.75391C456.42236,590.80371,465.24072,596.26172,475.13232,602.38867z"/>
		<path id="spike-accent_4_" fill-rule="evenodd" clip-rule="evenodd" fill="#CCCCCC" d="M131.03076,546.04883
			c6.06445-0.75,10.92969-4.30957,16.32813-6.40234c6.69336-2.59668,13.13281-6.01855,19.99609-7.95508
			c4.67578-1.31543,5.33203-3.26855,3.8623-7.14844c-1.34668-3.55469-2.26172-7.82324-7.68262-4.54883
			c-0.43457,0.25684-1.20313,0.39258-1.61914,0.18555c-7.66504-3.75781-8.50586,1.75293-9.30664,6.95898
			c-0.61914,4.04199-2.77148,6.77344-6.28516,8.51953c-3.62988,1.79492-7.37109,3.36816-10.98828,5.19141
			C133.3374,541.8584,130.59717,542.38184,131.03076,546.04883z"/>
		<path id="spike_1_" fill-rule="evenodd" clip-rule="evenodd" fill="#FFFFFF" d="M132.23779,223.7959
			c6.55762,9.30566,11.8291,18.53516,17.20996,28.30957c4.5-6.18164,8.61426-11.84668,12.73535-17.50488
			c0.88184-1.21191,2.24707-2.65234-0.50781-3.07227C151.8501,230.02637,142.56689,226.43555,132.23779,223.7959z"/>
	</g>
	<g id="Chin">
		<path id="chin_accent_1_" fill-rule="evenodd" clip-rule="evenodd" d="M536.12744,465.73438
			c-12.06543,4.17871-22.81836,7.89941-34.23633,11.85254C510.07764,480.2998,530.46729,473.4082,536.12744,465.73438z"/>
		<path id="chin_accent" fill-rule="evenodd" clip-rule="evenodd" d="M523.30908,463.66699
			c-5.86523-0.55469-10.84277,2.05371-16.02539,3.97168C513.27295,468.86426,518.16553,465.7207,523.30908,463.66699z"/>
	</g>
	<g id="whiskers">
		<path id="whisker_3_" fill-rule="evenodd" clip-rule="evenodd" d="M601.71631,336.93457
			c-2.13965,0.13379-2.57813,1.74902-2.54102,3.40137c0.04004,1.96191,0.12109,4.28613,2.74707,4.58496
			c2.4502,0.28125,2.88379-1.64746,3.05176-3.57227C605.18506,338.95703,603.87158,337.67676,601.71631,336.93457z"/>
		<path id="whisker_2_" fill-rule="evenodd" clip-rule="evenodd" d="M469.77588,366.21875
			c0.5,2.50977,2.16699,3.84961,4.61328,3.90332c1.3584,0.02637,2.71289-1.08496,2.39648-2.47852
			c-0.53906-2.36035-2.5166-3.64453-4.81836-3.9834C470.31006,363.41602,469.86182,364.78125,469.77588,366.21875z"/>
		<path id="whisker_1_" fill-rule="evenodd" clip-rule="evenodd" d="M513.39697,353.17773
			c-1.74121-0.33398-4.12305-1.70898-4.27051,1.24414c-0.12402,2.48145,2.21582,2.92188,4.38086,2.85352
			c1.89941-0.05469,3.90625-0.11328,3.68164-2.7627C516.93115,351.46094,515.00439,352.47754,513.39697,353.17773z"/>
		<path id="whisker" fill-rule="evenodd" clip-rule="evenodd" d="M539.56787,344.50586
			c0.43652,1.90527,1.99414,2.50488,3.64551,2.42285c1.58887-0.07227,2.70605-1.12988,2.4043-2.91211
			c-0.24609-1.47461-0.9082-3.05664-2.72168-2.5957C541.44971,341.78711,539.7124,342.37793,539.56787,344.50586z"/>
		<path id="whishker" fill-rule="evenodd" clip-rule="evenodd" d="M484.01807,362.76563
			c1.81934,0.05762,3.02051-0.48926,3.1084-2.04492c0.12109-2.05762-1.23145-2.94727-3.14063-3.04785
			c-1.55078-0.08105-3.17773-0.00488-3.01367,2.15332C481.12354,361.78711,482.5415,362.58789,484.01807,362.76563z"/>
		<path id="whisker_4_" fill-rule="evenodd" clip-rule="evenodd" d="M260.33252,297.76855
			c32.84277-2.63477,64.62695,0.94336,95.09375,13.56152c2.89941,1.19824,5.75,2.51172,8.64941,3.70996
			c0.80859,0.33496,1.81836,0.87598,2.5332-0.07031c0.87402-1.15039,0.16113-2.18652-0.75977-2.82324
			c-2.11523-1.46582-4.19336-3.14063-6.54688-4.09277c-23.49414-9.52246-47.78613-15.21289-73.30273-14.50684
			c-7.54785,0.20801-15.16797-0.27832-22.55664,1.9668C262.17627,295.89746,260.98779,296.14453,260.33252,297.76855z"/>
		<path id="whisker_5_" fill-rule="evenodd" clip-rule="evenodd" d="M282.02002,348.30762
			c6.01758-3.42285,11.99609-6.9248,18.07324-10.25098c9.92969-5.4375,20.49414-9.00488,31.75781-10.44336
			c2.05859-0.2627,4.00293-0.19727,5.99219,0.41797c2.35156,0.72656,4.72168,0.3418,5.59766-2.10254
			c1.03125-2.89063-1.76367-3.66016-3.5957-4.67676c-3.58887-1.99316-7.58691-1.55176-11.39453-1.21094
			c-19.99512,1.7998-34.58398,12.9248-47.37207,27.03711C281.39111,347.48926,281.70264,347.90039,282.02002,348.30762z"/>
	</g>
</g>
</svg>
