<?xml version="1.0" encoding="utf-8"?>
<!-- Generator: Adobe Illustrator 16.0.0, SVG Export Plug-In . SVG Version: 6.00 Build 0)  -->
<!DOCTYPE svg PUBLIC "-//W3C//DTD SVG 1.1//EN" "http://www.w3.org/Graphics/SVG/1.1/DTD/svg11.dtd">
<svg version="1.1" id="Layer_1" xmlns="http://www.w3.org/2000/svg" xmlns:xlink="http://www.w3.org/1999/xlink" x="0px" y="0px"
	 width="1050.868px" height="1049.869px" viewBox="0 0 1050.868 1049.869" enable-background="new 0 0 1050.868 1049.869"
	 xml:space="preserve">
<rect x="-39.881" y="-14.382" display="none" fill-rule="evenodd" clip-rule="evenodd" fill="#B8B8B8" width="1136.944" height="1105.445"/>
<path id="Sillowette" fill-rule="evenodd" clip-rule="evenodd" stroke="#000000" stroke-miterlimit="10" d="M17.759,347.273
	c4.281-9.9,11.496-17.946,19.83-24.745c20.07-16.374,28.457-37.888,28.664-63.235c0.047-5.813,0.354-11.659,1.068-17.423
	c1.444-11.661,6.511-21.575,15.359-29.431c2.614-2.321,5.359-4.494,7.975-6.813c19.185-17.021,40.968-21.238,65.608-14.488
	c13.912,3.811,28.132,6.878,42.409,8.877c13.967,1.956,27.636-1.763,37.146-12.201c21.143-23.206,47.565-33.728,78.005-36.675
	c27.91-2.702,53.608-12.082,78.172-25.575c21.998-12.083,44.243-23.895,68.508-31.155c21.553-6.45,43.362-8.153,65.667-4.805
	c18.858,2.831,36.872-1.207,53.944-8.975c18.469-8.402,36.312-18.22,54.951-26.194c12.447-5.325,25.547-9.994,38.818-12.34
	c28.565-5.049,49.454,8.501,58.044,36.352c2.781,9.019,4.106,18.487,6.095,27.75c0.405,1.885,0.796,3.773,1.149,5.454
	c8.44-4.739,16.36-9.615,24.673-13.691c5.013-2.458,10.554-4.005,16.007-5.361c6.095-1.515,9.005,0.059,10.288,6.187
	c2.654,12.683,5.204,25.433,6.786,38.28c0.899,7.303,2.885,11.727,10.436,14.768c25.319,10.197,46.73,26.687,67.29,44.31
	c1.518,1.3,3.26,2.423,4.495,3.953c7.777,9.633,17.502,10.665,29.123,8.502c12.214-2.272,24.771-2.835,37.21-3.696
	c6.881-0.476,7.634,0.479,6.249,7.462c-3.104,15.651-6.104,31.352-10.094,46.786c-1.75,6.77-1.014,11.596,2.959,17.482
	c19.684,29.165,33.825,61.071,44.393,94.551c3.95,12.52,7.248,25.259,10.413,38.006c0.914,3.681,2.704,5.632,5.919,7.201
	c8.822,4.306,17.527,8.853,26.249,13.359c9.149,4.728,10.879,10.068,4.167,17.793c-7.058,8.124-15.223,15.328-23.263,22.533
	c-2.656,2.38-3.574,4.552-3.55,8.017c0.178,24.799,0.753,49.623-0.138,74.39c-0.432,12.015-3.517,23.975-5.92,35.854
	c-0.647,3.204-0.243,5.175,1.841,7.488c10.51,11.678,19.853,24.204,26.901,38.319c3.8,7.609,2.78,11.736-5.229,14.458
	c-11.452,3.891-23.309,6.587-34.942,9.962c-1.483,0.43-3.463,1.618-3.879,2.891c-8.117,24.869-22.774,45.859-39.434,65.471
	c-9.552,11.242-20.368,21.411-31.144,32.611c3.208,6.563,7.494,14.092,10.646,22.07c4.69,11.875,9.075,23.923,12.646,36.173
	c2.648,9.082-0.151,12.509-9.674,11.455c-16.669-1.848-33.25-4.607-49.789-7.445c-3.928-0.674-5.796-0.188-7.738,3.447
	c-12.798,23.955-26.201,47.567-43.41,68.73c-13.025,16.019-28.005,29.464-48.547,35.154c-16.036,4.441-32.296,4.025-48.582,1.979
	c-10.889-1.367-21.735-3.063-33.175-4.694c-0.512,2.056-0.993,4.1-1.53,6.132c-4.745,17.983-11.801,34.978-21.809,50.695
	c-4.872,7.653-10.176,8.724-17.484,3.497c-16.725-11.962-30.796-26.465-41.552-44.036c-1.563-2.554-3.088-3.248-6.005-2.692
	c-23.936,4.563-48.053,7.336-72.469,6.336c-3.404-0.14-4.461,1.449-5.631,4.171c-9.049,21.043-21.237,39.949-38.442,55.342
	c-7.806,6.983-13.178,6.647-19.765-1.503c-12.433-15.383-20.042-33.286-26.41-51.759c-2.924-8.483-5.121-17.217-7.994-25.72
	c-0.529-1.566-2.569-3.382-4.176-3.687c-5.705-1.077-11.513-1.779-17.309-2.074c-1.261-0.063-3.098,1.903-3.893,3.359
	c-10.796,19.771-24.769,36.696-43.839,49.005c-4.452,2.874-9.217,5.359-14.073,7.489c-6.628,2.907-11.871,0.277-13.841-6.723
	c-6.03-21.415-9.794-43.155-8.953-65.517c0.061-1.621,0.008-3.247,0.008-4.904c-0.615,0.087-1.04,0.018-1.177,0.185
	c-17.368,21.189-41.053,29.915-67.103,33.565c-53.339,7.475-101.706-6.674-146.195-35.355
	c-29.845-19.241-44.201-47.476-44.379-82.979c-0.121-24.14,0.189-48.319-4.981-72.114c-2.601-11.97-7.094-23.084-13.625-33.549
	c-28.296-45.343-35.706-93.686-19.23-144.905c6.434-19.999,17.587-37.239,33.929-50.884c1.502-1.255,2.631-3.835,2.669-5.826
	c0.32-16.396,5.937-30.524,17.183-42.476c3.421-3.636,6.659-7.459,9.809-11.335c9.338-11.491,8.587-22.563-2.416-32.588
	c-4.917-4.481-10.201-8.569-15.425-12.7c-6.153-4.865-11.058-10.483-13.177-18.314c-0.351-1.298-2.631-2.787-4.144-2.938
	c-8.597-0.86-17.275-0.981-25.844-2.028c-14.685-1.795-25.026-11.112-26.019-24.596C13.637,359.167,15.397,352.734,17.759,347.273z"
	/>
<g>
	<path display="none" fill-rule="evenodd" clip-rule="evenodd" d="M738.933,111.795c8.44-4.739,16.36-9.615,24.673-13.691
		c5.013-2.458,10.554-4.005,16.007-5.361c6.095-1.515,9.005,0.059,10.288,6.187c2.654,12.683,5.204,25.433,6.786,38.28
		c0.899,7.303,2.885,11.727,10.436,14.768c25.319,10.197,46.73,26.687,67.29,44.31c1.518,1.3,3.26,2.423,4.495,3.953
		c7.777,9.633,17.502,10.665,29.123,8.502c12.214-2.272,24.771-2.835,37.21-3.696c6.881-0.476,7.634,0.479,6.249,7.462
		c-3.104,15.651-6.104,31.352-10.094,46.786c-1.75,6.77-1.014,11.596,2.959,17.482c19.684,29.165,33.825,61.071,44.393,94.551
		c3.95,12.52,7.248,25.259,10.413,38.006c0.914,3.681,2.704,5.632,5.919,7.201c8.822,4.306,17.527,8.853,26.249,13.359
		c9.149,4.728,10.879,10.068,4.167,17.793c-7.058,8.124-15.223,15.328-23.263,22.533c-2.656,2.38-3.574,4.552-3.55,8.017
		c0.178,24.799,0.753,49.623-0.138,74.39c-0.432,12.015-3.517,23.975-5.92,35.854c-0.647,3.204-0.243,5.175,1.841,7.488
		c10.51,11.678,19.853,24.204,26.901,38.319c3.8,7.609,2.78,11.736-5.229,14.458c-11.452,3.891-23.309,6.587-34.942,9.962
		c-1.483,0.43-3.463,1.618-3.879,2.891c-8.117,24.869-22.774,45.859-39.434,65.471c-9.552,11.242-20.368,21.411-31.144,32.611
		c3.208,6.563,7.494,14.092,10.646,22.07c4.69,11.875,9.075,23.923,12.646,36.173c2.648,9.082-0.151,12.509-9.674,11.455
		c-16.669-1.848-33.25-4.607-49.789-7.445c-3.928-0.674-5.796-0.188-7.738,3.447c-12.798,23.955-26.201,47.567-43.41,68.73
		c-13.025,16.019-28.005,29.464-48.547,35.154c-16.036,4.441-32.296,4.025-48.582,1.979c-10.889-1.367-21.735-3.063-33.175-4.694
		c-0.512,2.056-0.993,4.1-1.53,6.132c-4.745,17.983-11.801,34.978-21.809,50.695c-4.872,7.653-10.176,8.724-17.484,3.497
		c-16.725-11.962-30.796-26.465-41.552-44.036c-1.563-2.554-3.088-3.248-6.005-2.692c-23.936,4.563-48.053,7.336-72.469,6.336
		c-3.404-0.14-4.461,1.449-5.631,4.171c-9.049,21.043-21.237,39.949-38.442,55.342c-7.806,6.983-13.178,6.647-19.765-1.503
		c-12.433-15.383-20.042-33.286-26.41-51.759c-2.924-8.483-5.121-17.217-7.994-25.72c-0.529-1.566-2.569-3.382-4.176-3.687
		c-5.705-1.077-11.513-1.779-17.309-2.074c-1.261-0.063-3.098,1.903-3.893,3.359c-10.796,19.771-24.769,36.696-43.839,49.005
		c-4.452,2.874-9.217,5.359-14.073,7.489c-6.628,2.907-11.871,0.277-13.841-6.723c-6.03-21.415-9.794-43.155-8.953-65.517
		c0.061-1.621,0.008-3.247,0.008-4.904c-0.615,0.087-1.04,0.018-1.177,0.185c-17.368,21.189-41.053,29.915-67.103,33.565
		c-53.339,7.475-101.706-6.674-146.195-35.355c-29.845-19.241-44.201-47.476-44.379-82.979c-0.121-24.14,0.189-48.319-4.981-72.114
		c-2.601-11.97-7.094-23.084-13.625-33.549c-28.296-45.343-35.706-93.686-19.23-144.905c6.434-19.999,17.587-37.239,33.929-50.884
		c1.502-1.255,2.631-3.835,2.669-5.826c0.32-16.396,5.937-30.524,17.183-42.476c3.421-3.636,6.659-7.459,9.809-11.335
		c9.338-11.491,8.587-22.563-2.416-32.588c-4.917-4.481-10.201-8.569-15.425-12.7c-6.153-4.865-11.058-10.483-13.177-18.314
		c-0.351-1.298-2.631-2.787-4.144-2.938c-8.597-0.86-17.275-0.981-25.844-2.028c-14.685-1.795-25.026-11.112-26.019-24.596
		c-0.428-5.813,1.333-12.247,3.694-17.708c4.281-9.9,11.496-17.946,19.83-24.745c20.07-16.374,28.457-37.888,28.664-63.235
		c0.047-5.813,0.354-11.659,1.068-17.423c1.444-11.661,6.511-21.575,15.359-29.431c2.614-2.321,5.359-4.494,7.975-6.813
		c19.185-17.021,40.968-21.238,65.608-14.488c13.912,3.811,28.132,6.878,42.409,8.877c13.967,1.956,27.636-1.763,37.146-12.201
		c21.143-23.206,47.565-33.728,78.005-36.675c27.91-2.702,53.608-12.082,78.172-25.575c21.998-12.083,44.243-23.895,68.508-31.155
		c21.553-6.45,43.362-8.153,65.667-4.805c18.858,2.831,36.872-1.207,53.944-8.975c18.469-8.402,36.312-18.22,54.951-26.194
		c12.447-5.325,25.547-9.994,38.818-12.34c28.565-5.049,49.454,8.501,58.044,36.352c2.781,9.019,4.106,18.487,6.095,27.75
		C738.188,108.227,738.579,110.114,738.933,111.795z M191.148,591.718c0.158,0.502,0.315,1.004,0.473,1.507
		c-0.83,0.749-1.617,1.552-2.495,2.238c-30.877,24.215-45.332,55.734-42.277,95.036c2.91,37.438,21.277,66.987,47.57,92.317
		c21.82,21.022,47.351,36.484,74.925,48.731c20.928,9.296,42.197,10.693,63.445,1.59c9.288-3.979,18.195-8.978,26.922-14.114
		c15.938-9.382,32.647-16.74,51.438-14.774c22.982,2.404,45.862,5.961,68.689,9.622c28.394,4.553,56.573,10.602,85.063,14.344
		c22.695,2.979,45.233,0.533,66.157-10.261c4.806-2.479,8.395-5.86,10.313-10.988c6.806-18.204,14.202-36.211,20.363-54.631
		c8.91-26.637,13.73-54.147,14.044-82.284c0.262-23.487-3.908-46.36-11.114-68.679c-13.797-42.726-38.909-77.58-73.552-105.856
		c-20.959-17.108-44.123-29.66-70.85-35.006c-34.82-6.966-69.11-3.262-102.614,6.934c-48.849,14.865-98.494,24.164-149.573,26.289
		c-30.415,1.265-60.189,6.875-88.989,17.082c-14.814,5.25-28.135,12.489-38.229,25.15c-10.981,13.773-15.101,29.072-12.125,46.26
		c1.524,8.801,6.327,12.77,15.221,12.665c6.809-0.081,13.608-0.919,20.414-1.386C173.295,592.891,182.222,592.311,191.148,591.718z
		 M628.759,402.796c-67.291-31.243-137.34-32.349-209.407-20.72c0.773,1.464,1.088,2.187,1.51,2.841
		c5.848,9.084,5.63,18.12-0.333,26.995c-1.859,2.767-3.54,3.467-6.898,2.412c-10.891-3.426-20.858-1.894-28.45,7.396
		c-3.879,4.746-7.574,9.726-10.693,14.99c-5.042,8.511-9.541,17.343-14.941,27.277c3.748-0.482,6.315-0.608,8.78-1.18
		c3.235-0.75,6.438-1.713,9.571-2.821c45.561-16.107,92.305-24.153,140.765-21.278c2.674,0.158,6.384-2.146,8.162-4.431
		c8.215-10.559,12.45-23.002,15.54-35.868c0.481-2.005,0.945-4.013,1.675-7.115c4.637,4.003,8.543,7.058,12.085,10.49
		c15.126,14.662,22.722,31.945,17.297,53.208c-1.133,4.439-0.146,6.463,3.786,8.591c30.054,16.26,54.708,38.828,75.554,65.695
		c26.195,33.76,46.694,70.748,61.584,110.763c4.628,12.438,7.949,25.361,11.87,38.062c-0.48,0.163-0.96,0.325-1.439,0.488
		c-0.768-1.435-1.464-2.912-2.313-4.296c-9.198-14.995-18.37-30.007-27.695-44.922c-1.195-1.913-3.218-3.308-5.436-5.52
		c-0.255,1.772-0.458,2.277-0.368,2.722c0.264,1.302,0.611,2.591,0.987,3.866c7.042,23.884,9.234,48.298,7.417,73.043
		c-2.432,33.122-10.772,64.929-23.16,95.61c-7.898,19.563-16.883,38.687-25.456,57.975c-5.007,11.264-3.686,20.812,5.607,28.921
		c5.545,4.84,11.972,9.091,18.678,12.105c26.591,11.957,54.827,15.59,83.745,15.193c12.162-0.167,23.306-3.281,33.104-10.705
		c14.984-11.353,28.03-24.609,38.639-40.127c28.813-42.145,52.456-87.081,71.633-134.36c12.879-31.751,20.815-64.471,19.165-99.122
		c-2.349-49.327-24.052-86.718-67.557-110.802c-5.101-2.823-10.774-4.609-16.182-6.876c-0.254,0.481-0.508,0.962-0.761,1.443
		c3.845,10.098,15.398,12.309,21.797,20.22c-0.803,0.272-1.261,0.597-1.663,0.54c-11.394-1.631-21.725-5.4-28.581-15.349
		c-11.421-16.571-22.748-33.208-33.999-49.895c-13.584-20.15-29.942-37.464-53.272-45.763
		c-39.254-13.963-79.203-14.185-119.289-3.189c-1.647,0.452-3.284,0.946-4.927,1.421c-0.345-0.464-0.69-0.929-1.036-1.394
		C618.668,413.991,623.48,408.652,628.759,402.796z M829.455,476.925c0.585-0.342,1.171-0.683,1.757-1.023
		c0-1.807,0.083-3.617-0.013-5.417c-1.319-24.699-5.318-48.922-13.198-72.417c-12.202-36.385-32.604-67.53-60.272-94.028
		c-2.515-2.408-4.138-2.782-6.876-0.059c-4.114,4.089-8.688,7.771-13.374,11.208c-2.913,2.138-6.395,3.506-9.999,5.421
		c-0.07-1.281-0.135-1.468-0.08-1.61c0.704-1.859,1.44-3.707,2.145-5.566c8.916-23.585,11.014-47.486,3.36-71.852
		c-4.828-15.373-14.748-27.493-25.293-39.116c-25.447-28.053-55.59-48.932-92.625-58.572c-21.766-5.667-42.836-4.045-62.246,8.567
		c-1.368,0.889-2.858,1.588-4.943,2.736c1.063-9.313,4.551-16.53,9.152-23.336c3.527-5.217,3.471-5.261-2.041-8.474
		c-0.716-0.417-1.479-0.751-2.208-1.144c-23.91-12.927-49.2-13.939-75.106-8.32c-26.993,5.854-51.655,17.862-76.266,29.844
		c-22.22,10.819-44.313,22.033-68.459,27.891c-11.876,2.88-24.149,4.232-36.298,5.856c-19.803,2.65-34.894,13.757-48.872,26.806
		c-18.705,17.458-33.763,37.77-46.669,59.827c-2.708,4.628-2.765,7.751,0.273,11.897c3.648,4.978,6.503,10.471,7.206,16.47
		c-7.642-0.847-14.865-2.215-22.11-2.34c-19.366-0.335-37.147,4.966-50.628,19.31c-14.704,15.646-26.749,33.394-34.792,53.472
		c-5.328,13.301-7.405,26.936-0.431,40.455c6.549,12.696,17.635,21.503,27.483,31.334c0.859,0.857,3.455,0.652,4.926,0.098
		c5.869-2.215,11.505-5.077,17.428-7.115c8.396-2.888,16.969-5.261,25.985-8.013c-4.8-5.177-9.852-9.601-13.59-14.944
		c-3.719-5.314-6.12-11.551-9.304-17.786c-8.304,3.292-12.565,11.243-18.395,18.28c-0.597-1.509-1.128-2.503-1.39-3.566
		c-4.477-18.185,7.804-46.208,25.023-57.711c2.773-1.853,4.593-1.898,7.437-0.042c30.412,19.856,64.383,27.027,100.082,26.409
		c14.538-0.252,29.045-2.849,43.542-4.58c6.609-0.788,6.691-1.044,4.642-7.203c-3.282-9.864-1.68-19.103,2.916-28.636
		c1.434,4.953,2.458,9.316,3.958,13.511c4.566,12.766,12.876,18.704,26.372,18.437c5.096-0.101,10.158-1.431,15.26-1.969
		c4.432-0.468,4.289-2.409,2.405-5.611c-5.446-9.259-5.973-19.272-3.524-29.413c0.99-4.097,3.235-7.892,5.421-13.027
		c0.984,2.741,1.534,3.797,1.74,4.917c3.703,20.107,18.117,27.797,36.096,28.179c19.279,0.409,36.666-6.146,52.635-16.021
		c30.99-19.166,55.972-45.042,78.923-73.018c8.723-10.63,17.377-21.327,26.444-31.658c1.664-1.897,5.317-3.339,7.807-3.028
		c33.262,4.161,60.825,18.638,80.352,46.438c4.059,5.778,6.268,12.855,9.328,19.333c-0.531,0.362-1.063,0.725-1.594,1.087
		c-9.673-8.359-19.638-16.144-32.926-17.828c-0.19,0.99-0.397,1.48-0.353,1.947c0.125,1.321,0.274,2.65,0.554,3.946
		c3.037,14.074,1.901,27.744-3.629,41.084c-6.761,16.312-18.614,28.591-31.376,40.193c-3.509,3.189-6.949,6.453-11.516,10.702
		c12.509,0.034,22.729,3.084,32.278,8.372c5.24,2.9,10.42,5.911,15.603,8.913c7.592,4.399,15.723,7.848,24.472,7.698
		c12.596-0.216,25.189-1.389,37.75-2.523c30.02-2.713,57.684,3.695,80.429,23.853c13.876,12.298,25.571,27.051,38.313,40.637
		C815.447,462.434,822.483,469.649,829.455,476.925z M120.049,506.081c-7.497,4.766-15.338,8.922-22.234,14.292
		c-20.878,16.257-33.583,38.123-40.442,63.286c-10.391,38.126-7.974,74.837,14.108,108.889
		c8.272,12.755,15.239,26.115,19.125,40.947c6.159,23.508,5.53,47.496,5.522,71.479c-0.003,10.935-1.148,22.385,1.597,32.704
		c6.761,25.418,23.32,43.674,46.812,55.469c36.646,18.401,75.477,25.559,116.236,21.606c16.561-1.604,32.401-5.981,45.988-16.278
		c2.112-1.602,3.905-3.622,6.312-5.887c-1.723-0.748-2.292-1.065-2.901-1.249c-20.829-6.282-36.347-19.666-48.994-36.803
		c-5.062-6.858-10.149-13.57-17.816-17.85c-5.078-2.835-9.951-6.038-14.927-9.058c-30.602-18.569-58.124-40.532-78.134-70.799
		c-0.638-0.966-1.719-1.639-2.595-2.448c1.248,24.114,12.015,44.75,21.161,66.026c-19.327-13.131-30.162-32.485-38.002-53.466
		c-19.146-51.234-21.241-101.625,10.272-149.821c-1.075-0.437-1.938-0.905-2.861-1.143c-17.055-4.392-25.797-16.121-27.363-32.931
		c-2.469-26.502,6.439-49.446,24.009-69.121c2.252-2.522,3.471-4.822,3.496-8.284c0.094-12.959,3.583-25.047,10.831-35.831
		c6.314-9.396,14.604-16.588,25.434-21.306c0.921,13.267,2.431,25.86,7.927,37.569c5.995-2.012,11.114-4.03,16.394-5.45
		c23.927-6.442,48.581-8.018,73.067-10.736c8.656-0.96,17.271-2.294,25.905-3.458c-0.021-0.398-0.042-0.796-0.063-1.193
		c-11.241-7.637-22.481-15.274-34.195-23.233c-2.485,3.571-5.112,7.346-7.723,11.099c-9.672-4.215-12.886-13.516-10.255-30.053
		c-1.672,0-3.302-0.169-4.886,0.026c-20.317,2.494-40.772,4.22-60.906,7.765c-30.571,5.383-54.154,22.224-71.447,47.793
		c-5.507,8.144-9.089,17.203-9.478,27.446C106.464,506.081,113.389,506.081,120.049,506.081z M979.713,410.334
		c0.96-19.881-33.214-101.164-49.816-118.385c-4.155,7.363-8.182,14.596-12.3,21.776c-7.871,13.726-13.906,16.845-29.163,12.838
		c-30.399-7.983-51.332-25.902-57.817-57.928c-0.876-4.324-1.157-8.767-1.686-12.937c-9.396,2.416-18.425,4.622-27.353,7.176
		c-1.119,0.32-2.524,2.604-2.357,3.77c0.262,1.816,1.57,3.599,2.763,5.142c7.329,9.48,15.111,18.63,22.081,28.364
		c47.1,65.775,72.897,138.209,68.505,220.078c-0.18,3.331,1.294,7.288,3.237,10.097c6.719,9.709,13.982,19.04,21.049,28.507
		c1.06,1.419,2.177,2.795,3.178,4.076c15.96-6.589,24.815-6.898,37.307-0.325c6.44,3.39,12.36,7.795,18.409,11.897
		c3.527,2.393,6.845,5.096,10.834,8.093c8.665-33.928,6.079-67.208,2.836-101.447c-2.883,1.803-4.755,3.181-6.8,4.217
		c-10.362,5.25-20.399,11.42-31.239,15.382c-19.742,7.213-26.832,3.924-35.196-15.329c-9.642-22.194-9.293-45.04-2.432-67.911
		c3.445-11.485,8.287-14.815,20.23-13.892c9.448,0.73,18.87,1.957,28.256,3.291C968.09,407.714,973.854,409.156,979.713,410.334z
		 M661.939,100.596c2.149,11.87,4.338,23.559,6.353,35.278c0.909,5.291,3.916,9.038,7.985,12.179
		c7.631,5.892,15.406,11.609,22.849,17.731c22.849,18.793,42.789,39.919,53.906,68.054c2.468,6.243,7.449,9.7,14.06,10.513
		c5.772,0.709,11.575,1.32,17.382,1.555c11.366,0.458,22.628-0.054,33.119-5.288c4.459-2.224,6.786-5.758,6.744-10.736
		c-0.042-4.835-2.609-8.085-6.78-10.209c-1.333-0.68-2.674-1.362-4.064-1.903c-9.894-3.843-19.838-7.56-29.696-11.491
		c-15.784-6.294-30.218-14.576-40.951-28.245c-9.441-12.023-14.798-25.906-18.37-40.535c-3.543-14.507-6.329-29.205-10.121-43.641
		C709.099,73.849,693.775,64.194,673.381,67c-16.232,2.234-31.119,8.14-45.231,16.146c-14.486,8.219-29.102,16.054-45.585,19.607
		c-0.735,0.158-1.384,0.72-3.059,1.631c3.658,2.333,6.427,4.884,9.688,6.033c10.298,3.623,20.711,6.969,31.212,9.951
		c10.774,3.06,21.707,5.566,32.944,8.409C654.633,118.945,653.95,108.199,661.939,100.596z M215.609,218.717
		c-7.938,0-15.04,1.036-21.716-0.209c-15.497-2.89-30.789-6.881-46.163-10.429c-9.203-2.124-18.534-3.183-27.554,0.181
		c-19.18,7.152-39.198,27.675-33.465,58.379c1.623,8.693,0.792,17.15-1.846,25.595c-3.862,12.368-11.484,22.379-19.347,32.303
		c-7.946,10.028-16.122,19.891-23.641,30.231c-4.478,6.157-2.965,9.678,4.556,11.253c5.971,1.25,12.27,0.889,18.273,2.029
		c12.995,2.47,19.355-4.066,25.015-14.928c12.868-24.695,28.158-47.945,49.001-66.831c6.425-5.82,9.437-12.628,8.793-20.685
		c-0.6-7.498-2.347-14.981-4.352-22.263c-1.185-4.305-3.848-8.203-6.25-13.108c1.738,0.478,2.495,0.633,3.215,0.891
		c13.319,4.775,18.925,15.401,21.395,28.349c2.129,11.165,2.104,11.085,12.288,12.859c4.866,0.848,7.946-0.597,10.67-5.006
		c9.076-14.696,18.632-29.096,27.999-43.613C213.343,222.381,214.168,221.023,215.609,218.717z M622.095,846.638
		c-2.16-0.397-2.505-0.569-2.779-0.492c-0.959,0.271-1.905,0.598-2.838,0.953c-45.077,17.188-91.616,27.911-139.785,31.069
		c-50.786,3.331-100.378-2.043-147.994-21.185c-2.326-0.935-5.161-1.045-7.717-0.882c-6.638,0.423-13.248,1.25-19.876,1.841
		c-3.887,0.346-7.786,0.546-13.11,0.909c2.734,2.005,4.24,3.216,5.848,4.271c14.457,9.491,30.378,15.786,46.754,20.931
		c48.422,15.211,98.124,21.231,148.749,19.771c30.415-0.878,60.424-4.815,89.039-15.748c8.58-3.278,18.069-6.691,24.328-12.887
		C610.539,867.442,615.457,856.761,622.095,846.638z M869.187,503.901c0.823-0.469,1.646-0.938,2.47-1.405
		c4.311-34.6-3.809-67.796-13.871-100.477c-16.883-54.832-46.491-101.492-91.396-137.908c-7.68,7.615-8.669,18.729-2.31,24.25
		c29.155,25.315,49.608,56.816,64.19,92.129c13.203,31.971,19.687,65.506,20.145,100.182c0.05,3.793,0.55,8.868,2.941,11.076
		C856.583,496.574,863.161,499.938,869.187,503.901z M532.12,843.953c-0.149-0.437-0.299-0.873-0.448-1.311
		c-1.076-0.177-2.15-0.365-3.229-0.529c-15.592-2.368-31.276-4.253-46.75-7.233c-15.649-3.016-30.994-7.622-46.647-10.614
		c-19.723-3.769-39.021-2.664-57.12,7.541c-10.84,6.112-22.018,11.627-33.025,17.448c-0.341,0.181-0.459,0.784-1.419,2.541
		c10.516,2.229,20.426,4.975,30.522,6.352c31.459,4.289,63.033,3.64,94.58,0.844c17.895-1.586,35.735-3.715,52.793-9.791
		C525.108,847.871,528.547,845.723,532.12,843.953z M882.269,310.089c12.227,4.742,14.663,3.942,20.969-6.04
		c11.976-18.958,20.646-39.396,27.103-60.8c2.083-6.908,3.69-13.959,5.666-21.52c-2.176,0.144-3.331,0.06-4.404,0.315
		c-11.793,2.816-23.672,5.337-35.334,8.623c-16.978,4.782-33.526,10.704-48.52,20.376c-3.879,2.502-5.513,5.445-4.943,9.901
		c1.303,10.205,4.483,19.656,10.191,28.332c2.085,3.167,4.312,3.455,7.484,2.657c11.836-2.975,22.099-8.981,31.634-16.36
		c4.111-3.181,8.048-6.587,13.034-10.688C900.266,282.155,891.486,295.99,882.269,310.089z M1021.105,443.119
		c-2.007-1.557-2.711-2.285-3.561-2.737c-24.346-12.942-50.502-20.108-77.632-23.988c-5.864-0.839-10.028,1.57-11.445,7.277
		c-2.139,8.619-3.162,17.515-4.688,26.288c-0.527,3.029,0.941,4.896,3.65,5.534c8.183,1.927,16.342,4.471,24.648,5.203
		c7.398,0.652,14.982-0.79,23.593-1.384c-14.395,10.79-29.47,16.973-46.317,18.844c2.242,10.028,7.269,13.077,16.879,10.161
		c2.056-0.624,4.181-1.206,6.061-2.207c15.084-8.035,30.421-15.66,45.047-24.464
		C1005.727,456.599,1012.932,449.591,1021.105,443.119z M546.62,361.363c7.548,0.45,13.543-1.435,19.035-4.507
		c21.811-12.196,37.012-30.155,44.913-53.854c3.527-10.584,2.248-21.257-2.308-31.565c-2.632-5.955-7.04-8.248-13.29-8.623
		c-20.045-1.204-33.916,9.245-45.916,23.551C570.555,309.973,568.472,340.583,546.62,361.363z M936.067,645.663
		c15.903,2.016,69.123-4.6,76.64-9.461c-0.78-1.437-1.509-2.923-2.365-4.332c-10.898-17.932-24.44-33.596-40.678-46.872
		c-7.492-6.127-15.506-11.513-25.174-13.642c-5.682-1.251-11.324-1.072-16.177,2.631c-1.028,0.785-1.98,2.755-1.749,3.94
		c2.511,12.838,5.179,25.648,8.069,38.405c0.326,1.439,2.062,3.17,3.507,3.636c5.199,1.675,10.693,2.479,15.814,4.336
		c6.387,2.314,12.513,5.345,18.751,8.066c-0.155,0.595-0.311,1.188-0.466,1.782c-12.033,0.838-24.066,1.676-36.173,2.52
		C936.067,639.83,936.067,642.604,936.067,645.663z M508.883,925.797c-3.182,11.992-5.963,23.841-14.843,34.292
		c0-5.338,0.015-9.301-0.004-13.265c-0.02-4.16,0.321-8.369-0.178-12.473c-1.658-13.646,1.726-12.206-12.773-12.467
		c-1.331-0.024-2.687-0.159-3.991,0.031c-6.292,0.918-12.57,1.93-20.15,3.11c4.821,14.231,8.771,27.243,13.684,39.879
		c2.865,7.369,7.199,14.178,11.021,21.156c1.668,3.047,3.908,3.969,6.583,0.847c1.077-1.257,2.378-2.317,3.51-3.531
		c11.892-12.755,19.763-27.833,25.335-44.198C520.685,928.592,520.6,928.563,508.883,925.797z M634.475,893.221
		c-2.873,5.939-6.228,11.65-8.367,17.784c-1.157,3.317-1.456,7.931-0.024,10.96c3.657,7.738,7.673,15.602,13.082,22.145
		c6.79,8.211,15.112,15.156,23.401,23.263c7.574-13.988,12.69-27.197,14.983-41.417c0.147-0.914-0.806-2.541-1.682-2.992
		c-3.787-1.951-7.737-3.589-11.932-5.477c-0.613,4.327-1.196,8.444-1.78,12.563c-0.543,0.037-1.087,0.074-1.63,0.111
		c-1.139-4.932-2.26-9.866-3.424-14.791c-0.334-1.409-0.353-3.296-1.271-4.103C649.257,905.491,642.486,899.938,634.475,893.221z
		 M619.168,889.454c-28.548,13.152-58.598,21.383-90.396,24.594c7.978,1.867,10.882,6.521,8.806,14.105
		c8.388,0,16.043,0.44,23.629-0.098c13.406-0.949,26.781-2.405,40.141-3.9c1.686-0.188,4.038-1.521,4.662-2.944
		C610.511,910.936,614.646,900.499,619.168,889.454z M352.073,903.877c-1.114,19.63-2.206,38.721,4.715,57.212
		c13.637-3.144,39.884-31.064,41.85-44.083c-1.261-0.328-2.563-0.579-3.803-1.006c-4.389-1.506-7.601-0.729-10.379,3.522
		c-1.956,2.993-5.274,5.094-7.985,7.594c-0.283-0.263-0.565-0.525-0.848-0.789c1.414-4.612,2.827-9.227,4.331-14.135
		C370.323,909.319,361.483,906.684,352.073,903.877z M966.551,661.021c-10.646,0-20.104-0.109-29.549,0.146
		c-1.122,0.029-2.879,1.887-3.179,3.169c-4.339,18.572-8.426,37.204-12.698,55.793c-1.277,5.559-2.94,11.028-4.427,16.539
		c0.521,0.245,1.041,0.49,1.561,0.735C939.373,715.537,957.2,691.561,966.551,661.021z M778.479,178.532
		c2.436-21.966,5.062-43.419-1.514-65.094c-11.544,3.249-20.378,9.536-28.822,16.624c-3.079,2.584-3.893,5.427-3.215,9.194
		c1.76,9.794,6.463,18.042,13.007,25.348c0.583,0.65,1.557,0.949,2.432,1.459c3.356-6.194,6.556-12.101,9.755-18.006
		c0.499,0.126,0.998,0.253,1.497,0.38c-0.671,6.15-1.234,12.316-2.039,18.45C768.526,174.927,769.534,176.482,778.479,178.532z
		 M868.039,219.533c-20.336-19.345-42.162-35.792-67.772-46.752c-6.149,9.565-4.177,17.583,5.2,22.343
		c6.212,3.153,12.666,5.874,18.688,9.349c8.974,5.178,15.198,12.356,14.74,23.599c-0.112,2.756,1.228,4.822,4.164,4.234
		C852.408,230.434,861.279,227.463,868.039,219.533z M528.305,302.831c3.094,6.29,6.923,11.813,8.519,17.921
		c1.807,6.914-1.481,13.044-7.485,17.171c-9.894,6.803-21.9,2.712-33.222-11.35c-3.573,2.207-7.178,4.434-11.09,6.852
		c6.135,11.297,15.734,16.471,27.437,18.275c15.855,2.443,29.172-4.462,34.459-17.589c5.474-13.592,0.794-31.105-10.891-39.373
		C533.258,297.644,530.42,300.617,528.305,302.831z M926.804,815.748c-5.278-18.993-14.616-35.594-24.94-53.026
		c-4.567,10.415-8.642,19.7-12.616,28.764c3.203,3.019,6.106,5.753,9.01,8.487c-0.239,0.363-0.479,0.728-0.719,1.091
		c-3.608-1.055-7.734-3.681-10.677-2.713c-2.824,0.93-4.42,5.588-6.592,8.656C888.203,811.446,915.145,816.487,926.804,815.748z
		 M214.851,412.875c-2.108-7.001-3.797-13.155-5.886-19.168c-0.518-1.49-2.149-2.843-3.603-3.679
		c-1.201-0.691-2.93-0.392-4.366-0.759c-11.994-3.071-23.973-6.194-36.239-9.375c0.173,11.811,3.338,22.883,13.899,30.269
		C190.351,418.341,202.948,416.853,214.851,412.875z M374.673,396.036c0.692-9.885-3.77-13.665-13.417-11.825
		c-10.766,2.056-21.627,3.883-32.153,6.853c-9.204,2.597-18.164,6.273-26.914,10.184c-5.006,2.239-8.384,6.562-9.168,13.33
		C319.271,402.079,345.604,393.409,374.673,396.036z M476.748,337.486c-15.356,7.417-30.137,14.556-44.917,21.695
		c0.125,0.479,0.251,0.957,0.376,1.435c19.169,2.565,38.269,2.225,58.516-1.53C483.089,353.181,478.088,346.955,476.748,337.486z
		 M550.018,411c-2.86,11.321-6.461,21.765-15.279,29.628c8.89,3.962,17.273,7.698,25.633,11.424
		C566.923,439.916,562.217,420.903,550.018,411z M253.292,392.845c-1.509,8.418-5.467,12.868-11.366,13.302
		c-7.178,0.528-11.646-3.536-14.683-13.561c-2.803-0.21-5.707-0.427-8.521-0.638c-1.695,8.087,0.723,14.068,6.985,18.167
		c8.809,5.765,20.847,6.065,28.267,0.705c6.084-4.396,9.141-11.851,7.304-18.335C258.736,392.6,256.12,392.718,253.292,392.845z
		 M165.09,472.792c-8.946,5.735-14.578,18.862-12.742,28.886c5.417-3.24,10.828-6.37,16.092-9.73
		c0.849-0.542,1.675-2.273,1.438-3.172C168.504,483.541,166.807,478.39,165.09,472.792z M285.154,388.63
		c-5.968,1.312-11.039,2.426-16.352,3.592c0,3.379,0,6.461,0,10.06C276.273,400.526,281.793,396.794,285.154,388.63z
		 M520.273,321.21c3.835-0.023,5.747-1.792,5.789-5.15c0.044-3.514-1.974-5.802-5.435-5.806c-3.295-0.004-5.78,1.831-5.737,5.517
		C514.934,319.405,517.261,320.975,520.273,321.21z M241.313,393.166c-0.33,0.557-0.66,1.114-0.99,1.672
		c1.833,1.034,3.651,2.829,5.504,2.865c1.519,0.03,3.08-2.031,4.623-3.166c-0.279-0.457-0.557-0.914-0.835-1.371
		C246.847,393.166,244.08,393.166,241.313,393.166z"/>
	<path id="Chin" fill-rule="evenodd" clip-rule="evenodd" fill="#999999" d="M191.148,591.718
		c-8.926,0.593-17.854,1.173-26.778,1.785c-6.806,0.467-13.605,1.305-20.414,1.386c-8.895,0.104-13.697-3.864-15.221-12.665
		c-2.976-17.188,1.144-32.486,12.125-46.26c10.094-12.661,23.415-19.899,38.229-25.15c28.8-10.207,58.575-15.817,88.989-17.082
		c51.079-2.125,100.724-11.423,149.573-26.289c33.504-10.196,67.794-13.899,102.614-6.934c26.727,5.347,49.891,17.898,70.85,35.006
		c34.643,28.276,59.755,63.13,73.552,105.856c7.206,22.318,11.376,45.191,11.114,68.679c-0.313,28.137-5.134,55.647-14.044,82.284
		c-6.161,18.42-13.558,36.427-20.363,54.631c-1.918,5.128-5.507,8.509-10.313,10.988c-20.924,10.794-43.462,13.24-66.157,10.261
		c-28.49-3.742-56.669-9.791-85.063-14.344c-22.828-3.661-45.707-7.218-68.689-9.622c-18.791-1.966-35.5,5.393-51.438,14.774
		c-8.727,5.137-17.634,10.135-26.922,14.114c-21.248,9.104-42.517,7.706-63.445-1.59c-27.574-12.247-53.105-27.709-74.925-48.731
		c-26.293-25.33-44.66-54.879-47.57-92.317c-3.055-39.302,11.399-70.821,42.277-95.036c0.877-0.687,1.665-1.489,2.495-2.238
		C191.463,592.722,191.306,592.22,191.148,591.718z M244.219,575.213c0.444,0.542,0.889,1.084,1.333,1.626
		c52.283-25.236,107.512-35.394,165.517-32.417c-3.104-2.684-6.153-4.678-9.438-6.145c-11.257-5.027-23.26-6.903-35.438-7.675
		c-39.461-2.502-75.486,7.584-107.743,30.398C253.055,564.816,248.931,570.431,244.219,575.213z"/>
	<path fill-rule="evenodd" clip-rule="evenodd" fill="#999999" d="M829.455,476.925c-6.972-7.276-14.008-14.491-20.9-21.839
		c-12.742-13.586-24.438-28.339-38.313-40.637c-22.745-20.158-50.409-26.565-80.429-23.853c-12.561,1.134-25.154,2.307-37.75,2.523
		c-8.749,0.149-16.88-3.299-24.472-7.698c-5.183-3.002-10.362-6.013-15.603-8.913c-9.55-5.288-19.77-8.338-32.278-8.372
		c4.566-4.249,8.007-7.513,11.516-10.702c12.762-11.602,24.615-23.882,31.376-40.193c5.53-13.341,6.666-27.011,3.629-41.084
		c-0.279-1.296-0.429-2.625-0.554-3.946c-0.045-0.467,0.162-0.957,0.353-1.947c13.288,1.685,23.253,9.469,32.926,17.828
		c0.531-0.362,1.063-0.725,1.594-1.087c-3.061-6.478-5.27-13.555-9.328-19.333c-19.526-27.8-47.09-42.278-80.352-46.438
		c-2.489-0.312-6.143,1.131-7.807,3.028c-9.067,10.331-17.722,21.028-26.444,31.658c-22.951,27.975-47.933,53.852-78.923,73.018
		c-15.97,9.875-33.356,16.43-52.635,16.021c-17.979-0.381-32.394-8.071-36.096-28.179c-0.207-1.12-0.756-2.177-1.74-4.917
		c-2.186,5.135-4.431,8.93-5.421,13.027c-2.448,10.141-1.922,20.154,3.524,29.413c1.884,3.202,2.027,5.143-2.405,5.611
		c-5.102,0.539-10.164,1.869-15.26,1.969c-13.496,0.267-21.805-5.671-26.372-18.437c-1.5-4.195-2.524-8.559-3.958-13.511
		c-4.596,9.533-6.198,18.772-2.916,28.636c2.05,6.159,1.968,6.415-4.642,7.203c-14.497,1.73-29.004,4.328-43.542,4.58
		c-35.699,0.618-69.67-6.553-100.082-26.409c-2.844-1.856-4.663-1.811-7.437,0.042c-17.219,11.503-29.5,39.526-25.023,57.711
		c0.262,1.063,0.792,2.057,1.39,3.566c5.83-7.037,10.091-14.987,18.395-18.28c3.184,6.234,5.584,12.472,9.304,17.786
		c3.739,5.343,8.79,9.768,13.59,14.944c-9.016,2.752-17.589,5.125-25.985,8.013c-5.923,2.038-11.559,4.9-17.428,7.115
		c-1.471,0.555-4.067,0.76-4.926-0.098c-9.848-9.831-20.934-18.638-27.483-31.334c-6.974-13.519-4.896-27.154,0.431-40.455
		c8.043-20.079,20.088-37.827,34.792-53.472c13.481-14.344,31.263-19.645,50.628-19.31c7.245,0.125,14.468,1.494,22.11,2.34
		c-0.702-5.999-3.558-11.492-7.206-16.47c-3.038-4.146-2.981-7.269-0.273-11.897c12.907-22.058,27.965-42.369,46.669-59.827
		c13.979-13.048,29.069-24.155,48.872-26.806c12.149-1.625,24.422-2.976,36.298-5.856c24.146-5.858,46.239-17.072,68.459-27.891
		c24.611-11.982,49.273-23.99,76.266-29.844c25.906-5.619,51.196-4.607,75.106,8.32c0.729,0.393,1.492,0.727,2.208,1.144
		c5.512,3.213,5.568,3.257,2.041,8.474c-4.602,6.806-8.09,14.023-9.152,23.336c2.085-1.147,3.575-1.847,4.943-2.736
		c19.41-12.613,40.48-14.234,62.246-8.567c37.035,9.64,67.178,30.519,92.625,58.572c10.545,11.624,20.465,23.743,25.293,39.116
		c7.653,24.365,5.556,48.267-3.36,71.852c-0.704,1.86-1.44,3.708-2.145,5.566c-0.055,0.143,0.01,0.329,0.08,1.61
		c3.604-1.915,7.086-3.283,9.999-5.421c4.686-3.437,9.26-7.119,13.374-11.208c2.738-2.723,4.361-2.35,6.876,0.059
		c27.668,26.499,48.07,57.643,60.272,94.028c7.88,23.495,11.879,47.719,13.198,72.417c0.096,1.801,0.013,3.611,0.013,5.417
		C830.626,476.242,830.04,476.583,829.455,476.925z M246.056,291.794c0.813,0.109,1.25,0.308,1.425,0.171
		c9.853-7.708,20.507-8.371,31.968-4.097c1.832,0.684,4.545,0.248,6.418-0.611c27.812-12.761,55.551-12.644,83.309,0.082
		c1.427,0.654,2.87,1.272,4.606,2.04c1.615-4.605,2.788-8.766,4.503-12.69c5.596-12.807,11.264-25.832,24.18-33.046
		c5.801-3.24,10.865-6.749,15.685-11.462c12.432-12.157,27.411-20.189,44.792-23.139c4.714-0.801,9.459-1.414,14.19-2.113
		c-21.006-5.128-40.548-2.757-57.939,10.742c-7.174,5.569-13.059,12.349-22.273,15.792c-14.586,5.45-21.589,18.444-25.722,32.766
		c-1.105,3.829-2.17,4.792-6.032,3.428c-5.292-1.869-10.764-3.426-16.284-4.417c-20.694-3.714-40.956-2.79-58.977,9.273
		c-5.888,3.94-10.856,5.251-17.755,3.748C263.35,276.345,251.049,280.612,246.056,291.794z"/>
	<g id="Cheeks">
		<path id="Cheek" fill-rule="evenodd" clip-rule="evenodd" fill="#999999" d="M628.759,402.796
			c-5.278,5.855-10.091,11.195-14.904,16.533c0.346,0.465,0.691,0.93,1.036,1.394c1.643-0.475,3.279-0.969,4.927-1.421
			c40.086-10.996,80.035-10.774,119.289,3.189c23.33,8.298,39.688,25.613,53.272,45.763c11.251,16.687,22.578,33.324,33.999,49.895
			c6.856,9.949,17.188,13.718,28.581,15.349c0.402,0.057,0.86-0.268,1.663-0.54c-6.398-7.911-17.952-10.122-21.797-20.22
			c0.253-0.48,0.507-0.961,0.761-1.443c5.407,2.267,11.081,4.053,16.182,6.876c43.505,24.084,65.208,61.475,67.557,110.802
			c1.65,34.651-6.286,67.371-19.165,99.122c-19.177,47.279-42.819,92.216-71.633,134.36c-10.608,15.518-23.654,28.774-38.639,40.127
			c-9.799,7.424-20.942,10.538-33.104,10.705c-28.918,0.396-57.154-3.236-83.745-15.193c-6.706-3.015-13.133-7.266-18.678-12.105
			c-9.293-8.109-10.614-17.657-5.607-28.921c8.573-19.288,17.558-38.412,25.456-57.975c12.388-30.682,20.729-62.488,23.16-95.61
			c1.817-24.745-0.375-49.159-7.417-73.043c-0.376-1.275-0.724-2.564-0.987-3.866c-0.09-0.444,0.113-0.949,0.368-2.722
			c2.218,2.212,4.24,3.606,5.436,5.52c9.325,14.915,18.497,29.927,27.695,44.922c0.849,1.384,1.545,2.861,2.313,4.296
			c0.479-0.163,0.959-0.325,1.439-0.488c-3.921-12.7-7.242-25.624-11.87-38.062c-14.89-40.015-35.389-77.003-61.584-110.763
			c-20.846-26.867-45.5-49.435-75.554-65.695c-3.933-2.128-4.919-4.152-3.786-8.591c5.425-21.263-2.171-38.546-17.297-53.208
			c-3.542-3.432-7.448-6.487-12.085-10.49c-0.729,3.102-1.193,5.11-1.675,7.115c-3.09,12.866-7.325,25.309-15.54,35.868
			c-1.777,2.285-5.487,4.589-8.162,4.431c-48.46-2.875-95.204,5.17-140.765,21.278c-3.133,1.107-6.335,2.071-9.571,2.821
			c-2.464,0.571-5.032,0.697-8.78,1.18c5.4-9.934,9.898-18.766,14.941-27.277c3.119-5.264,6.814-10.244,10.693-14.99
			c7.591-9.289,17.559-10.821,28.45-7.396c3.358,1.055,5.04,0.354,6.898-2.412c5.963-8.875,6.181-17.911,0.333-26.995
			c-0.422-0.654-0.737-1.377-1.51-2.841C491.419,370.448,561.468,371.553,628.759,402.796z M490.075,395.864
			c-0.023-3.923-3.923-7.659-7.827-7.497c-3.678,0.151-7.256,3.894-7.249,7.583c0.007,3.747,4.116,7.687,7.865,7.542
			C486.591,403.349,490.099,399.638,490.075,395.864z M511.709,414.756c-6.04-0.038-8.62,1.81-8.593,5.544
			c0.025,3.612,4.257,7.77,7.771,7.637c2.976-0.113,6.262-4.552,6.158-8.472C516.939,415.41,514.065,414.835,511.709,414.756z
			 M456.368,410.302c-0.828,0.008-1.656,0.016-2.483,0.022c-1.31,2.515-3.537,4.99-3.646,7.556
			c-0.092,2.147,1.795,5.233,3.714,6.376c2.027,1.206,7.253-3.749,6.622-6.51C459.964,415.083,457.831,412.77,456.368,410.302z"/>
		<path id="Cheek_1_" fill-rule="evenodd" clip-rule="evenodd" fill="#999999" d="M120.049,506.081c-6.661,0-13.585,0-21.028,0
			c0.388-10.243,3.971-19.302,9.478-27.446c17.292-25.569,40.875-42.41,71.447-47.793c20.134-3.544,40.588-5.271,60.906-7.765
			c1.584-0.195,3.214-0.026,4.886-0.026c-2.631,16.537,0.583,25.838,10.255,30.053c2.611-3.752,5.238-7.527,7.723-11.099
			c11.714,7.959,22.955,15.597,34.195,23.233c0.021,0.397,0.042,0.795,0.063,1.193c-8.634,1.163-17.249,2.497-25.905,3.458
			c-24.486,2.719-49.141,4.294-73.067,10.736c-5.28,1.42-10.398,3.438-16.394,5.45c-5.496-11.709-7.006-24.303-7.927-37.569
			c-10.829,4.717-19.119,11.91-25.434,21.306c-7.247,10.783-10.737,22.871-10.831,35.831c-0.025,3.462-1.244,5.762-3.496,8.284
			c-17.569,19.675-26.478,42.619-24.009,69.121c1.566,16.81,10.308,28.539,27.363,32.931c0.923,0.237,1.786,0.706,2.861,1.143
			c-31.513,48.196-29.419,98.587-10.272,149.821c7.84,20.98,18.675,40.335,38.002,53.466c-9.146-21.276-19.913-41.912-21.161-66.026
			c0.875,0.81,1.957,1.482,2.595,2.448c20.01,30.267,47.532,52.229,78.134,70.799c4.976,3.02,9.849,6.223,14.927,9.058
			c7.667,4.279,12.755,10.991,17.816,17.85c12.647,17.137,28.165,30.521,48.994,36.803c0.609,0.184,1.178,0.501,2.901,1.249
			c-2.406,2.265-4.2,4.285-6.312,5.887c-13.586,10.297-29.427,14.674-45.988,16.278c-40.759,3.952-79.589-3.205-116.236-21.606
			c-23.492-11.795-40.051-30.051-46.812-55.469c-2.745-10.319-1.601-21.77-1.597-32.704c0.008-23.983,0.637-47.972-5.522-71.479
			c-3.886-14.832-10.853-28.192-19.125-40.947c-22.082-34.052-24.5-70.763-14.108-108.889c6.859-25.163,19.564-47.029,40.442-63.286
			C104.711,515.003,112.553,510.847,120.049,506.081z M203.19,440.818c1.18,0.848,2.801,2.777,4.765,3.235
			c2.812,0.657,6.344-3.222,5.442-6.104c-0.604-1.931-2.809-4.612-4.437-4.712C205.426,433.018,203.523,435.755,203.19,440.818z
			 M195.554,457.101c-2.482,2.825-4.79,4.516-5.5,6.721c-0.284,0.882,2.797,3.883,4.631,4.183c3.366,0.552,5.861-1.929,5.687-5.267
			C200.288,461.146,197.861,459.678,195.554,457.101z"/>
	</g>
	<g id="Ears">
		<path id="Ear_1_" fill-rule="evenodd" clip-rule="evenodd" fill="#999999" d="M661.939,100.596
			c-7.989,7.604-7.307,18.35-8.589,28.181c-11.237-2.843-22.17-5.349-32.944-8.409c-10.501-2.982-20.914-6.328-31.212-9.951
			c-3.262-1.148-6.03-3.7-9.688-6.033c1.675-0.911,2.323-1.473,3.059-1.631c16.483-3.553,31.099-11.388,45.585-19.607
			c14.112-8.007,28.999-13.913,45.231-16.146c20.395-2.805,35.718,6.85,40.973,26.859c3.792,14.437,6.578,29.134,10.121,43.641
			c3.572,14.629,8.929,28.512,18.37,40.535c10.733,13.668,25.167,21.951,40.951,28.245c9.858,3.931,19.803,7.647,29.696,11.491
			c1.391,0.541,2.731,1.224,4.064,1.903c4.171,2.125,6.738,5.374,6.78,10.209c0.042,4.978-2.285,8.512-6.744,10.736
			c-10.491,5.234-21.753,5.746-33.119,5.288c-5.807-0.234-11.609-0.846-17.382-1.555c-6.61-0.813-11.592-4.27-14.06-10.513
			c-11.117-28.135-31.058-49.261-53.906-68.054c-7.442-6.122-15.218-11.839-22.849-17.731c-4.069-3.141-7.076-6.889-7.985-12.179
			C666.277,124.154,664.089,112.465,661.939,100.596z"/>
		<path id="Ear" fill-rule="evenodd" clip-rule="evenodd" fill="#999999" d="M215.609,218.717c-1.441,2.306-2.266,3.665-3.127,4.999
			c-9.367,14.517-18.923,28.917-27.999,43.613c-2.724,4.41-5.804,5.854-10.67,5.006c-10.184-1.773-10.159-1.694-12.288-12.859
			c-2.47-12.947-8.076-23.573-21.395-28.349c-0.72-0.258-1.478-0.413-3.215-0.891c2.401,4.905,5.065,8.803,6.25,13.108
			c2.004,7.281,3.752,14.765,4.352,22.263c0.644,8.057-2.368,14.864-8.793,20.685c-20.844,18.886-36.133,42.136-49.001,66.831
			c-5.66,10.862-12.02,17.397-25.015,14.928c-6.003-1.14-12.302-0.779-18.273-2.029c-7.521-1.575-9.034-5.096-4.556-11.253
			c7.519-10.34,15.695-20.204,23.641-30.231c7.863-9.924,15.485-19.935,19.347-32.303c2.638-8.445,3.468-16.902,1.846-25.595
			c-5.733-30.704,14.286-51.227,33.465-58.379c9.021-3.364,18.351-2.304,27.554-0.181c15.374,3.548,30.666,7.539,46.163,10.429
			C200.569,219.753,207.671,218.717,215.609,218.717z"/>
	</g>
	<path fill-rule="evenodd" clip-rule="evenodd" fill="#333333" d="M869.187,503.901c-6.025-3.962-12.604-7.327-17.831-12.153
		c-2.392-2.208-2.892-7.283-2.941-11.076c-0.458-34.675-6.941-68.211-20.145-100.182c-14.582-35.313-35.035-66.814-64.19-92.129
		c-6.359-5.521-5.37-16.635,2.31-24.25c44.905,36.416,74.514,83.076,91.396,137.908c10.063,32.68,18.182,65.876,13.871,100.477
		C870.833,502.963,870.01,503.432,869.187,503.901z"/>
	<path id="Neck" fill-rule="evenodd" clip-rule="evenodd" fill="#999999" d="M532.12,843.953c-3.573,1.77-7.012,3.918-10.742,5.247
		c-17.058,6.076-34.898,8.205-52.793,9.791c-31.546,2.796-63.12,3.445-94.58-0.844c-10.096-1.377-20.007-4.123-30.522-6.352
		c0.959-1.757,1.078-2.36,1.419-2.541c11.007-5.821,22.185-11.336,33.025-17.448c18.098-10.205,37.396-11.31,57.12-7.541
		c15.653,2.992,30.998,7.599,46.647,10.614c15.474,2.98,31.158,4.865,46.75,7.233c1.078,0.164,2.152,0.353,3.229,0.529
		C531.821,843.08,531.971,843.517,532.12,843.953z"/>
	<path fill-rule="evenodd" clip-rule="evenodd" fill="#FFFFFF" d="M882.269,310.089c9.218-14.099,17.997-27.934,22.88-45.204
		c-4.986,4.101-8.923,7.507-13.034,10.688c-9.535,7.379-19.798,13.385-31.634,16.36c-3.173,0.798-5.399,0.511-7.484-2.657
		c-5.708-8.676-8.889-18.127-10.191-28.332c-0.569-4.456,1.064-7.398,4.943-9.901c14.993-9.673,31.542-15.595,48.52-20.376
		c11.662-3.286,23.541-5.807,35.334-8.623c1.073-0.256,2.229-0.172,4.404-0.315c-1.976,7.561-3.583,14.612-5.666,21.52
		c-6.457,21.403-15.127,41.842-27.103,60.8C896.932,314.031,894.495,314.831,882.269,310.089z"/>
	<path fill-rule="evenodd" clip-rule="evenodd" fill="#FFFFFF" d="M1021.105,443.119c-8.174,6.472-15.379,13.48-23.766,18.527
		c-14.626,8.804-29.963,16.429-45.047,24.464c-1.88,1.001-4.005,1.583-6.061,2.207c-9.61,2.916-14.637-0.133-16.879-10.161
		c16.848-1.872,31.923-8.055,46.317-18.844c-8.61,0.594-16.194,2.036-23.593,1.384c-8.307-0.731-16.466-3.275-24.648-5.203
		c-2.709-0.638-4.178-2.504-3.65-5.534c1.526-8.773,2.55-17.668,4.688-26.288c1.417-5.707,5.581-8.116,11.445-7.277
		c27.13,3.88,53.286,11.046,77.632,23.988C1018.395,440.834,1019.099,441.562,1021.105,443.119z"/>
	<path fill-rule="evenodd" clip-rule="evenodd" fill="#FFFFFF" d="M936.067,645.663c0-3.059,0-5.833,0-8.99
		c12.106-0.844,24.14-1.682,36.173-2.52c0.155-0.594,0.311-1.188,0.466-1.782c-6.238-2.722-12.364-5.752-18.751-8.066
		c-5.121-1.856-10.615-2.661-15.814-4.336c-1.445-0.466-3.181-2.196-3.507-3.636c-2.891-12.757-5.559-25.567-8.069-38.405
		c-0.231-1.186,0.721-3.155,1.749-3.94c4.853-3.703,10.495-3.882,16.177-2.631c9.668,2.129,17.682,7.515,25.174,13.642
		c16.237,13.276,29.779,28.94,40.678,46.872c0.856,1.409,1.585,2.896,2.365,4.332C1005.19,641.063,951.971,647.679,936.067,645.663z
		"/>
	<path fill-rule="evenodd" clip-rule="evenodd" fill="#FFFFFF" d="M508.883,925.797c11.716,2.766,11.801,2.795,8.195,13.382
		c-5.572,16.365-13.443,31.443-25.335,44.198c-1.132,1.214-2.434,2.274-3.51,3.531c-2.675,3.122-4.915,2.2-6.583-0.847
		c-3.822-6.979-8.156-13.787-11.021-21.156c-4.914-12.636-8.863-25.647-13.684-39.879c7.58-1.181,13.858-2.192,20.15-3.11
		c1.304-0.19,2.66-0.056,3.991-0.031c14.499,0.261,11.115-1.18,12.773,12.467c0.499,4.104,0.158,8.313,0.178,12.473
		c0.019,3.964,0.004,7.927,0.004,13.265C502.92,949.638,505.701,937.789,508.883,925.797z"/>
	<path fill-rule="evenodd" clip-rule="evenodd" fill="#FFFFFF" d="M634.475,893.221c8.012,6.717,14.782,12.271,21.356,18.046
		c0.919,0.807,0.938,2.693,1.271,4.103c1.164,4.925,2.285,9.859,3.424,14.791c0.543-0.037,1.087-0.074,1.63-0.111
		c0.584-4.118,1.167-8.235,1.78-12.563c4.194,1.888,8.145,3.525,11.932,5.477c0.876,0.451,1.829,2.078,1.682,2.992
		c-2.293,14.22-7.409,27.429-14.983,41.417c-8.289-8.106-16.611-15.052-23.401-23.263c-5.409-6.543-9.425-14.406-13.082-22.145
		c-1.432-3.029-1.133-7.643,0.024-10.96C628.247,904.871,631.602,899.16,634.475,893.221z"/>
	<path fill-rule="evenodd" clip-rule="evenodd" fill="#FFFFFF" d="M352.073,903.877c9.41,2.807,18.25,5.442,27.882,8.315
		c-1.504,4.908-2.917,9.522-4.331,14.135c0.283,0.264,0.565,0.526,0.848,0.789c2.711-2.5,6.03-4.601,7.985-7.594
		c2.778-4.251,5.99-5.028,10.379-3.522c1.24,0.427,2.542,0.678,3.803,1.006c-1.966,13.019-28.213,40.939-41.85,44.083
		C349.867,942.598,350.959,923.507,352.073,903.877z"/>
	<path fill-rule="evenodd" clip-rule="evenodd" fill="#FFFFFF" d="M778.479,178.532c-8.944-2.05-9.952-3.605-8.899-11.646
		c0.805-6.134,1.368-12.299,2.039-18.45c-0.499-0.127-0.998-0.254-1.497-0.38c-3.199,5.905-6.398,11.812-9.755,18.006
		c-0.875-0.51-1.849-0.809-2.432-1.459c-6.544-7.306-11.247-15.554-13.007-25.348c-0.678-3.767,0.136-6.609,3.215-9.194
		c8.444-7.088,17.278-13.375,28.822-16.624C783.54,135.113,780.914,156.566,778.479,178.532z"/>
	<g id="Collar_5_">
		<path id="Collar_1_" fill-rule="evenodd" clip-rule="evenodd" fill="#333333" d="M979.713,410.334
			c-5.859-1.179-11.623-2.62-17.475-3.452c-9.386-1.334-18.808-2.561-28.256-3.291c-11.943-0.923-16.785,2.407-20.23,13.892
			c-6.861,22.871-7.21,45.717,2.432,67.911c8.364,19.253,15.454,22.542,35.196,15.329c10.84-3.961,20.877-10.132,31.239-15.382
			c2.045-1.037,3.917-2.415,6.8-4.217c3.243,34.239,5.829,67.52-2.836,101.447c-3.989-2.997-7.307-5.7-10.834-8.093
			c-6.049-4.103-11.969-8.508-18.409-11.897c-12.491-6.573-21.347-6.264-37.307,0.325c-1.001-1.281-2.118-2.657-3.178-4.076
			c-7.066-9.467-14.33-18.798-21.049-28.507c-1.943-2.809-3.417-6.766-3.237-10.097c4.393-81.869-21.405-154.303-68.505-220.078
			c-6.97-9.733-14.752-18.883-22.081-28.364c-1.192-1.543-2.501-3.326-2.763-5.142c-0.167-1.166,1.238-3.449,2.357-3.77
			c8.928-2.554,17.956-4.76,27.353-7.176c0.528,4.17,0.81,8.613,1.686,12.937c6.485,32.026,27.418,49.945,57.817,57.928
			c15.257,4.006,21.292,0.888,29.163-12.838c4.118-7.181,8.145-14.413,12.3-21.776C946.499,309.17,980.673,390.453,979.713,410.334z
			"/>
		<path id="Collar_3_" fill-rule="evenodd" clip-rule="evenodd" fill="#333333" d="M622.095,846.638
			c-6.638,10.123-11.556,20.805-19.381,28.552c-6.259,6.195-15.748,9.608-24.328,12.887c-28.615,10.933-58.624,14.87-89.039,15.748
			c-50.625,1.46-100.327-4.561-148.749-19.771c-16.376-5.145-32.297-11.439-46.754-20.931c-1.607-1.055-3.114-2.266-5.848-4.271
			c5.324-0.363,9.223-0.563,13.11-0.909c6.628-0.591,13.238-1.418,19.876-1.841c2.556-0.163,5.391-0.053,7.717,0.882
			c47.616,19.142,97.208,24.516,147.994,21.185c48.169-3.158,94.708-13.882,139.785-31.069c0.933-0.355,1.879-0.683,2.838-0.953
			C619.59,846.068,619.935,846.24,622.095,846.638z"/>
		<path id="Collar_4_" fill-rule="evenodd" clip-rule="evenodd" fill="#333333" d="M619.168,889.454
			c-4.522,11.045-8.657,21.481-13.158,31.757c-0.624,1.424-2.977,2.756-4.662,2.944c-13.359,1.495-26.734,2.951-40.141,3.9
			c-7.586,0.538-15.241,0.098-23.629,0.098c2.076-7.585-0.828-12.238-8.806-14.105C560.57,910.837,590.62,902.606,619.168,889.454z"
			/>
		<path id="Collar_2_" fill-rule="evenodd" clip-rule="evenodd" fill="#333333" d="M966.551,661.021
			c-9.351,30.539-27.178,54.516-48.292,76.382c-0.52-0.245-1.04-0.49-1.561-0.735c1.486-5.511,3.149-10.98,4.427-16.539
			c4.272-18.589,8.359-37.221,12.698-55.793c0.3-1.282,2.057-3.14,3.179-3.169C946.447,660.912,955.904,661.021,966.551,661.021z"/>
		<path id="Collar" fill-rule="evenodd" clip-rule="evenodd" fill="#333333" d="M868.039,219.533
			c-6.76,7.93-15.631,10.901-24.98,12.772c-2.937,0.588-4.276-1.478-4.164-4.234c0.458-11.243-5.767-18.421-14.74-23.599
			c-6.021-3.475-12.476-6.196-18.688-9.349c-9.377-4.76-11.35-12.778-5.2-22.343C825.877,183.741,847.703,200.188,868.039,219.533z"
			/>
	</g>
	<path id="Nose_Highlight" fill-rule="evenodd" clip-rule="evenodd" fill="#FFFFFF" d="M926.804,815.748
		c-11.659,0.739-38.601-4.302-46.534-8.741c2.172-3.068,3.768-7.727,6.592-8.656c2.942-0.968,7.068,1.658,10.677,2.713
		c0.24-0.363,0.479-0.728,0.719-1.091c-2.903-2.734-5.807-5.469-9.01-8.487c3.975-9.063,8.049-18.349,12.616-28.764
		C912.188,780.154,921.525,796.755,926.804,815.748z"/>
	<path fill-rule="evenodd" clip-rule="evenodd" fill="#FFFFFF" d="M374.673,396.036c-29.069-2.627-55.402,6.042-81.651,18.542
		c0.784-6.768,4.162-11.091,9.168-13.33c8.75-3.911,17.71-7.587,26.914-10.184c10.526-2.97,21.387-4.797,32.153-6.853
		C370.903,382.371,375.365,386.151,374.673,396.036z"/>
	<g id="Teeth">
		<path id="Tooth_1_" fill-rule="evenodd" clip-rule="evenodd" fill="#FFFFFF" d="M550.018,411
			c12.199,9.903,16.905,28.916,10.354,41.053c-8.359-3.726-16.743-7.462-25.633-11.424C543.557,432.765,547.157,422.321,550.018,411
			z"/>
		<path id="Tooth" fill-rule="evenodd" clip-rule="evenodd" fill="#FFFFFF" d="M165.09,472.792
			c1.717,5.599,3.414,10.75,4.789,15.984c0.236,0.898-0.589,2.63-1.438,3.172c-5.265,3.36-10.676,6.49-16.092,9.73
			C150.512,491.653,156.145,478.527,165.09,472.792z"/>
	</g>
	<g id="Eyes">
		<path id="Eye_Inner" fill-rule="evenodd" clip-rule="evenodd" fill="#FFFFFF" d="M520.273,321.21
			c-3.012-0.235-5.34-1.805-5.383-5.439c-0.043-3.686,2.442-5.521,5.737-5.517c3.46,0.004,5.479,2.292,5.435,5.806
			C526.021,319.418,524.109,321.187,520.273,321.21z"/>
		<path id="Eye_Inner_1_" fill-rule="evenodd" clip-rule="evenodd" fill="#FFFFFF" d="M241.313,393.166c2.767,0,5.534,0,8.301,0
			c0.278,0.457,0.557,0.914,0.835,1.371c-1.542,1.134-3.104,3.196-4.623,3.166c-1.853-0.036-3.671-1.831-5.504-2.865
			C240.653,394.28,240.983,393.722,241.313,393.166z"/>
		<path id="Eye_Iris" fill-rule="evenodd" clip-rule="evenodd" fill="#CCCCCC" d="M253.292,392.845
			c2.829-0.127,5.444-0.245,7.986-0.36c1.837,6.485-1.22,13.94-7.304,18.335c-7.419,5.361-19.458,5.06-28.267-0.705
			c-6.262-4.099-8.681-10.08-6.985-18.167c2.814,0.211,5.718,0.428,8.521,0.638c3.038,10.025,7.505,14.089,14.683,13.561
			C247.825,405.713,251.782,401.263,253.292,392.845z"/>
		<path id="Eye_Iris_1_" fill-rule="evenodd" clip-rule="evenodd" fill="#CCCCCC" d="M528.305,302.831
			c2.115-2.214,4.953-5.188,7.727-8.093c11.685,8.268,16.364,25.781,10.891,39.373c-5.287,13.126-18.604,20.032-34.459,17.589
			c-11.703-1.805-21.302-6.978-27.437-18.275c3.912-2.417,7.517-4.645,11.09-6.852c11.322,14.063,23.328,18.153,33.222,11.35
			c6.004-4.127,9.292-10.257,7.485-17.171C535.228,314.644,531.398,309.121,528.305,302.831z"/>
		<path id="Eye_White_3_" fill-rule="evenodd" clip-rule="evenodd" fill="#FFFFFF" d="M476.748,337.486
			c1.34,9.469,6.341,15.695,13.975,21.6c-20.247,3.754-39.346,4.095-58.516,1.53c-0.125-0.478-0.25-0.957-0.376-1.435
			C446.611,352.042,461.392,344.903,476.748,337.486z"/>
		<path id="Eye_White_1_" fill-rule="evenodd" clip-rule="evenodd" fill="#FFFFFF" d="M285.154,388.63
			c-3.361,8.164-8.881,11.896-16.352,13.652c0-3.598,0-6.68,0-10.06C274.115,391.056,279.186,389.941,285.154,388.63z"/>
		<path id="Eye_White" fill-rule="evenodd" clip-rule="evenodd" fill="#FFFFFF" d="M214.851,412.875
			c-11.903,3.978-24.5,5.466-36.195-2.712c-10.561-7.386-13.726-18.458-13.899-30.269c12.266,3.181,24.245,6.304,36.239,9.375
			c1.437,0.367,3.165,0.067,4.366,0.759c1.454,0.836,3.085,2.189,3.603,3.679C211.054,399.72,212.743,405.874,214.851,412.875z"/>
		<path id="Eye_White_2_" fill-rule="evenodd" clip-rule="evenodd" fill="#FFFFFF" d="M546.62,361.363
			c21.852-20.78,23.935-51.39,2.435-74.999c12-14.306,25.871-24.754,45.916-23.551c6.25,0.375,10.658,2.668,13.29,8.623
			c4.556,10.309,5.835,20.981,2.308,31.565c-7.901,23.698-23.103,41.658-44.913,53.854
			C560.163,359.928,554.168,361.813,546.62,361.363z"/>
	</g>
	<path id="Chin_Line" fill-rule="evenodd" clip-rule="evenodd" d="M244.219,575.213c4.712-4.782,8.836-10.396,14.232-14.212
		c32.257-22.814,68.282-32.9,107.743-30.398c12.178,0.771,24.18,2.647,35.438,7.675c3.284,1.467,6.333,3.461,9.438,6.145
		c-58.005-2.977-113.234,7.181-165.517,32.417C245.107,576.297,244.663,575.755,244.219,575.213z"/>
	<path id="Forehead_Wrinkle" fill-rule="evenodd" clip-rule="evenodd" d="M246.056,291.794
		c4.993-11.182,17.294-15.449,26.095-13.534c6.898,1.503,11.867,0.192,17.755-3.748c18.021-12.063,38.282-12.988,58.977-9.273
		c5.521,0.991,10.992,2.548,16.284,4.417c3.861,1.364,4.926,0.4,6.032-3.428c4.133-14.322,11.136-27.316,25.722-32.766
		c9.214-3.443,15.099-10.223,22.273-15.792c17.391-13.499,36.933-15.87,57.939-10.742c-4.73,0.699-9.476,1.312-14.19,2.113
		c-17.381,2.949-32.359,10.981-44.792,23.139c-4.82,4.713-9.884,8.223-15.685,11.462c-12.916,7.214-18.583,20.239-24.18,33.046
		c-1.715,3.924-2.888,8.085-4.503,12.69c-1.736-0.768-3.179-1.386-4.606-2.04c-27.758-12.726-55.497-12.843-83.309-0.082
		c-1.874,0.859-4.586,1.295-6.418,0.611c-11.46-4.274-22.115-3.611-31.968,4.097C247.306,292.102,246.868,291.904,246.056,291.794z"
		/>
	<g id="Whiskers">
		<path id="Wisker_4_" fill-rule="evenodd" clip-rule="evenodd" d="M490.075,395.864c0.023,3.774-3.484,7.484-7.211,7.628
			c-3.749,0.145-7.858-3.795-7.865-7.542c-0.007-3.689,3.57-7.432,7.249-7.583C486.152,388.205,490.052,391.941,490.075,395.864z"/>
		<path id="Wisker_3_" fill-rule="evenodd" clip-rule="evenodd" d="M511.709,414.756c2.356,0.079,5.229,0.653,5.337,4.709
			c0.104,3.919-3.182,8.358-6.158,8.472c-3.514,0.133-7.746-4.025-7.771-7.637C503.089,416.566,505.67,414.719,511.709,414.756z"/>
		<path id="Wisker_2_" fill-rule="evenodd" clip-rule="evenodd" d="M456.368,410.302c1.463,2.467,3.596,4.781,4.206,7.444
			c0.632,2.761-4.595,7.716-6.622,6.51c-1.919-1.143-3.806-4.229-3.714-6.376c0.11-2.565,2.337-5.041,3.646-7.556
			C454.712,410.318,455.541,410.31,456.368,410.302z"/>
		<path id="Wisker" fill-rule="evenodd" clip-rule="evenodd" d="M203.19,440.818c0.333-5.063,2.236-7.8,5.771-7.581
			c1.628,0.101,3.833,2.782,4.437,4.712c0.901,2.881-2.631,6.761-5.442,6.104C205.991,443.595,204.37,441.666,203.19,440.818z"/>
		<path id="Wisker_1_" fill-rule="evenodd" clip-rule="evenodd" d="M195.554,457.101c2.307,2.577,4.734,4.045,4.818,5.637
			c0.174,3.338-2.321,5.819-5.687,5.267c-1.834-0.3-4.915-3.301-4.631-4.183C190.764,461.617,193.072,459.926,195.554,457.101z"/>
	</g>
</g>
</svg>
