<svg xmlns="http://www.w3.org/2000/svg" xmlns:xlink="http://www.w3.org/1999/xlink" width="700" height="700" x="0" y="0" enable-background="new 0 0 700 700" version="1.1" viewBox="0 0 700 700" xml:space="preserve"><g id="Layer_2" display="none"><rect width="700" height="700" fill="#F60"/></g><g id="Layer_1"><g><path fill-rule="evenodd" d="M690.304,419.204c-1.87-7.281-2.791-14.752-5.072-21.981 c-4.592-14.579-13.519-26.585-21.975-38.899c-6.798-9.907-13.437-19.915-19.148-30.498c-3.767-6.977-6.769-13.966-7.44-22.272 c-0.902-11.158-7.681-19.363-17.438-24.794c-2.117-1.177-3.451-2.067-3.484-4.825c-0.072-5.68-5.116-7.031-9.245-9.215 c9.337-9.114,15.36-19.916,19.76-31.804c3.065-8.279,1.407-15.396-3.678-22.312c-12.587-17.118-27.632-31.268-47.141-40.244 c-1.336-0.613-2.784-1.184-3.854-2.14c-1.558-1.388-4.137-2.485-3.219-5.234c0.887-2.662,3.423-1.657,5.306-1.717 c16.707-0.521,33.158-2.229,48.472-9.708c10.322-5.042,19.209-11.807,25.578-21.489c3.974-6.036,6.432-12.579,4.021-19.898 c-3.192-9.697-11.524-13.33-20.123-12.438c-28.041,2.909-53.112-9.179-79.519-14.322c-23.89-4.653-47.004-5.253-68.15,9.166 c-4.253,2.9-8.167,6.362-11.937,9.89c-2.145,2.01-3.792,2.727-6.748,1.454c-27.396-11.808-56.701-15.638-85.83-20.09 c-9.482-1.448-19.046-2.442-28.607-3.246c-2.857-0.242-3.32-1.784-3.735-3.777c-2.998-14.434-11.545-24.771-23.552-32.83 c-36.428-24.466-72.707-20.184-108.965,0.264c-3.368,1.901-6.647,4.034-9.73,6.374c-18.988,14.423-40.139,24.813-62.191,33.548 c-5.016,1.988-9.772,4.509-13.57,8.423c-7.005,7.222-6.281,15.972,1.827,21.877c9.414,6.857,20.479,8.792,31.658,10.509 c12.711,1.956,25.463,1.164,38.206,1.017c6.303-0.073,11.92,2.143,17.531,4.51c1.533,0.646,3.012,1.241,1.442,3.525 c-18.245,26.558-30.649,56.445-47.639,83.738c-2.527,4.06-5.033,4.67-9.212,3.667c-15.686-3.765-31.427-7.299-47.964-11.106 c8.772,15.803,17.002,30.842,25.489,45.733c1.589,2.783,1.244,4.528-0.085,7.371c-4.671,10.009-11.056,13.579-22.818,12.093 c-18.48-2.336-37.296-1.998-55.973-2.775c-1.479-0.063-2.966-0.039-4.445,0.008c-1.682,0.055-3.625,0.139-4.421,1.743 c-0.923,1.861,0.943,3.008,1.989,4.199c12.972,14.767,28.072,27.41,41.647,41.587c2.921,3.052,3.653,4.985,1.654,9.208 c-7.381,15.579-10.359,32.568-14.447,49.186c-0.66,2.687-1.805,5.395-1.773,8.076c0.104,8.781-4.965,12.341-12.476,15.443 c-19.902,8.221-39.428,17.355-59.102,26.123c0,0.371,0,0.741,0,1.112c24.119,7.361,48.213,14.823,72.391,21.985 c3.578,1.06,5.463,2.908,7.01,6.113c8.908,18.491,18.749,36.484,29.935,53.695c1.801,2.768,1.367,4.44-0.23,6.828 c-8.93,13.344-17.761,26.751-26.557,40.187c-2.396,3.668-5.833,6.643-7.67,11.396c5.834-1.059,11.247-1.912,16.605-3.029 c15.898-3.319,31.003-9.234,46.313-14.447c2.452-0.837,4.183-1.208,6.391,0.841c22.537,20.945,48.787,36.347,76.019,50.189 c2.866,1.455,3.591,2.853,3.44,5.81c-0.538,10.537-0.868,21.081-1.143,31.632c-0.068,2.45-0.598,5.1,1.631,7.778 c11.333-11.383,22.606-22.575,33.686-33.947c1.967-2.018,3.626-3.241,6.602-2.718c23.546,4.164,47.158,3.053,70.741,0.456 c2.753-0.307,3.682,0.606,4.595,2.542c8.255,17.505,16.502,35.009,24.755,52.51c0.371,0,0.739,0,1.11,0 c3.993-19.861,8.097-39.699,11.859-59.604c0.564-2.98,1.88-3.885,4.406-4.373c12.929-2.478,25.089-7.298,37.099-12.498 c2.283-0.986,3.972-0.746,6.106,0.325c16.979,8.55,34.015,16.998,51.063,25.404c2.195,1.08,4.212,2.79,7.575,2.948 c-5.007-13.919-9.823-27.304-14.717-40.9c1.405-0.118,2.317-0.219,3.236-0.264c24.38-1.207,48.59-3.509,71.999-11.056 c30.431-9.813,55.782-26.041,70.453-55.756c0.876-1.769,2.358-2.704,3.953-3.709c8.125-5.109,16.401-10.016,24.226-15.555 c15.874-11.246,28.6-25.061,33.765-44.487c1.315-4.947,2.328-9.975,3.479-14.963C690.304,429.577,690.304,424.39,690.304,419.204z" clip-rule="evenodd"/><path fill-rule="evenodd" d="M493.41,313.981c-0.882-3.237-3.535-1.96-6.601-1.77 c2.865-2.694,4.982-4.7,7.116-6.687c0.663-0.616,1.653-1.157,1.4-2.173c-0.354-1.427-1.731-1.087-2.759-1.148 c-5.015-0.284-9.979,0.469-14.99,0.949c2.947-1.243,6.037-1.848,8.924-2.969c1.592-0.616,4.831-0.086,4.502-2.096 c-0.387-2.357-1.379-5.325-4.256-6.473c-0.842-0.335-1.797-0.376-2.699-0.549c-3.998-0.762-7.994-1.524-12.962-2.475 c8.571-3.868,15.266-8.86,22.084-13.735c-2.605,3.677-6.933,5.563-9.957,10.314c11.459-0.734,19.256-9.082,29.847-9.835 c10.34-0.737,20.617-2.411,32.19-2.684c-6.217,3.798-11.405,6.854-16.479,10.094c-13.429,8.563-28.168,15.657-35.566,31.12 c1.168,5.193,4.06,9.039,8.928,11.286c4.777,2.207,9.878,3.096,15.082,3.211c7.421,0.165,8.83-1.748,6.591-9.54 c12.127,0.156,23.974,1.285,34.367,7.213c5.775,3.293,10.33,3.071,15.324-0.026c12.622-7.839,24.759-16.35,33.983-28.227 c2.427-3.122,4.423-3.362,7.266-1.062c8.369,6.767,10.234,16.566,8.082,25.656c-4.982,21.027-17.268,37.441-36.534,47.938 c-4.503,2.455-9.479,4.368-15.108,3.627c8.973-22.655,10.036-33.264,4.02-39.433c-1.472,1.586-0.603,3.505-0.733,5.238 c-1.221,15.998-5.883,30.468-18.464,41.348c-17.352,15.009-37.728,18.269-59.721,15.229c-10.567-1.461-19.763-7.189-30.01-9.537 c-20.371-4.657-36.41-16.291-51.355-30.286c-13.376-12.526-7.421-24.736,3.027-32.505c1.139-0.848,3.218-0.87,3.31-3.166 c-3.111,0.387-5.35,2.074-7.663,3.52c-13.528,8.442-15.555,22.162-5.222,34.267c3.689,4.323,7.968,8.04,11.87,12.313 c-9.277-3.609-18.285-7.683-27.345-11.645c-14.065-6.145-28.118-12.317-40.675-21.311c-0.688-0.489-4.341-0.604-1.411-3.157 c1.506-1.316,2.401-2.998,0.932-4.85c-1.543-1.945-3.771-2.203-6.055-1.782c-6.91,1.271-13.128,4.449-18.138,9.04 c-2.794,2.558-4.975,6.753-3.79,11.465c3.034-0.276,3.591-4.097,6.852-4.076c-13.336,15.056-25.016,30.995-35.629,47.718 c-7.421,11.685-15.42,23.044-18.915,36.8c-3.957,15.574,0.28,28.123,15.319,34.032c1.94,0.765,3.252,1.917,4.039,4.114 c7.299,20.422,19.688,37.777,34.842,52.795c12.946,12.824,27.789,23.664,45.194,33.313c-3.065,0-4.635,0.1-6.188-0.019 c-18.604-1.42-37.27-2.672-55.628-5.924c-33.789-5.982-66.126-16.907-97.178-31.414c-25.012-11.689-46.491-28.393-63.656-49.932 c-16.396-20.574-27.498-44.081-34.402-69.57c-9.66-35.678-4.369-68.778,16.495-99.29c10.301-15.063,24.817-25.809,38.74-37.134 c22.257-18.106,44.587-36.151,62.525-58.828c5.621-7.106,10.689-14.61,13.394-23.47c-11.042,15.095-24.744,27.458-38.884,39.313 c-14.019,11.751-28.43,23.028-42.675,34.515c22.022-35.616,45.519-70.008,63.177-107.858c1.312-2.807,2.591-1.856,4.183-0.669 c3.662,2.724,7.309,5.474,10.957,8.214c0.389-0.385,0.777-0.77,1.167-1.15c-3.537-14.771-15.98-21.464-28.362-28.744 c5.449-1.981,10.482-3.673,15.389-5.668c1.519-0.62,2.266-0.254,3.346,0.663c11.776,10.034,24.681,18.045,40.892,21.95 c-6.715,3.387-12.639,6.376-19.167,9.673c3.105,2.199,5.381,0.97,7.466,0.253c10.698-3.676,20.705-8.912,30.555-14.361 c5.458-3.016,8.116-8.088,8.587-14.604c0.66-9.16-4.604-14.66-11.834-20.099c11.409-0.126,19.653,5.11,28.027,11.768 c0.213-3.721-1.687-5.092-3.161-6.535c-3.763-3.686-8.303-6.116-13.267-7.83c-15.958-5.507-31.619-3.67-47.232,1.604 c-22.177,7.492-44.018,16.363-67.513,18.982c-14.797,1.647-29.606,1.183-43.53-5.045c-4.078-1.824-9.717-4.069-9.003-9.243 c0.643-4.661,6.675-4.244,10.56-5.619c0.334-0.119,0.737-0.051,1.1-0.119c11.77-2.266,23.676-3.922,35.085-7.809 c6.341-2.162,12.114-5.327,16.952-10.264c-7.654,1.792-15.315,3.584-22.971,5.377c12.765-8.21,24.053-18.217,37.003-25.778 c21.466-12.532,44.451-18.596,69.119-13.703c32.595,6.464,53.916,29.75,50.04,65.297c-0.643,5.901-1.402,11.789-2.111,17.681 c6.742-7.781,12.235-15.941,13.769-26.069c0.375-2.466,0.448-4.943,4.029-4.588c15.066,1.512,30.354,1.86,45.17,4.68 c37.225,7.086,73.97,16.167,107.659,34.431c14.088,7.635,28.691,14.456,42.405,25.345c-12.61-3.615-23.944-7.271-36.039-6.039 c-0.008,1.497,0.884,1.438,1.531,1.626c14.245,4.111,27.721,10.22,41.198,16.238c24.832,11.091,42.266,29.906,54.64,53.748 c0.729,1.403,1.613,2.795,0.966,4.7c-1.76,5.191-16.201,22.807-21.401,25.813c3.429-17.706,2.565-21.935-5.959-29.174 c7.157-5.601,9.248-5.206,12.366,3.02c1.809-3.779,1.363-6.908-0.275-9.877c-1.61-2.915-4.543-1.997-7.014-1.792 c-5.171,0.428-9.393,3.118-13.494,6.063c-7.932,5.691-14.821,12.59-23.094,20.414c2.871-8.06,6.634-13.67,10.667-19.137 c4.037-5.469,9.214-9.849,14.482-14.579c-6.263-1.159-9.134-0.026-14.27,5.616c-7.993,8.787-12.637,19.504-17.03,30.302 c-5.836,14.35-8.185,16.076-23.749,16.291c15.468-22.746,17.967-50.768,5.373-60.084c-0.792,0.505-0.558,1.16-0.407,1.908 c2.043,10.213,3.38,20.67,1.137,30.813c-3.238,14.648-14.337,23.692-25.75,32.183c-1.75,1.303-2.441,0.281-3.458-1.011 c-2.538-3.228-5.824-5.68-9.184-7.979c-31.425-21.522-65.743-35.756-103.657-40.716c-2.632-0.344-5.549-1.413-8.371,0.681 c26.806,3.212,50.882,14.021,74.708,25.564c-17.844-4.622-35.348-10.409-53.504-13.8c-18.356-3.429-50.173-3.888-54.649,0.121 c16.722-0.571,32.539,1.51,48.235,4.962c-15.539-0.146-30.733,1.197-45.722,9.057c1.601,0.395,2.14,0.718,2.551,0.601 c11.554-3.313,23.5-2.058,35.25-3.027c8.511-0.701,8.813-0.241,9.343,8.078c1.493,23.415,17.484,40.11,43.302,44.456 c-3.813,1.213-6.863,2.396-10.016,3.127c-3.332,0.774-6.457,3.527-10.065,1.951c-9.474-4.145-19.11-8.029-27.286-14.617 c-9.375-7.554-11.189-14.392-7.325-25.775c1.354-3.988,3.997-7.645,3.986-12.706c-1.294,0.854-2.271,1.193-2.77,1.878 c-3.747,5.148-8.117,4.321-13.555,2.632c-14.909-4.628-30.329-3.765-45.649-2.609c-3.409,0.258-7.289-0.18-10.106,3.263 c13.877-1.063,27.435,0.744,42.079,2.788c-22.676,10.885-22.12,25.348-11.596,34.658c-3.121-6.606-3.238-12.398,0.614-17.915 c7.175-10.286,18.52-11.384,29.662-14.286c-4.852,19.585-1.801,28.529,12.756,38.094c6.61,4.343,14.047,7.067,21.9,10.091 c-8.437,5.214-16.412,10.104-23.492,16.897c2.634,1.321,3.73-0.125,4.97-0.693c8.564-3.918,17.07-7.962,25.622-11.911 c1.087-0.503,2.92-2.376,3.372-0.045c0.857,4.42,3.116,2.571,5.215,1.628c8.427-3.788,16.96-7.325,25.795-10.016 c9.379-2.857,18.858-5.366,28.76-5.861c-14.808,4.227-29.327,8.87-40.521,20.214c9.59-1.702,17.552-8.181,28.177-7.007 c6.237,0.69,12.853-2.023,19.397-3.227c-4.012,5.312-7.918,10.486-12.434,16.466c6.046-0.972,9.799-4.332,14.077-6.56 C488.97,316.154,490.302,313.272,493.41,313.981z" clip-rule="evenodd"/><path fill-rule="evenodd" d="M608.103,412.402c6.903,16.157,14.441,31.835,14.572,50.058 c0.202,28.313-8.844,52.13-31.32,70.128c-28.613,22.908-62.597,30.491-97.918,34.176c-16.944,1.769-33.553-0.682-49.97-4.575 c-21.23-5.037-42.291-11.139-61.369-21.756c-25.149-13.995-45.457-33.973-63.234-56.462c-3.671-4.647-7.461-9.41-9.776-15.356 c21.859,3.938,43.456,3.632,65.06,2.908c2.642-0.086,5.28-0.994,7.91-3.327c-2.313-0.561-4.053-1.159-5.838-1.386 c-15.007-1.911-30.047-3.595-45.027-5.679c-10.265-1.425-20.431-3.351-29.086-9.809c-14.471-10.797-17.184-19.847-10.369-36.414 c8.714-21.173,22.763-39.062,35.854-57.67c-4.779,17.058-5.092,34.146-0.904,51.881c-4.666-1.926-8.537-3.595-12.467-5.119 c-1.678-0.65-3.803-1.646-4.838,0.688c-0.846,1.9,1.063,2.985,2.333,3.894c6.66,4.767,14.141,7.959,21.66,11.052 c31.256,12.843,63.696,17.934,97.505,16.691c36.236-1.334,70.476-9.741,102.798-25.866c12.862-6.417,24.172-15.107,32.024-27.539 c1.147-1.813,2.386-2.405,4.493-2.393c5.951,0.041,11.666-1.527,17.415-2.916c9.496-2.284,17.487-7.511,26.149-13.615 c-0.364,4.969-0.086,8.93-0.99,12.924c-3.767,16.664-13.799,29.206-26.25,40.149c-18.366,16.144-39.556,27.833-61.253,38.727 c-1.274,0.644-3.555,0.606-3.194,3.085C535.367,461.189,569.665,442.682,608.103,412.402z" clip-rule="evenodd"/><path fill-rule="evenodd" d="M597.612,139.505c-5.317-3.026-10.619-1.399-15.637-0.131 c-10.396,2.633-17.304,9.893-22.554,19.354c-11.06-10.4-22.747-19.087-35.671-26.08c-12.776-6.914-25.561-13.817-39.159-19.984 c7.036-7.834,15.188-13.047,24.876-15.475c21.478-5.383,42.218-0.61,62.486,5.951c20.304,6.575,40.66,10.818,62.026,7.23 c4.531-0.76,6.994,0.936,5.886,5.365c-2.327,9.281-6.248,17.969-14.719,23.314c-13.975,8.818-29.608,10.255-46.762,9.752 C584.085,142.511,590.909,141.281,597.612,139.505z" clip-rule="evenodd"/><path fill-rule="evenodd" d="M635.178,484.591c0.651-6.883,1.775-12.928,1.695-18.96 c-0.293-22.701-4.729-44.396-17.089-63.896c-1.559-2.455-1.591-4.421-0.39-7.14c4.798-10.853,6.503-22.203,4.591-34.037 c-0.275-1.709-1.652-3.558-0.261-5.313c4.614-5.828,7.054-12.762,9.946-20.304c1.775,2.979,3.173,5.293,4.549,7.622 c11.725,19.881,24.148,39.435,31.242,61.618c2.842,8.892,6.197,17.876,4.37,27.521 C669.405,455.075,654.63,470.971,635.178,484.591z" clip-rule="evenodd"/><path fill-rule="evenodd" d="M240.332,632.084c-0.593-21.939,1.854-42.493,3.632-63.086 c0.311-3.64,2.246-5.114,5.661-5.326c9.4-0.589,18.358,0.664,26.68,5.499c2.292,1.328,2.479,2.13,1.193,4.458 c-3.587,6.488-10.378,8.646-15.99,12.318c-3.717,2.428-5.878,5.239-4.595,9.563c2.199,7.406-1.112,13.312-4.787,19.096 C248.583,620.183,244.745,625.572,240.332,632.084z" clip-rule="evenodd"/><path fill-rule="evenodd" d="M243.199,111.913c11.991-4.483,23.024-9.109,34.909-11.188 c1.927-0.338,3.563-0.353,5.291,0.593c4.553,2.492,8.83,5.318,12.335,9.217c5.689,6.324,4.392,14.324-3.246,18.281 c-3.971,2.055-8.274,2.812-12.846,1.934C265.971,128.129,255.318,119.807,243.199,111.913z" clip-rule="evenodd"/><path fill-rule="evenodd" d="M337.296,367.314c1.52-0.227,1.645,0.596,1.967,1.22 c6.702,13.028,15.212,24.816,24.493,36.1c5.49,6.675,5.361,6.601-1.518,11.96c-3.029,2.361-5.802,3.251-9.586,1.724 c-4.074-1.646-8.416-2.668-12.681-3.798c-2.935-0.778-4.281-2.493-5.407-5.404C328.917,394.555,334.696,381.029,337.296,367.314z" clip-rule="evenodd"/><path fill-rule="evenodd" d="M165.835,515.698c-3.146,0.344-4.838-0.082-6.628-0.688 c-7.159-2.429-9.425-0.973-9.885,6.715c-0.327,5.562-2.868,9.378-7.711,11.812c-2.297,1.147-4.68,2.13-6.99,3.256 c-4.024,1.953-9.071,2.813-9.226,8.89c-0.035,1.516-1.587,1.275-2.613,1.308c-6.361,0.189-11.807,2.274-16.166,7.127 c-1.059,1.175-2.496,2.46-4.748,2.608c12.168-17.531,24.079-34.593,35.832-51.763c1.402-2.053,2.789-2.438,5.038-2.152 C151.8,503.954,158.529,509.113,165.835,515.698z" clip-rule="evenodd"/><path fill-rule="evenodd" d="M38.176,425.316c1.832-0.836,3.655-1.686,5.49-2.505 c13.887-6.195,26.974-14.157,41.729-18.477c3.098-0.908,4.445-0.646,6.168,2.053c4.069,6.391,7.335,13.001,8.479,20.855 c-7.8-5.427-7.887-5.517-14.931,1.054c-2.895,2.695-6.309,2.646-9.326,1.669C63.518,426.01,51.019,424.946,38.176,425.316z" clip-rule="evenodd"/><path fill-rule="evenodd" d="M370.239,403.498c-9.539-10.771-17.206-20.66-22.65-32.124 c-1.031-2.165-1.836-4.413-1.985-6.863c-0.299-4.771,4.608-12.771,9.693-13.535c4.818-0.719,8.229,2.546,10.488,7.113 c2.443,4.942,5.521,9.582,8.465,14.263c0.843,1.339,1.639,2.093-0.072,3.518c-3.238,2.687-3.823,6.621-3.909,10.55 C370.155,391.538,370.239,396.662,370.239,403.498z" clip-rule="evenodd"/><path fill-rule="evenodd" d="M502.176,312.905c1.463-1.832,2.184-2.828,3-3.744 c9.905-11.099,22.411-18.571,35.481-25.187c16.703-8.456,34.394-12.043,53.113-10.381c2.501,0.223,4.678,1.062,6.695,2.379 c1.008,0.66,2.519,1.426,1.821,2.986c-0.559,1.245-1.982,0.604-3.002,0.567c-7.629-0.267-15.115,0.706-22.46,2.657 C550.976,289.052,526.138,298.421,502.176,312.905z" clip-rule="evenodd"/><path fill-rule="evenodd" d="M428.112,286.981c22.565-7.526,25.268-11.194,22.459-30.807 c12.463,2.919,23.485,8.587,34.107,15.707C463.113,287.489,442.12,293.021,428.112,286.981z" clip-rule="evenodd"/><path fill-rule="evenodd" d="M379.754,380.138c9.138,13.539,16.581,27.58,26.82,39.699 c1.36,1.609,0.454,2.297-0.626,3.558c-4.074,4.744-9.003,3.663-14.177,2.777c-11.087-1.899-11.227-1.755-13.421-12.489 C376.101,402.68,373.578,391.609,379.754,380.138z" clip-rule="evenodd"/><path fill-rule="evenodd" d="M370.166,643.66c-2.478-2.16-3.187-5.05-4.296-7.695 c-5.714-13.626-11.802-27.068-18.793-40.092c-4.187-7.801-3.875-8.914,4.179-13.133c1.609-0.846,3.414-1.642,5.184-1.79 c4.034-0.339,8.913-2.572,11.715,1.759c2.682,4.15-1.322,7.235-3.729,9.976c-3.95,4.494-3.696,8.411,0.206,12.656 c3.216,3.5,5.598,7.787,5.324,12.486C369.454,626.436,368.369,634.996,370.166,643.66z" clip-rule="evenodd"/><path fill-rule="evenodd" d="M412.602,415.424c-4.082-4.709-8.216-9.374-12.236-14.138 c-4.497-5.33-8.663-10.733-11.382-17.422c-2.225-5.472,0.126-7.162,4.174-9.139c8.136-3.976,13.408-2.482,17.84,5.3 c1.546,2.717,3.183,5.385,4.795,8.071c0.759,1.263,1.788,2.551,0.914,4.07C412.535,399.425,412.637,407.274,412.602,415.424z" clip-rule="evenodd"/><path fill-rule="evenodd" d="M453.785,426.488c-4.966-5.472-8.888-9.623-12.61-13.95 c-3.477-4.043-7.13-8.018-9.481-12.86c-1.548-3.179-1.44-6.666,1.01-9.302c1.903-2.049,4.24-4.192,7.655-2.866 c6.157,2.396,12.296,4.843,18.518,7.058c1.631,0.579,2.239,1.14,1.318,2.618C454.902,405.714,452.79,415.029,453.785,426.488z" clip-rule="evenodd"/><path fill-rule="evenodd" d="M70.083,281.871c4.468-1.377,8.188,0.426,12.016,0.706 c13.606,0.996,27.186,2.331,40.788,3.413c3.188,0.256,3.875,1.126,2.093,3.996c-3.116,5.003-6.014,10.141-8.881,15.291 c-0.877,1.578-1.664,2.279-3.404,1.197c-5.463-3.402-11.745-5.914-15.877-10.889c-4.906-5.908-11.359-8.517-18.151-10.891 C75.966,283.752,73.236,282.905,70.083,281.871z" clip-rule="evenodd"/><path fill-rule="evenodd" d="M421.461,397.006c7.919,5.991,11.752,14.895,17.912,21.871 c1.211,1.367,0.282,2.171-0.307,3.353c-3.456,6.923-9.719,5.963-15.776,5.937c-2.3-0.014-3.242-0.805-3.591-3.034 C418.233,415.722,418.501,406.456,421.461,397.006z" clip-rule="evenodd"/><path fill-rule="evenodd" d="M466.074,396.621c4.627,9.301,9.892,17.599,16.058,25.788 c-5.946,2.117-11.915,2.107-17.556,3.532c-5.842,1.474-6.774-1.873-6.466-6.177C458.685,411.652,460.833,403.995,466.074,396.621z" clip-rule="evenodd"/><path fill-rule="evenodd" d="M132.238,223.796c10.329,2.64,19.612,6.23,29.438,7.732 c2.755,0.42,1.39,1.86,0.508,3.072c-4.121,5.658-8.235,11.323-12.735,17.505C144.067,242.331,138.795,233.102,132.238,223.796z" clip-rule="evenodd"/><path fill-rule="evenodd" d="M131.031,546.049c-0.434-3.667,2.307-4.19,4.305-5.199 c3.617-1.823,7.358-3.396,10.988-5.191c3.514-1.746,5.666-4.478,6.285-8.52c0.801-5.206,1.642-10.717,9.307-6.959 c0.416,0.207,1.185,0.071,1.619-0.186c5.421-3.274,6.336,0.994,7.683,4.549c1.47,3.88,0.813,5.833-3.862,7.148 c-6.863,1.937-13.303,5.358-19.996,7.955C141.96,541.739,137.095,545.299,131.031,546.049z" clip-rule="evenodd"/><path fill-rule="evenodd" d="M475.132,602.389c-9.892-6.127-18.71-11.585-28.188-17.459 c3.446-1.854,6.143-4.021,9.187-4.754c3.434-0.822,8.574-1.107,10.192,1.67C469.826,587.851,473.114,594.25,475.132,602.389z" clip-rule="evenodd"/><path fill-rule="evenodd" d="M570.372,246.857c-1.085-2.242-3.087-3.143-3.419-5.914 c2.286-2.542,4.958-4.735,7.075-6.718c3.573,0.289,7.622,5.953,7.723,9.84c0.162,6.15-2.201,11.49-5.343,16.582" clip-rule="evenodd"/><path fill-rule="evenodd" d="M374.009,619.536c0-6.335-2.381-11.88-6.392-16.601 c-2.711-3.188-2.311-5.68,0.254-8.573c2.586-2.921,4.974-6.132,4.425-10.342c-0.263-2.008,0.399-3.319,2.055-2.312 c1.642,1.005,6.03-0.759,4.819,3.198C375.724,596.167,375.632,607.819,374.009,619.536z" clip-rule="evenodd"/><path fill-rule="evenodd" d="M473.585,400.034c6.336,1.782,12.102,3.4,17.862,5.034 c1.649,0.465,2.394,1.383,1.956,3.26c-0.792,3.392-1.509,6.814-2.002,10.261c-0.259,1.836-1.204,2.556-2.818,2.798 c-1.371,0.214-2.388-0.071-3.193-1.446C481.63,413.487,476.833,407.646,473.585,400.034z" clip-rule="evenodd"/><path fill-rule="evenodd" d="M75.876,436.139c6.675,1.067,10.975-2.695,14.854-7.036 c1.94-2.171,3.405-1.944,5.458-0.248c3.608,2.975,5.979,6.234,5.205,11.316c-0.385,2.511-1.049,3.238-3.428,2.312 C90.857,439.707,83.342,438.321,75.876,436.139z" clip-rule="evenodd"/><path fill-rule="evenodd" d="M72.164,285.34c6.685,1.835,13.977,3.234,18.151,9.272 c3.744,5.415,8.415,9.152,14.086,12.048c2.298,1.171,4.514,2.515,6.692,3.89c2.854,1.8,0.38,3.71-0.299,5.202 c-0.936,2.063-2.079,0.224-2.871-0.532C96.713,304.476,84.387,295.075,72.164,285.34z" clip-rule="evenodd"/><path fill-rule="evenodd" d="M262.733,604.487c-0.194-2.9,0.081-4.657-0.479-6.092 c-2.578-6.593,0.633-9.994,6.289-12.358c5.53-2.319,10.703-5.173,14.063-10.604C276.552,585.043,271.799,595.425,262.733,604.487z" clip-rule="evenodd"/><path fill-rule="evenodd" d="M496.338,419.358c0.305-2.393,0.445-3.994,0.727-5.576 c1.254-7.051,1.233-6.787,8.398-5.82c3.093,0.416,3.201,2.405,3.866,4.399c0.887,2.641-1.596,2.532-2.815,3.085 C503.381,416.861,500.097,417.941,496.338,419.358z" clip-rule="evenodd"/><path fill-rule="evenodd" d="M415.499,252.777c1.278,1.281,4.875-0.303,4.404,2.661 c-0.506,3.184-3.038,5.574-6.569,5.561c-1.807-0.011-4.413-0.311-4.158-3.229C409.497,254.072,412.392,253.326,415.499,252.777z" clip-rule="evenodd"/><path fill-rule="evenodd" d="M524.058,407.374c-3.965,1.867-6.785,3.053-9.458,4.509 c-2.046,1.111-1.98-0.579-2.546-1.568c-1.027-1.801-0.032-2.163,1.528-2.34C516.497,407.641,519.343,406.623,524.058,407.374z" clip-rule="evenodd"/><path fill-rule="evenodd" d="M72.358,435.98c-6.272-1.254-12.539-2.502-18.807-3.754 C60.361,430.82,66.438,433.019,72.358,435.98z" clip-rule="evenodd"/><path fill="#999" fill-rule="evenodd" d="M493.41,313.981c-3.107-0.709-4.439,2.173-6.631,3.313 c-4.278,2.228-8.031,5.588-14.077,6.56c4.516-5.979,8.422-11.154,12.434-16.466c-6.545,1.203-13.16,3.917-19.397,3.227 c-10.625-1.174-18.587,5.305-28.177,7.007c11.194-11.344,25.714-15.987,40.521-20.214c-9.901,0.495-19.381,3.004-28.76,5.861 c-8.835,2.69-17.368,6.228-25.795,10.016c-2.099,0.943-4.357,2.792-5.215-1.628c-0.452-2.331-2.285-0.458-3.372,0.045 c-8.552,3.949-17.058,7.993-25.622,11.911c-1.239,0.568-2.336,2.015-4.97,0.693c7.08-6.794,15.056-11.684,23.492-16.897 c-7.854-3.023-15.29-5.748-21.9-10.091c-14.557-9.564-17.607-18.509-12.756-38.094c-11.143,2.902-22.487,4-29.662,14.286 c-3.853,5.517-3.735,11.309-0.614,17.915c-10.524-9.311-11.08-23.773,11.596-34.658c-14.645-2.044-28.202-3.851-42.079-2.788 c2.817-3.442,6.697-3.005,10.106-3.263c15.32-1.155,30.74-2.019,45.649,2.609c5.438,1.689,9.808,2.517,13.555-2.632 c0.499-0.685,1.476-1.024,2.77-1.878c0.011,5.062-2.632,8.718-3.986,12.706c-3.864,11.384-2.05,18.222,7.325,25.775 c8.176,6.588,17.813,10.473,27.286,14.617c3.608,1.576,6.733-1.177,10.065-1.951c3.152-0.73,6.203-1.914,10.016-3.127 c-25.817-4.346-41.809-21.041-43.302-44.456c-0.53-8.319-0.832-8.779-9.343-8.078c-11.75,0.97-23.696-0.286-35.25,3.027 c-0.411,0.117-0.95-0.206-2.551-0.601c14.988-7.859,30.183-9.202,45.722-9.057c-15.696-3.452-31.514-5.533-48.235-4.962 c4.477-4.009,36.293-3.55,54.649-0.121c18.156,3.391,35.66,9.178,53.504,13.8c-23.826-11.543-47.902-22.353-74.708-25.564 c2.822-2.094,5.739-1.024,8.371-0.681c37.914,4.96,72.232,19.193,103.657,40.716c3.359,2.299,6.646,4.751,9.184,7.979 c1.017,1.292,1.708,2.313,3.458,1.011c11.413-8.49,22.512-17.534,25.75-32.183c2.243-10.144,0.906-20.601-1.137-30.813 c-0.15-0.748-0.385-1.403,0.399-1.911c12.602,9.319,10.103,37.341-5.365,60.087c15.564-0.215,17.913-1.941,23.749-16.291 c4.394-10.798,9.037-21.515,17.03-30.302c5.136-5.643,8.007-6.775,14.27-5.616c-5.269,4.73-10.445,9.11-14.482,14.579 c-4.033,5.467-7.796,11.077-10.667,19.137c8.272-7.824,15.162-14.723,23.094-20.414c4.102-2.944,8.323-5.635,13.494-6.063 c2.471-0.205,5.403-1.123,7.014,1.792c1.639,2.969,2.084,6.098,0.275,9.877c-3.118-8.226-5.209-8.62-12.366-3.02 c8.524,7.239,9.388,11.468,5.959,29.174c5.2-3.006,19.642-20.621,21.401-25.813c0.647-1.905-0.236-3.297-0.966-4.7 c-12.374-23.842-29.808-42.657-54.64-53.748c-13.478-6.019-26.953-12.127-41.198-16.238c-0.647-0.188-1.539-0.129-1.531-1.626 c12.095-1.231,23.429,2.424,36.039,6.039c-13.714-10.889-28.317-17.71-42.405-25.345c-33.689-18.264-70.435-27.345-107.659-34.431 c-14.816-2.819-30.104-3.168-45.17-4.68c-3.581-0.355-3.654,2.122-4.029,4.588c-1.533,10.128-7.026,18.288-13.769,26.069 c0.709-5.892,1.469-11.779,2.111-17.681c3.876-35.547-17.445-58.833-50.04-65.297c-24.668-4.893-47.653,1.171-69.119,13.703 c-12.95,7.562-24.238,17.568-37.003,25.778c7.655-1.793,15.316-3.585,22.971-5.377c-4.838,4.937-10.611,8.102-16.952,10.264 c-11.409,3.887-23.315,5.543-35.085,7.809c-0.362,0.068-0.766,0-1.1,0.119c-3.885,1.375-9.917,0.958-10.56,5.619 c-0.714,5.174,4.925,7.419,9.003,9.243c13.924,6.228,28.733,6.692,43.53,5.045c23.495-2.619,45.336-11.49,67.513-18.982 c15.613-5.274,31.274-7.111,47.232-1.604c4.964,1.714,9.504,4.145,13.267,7.83c1.475,1.443,3.374,2.814,3.161,6.535 c-8.374-6.657-16.618-11.894-28.027-11.768c7.23,5.438,12.494,10.938,11.834,20.099c-0.471,6.516-3.129,11.588-8.587,14.604 c-9.85,5.449-19.856,10.686-30.555,14.361c-2.085,0.717-4.36,1.946-7.466-0.253c6.528-3.297,12.452-6.286,19.167-9.673 c-16.211-3.905-29.115-11.916-40.892-21.95c-1.08-0.917-1.827-1.283-3.346-0.663c-4.906,1.995-9.939,3.687-15.389,5.668 c12.382,7.28,24.825,13.973,28.362,28.744c-0.39,0.381-0.778,0.766-1.167,1.15c-3.648-2.74-7.295-5.49-10.957-8.214 c-1.592-1.188-2.871-2.138-4.183,0.669c-17.658,37.851-41.154,72.242-63.177,107.858c14.245-11.486,28.656-22.764,42.675-34.515 c14.14-11.854,27.842-24.218,38.884-39.313c-2.704,8.859-7.772,16.363-13.394,23.47c-17.938,22.677-40.269,40.722-62.525,58.828 c-13.923,11.325-28.439,22.071-38.74,37.134c-20.864,30.512-26.155,63.612-16.495,99.29c6.904,25.489,18.006,48.996,34.402,69.57 c17.165,21.539,38.645,38.242,63.656,49.932c31.052,14.507,63.389,25.432,97.178,31.414c18.358,3.252,37.024,4.504,55.628,5.924 c1.554,0.118,3.123,0.019,6.188,0.019c-17.405-9.649-32.248-20.489-45.194-33.313c-15.153-15.018-27.543-32.373-34.842-52.795 c-0.787-2.197-2.099-3.35-4.039-4.114c-15.039-5.909-19.276-18.458-15.319-34.032c3.495-13.756,11.494-25.115,18.915-36.8 c10.613-16.723,22.293-32.662,35.629-47.718c-3.261-0.021-3.817,3.8-6.852,4.076c-1.185-4.712,0.996-8.907,3.79-11.465 c5.01-4.591,11.228-7.769,18.138-9.04c2.284-0.421,4.512-0.163,6.055,1.782c1.47,1.852,0.574,3.533-0.932,4.85 c-2.93,2.553,0.723,2.668,1.411,3.157c12.557,8.993,26.609,15.166,40.675,21.311c9.06,3.962,18.067,8.035,27.345,11.645 c-3.902-4.273-8.181-7.99-11.87-12.313c-10.333-12.104-8.307-25.824,5.222-34.267c2.313-1.445,4.552-3.133,7.663-3.52 c-0.092,2.296-2.171,2.318-3.31,3.166c-10.448,7.769-16.403,19.979-3.027,32.505c14.945,13.995,30.984,25.629,51.355,30.286 c10.247,2.348,19.442,8.076,30.01,9.537c21.993,3.039,42.369-0.221,59.721-15.229c12.581-10.88,17.243-25.35,18.464-41.348 c0.131-1.733-0.738-3.652,0.733-5.238c6.017,6.169,4.953,16.777-4.02,39.433c5.629,0.741,10.605-1.172,15.108-3.627 c19.267-10.496,31.552-26.91,36.534-47.938c2.152-9.09,0.287-18.89-8.082-25.656c-2.843-2.301-4.839-2.061-7.266,1.062 c-9.225,11.877-21.361,20.388-33.983,28.227c-4.994,3.098-9.549,3.319-15.324,0.026c-10.394-5.928-22.24-7.057-34.367-7.213 c2.239,7.792,0.83,9.705-6.591,9.54c-5.204-0.115-10.305-1.004-15.082-3.211c-4.868-2.247-7.76-6.093-8.93-11.288 C493.2,313.865,493.41,313.981,493.41,313.981z" clip-rule="evenodd"/><path fill="#666" fill-rule="evenodd" d="M510.761,175.585c5.697,13.726,10.065,27.782,10.91,42.741 c0.148,2.605,0.058,5.876-2.569,6.652c-2.894,0.854-3.139-2.972-4.7-4.596c-0.376-0.391-0.636-0.906-0.91-1.387 c-10.215-17.949-21.929-35.114-38.03-47.95c-18.139-14.466-37.8-27.111-60.327-34.294c-1.998-0.638-4.298-0.885-6.36-3.452 c47.243,9.381,82.43,34.659,107.454,74.922C515.668,196.813,511.923,186.445,510.761,175.585z" clip-rule="evenodd"/><path fill="#666" fill-rule="evenodd" d="M341.963,149.722c0.041,1.092-0.584,1.446-1.259,1.774 c-8.835,4.291-17.016,9.692-25.159,15.118c-10.654,7.098-20.901,14.727-28.118,25.589c-7.597,11.44-6.231,19.694,4.146,28.538 c6.382,5.436,14.123,8.792,20.635,13.981c1.816,1.45,4.676,3.014,3.346,5.639c-1.329,2.623-4.179,1.371-6.398,0.486 c-11.007-4.379-20.574-10.81-28.194-19.972c-4.197-5.044-6.395-10.757-5.499-17.422c1.918-14.252,10.22-24.289,21.71-31.9 c9.857-6.527,20.276-12.16,30.849-17.467C332.39,151.895,336.777,149.466,341.963,149.722z" clip-rule="evenodd"/><path fill="#666" fill-rule="evenodd" d="M352.924,173.267c3.018-1.63,5.054-0.924,7.157-0.53 c27.908,5.195,52.257,18.535,76.331,32.755c16.575,9.787,30.276,22.984,44.461,35.627c7.151,6.372,14.439,12.737,19.887,20.782 c1.078,1.591,3.013,3.338,1.007,5.34c-2.331,2.321-3.636-0.392-4.93-1.584c-7.872-7.272-15.775-14.523-23.422-22.032 c-24.619-24.179-52.5-43.668-83.697-58.371C378.274,179.857,366.173,176.24,352.924,173.267z" clip-rule="evenodd"/><path fill="#666" fill-rule="evenodd" d="M282.02,348.308c-0.317-0.407-0.629-0.818-0.941-1.229 c12.788-14.112,27.377-25.237,47.372-27.037c3.808-0.341,7.806-0.782,11.395,1.211c1.832,1.017,4.627,1.786,3.596,4.677 c-0.876,2.444-3.246,2.829-5.598,2.103c-1.989-0.615-3.934-0.681-5.992-0.418c-11.264,1.438-21.828,5.006-31.758,10.443 C294.016,341.383,288.038,344.885,282.02,348.308z" clip-rule="evenodd"/><path fill="#666" fill-rule="evenodd" d="M260.333,297.769c0.655-1.624,1.844-1.871,3.11-2.255 c7.389-2.245,15.009-1.759,22.557-1.967c25.517-0.706,49.809,4.984,73.303,14.507c2.354,0.952,4.432,2.627,6.547,4.093 c0.921,0.637,1.634,1.673,0.76,2.823c-0.715,0.946-1.725,0.405-2.533,0.07c-2.899-1.198-5.75-2.512-8.649-3.71 C324.959,298.712,293.175,295.134,260.333,297.769z" clip-rule="evenodd"/><path fill="#666" fill-rule="evenodd" d="M601.716,336.935c2.155,0.742,3.469,2.022,3.258,4.414 c-0.168,1.925-0.602,3.854-3.052,3.572c-2.626-0.299-2.707-2.623-2.747-4.585C599.138,338.684,599.577,337.068,601.716,336.935z" clip-rule="evenodd"/><path fill="#666" fill-rule="evenodd" d="M469.776,366.219c0.086-1.438,0.534-2.803,2.191-2.559 c2.302,0.339,4.279,1.623,4.818,3.983c0.316,1.394-1.038,2.505-2.396,2.479C471.943,370.068,470.276,368.729,469.776,366.219z" clip-rule="evenodd"/><path fill="#666" fill-rule="evenodd" d="M513.397,353.178c1.607-0.7,3.534-1.717,3.792,1.335 c0.225,2.649-1.782,2.708-3.682,2.763c-2.165,0.068-4.505-0.372-4.381-2.854C509.274,351.469,511.656,352.844,513.397,353.178z" clip-rule="evenodd"/><path fill="#666" fill-rule="evenodd" d="M539.568,344.506c0.145-2.128,1.882-2.719,3.328-3.085 c1.813-0.461,2.476,1.121,2.722,2.596c0.302,1.782-0.815,2.84-2.404,2.912C541.562,347.011,540.004,346.411,539.568,344.506z" clip-rule="evenodd"/><path fill="#666" fill-rule="evenodd" d="M484.018,362.766c-1.477-0.178-2.895-0.979-3.046-2.939 c-0.164-2.158,1.463-2.234,3.014-2.153c1.909,0.101,3.262,0.99,3.141,3.048C487.039,362.276,485.837,362.823,484.018,362.766z" clip-rule="evenodd"/><path fill="#999" fill-rule="evenodd" d="M608.103,412.402c-38.438,30.279-72.736,48.787-86.03,46.478 c-0.36-2.479,1.92-2.441,3.194-3.085c21.697-10.894,42.887-22.583,61.253-38.727c12.451-10.943,22.483-23.485,26.25-40.149 c0.904-3.994,0.626-7.955,0.99-12.924c-8.662,6.104-16.653,11.331-26.149,13.615c-5.749,1.389-11.464,2.957-17.415,2.916 c-2.107-0.013-3.346,0.579-4.493,2.393c-7.853,12.432-19.162,21.122-32.024,27.539c-32.322,16.125-66.562,24.532-102.798,25.866 c-33.809,1.242-66.249-3.849-97.505-16.691c-7.52-3.093-15-6.285-21.66-11.052c-1.271-0.908-3.179-1.993-2.333-3.894 c1.035-2.333,3.16-1.338,4.838-0.688c3.93,1.524,7.801,3.193,12.467,5.119c-4.188-17.735-3.875-34.823,0.904-51.881 c-13.092,18.608-27.141,36.497-35.854,57.67c-6.814,16.567-4.102,25.617,10.369,36.414c8.655,6.458,18.821,8.384,29.086,9.809 c14.98,2.084,30.021,3.768,45.027,5.679c1.785,0.227,3.524,0.825,5.838,1.386c-2.63,2.333-5.269,3.241-7.91,3.327 c-21.604,0.724-43.2,1.03-65.06-2.908c2.315,5.946,6.105,10.709,9.776,15.356c17.777,22.489,38.085,42.467,63.234,56.462 c19.078,10.617,40.139,16.719,61.369,21.756c16.417,3.894,33.025,6.344,49.97,4.575c35.321-3.685,69.305-11.268,97.918-34.176 c22.477-17.998,31.522-41.815,31.32-70.128C622.544,444.237,615.006,428.56,608.103,412.402z" clip-rule="evenodd"/><path fill="#666" fill-rule="evenodd" d="M536.127,465.734c-5.66,7.674-26.05,14.565-34.236,11.853 C513.309,473.634,524.062,469.913,536.127,465.734z" clip-rule="evenodd"/><path fill="#666" fill-rule="evenodd" d="M523.309,463.667c-5.144,2.054-10.036,5.197-16.025,3.972 C512.466,465.721,517.444,463.112,523.309,463.667z" clip-rule="evenodd"/><path id="ear-left" fill="#999" fill-rule="evenodd" d="M597.612,139.505 c-6.703,1.776-13.526,3.006-19.227,9.298c17.153,0.503,32.787-0.934,46.762-9.752c8.471-5.346,12.392-14.033,14.719-23.314 c1.108-4.43-1.354-6.125-5.886-5.365c-21.366,3.588-41.723-0.655-62.026-7.23c-20.269-6.562-41.009-11.334-62.486-5.951 c-9.688,2.428-17.84,7.641-24.876,15.475c13.599,6.167,26.383,13.07,39.159,19.984c12.924,6.993,24.611,15.68,35.671,26.08 c5.25-9.462,12.158-16.722,22.554-19.354C586.993,138.105,592.294,136.479,597.612,139.505z" clip-rule="evenodd"/><path id="cheek" fill="#999" fill-rule="evenodd" d="M635.178,484.591 c19.452-13.62,34.227-29.516,38.654-52.889c1.827-9.646-1.528-18.63-4.37-27.521c-7.094-22.184-19.518-41.737-31.242-61.618 c-1.376-2.329-2.773-4.644-4.549-7.622c-2.893,7.542-5.332,14.476-9.946,20.304c-1.392,1.756-0.015,3.604,0.261,5.313 c1.912,11.834,0.207,23.185-4.591,34.037c-1.201,2.719-1.169,4.685,0.39,7.14c12.359,19.5,16.796,41.195,17.089,63.896 C636.954,471.663,635.83,477.708,635.178,484.591z" clip-rule="evenodd"/><path id="spike_6_" fill="#FFF" fill-rule="evenodd" d="M240.332,632.084 c4.413-6.512,8.252-11.901,11.794-17.478c3.675-5.784,6.986-11.689,4.787-19.096c-1.283-4.324,0.878-7.136,4.595-9.563 c5.612-3.672,12.403-5.83,15.99-12.318c1.285-2.328,1.099-3.13-1.193-4.458c-8.321-4.835-17.279-6.088-26.68-5.499 c-3.415,0.212-5.351,1.687-5.661,5.326C242.185,589.591,239.739,610.145,240.332,632.084z" clip-rule="evenodd"/><path id="ear-inner" fill="#CCC" fill-rule="evenodd" d="M243.199,111.913 c12.119,7.894,22.772,16.216,36.443,18.836c4.571,0.878,8.875,0.121,12.846-1.934c7.638-3.957,8.936-11.957,3.246-18.281 c-3.505-3.898-7.782-6.725-12.335-9.217c-1.728-0.945-3.364-0.931-5.291-0.593C266.223,102.804,255.19,107.43,243.199,111.913z" clip-rule="evenodd"/><path id="nose" fill="#999" fill-rule="evenodd" d="M493.41,313.981c0,0-0.21-0.116-0.208-0.116 c7.4-15.461,22.14-22.555,35.568-31.118c5.074-3.239,10.263-6.296,16.479-10.094c-11.573,0.272-21.851,1.946-32.19,2.684 c-10.591,0.753-18.388,9.101-29.847,9.835c3.024-4.752,7.352-6.638,9.957-10.314c-6.818,4.875-13.513,9.867-22.084,13.735 c4.968,0.95,8.964,1.713,12.962,2.475c0.902,0.173,1.857,0.214,2.699,0.549c2.877,1.147,3.869,4.115,4.256,6.473 c0.329,2.01-2.91,1.479-4.502,2.096c-2.887,1.121-5.977,1.726-8.924,2.969c5.011-0.48,9.976-1.233,14.99-0.949 c1.027,0.062,2.404-0.278,2.759,1.148c0.253,1.016-0.737,1.557-1.4,2.173c-2.134,1.986-4.251,3.992-7.116,6.687 C489.875,312.021,492.528,310.744,493.41,313.981z" clip-rule="evenodd"/><path id="tooth_9_" fill="#FFF" fill-rule="evenodd" d="M337.296,367.314 c-2.601,13.715-8.38,27.24-2.731,41.801c1.126,2.911,2.473,4.626,5.407,5.404c4.265,1.13,8.606,2.152,12.681,3.798 c3.784,1.527,6.557,0.638,9.586-1.724c6.879-5.359,7.008-5.285,1.518-11.96c-9.281-11.283-17.791-23.071-24.493-36.1 C338.941,367.91,338.816,367.088,337.296,367.314z" clip-rule="evenodd"/><path id="spike_5_" fill="#FFF" fill-rule="evenodd" d="M165.835,515.698 c-7.307-6.585-14.035-11.744-23.097-12.888c-2.249-0.285-3.636,0.1-5.038,2.152c-11.753,17.17-23.664,34.231-35.832,51.763 c2.252-0.148,3.689-1.434,4.748-2.608c4.359-4.853,9.805-6.938,16.166-7.127c1.026-0.032,2.578,0.208,2.613-1.308 c0.154-6.077,5.201-6.937,9.226-8.89c2.311-1.126,4.693-2.108,6.99-3.256c4.843-2.434,7.384-6.25,7.711-11.812 c0.46-7.688,2.726-9.144,9.885-6.715C160.998,515.616,162.689,516.042,165.835,515.698z" clip-rule="evenodd"/><path id="spike_4_" fill="#FFF" fill-rule="evenodd" d="M38.176,425.316 c12.843-0.37,25.342,0.693,37.608,4.649c3.018,0.977,6.432,1.026,9.326-1.669c7.044-6.57,7.131-6.48,14.931-1.054 c-1.144-7.854-4.409-14.465-8.479-20.855c-1.723-2.699-3.07-2.961-6.168-2.053c-14.755,4.319-27.842,12.281-41.729,18.477 C41.832,423.631,40.008,424.48,38.176,425.316z" clip-rule="evenodd"/><path id="tooth_8_" fill="#FFF" fill-rule="evenodd" d="M370.239,403.498 c0-6.836-0.084-11.96,0.029-17.079c0.086-3.929,0.671-7.863,3.909-10.55c1.711-1.425,0.915-2.179,0.072-3.518 c-2.944-4.681-6.021-9.32-8.465-14.263c-2.259-4.567-5.67-7.832-10.488-7.113c-5.085,0.765-9.992,8.764-9.693,13.535 c0.149,2.45,0.954,4.698,1.985,6.863C353.033,382.838,360.7,392.728,370.239,403.498z" clip-rule="evenodd"/><path id="nose-accent" fill="#CCC" fill-rule="evenodd" d="M502.176,312.905 c23.962-14.484,48.8-23.854,74.649-30.722c7.345-1.951,14.831-2.924,22.46-2.657c1.02,0.037,2.443,0.678,3.002-0.567 c0.697-1.561-0.813-2.326-1.821-2.986c-2.018-1.317-4.194-2.156-6.695-2.379c-18.72-1.662-36.41,1.925-53.113,10.381 c-13.07,6.615-25.576,14.088-35.481,25.187C504.36,310.077,503.639,311.073,502.176,312.905z" clip-rule="evenodd"/><path id="eye-white" fill="#FFF" fill-rule="evenodd" d="M428.112,286.981 c14.008,6.039,35.001,0.508,56.566-15.1c-10.622-7.12-21.645-12.788-34.107-15.707 C453.379,275.787,450.677,279.455,428.112,286.981z" clip-rule="evenodd"/><path id="tooth_7_" fill="#FFF" fill-rule="evenodd" d="M379.754,380.138 c-6.177,11.472-3.653,22.542-1.403,33.545c2.194,10.734,2.334,10.59,13.421,12.489c5.174,0.886,10.103,1.967,14.177-2.777 c1.08-1.261,1.986-1.948,0.626-3.558C396.335,407.718,388.892,393.677,379.754,380.138z" clip-rule="evenodd"/><path id="spike_3_" fill="#FFF" fill-rule="evenodd" d="M370.166,643.66 c-1.797-8.664-0.712-17.225-0.21-25.833c0.273-4.699-2.108-8.986-5.324-12.486c-3.902-4.245-4.156-8.162-0.206-12.656 c2.406-2.74,6.41-5.825,3.729-9.976c-2.802-4.331-7.681-2.098-11.715-1.759c-1.77,0.148-3.574,0.944-5.184,1.79 c-8.054,4.219-8.365,5.332-4.179,13.133c6.991,13.023,13.079,26.466,18.793,40.092C366.979,638.61,367.688,641.5,370.166,643.66z" clip-rule="evenodd"/><path id="tooth_6_" fill="#FFF" fill-rule="evenodd" d="M412.602,415.424 c0.035-8.149-0.067-15.999,4.104-23.257c0.874-1.52-0.155-2.808-0.914-4.07c-1.612-2.687-3.249-5.354-4.795-8.071 c-4.432-7.782-9.704-9.275-17.84-5.3c-4.048,1.977-6.398,3.667-4.174,9.139c2.719,6.688,6.885,12.092,11.382,17.422 C404.386,406.05,408.52,410.715,412.602,415.424z" clip-rule="evenodd"/><path id="tooth_5_" fill="#FFF" fill-rule="evenodd" d="M453.785,426.488 c-0.995-11.459,1.117-20.774,6.409-29.303c0.921-1.479,0.313-2.039-1.318-2.618c-6.222-2.215-12.36-4.662-18.518-7.058 c-3.415-1.326-5.752,0.817-7.655,2.866c-2.45,2.636-2.558,6.123-1.01,9.302c2.352,4.843,6.005,8.817,9.481,12.86 C444.897,416.865,448.819,421.017,453.785,426.488z" clip-rule="evenodd"/><path id="spike_2_" fill="#FFF" fill-rule="evenodd" d="M70.083,281.871 c3.152,1.034,5.883,1.881,8.583,2.824c6.792,2.374,13.245,4.982,18.151,10.891c4.132,4.975,10.414,7.486,15.877,10.889 c1.74,1.082,2.527,0.381,3.404-1.197c2.867-5.15,5.765-10.288,8.881-15.291c1.782-2.87,1.095-3.74-2.093-3.996 c-13.603-1.082-27.182-2.417-40.788-3.413C78.272,282.297,74.551,280.494,70.083,281.871z" clip-rule="evenodd"/><path id="tooth_4_" fill="#FFF" fill-rule="evenodd" d="M421.461,397.006 c-2.96,9.45-3.229,18.716-1.762,28.126c0.349,2.229,1.291,3.021,3.591,3.034c6.058,0.026,12.32,0.986,15.776-5.937 c0.589-1.182,1.518-1.985,0.307-3.353C433.213,411.9,429.38,402.997,421.461,397.006z" clip-rule="evenodd"/><path id="tooth_3_" fill="#FFF" fill-rule="evenodd" d="M466.074,396.621 c-5.24,7.374-7.389,15.031-7.964,23.144c-0.309,4.304,0.624,7.65,6.466,6.177c5.641-1.425,11.609-1.415,17.556-3.532 C475.965,414.22,470.701,405.922,466.074,396.621z" clip-rule="evenodd"/></g><path id="Collar" fill="#333" d="M101.869,463.591c1.891,0.235,6.877,21,20.77,39.138c15.433-40.435,100.324,35.851,43.197,50.7 c14.06,11.649,42.376,28.227,63.304,36.528c-7.718-75.305,100.049-26.777,48.778,11.957c12.961,9.953,64.479,3.229,64.046,2.8 c-33.351-32.949,57.021-56.187,49.606-13.716c55.375-11.387,25.471-23.876,11.014-23.65 c-182.673,2.857-304.103-69.421-300.715-220.409c0.082-3.669-12.906,30.206-9.569,47.074 C113.753,403.543,118.777,465.753,101.869,463.591z"/><path id="eyebrow_2_" fill-rule="evenodd" d="M341.963,149.722c-5.187-0.256-9.573,2.173-13.942,4.365 c-10.572,5.307-20.991,10.939-30.849,17.467c-11.49,7.611-19.792,17.648-21.71,31.9c-0.896,6.665,1.302,12.378,5.499,17.422 c7.62,9.162,17.188,15.593,28.194,19.972c2.22,0.885,5.069,2.137,6.398-0.486c1.33-2.625-1.529-4.188-3.346-5.639 c-6.512-5.189-14.253-8.546-20.635-13.981c-10.378-8.844-11.743-17.098-4.146-28.538c7.217-10.862,17.464-18.491,28.118-25.589 c8.144-5.426,16.324-10.827,25.159-15.118C341.379,151.168,342.004,150.813,341.963,149.722z" clip-rule="evenodd"/><g id="eyes"><path id="eye-lt" fill="#CCC" d="M560.796,246.857c4.295,10.202-3.163,14.142-10.755,13.313 c-0.651,1.411-0.71,0.975-1.375,2.026c2.232,2.985,7.36,2.459,14.254-1.158c5.453-3.724,4.051-6.814,0-15.723"/><path id="eye-lt_1_" fill="#FFF" fill-rule="evenodd" d="M553.305,254.147 c0.413,0.444,0.654,0.856,2.193,0.394c1.381-0.426,2.16-0.814,2.11-2.007c-0.057-1.231,0.37-0.698-0.93-1.725l-2.19,2.173 L553.305,254.147z" clip-rule="evenodd"/><path id="eye-rt" fill="#CCC" d="M404.518,270.976c5.097,5.014,5.827,8.709,13.312,10.804 c22.188-1.157,32.606-12.156,24.697-27.205c-1.269-2.414-8.641-1.392-12.35-2.416c-2.739,12.91-1.485,9.923-6.462,14.899 C423.006,267.766,419.632,271.849,404.518,270.976z"/><path id="eye-white-rt" fill="#FFF" fill-rule="evenodd" d="M415.499,252.777 c-3.106,0.549-6.002,1.295-6.323,4.992c-0.255,2.919,2.352,3.219,4.158,3.229c3.531,0.014,6.063-2.377,6.569-5.561 C420.374,252.475,416.777,254.059,415.499,252.777z" clip-rule="evenodd"/><path id="eyebrow" fill-rule="evenodd" d="M352.924,173.267c13.249,2.974,25.35,6.591,36.794,11.986 c31.197,14.703,59.078,34.192,83.697,58.371c7.646,7.509,15.55,14.76,23.422,22.032c1.294,1.192,2.599,3.905,4.93,1.584 c2.006-2.002,0.071-3.749-1.007-5.34c-5.447-8.045-12.735-14.41-19.887-20.782c-14.185-12.643-27.886-25.84-44.461-35.627 c-24.074-14.22-48.423-27.56-76.331-32.755C357.978,172.343,355.942,171.637,352.924,173.267z" clip-rule="evenodd"/><path id="eye-white-lt" fill="#FFF" fill-rule="evenodd" d="M574.028,234.226 c-2.117,1.982-4.789,4.176-7.075,6.718c-2.043,2.272,1.111,2.911,1.899,4.16c2.634,4.177,3.871,6.898,4.053,12.443 c0.157,4.866-10.058,6.599-7.364,7.486c2.068,0.684,9.998-2.975,10.867-4.386c3.142-5.092,5.505-10.432,5.343-16.582 C581.65,240.179,577.601,234.515,574.028,234.226z" clip-rule="evenodd"/><path id="eyebrow_1_" fill-rule="evenodd" d="M510.761,175.585c1.162,10.86,4.907,21.229,5.467,32.637 c-25.024-40.263-60.211-65.541-107.454-74.922c2.063,2.567,4.362,2.814,6.36,3.452c22.527,7.183,42.188,19.828,60.327,34.294 c16.102,12.836,27.815,30.001,38.03,47.95c0.274,0.48,0.534,0.996,0.91,1.387c1.562,1.624,1.807,5.449,4.7,4.596 c2.627-0.776,2.718-4.047,2.569-6.652C520.827,203.367,516.458,189.311,510.761,175.585z" clip-rule="evenodd"/></g><g id="Teeth"><path id="tooth_1_" fill="#FFF" fill-rule="evenodd" d="M496.338,419.358 c3.759-1.417,7.043-2.497,10.176-3.912c1.22-0.553,3.702-0.444,2.815-3.085c-0.665-1.994-0.773-3.983-3.866-4.399 c-7.165-0.967-7.145-1.23-8.398,5.82C496.784,415.364,496.643,416.966,496.338,419.358z" clip-rule="evenodd"/><path id="tooth" fill="#FFF" fill-rule="evenodd" d="M524.058,407.374 c-4.715-0.751-7.562,0.267-10.476,0.601c-1.561,0.177-2.556,0.539-1.528,2.34c0.565,0.989,0.5,2.68,2.546,1.568 C517.273,410.427,520.093,409.241,524.058,407.374z" clip-rule="evenodd"/><path id="tooth_2_" fill="#FFF" fill-rule="evenodd" d="M473.585,400.034 c3.247,7.611,8.045,13.453,11.805,19.906c0.806,1.375,1.822,1.66,3.193,1.446c1.614-0.242,2.56-0.962,2.818-2.798 c0.493-3.446,1.21-6.869,2.002-10.261c0.438-1.877-0.307-2.795-1.956-3.26C485.687,403.435,479.921,401.816,473.585,400.034z" clip-rule="evenodd"/></g><g id="Spikes"><path id="spike-accent" fill="#CCC" fill-rule="evenodd" d="M72.358,435.98 c-5.92-2.962-11.997-5.16-18.807-3.754C59.819,433.479,66.085,434.727,72.358,435.98z" clip-rule="evenodd"/><path id="Spike-accent" fill="#CCC" fill-rule="evenodd" d="M262.733,604.487 c9.066-9.063,13.819-19.444,19.874-29.054c-3.36,5.431-8.533,8.284-14.063,10.604c-5.656,2.364-8.867,5.766-6.289,12.358 C262.814,599.83,262.539,601.587,262.733,604.487z" clip-rule="evenodd"/><path id="spike-accent_1_" fill="#CCC" fill-rule="evenodd" d="M72.164,285.34 c12.224,9.735,24.55,19.136,35.76,29.88c0.792,0.756,1.936,2.595,2.871,0.532c0.679-1.492,3.152-3.402,0.299-5.202 c-2.179-1.375-4.395-2.719-6.692-3.89c-5.671-2.896-10.342-6.633-14.086-12.048C86.14,288.574,78.848,287.175,72.164,285.34z" clip-rule="evenodd"/><path id="spike-accent_2_" fill="#CCC" fill-rule="evenodd" d="M75.876,436.139 c7.466,2.183,14.98,3.568,22.09,6.344c2.379,0.927,3.043,0.199,3.428-2.312c0.773-5.082-1.597-8.342-5.205-11.316 c-2.053-1.696-3.518-1.923-5.458,0.248C86.851,433.443,82.551,437.206,75.876,436.139z" clip-rule="evenodd"/><path id="spike-accent_3_" fill="#CCC" fill-rule="evenodd" d="M374.009,619.536 c1.623-11.717,1.715-23.369,5.161-34.629c1.211-3.957-3.178-2.193-4.819-3.198c-1.655-1.008-2.317,0.304-2.055,2.312 c0.549,4.21-1.839,7.421-4.425,10.342c-2.564,2.894-2.965,5.386-0.254,8.573C371.628,607.656,374.009,613.201,374.009,619.536z" clip-rule="evenodd"/><path id="spike" fill="#CCC" fill-rule="evenodd" d="M475.132,602.389 c-2.019-8.139-5.307-14.538-8.809-20.543c-1.618-2.777-6.759-2.492-10.192-1.67c-3.044,0.733-5.74,2.9-9.187,4.754 C456.422,590.804,465.241,596.262,475.132,602.389z" clip-rule="evenodd"/><path id="spike-accent_4_" fill="#CCC" fill-rule="evenodd" d="M131.031,546.049 c6.064-0.75,10.93-4.31,16.328-6.402c6.693-2.597,13.133-6.019,19.996-7.955c4.676-1.315,5.332-3.269,3.862-7.148 c-1.347-3.555-2.262-7.823-7.683-4.549c-0.435,0.257-1.203,0.393-1.619,0.186c-7.665-3.758-8.506,1.753-9.307,6.959 c-0.619,4.042-2.771,6.773-6.285,8.52c-3.63,1.795-7.371,3.368-10.988,5.191C133.337,541.858,130.597,542.382,131.031,546.049z" clip-rule="evenodd"/><path id="spike_1_" fill="#FFF" fill-rule="evenodd" d="M132.238,223.796 c6.558,9.306,11.829,18.535,17.21,28.31c4.5-6.182,8.614-11.847,12.735-17.505c0.882-1.212,2.247-2.652-0.508-3.072 C151.85,230.026,142.567,226.436,132.238,223.796z" clip-rule="evenodd"/></g><g id="Chin"><path id="chin_accent_1_" fill-rule="evenodd" d="M536.127,465.734c-12.065,4.179-22.818,7.899-34.236,11.853 C510.078,480.3,530.467,473.408,536.127,465.734z" clip-rule="evenodd"/><path id="chin_accent" fill-rule="evenodd" d="M523.309,463.667c-5.865-0.555-10.843,2.054-16.025,3.972 C513.273,468.864,518.166,465.721,523.309,463.667z" clip-rule="evenodd"/></g><g id="whiskers"><path id="whisker_3_" fill-rule="evenodd" d="M601.716,336.935c-2.14,0.134-2.578,1.749-2.541,3.401 c0.04,1.962,0.121,4.286,2.747,4.585c2.45,0.281,2.884-1.647,3.052-3.572C605.185,338.957,603.872,337.677,601.716,336.935z" clip-rule="evenodd"/><path id="whisker_2_" fill-rule="evenodd" d="M469.776,366.219c0.5,2.51,2.167,3.85,4.613,3.903 c1.358,0.026,2.713-1.085,2.396-2.479c-0.539-2.36-2.517-3.645-4.818-3.983C470.31,363.416,469.862,364.781,469.776,366.219z" clip-rule="evenodd"/><path id="whisker_1_" fill-rule="evenodd" d="M513.397,353.178c-1.741-0.334-4.123-1.709-4.271,1.244 c-0.124,2.481,2.216,2.922,4.381,2.854c1.899-0.055,3.906-0.113,3.682-2.763C516.931,351.461,515.004,352.478,513.397,353.178z" clip-rule="evenodd"/><path id="whisker" fill-rule="evenodd" d="M539.568,344.506c0.437,1.905,1.994,2.505,3.646,2.423 c1.589-0.072,2.706-1.13,2.404-2.912c-0.246-1.475-0.908-3.057-2.722-2.596C541.45,341.787,539.712,342.378,539.568,344.506z" clip-rule="evenodd"/><path id="whishker" fill-rule="evenodd" d="M484.018,362.766c1.819,0.058,3.021-0.489,3.108-2.045 c0.121-2.058-1.231-2.947-3.141-3.048c-1.551-0.081-3.178-0.005-3.014,2.153C481.124,361.787,482.542,362.588,484.018,362.766z" clip-rule="evenodd"/><path id="whisker_4_" fill-rule="evenodd" d="M260.333,297.769c32.843-2.635,64.627,0.943,95.094,13.562 c2.899,1.198,5.75,2.512,8.649,3.71c0.809,0.335,1.818,0.876,2.533-0.07c0.874-1.15,0.161-2.187-0.76-2.823 c-2.115-1.466-4.193-3.141-6.547-4.093c-23.494-9.522-47.786-15.213-73.303-14.507c-7.548,0.208-15.168-0.278-22.557,1.967 C262.176,295.897,260.988,296.145,260.333,297.769z" clip-rule="evenodd"/><path id="whisker_5_" fill-rule="evenodd" d="M282.02,348.308c6.018-3.423,11.996-6.925,18.073-10.251 c9.93-5.438,20.494-9.005,31.758-10.443c2.059-0.263,4.003-0.197,5.992,0.418c2.352,0.727,4.722,0.342,5.598-2.103 c1.031-2.891-1.764-3.66-3.596-4.677c-3.589-1.993-7.587-1.552-11.395-1.211c-19.995,1.8-34.584,12.925-47.372,27.037 C281.391,347.489,281.703,347.9,282.02,348.308z" clip-rule="evenodd"/></g></g></svg>